<svg width="21" height="21" viewBox="0 0 21 21" fill="none" xmlns="http://www.w3.org/2000/svg">
<mask id="mask0_170_54" style="mask-type:luminance" maskUnits="userSpaceOnUse" x="0" y="0" width="21" height="21">
<path d="M0.351532 0.223389H20.2908V20.1626H0.351532V0.223389Z" fill="white"/>
</mask>
<g mask="url(#mask0_170_54)">
<path d="M3.9934 2.75865C3.92066 2.67033 3.93105 2.53525 4.02457 2.46252C4.11289 2.38979 4.24796 2.40537 4.3207 2.49369C4.39343 2.58201 4.37784 2.71708 4.28952 2.78982C4.24796 2.82099 4.20121 2.83657 4.15445 2.83657C4.0973 2.83657 4.03496 2.8106 3.9934 2.75865ZM4.30511 17.617C4.2116 17.5442 4.08172 17.5598 4.00898 17.6481C3.93625 17.7416 3.94664 17.8715 4.04015 17.9443C4.07652 17.9754 4.12328 17.991 4.17003 17.991C4.23238 17.991 4.29472 17.965 4.33628 17.9131C4.40902 17.8248 4.39343 17.6897 4.30511 17.617ZM5.09478 2.1612C5.13115 2.1612 5.17271 2.15081 5.20388 2.12483C5.30259 2.06249 5.33376 1.93261 5.27142 1.83909C5.20908 1.74038 5.0792 1.70921 4.98049 1.77156C4.88178 1.8339 4.8558 1.96378 4.91815 2.06249C4.95451 2.12483 5.02725 2.1612 5.09478 2.1612ZM2.72577 16.0012C2.65823 15.9077 2.52315 15.887 2.43483 15.9597C2.34132 16.0324 2.32573 16.1623 2.39327 16.2558C2.43483 16.3078 2.49718 16.3389 2.55952 16.3389C2.60628 16.3389 2.65303 16.3234 2.6894 16.2922C2.78291 16.2246 2.7985 16.0896 2.72577 16.0012ZM5.22466 18.2768C5.12595 18.2144 4.99607 18.2456 4.93373 18.3443C4.87139 18.443 4.89736 18.5729 4.99607 18.6352C5.03244 18.656 5.074 18.6664 5.11037 18.6664C5.17791 18.6664 5.24544 18.63 5.28701 18.5677C5.34935 18.469 5.31818 18.3391 5.22466 18.2768ZM3.17255 16.8533C3.08943 16.9312 3.08424 17.0663 3.16736 17.1494C3.20892 17.191 3.26087 17.2117 3.31802 17.2117C3.36997 17.2117 3.42192 17.1909 3.46349 17.1546C3.54661 17.0715 3.54661 16.9364 3.46868 16.8533C3.38556 16.7701 3.25568 16.7701 3.17255 16.8533ZM9.43279 0.685755C9.43798 0.685755 9.44837 0.685755 9.45357 0.685755C9.56786 0.675364 9.65618 0.571461 9.64579 0.457166C9.6354 0.342871 9.5315 0.254552 9.4172 0.264943C9.29771 0.275333 9.21459 0.379237 9.22498 0.493533C9.23537 0.602632 9.32369 0.685755 9.43279 0.685755ZM6.10785 1.60011C6.13383 1.60011 6.165 1.59492 6.19617 1.57933C6.30007 1.52738 6.34683 1.4027 6.29488 1.29879C6.24293 1.19489 6.11824 1.14813 6.01434 1.20008C5.91043 1.25203 5.86368 1.37672 5.91563 1.48062C5.95199 1.55336 6.02473 1.60011 6.10785 1.60011ZM8.35218 19.5496C8.24308 19.5236 8.12879 19.5963 8.10801 19.7106C8.08203 19.8249 8.15476 19.934 8.26906 19.96C8.28464 19.96 8.29503 19.9652 8.31062 19.9652C8.40933 19.9652 8.49765 19.8977 8.51843 19.7938C8.53921 19.6847 8.46648 19.5704 8.35218 19.5496ZM8.28984 0.857198C8.30543 0.857198 8.32101 0.857197 8.3314 0.852002C8.4457 0.831221 8.51843 0.716926 8.49765 0.602632C8.47167 0.488338 8.36257 0.415605 8.24828 0.44158C8.13398 0.467556 8.06125 0.576657 8.08723 0.690951C8.10801 0.78966 8.19113 0.857198 8.28984 0.857198ZM7.17806 1.16372C7.19884 1.16372 7.21963 1.15852 7.2456 1.15332C7.3547 1.11696 7.41185 0.997469 7.37548 0.883174C7.33912 0.774074 7.21962 0.716926 7.11053 0.753293C6.99623 0.78966 6.93908 0.90915 6.97545 1.01825C7.00662 1.10657 7.08974 1.16372 7.17806 1.16372ZM6.21175 18.8274C6.10785 18.7755 5.98316 18.8222 5.93121 18.9262C5.88445 19.0301 5.92602 19.1547 6.02992 19.2067C6.06109 19.2171 6.09226 19.2275 6.12344 19.2275C6.20136 19.2275 6.27929 19.1807 6.31046 19.1028C6.36242 18.9989 6.31566 18.8742 6.21175 18.8274ZM3.30243 3.61586C3.35958 3.61586 3.41153 3.59508 3.4531 3.55351C3.53622 3.47039 3.53622 3.33531 3.4479 3.25739C3.36478 3.17426 3.2349 3.17946 3.15177 3.26258C3.07384 3.34571 3.07384 3.47559 3.15697 3.55871C3.19853 3.60027 3.25048 3.61586 3.30243 3.61586ZM1.29189 6.46283C1.31786 6.47842 1.34903 6.48361 1.37501 6.48361C1.45813 6.48361 1.53606 6.43686 1.56723 6.35893C1.61399 6.24983 1.56723 6.12515 1.46333 6.07839C1.35423 6.03163 1.22954 6.08358 1.18279 6.18749C1.13603 6.29659 1.18279 6.41608 1.29189 6.46283ZM0.912636 7.55902C0.933416 7.56422 0.954197 7.56941 0.974978 7.56941C1.0633 7.56941 1.14642 7.50707 1.17759 7.41875C1.20876 7.30965 1.14642 7.19016 1.03732 7.1538C0.923027 7.12263 0.808732 7.18497 0.772365 7.29407C0.741194 7.40836 0.803536 7.52266 0.912636 7.55902ZM0.559361 9.83972C0.564556 9.83972 0.569751 9.83972 0.569751 9.83972C0.684045 9.83972 0.772364 9.7514 0.782755 9.6423C0.78795 9.52801 0.699631 9.4293 0.585337 9.41891C0.465847 9.41372 0.367138 9.50203 0.361943 9.61633C0.356747 9.73582 0.445067 9.83453 0.559361 9.83972ZM0.66846 8.68639C0.67885 8.69158 0.694437 8.69158 0.704827 8.69158C0.803536 8.69158 0.891855 8.61885 0.912636 8.52014C0.933416 8.40584 0.855488 8.29674 0.741193 8.27596C0.626899 8.25518 0.517799 8.33311 0.497018 8.4474C0.476238 8.5617 0.554165 8.6708 0.66846 8.68639ZM2.42444 4.45229C2.46081 4.47826 2.50757 4.49385 2.54913 4.49385C2.61147 4.49385 2.67381 4.46787 2.71537 4.41072C2.78811 4.31721 2.76733 4.18733 2.67901 4.1146C2.58549 4.04706 2.45561 4.06265 2.38288 4.15616C2.31015 4.24967 2.33093 4.37955 2.42444 4.45229ZM19.7972 9.05005C19.8128 9.15395 19.9011 9.23188 20.005 9.23188C20.0154 9.23188 20.0258 9.23188 20.031 9.23188C20.1453 9.2163 20.2284 9.11239 20.2181 8.9981C20.2025 8.8838 20.0986 8.80068 19.9843 8.81627C19.8648 8.82666 19.7868 8.93056 19.7972 9.05005ZM19.5998 7.93308C19.6206 8.03179 19.7089 8.09413 19.8024 8.09413C19.818 8.09413 19.8336 8.09413 19.8492 8.08894C19.9635 8.06296 20.031 7.94866 20.005 7.83437C19.9791 7.72527 19.8648 7.65254 19.7505 7.68371C19.6414 7.70968 19.5686 7.82398 19.5998 7.93308ZM1.79582 5.42379C1.83219 5.44457 1.86855 5.45496 1.90492 5.45496C1.97765 5.45496 2.04519 5.41859 2.08675 5.35106C2.1439 5.25235 2.11273 5.12247 2.00883 5.06013C1.91012 5.00298 1.78024 5.03415 1.72309 5.13805C1.66594 5.23676 1.69711 5.36664 1.79582 5.42379ZM1.80621 14.9882C1.7075 15.0453 1.67633 15.1752 1.73348 15.2739C1.77504 15.3415 1.84258 15.3778 1.91531 15.3778C1.95168 15.3778 1.98805 15.3674 2.01922 15.3518C2.12312 15.2895 2.15429 15.1596 2.09714 15.0609C2.0348 14.9622 1.90492 14.931 1.80621 14.9882ZM0.585337 10.9983C0.699631 10.9879 0.78795 10.8892 0.782755 10.7749C0.77756 10.6554 0.673656 10.5671 0.559361 10.5774C0.445067 10.5826 0.356747 10.6813 0.361943 10.8008C0.367138 10.9099 0.460653 10.9983 0.574947 10.9983C0.574947 10.9983 0.580141 10.9983 0.585337 10.9983ZM1.30228 13.9491C1.19318 13.9959 1.14642 14.1206 1.19318 14.2245C1.22435 14.3076 1.30228 14.3544 1.3854 14.3544C1.41138 14.3544 1.44255 14.344 1.46852 14.3336C1.57762 14.2868 1.62438 14.1621 1.57762 14.0582C1.53087 13.9491 1.40618 13.9024 1.30228 13.9491ZM1.18279 12.9984C1.14642 12.8841 1.03212 12.8218 0.917831 12.8581C0.80873 12.8893 0.746388 13.0088 0.77756 13.1179C0.808731 13.2114 0.891855 13.2686 0.980173 13.2686C1.00096 13.2686 1.02173 13.2634 1.04252 13.2582C1.15162 13.227 1.21396 13.1075 1.18279 12.9984ZM0.917831 11.897C0.897049 11.7827 0.78795 11.7048 0.673656 11.7256C0.55936 11.7464 0.481431 11.8555 0.502214 11.9698C0.522993 12.0737 0.611313 12.1464 0.710022 12.1464C0.720412 12.1464 0.735999 12.1412 0.746389 12.1412C0.860684 12.1204 0.93861 12.0113 0.917831 11.897ZM7.26119 19.2483C7.15209 19.2119 7.0326 19.2742 6.99623 19.3833C6.95986 19.4924 7.01701 19.6119 7.12611 19.6483C7.15209 19.6535 7.17287 19.6587 7.19365 19.6587C7.28197 19.6587 7.36509 19.6015 7.39626 19.5184C7.43263 19.4041 7.37029 19.2898 7.26119 19.2483ZM16.8931 3.19504C16.9503 3.19504 17.0074 3.16907 17.049 3.12751C17.1269 3.03919 17.1217 2.90931 17.0334 2.83138C16.9503 2.75345 16.8152 2.75865 16.7373 2.84177C16.6593 2.93009 16.6645 3.05997 16.7528 3.1379C16.7892 3.17426 16.8412 3.19504 16.8931 3.19504ZM18.4049 4.94064C18.4413 4.94064 18.4829 4.93024 18.5192 4.90427C18.6179 4.83673 18.6439 4.70685 18.5764 4.61334C18.514 4.51463 18.3789 4.48865 18.2854 4.55619C18.1867 4.61853 18.1659 4.75361 18.2283 4.84712C18.2698 4.90946 18.3374 4.94064 18.4049 4.94064ZM18.5296 15.4765C18.4361 15.409 18.3062 15.435 18.2387 15.5337C18.1763 15.6272 18.1971 15.7623 18.2958 15.8246C18.3322 15.8506 18.3738 15.861 18.4153 15.861C18.4828 15.861 18.5452 15.8298 18.5868 15.7675C18.6543 15.6739 18.6283 15.5389 18.5296 15.4765ZM16.7632 17.2429C16.6801 17.3208 16.6749 17.4559 16.7528 17.539C16.7944 17.5858 16.8516 17.6118 16.9035 17.6118C16.9555 17.6118 17.0074 17.591 17.049 17.5546C17.1321 17.4767 17.1373 17.3416 17.0594 17.2585C16.9814 17.1702 16.8516 17.165 16.7632 17.2429ZM17.6984 4.02108C17.7503 4.02108 17.7971 4.0055 17.8386 3.96913C17.927 3.8964 17.9322 3.76132 17.8594 3.673C17.7815 3.58468 17.6516 3.57949 17.5633 3.65222C17.475 3.73015 17.4646 3.86003 17.5425 3.94835C17.5841 4.0003 17.6412 4.02108 17.6984 4.02108ZM18.992 5.93292C19.0283 5.93292 19.0595 5.92773 19.0907 5.91214C19.1946 5.85499 19.2362 5.73031 19.179 5.6264C19.1271 5.5225 19.0024 5.48094 18.8985 5.53809C18.7946 5.59004 18.753 5.71472 18.805 5.81863C18.8465 5.89136 18.9192 5.93292 18.992 5.93292ZM17.5529 16.4324C17.475 16.5208 17.4854 16.6506 17.5737 16.7286C17.6152 16.7649 17.662 16.7805 17.714 16.7805C17.7711 16.7805 17.8283 16.7546 17.8698 16.7078C17.9477 16.6195 17.9374 16.4844 17.849 16.4117C17.7607 16.3337 17.6256 16.3441 17.5529 16.4324ZM20.0362 11.1437C19.9167 11.1281 19.8128 11.2113 19.8024 11.3256C19.7868 11.445 19.87 11.5489 19.9843 11.5593C19.9947 11.5593 19.9999 11.5645 20.0102 11.5645C20.1141 11.5645 20.2077 11.4814 20.2181 11.3775C20.2336 11.2632 20.1505 11.1593 20.0362 11.1437ZM19.1011 14.4687C18.9972 14.4167 18.8673 14.4583 18.8153 14.557C18.7634 14.6609 18.805 14.7908 18.9089 14.8427C18.9348 14.8583 18.9712 14.8635 19.0024 14.8635C19.0803 14.8635 19.153 14.8219 19.1894 14.7492C19.2414 14.6505 19.1998 14.5206 19.1011 14.4687ZM19.8544 12.2867C19.7453 12.2607 19.631 12.3282 19.5998 12.4425C19.5738 12.5516 19.6466 12.6659 19.7557 12.6971C19.7713 12.6971 19.792 12.7023 19.8076 12.7023C19.9011 12.7023 19.9895 12.6347 20.0102 12.5412C20.0362 12.4269 19.9687 12.3126 19.8544 12.2867ZM20.2856 10.1774C20.2856 10.0631 20.1921 9.96441 20.0778 9.96441C19.9583 9.9696 19.8648 10.0631 19.8648 10.1774V10.1982C19.8648 10.3125 19.9635 10.406 20.0778 10.406C20.1921 10.406 20.2856 10.3125 20.2856 10.1982C20.2856 10.193 20.2856 10.193 20.2856 10.1878C20.2856 10.1826 20.2856 10.1826 20.2856 10.1774ZM19.5427 13.3984C19.4336 13.3569 19.3141 13.414 19.2725 13.5231C19.231 13.6322 19.2881 13.7517 19.3972 13.7933C19.418 13.8037 19.444 13.8089 19.4699 13.8089C19.5531 13.8089 19.6362 13.7569 19.6674 13.6686C19.7089 13.5595 19.6518 13.44 19.5427 13.3984ZM19.4647 6.99275C19.4855 6.99275 19.5115 6.98755 19.5375 6.97716C19.6466 6.9356 19.6985 6.81611 19.657 6.70701C19.6206 6.59791 19.4959 6.54076 19.3868 6.58232C19.2777 6.62389 19.2258 6.74337 19.2673 6.85247C19.2985 6.94079 19.3764 6.99275 19.4647 6.99275ZM13.8903 1.34035C13.9163 1.35074 13.9422 1.35594 13.9682 1.35594C14.0513 1.35594 14.1345 1.30399 14.1656 1.22086C14.2072 1.11696 14.1552 0.992273 14.0513 0.950711C13.9422 0.903955 13.8175 0.955907 13.776 1.06501C13.7292 1.17411 13.7812 1.2936 13.8903 1.34035ZM11.7291 19.6431C11.6148 19.6639 11.5368 19.7678 11.5524 19.8821C11.568 19.986 11.6615 20.0639 11.7602 20.0639C11.7706 20.0639 11.781 20.0639 11.7914 20.0587C11.9057 20.0431 11.9888 19.9392 11.9681 19.8197C11.9525 19.7054 11.8486 19.6275 11.7291 19.6431ZM12.8201 0.976687C12.8357 0.981882 12.8564 0.987078 12.872 0.987078C12.9655 0.987078 13.0487 0.924735 13.0746 0.831221C13.1058 0.716926 13.0435 0.602631 12.9292 0.571461C12.8149 0.540289 12.7006 0.607827 12.6694 0.722122C12.6382 0.831221 12.7058 0.945517 12.8201 0.976687ZM11.7135 0.748098C11.7239 0.748098 11.7343 0.748098 11.7395 0.748098C11.8434 0.748098 11.9317 0.675364 11.9473 0.571461C11.9681 0.457165 11.8849 0.348067 11.7706 0.332481C11.6563 0.316895 11.5524 0.394824 11.5317 0.509118C11.5161 0.623414 11.594 0.732512 11.7135 0.748098ZM12.8408 19.4145C12.7266 19.4405 12.659 19.56 12.6902 19.6691C12.7162 19.7626 12.7993 19.8249 12.8928 19.8249C12.9136 19.8249 12.9292 19.8249 12.9499 19.8197C13.059 19.7886 13.1266 19.6743 13.0954 19.56C13.0642 19.4457 12.9499 19.3833 12.8408 19.4145ZM10.6069 19.747C10.4874 19.747 10.3991 19.8457 10.3991 19.96C10.4043 20.0743 10.4978 20.1626 10.6121 20.1626H10.6173C10.7316 20.1626 10.8251 20.0639 10.8199 19.9496C10.8199 19.8301 10.7212 19.7418 10.6069 19.747ZM10.5861 0.649389H10.5913C10.7056 0.649389 10.7991 0.56107 10.7991 0.446776C10.8043 0.33248 10.7108 0.233772 10.5965 0.228577C10.477 0.228577 10.3835 0.316895 10.3783 0.436385C10.3783 0.550679 10.4666 0.649389 10.5861 0.649389ZM13.9111 19.0508C13.802 19.0924 13.75 19.2171 13.7968 19.3262C13.8279 19.4041 13.9059 19.4561 13.989 19.4561C14.015 19.4561 14.0409 19.4509 14.0669 19.4405C14.176 19.3937 14.228 19.2742 14.1864 19.1651C14.1397 19.056 14.0202 19.0041 13.9111 19.0508ZM14.9293 18.5625C14.8306 18.6196 14.7942 18.7443 14.8462 18.8482C14.8878 18.9158 14.9605 18.9573 15.0332 18.9573C15.0644 18.9573 15.1008 18.9469 15.1319 18.9313C15.2358 18.8742 15.2722 18.7443 15.2151 18.6456C15.1579 18.5417 15.0332 18.5053 14.9293 18.5625ZM9.47435 19.7106C9.36005 19.7002 9.25615 19.7886 9.24576 19.9029C9.23537 20.0171 9.31849 20.121 9.43798 20.1314C9.44318 20.1314 9.44837 20.1314 9.45357 20.1314C9.56267 20.1314 9.65618 20.0483 9.66657 19.9392C9.67696 19.8249 9.58864 19.721 9.47435 19.7106ZM15.8697 2.42615C15.906 2.45213 15.9528 2.46771 15.9943 2.46771C16.0567 2.46771 16.1242 2.43654 16.1658 2.3794C16.2333 2.28588 16.2125 2.156 16.1138 2.08327C16.0203 2.01573 15.8904 2.04171 15.8229 2.13522C15.7554 2.22873 15.7761 2.35861 15.8697 2.42615ZM14.9137 1.82351C14.9449 1.84429 14.9813 1.84948 15.0176 1.84948C15.0904 1.84948 15.1631 1.81312 15.1995 1.74038C15.2566 1.64167 15.2203 1.51179 15.1164 1.45465C15.0124 1.3975 14.8878 1.43906 14.8306 1.53777C14.7735 1.64167 14.8098 1.76636 14.9137 1.82351ZM15.8852 17.9598C15.7917 18.0274 15.7709 18.1573 15.8385 18.2508C15.88 18.3079 15.9424 18.3391 16.0099 18.3391C16.0515 18.3391 16.0931 18.3235 16.1294 18.2975C16.2229 18.23 16.2489 18.1001 16.1814 18.0066C16.1138 17.9131 15.9788 17.8871 15.8852 17.9598Z" fill="#07664D"/>
</g>
<mask id="mask1_170_54" style="mask-type:luminance" maskUnits="userSpaceOnUse" x="1" y="1" width="18" height="18">
<path d="M1.55682 1.42871H18.6595V18.5314H1.55682V1.42871Z" fill="white"/>
</mask>
<g mask="url(#mask1_170_54)">
<mask id="mask2_170_54" style="mask-type:luminance" maskUnits="userSpaceOnUse" x="1" y="1" width="18" height="18">
<path d="M10.1081 1.42871C5.3857 1.42871 1.55682 5.25758 1.55682 9.98003C1.55682 14.7025 5.3857 18.5314 10.1081 18.5314C14.8306 18.5314 18.6595 14.7025 18.6595 9.98003C18.6595 5.25758 14.8306 1.42871 10.1081 1.42871Z" fill="white"/>
</mask>
<g mask="url(#mask2_170_54)">
<path d="M1.55682 1.42871H18.6595V18.5314H1.55682V1.42871Z" fill="#07664D"/>
</g>
</g>
<mask id="mask3_170_54" style="mask-type:luminance" maskUnits="userSpaceOnUse" x="4" y="5" width="12" height="10">
<path d="M4.52328 5.51208H15.4904V14.4842H4.52328V5.51208Z" fill="white"/>
</mask>
<g mask="url(#mask3_170_54)">
<path d="M14.9397 7.02389H12.6434L12.5655 6.45761L12.5083 6.07317C12.4824 5.91731 12.4044 5.78743 12.2797 5.67833C12.1499 5.56923 12.0148 5.51208 11.8693 5.51208H8.12876C7.9833 5.51208 7.84303 5.56923 7.71834 5.67833C7.59366 5.79263 7.52612 5.92251 7.50534 6.07317L7.443 6.45761L7.35987 7.02389H5.07398C4.76746 7.02389 4.52328 7.27846 4.52328 7.58498V13.9127C4.52328 14.2297 4.76746 14.4842 5.07398 14.4842H14.9397C15.2462 14.4842 15.4904 14.2297 15.4904 13.9127V7.58498C15.4904 7.27846 15.2462 7.02389 14.9397 7.02389ZM14.8306 13.7933H5.18308V7.70966H7.35987C7.68717 7.70966 7.97291 7.4551 8.01966 7.1278L8.0924 6.55632L8.15474 6.20305H11.8537L11.9109 6.55632L11.994 7.1278C12.0408 7.4551 12.3265 7.70966 12.6434 7.70966H14.8306V13.7933Z" fill="white"/>
</g>
<path d="M13.7656 9.33059C14.0513 9.33059 14.2903 9.07602 14.2903 8.7747C14.2903 8.47338 14.0565 8.21881 13.7656 8.21881C13.4747 8.21881 13.2409 8.47338 13.2409 8.7747C13.2409 9.07602 13.4799 9.33059 13.7656 9.33059Z" fill="white"/>
<path d="M9.99904 7.88635C9.32367 7.88635 8.7418 8.14092 8.25345 8.64485C7.7703 9.14879 7.52612 9.75663 7.52612 10.458C7.52612 11.1593 7.7703 11.7672 8.25345 12.2711C8.7418 12.7699 9.32367 13.0088 9.99904 13.0192C11.3342 13.04 12.4876 11.8347 12.472 10.458C12.4616 9.75143 12.2278 9.14879 11.7394 8.64485C11.2563 8.14092 10.6796 7.88635 9.99904 7.88635ZM11.2771 11.7932C10.9238 12.1568 10.4978 12.3387 9.99904 12.3387C9.5055 12.3387 9.07949 12.1568 8.72622 11.7932C8.37294 11.4243 8.2015 10.9775 8.2015 10.458C8.2015 9.94366 8.37294 9.49687 8.72622 9.12801C9.07949 8.76434 9.5055 8.57732 9.99904 8.57732C10.4978 8.57732 10.9238 8.76434 11.2771 9.12801C11.6303 9.49687 11.807 9.94366 11.807 10.458C11.807 10.9775 11.6303 11.4243 11.2771 11.7932Z" fill="white"/>
</svg>
