<svg width="21" height="21" viewBox="0 0 21 21" fill="none" xmlns="http://www.w3.org/2000/svg">
<mask id="mask0_167_47" style="mask-type:luminance" maskUnits="userSpaceOnUse" x="0" y="0" width="21" height="21">
<path d="M0.351532 0.883057H20.2908V20.8223H0.351532V0.883057Z" fill="white"/>
</mask>
<g mask="url(#mask0_167_47)">
<path d="M3.9934 3.41837C3.92066 3.33006 3.93105 3.19498 4.02457 3.12225C4.11289 3.04951 4.24796 3.0599 4.3207 3.15342C4.39343 3.24174 4.37784 3.37681 4.28952 3.44955C4.24796 3.48072 4.20121 3.4963 4.15445 3.4963C4.0973 3.4963 4.03496 3.47033 3.9934 3.41837ZM4.30511 18.2767C4.2116 18.204 4.08172 18.2195 4.00898 18.3079C3.93625 18.4014 3.94664 18.5313 4.04015 18.604C4.07652 18.6352 4.12328 18.6507 4.17003 18.6507C4.23238 18.6507 4.29472 18.6248 4.33628 18.5728C4.40902 18.4845 4.39343 18.3494 4.30511 18.2767ZM5.09478 2.82093C5.13115 2.82093 5.17271 2.81053 5.20388 2.78456C5.30259 2.72222 5.33376 2.59234 5.27142 2.49882C5.20908 2.40011 5.0792 2.36894 4.98049 2.43128C4.88178 2.49363 4.8558 2.62351 4.91815 2.72222C4.95451 2.78456 5.02725 2.82093 5.09478 2.82093ZM2.72577 16.661C2.65823 16.5675 2.52315 16.5467 2.43483 16.6194C2.34132 16.6921 2.32573 16.822 2.39327 16.9155C2.43483 16.9675 2.49718 16.9987 2.55952 16.9987C2.60628 16.9987 2.65303 16.9831 2.6894 16.9519C2.78291 16.8844 2.7985 16.7493 2.72577 16.6558V16.661ZM5.22466 18.9365C5.12595 18.8741 4.99607 18.9053 4.93373 19.004C4.87139 19.1027 4.89736 19.2326 4.99607 19.2949C5.03244 19.3157 5.074 19.3261 5.11037 19.3261C5.17791 19.3261 5.24544 19.2898 5.28701 19.2274C5.34935 19.1287 5.31818 18.9988 5.22466 18.9365ZM3.17255 17.5078C3.08943 17.5909 3.08424 17.726 3.16736 17.8091C3.20892 17.8507 3.26087 17.8715 3.31802 17.8715C3.36997 17.8715 3.42192 17.8507 3.46349 17.8143C3.54661 17.7312 3.54661 17.5961 3.46868 17.513C3.38556 17.4299 3.25568 17.4299 3.17255 17.5078ZM9.43279 1.34548C9.43798 1.34548 9.44837 1.34548 9.45357 1.34548C9.56786 1.33509 9.65618 1.23119 9.64579 1.1169C9.6354 1.0026 9.5315 0.914282 9.4172 0.924672C9.29771 0.935063 9.21459 1.03897 9.22498 1.15326C9.23537 1.26236 9.32369 1.34548 9.43279 1.34548ZM6.10785 2.25984C6.13383 2.25984 6.165 2.25465 6.19617 2.23906C6.30007 2.18711 6.34683 2.06242 6.29488 1.95852C6.24293 1.85462 6.11824 1.80786 6.01434 1.85981C5.91043 1.91176 5.86368 2.03645 5.91563 2.14035C5.95199 2.21308 6.02473 2.25984 6.10785 2.25984ZM8.35218 20.2041C8.24308 20.1833 8.12879 20.2561 8.10801 20.3704C8.08203 20.4847 8.15476 20.5938 8.26906 20.6197C8.28464 20.6197 8.29503 20.6249 8.31062 20.6249C8.40933 20.6249 8.49765 20.5522 8.51843 20.4535C8.53921 20.3444 8.46648 20.2301 8.35218 20.2041ZM8.28984 1.51693C8.30543 1.51693 8.32101 1.51693 8.3314 1.51173C8.4457 1.49095 8.51843 1.37666 8.49765 1.26236C8.47167 1.14807 8.36257 1.07533 8.24828 1.10131C8.13398 1.12209 8.06125 1.23638 8.08723 1.35068C8.10801 1.44939 8.19113 1.51693 8.28984 1.51693ZM7.17806 1.82344C7.19884 1.82344 7.21963 1.81825 7.2456 1.81305C7.3547 1.77149 7.41185 1.6572 7.37548 1.5429C7.33912 1.4338 7.21962 1.37666 7.11053 1.41302C6.99623 1.44939 6.93908 1.56888 6.97545 1.67798C7.00662 1.7663 7.08974 1.82344 7.17806 1.82344ZM6.21175 19.4872C6.10785 19.4352 5.98316 19.4768 5.93121 19.5859C5.88445 19.6898 5.92602 19.8145 6.02992 19.8664C6.06109 19.8768 6.09226 19.8872 6.12344 19.8872C6.20136 19.8872 6.27929 19.8404 6.31046 19.7625C6.36242 19.6586 6.31566 19.5339 6.21175 19.4872ZM3.30243 4.27559C3.35958 4.27559 3.41153 4.2548 3.4531 4.21324C3.53622 4.13012 3.53622 3.99504 3.4479 3.91712C3.36478 3.83399 3.2349 3.83919 3.15177 3.92231C3.07384 4.00543 3.07384 4.13531 3.15697 4.21844C3.19853 4.2548 3.25048 4.27559 3.30243 4.27559ZM1.29189 7.12256C1.31786 7.13815 1.34903 7.14334 1.37501 7.14334C1.45813 7.14334 1.53606 7.09659 1.56723 7.01866C1.61399 6.90956 1.56723 6.78487 1.46333 6.73812C1.35423 6.69136 1.22954 6.74331 1.18279 6.84722C1.13603 6.95112 1.18279 7.07581 1.29189 7.12256ZM0.912636 8.21875C0.933416 8.22395 0.954197 8.22914 0.974978 8.22914C1.0633 8.22914 1.14642 8.1668 1.17759 8.07848C1.20876 7.96938 1.14642 7.84989 1.03732 7.81353C0.923027 7.78235 0.808732 7.8447 0.772365 7.9538C0.741194 8.06809 0.803536 8.18239 0.912636 8.21875ZM0.559361 10.4995C0.564556 10.4995 0.569751 10.4995 0.569751 10.4995C0.684045 10.4995 0.772364 10.4111 0.782755 10.302C0.78795 10.1877 0.699631 10.0838 0.585337 10.0786C0.465847 10.0734 0.367138 10.1618 0.361943 10.2761C0.356747 10.3955 0.445067 10.4943 0.559361 10.4995ZM0.66846 9.34611C0.67885 9.35131 0.694437 9.35131 0.704827 9.35131C0.803536 9.35131 0.891855 9.27857 0.912636 9.17987C0.933416 9.06557 0.855488 8.95647 0.741193 8.93569C0.626899 8.91491 0.517799 8.99284 0.497018 9.10194C0.476238 9.22143 0.554165 9.33053 0.66846 9.34611ZM2.42444 5.11201C2.46081 5.13799 2.50757 5.15358 2.54913 5.15358C2.61147 5.15358 2.67381 5.1224 2.71537 5.07045C2.78811 4.97694 2.76733 4.84706 2.67901 4.77433C2.58549 4.70679 2.45561 4.72237 2.38288 4.81589C2.31015 4.9094 2.33093 5.03928 2.42444 5.11201ZM19.7972 9.70978C19.8128 9.81368 19.9011 9.89161 20.005 9.89161C20.0154 9.89161 20.0258 9.89161 20.031 9.89161C20.1453 9.87603 20.2284 9.77212 20.2181 9.65783C20.2025 9.54353 20.0986 9.46041 19.9843 9.47599C19.8648 9.48638 19.7868 9.59029 19.7972 9.70978ZM19.5998 8.59281C19.6206 8.69152 19.7089 8.75386 19.8024 8.75386C19.818 8.75386 19.8336 8.75386 19.8492 8.74866C19.9635 8.72269 20.031 8.60839 20.005 8.4941C19.9791 8.385 19.8648 8.31227 19.7505 8.33824C19.6414 8.36941 19.5686 8.48371 19.5998 8.59281ZM1.79582 6.08352C1.83219 6.1043 1.86855 6.11469 1.90492 6.11469C1.97765 6.11469 2.04519 6.07832 2.08675 6.01079C2.1439 5.91208 2.11273 5.7822 2.00883 5.71985C1.91012 5.66271 1.78024 5.69388 1.72309 5.79778C1.66594 5.89649 1.69711 6.02637 1.79582 6.08352ZM1.80621 15.6479C1.7075 15.7051 1.67633 15.8349 1.73348 15.9336C1.77504 16.0012 1.84258 16.0375 1.91531 16.0375C1.95168 16.0375 1.98805 16.0272 2.01922 16.0116C2.12312 15.9492 2.15429 15.8194 2.09714 15.7206C2.0348 15.6219 1.90492 15.5908 1.80621 15.6479ZM0.585337 11.658C0.699631 11.6476 0.78795 11.5489 0.782755 11.4346C0.77756 11.3151 0.673656 11.2268 0.559361 11.2372C0.445067 11.2424 0.356747 11.3411 0.361943 11.4606C0.367138 11.5697 0.460653 11.658 0.574947 11.658C0.574947 11.658 0.580141 11.658 0.585337 11.658ZM1.30228 14.6089C1.19318 14.6556 1.14642 14.7803 1.19318 14.8842C1.22435 14.9621 1.30228 15.0089 1.3854 15.0089C1.41138 15.0089 1.44255 15.0037 1.46852 14.9933C1.57762 14.9466 1.62438 14.8219 1.57762 14.718C1.53087 14.6089 1.40618 14.5621 1.30228 14.6089ZM1.18279 13.6581C1.14642 13.5438 1.03212 13.4815 0.917831 13.5179C0.80873 13.549 0.746388 13.6685 0.77756 13.7776C0.808731 13.8711 0.891855 13.9283 0.980173 13.9283C1.00096 13.9283 1.02173 13.9231 1.04252 13.9179C1.15162 13.8867 1.21396 13.7672 1.18279 13.6581ZM0.917831 12.5568C0.897049 12.4425 0.78795 12.3645 0.673656 12.3853C0.55936 12.4061 0.481431 12.5152 0.502214 12.6295C0.522993 12.7334 0.611313 12.8061 0.710022 12.8061C0.720412 12.8061 0.735999 12.8009 0.746389 12.8009C0.860684 12.7802 0.93861 12.6711 0.917831 12.5568ZM7.26119 19.908C7.15209 19.8716 7.0326 19.934 6.99623 20.0431C6.95986 20.1522 7.01701 20.2716 7.12611 20.308C7.15209 20.3132 7.17287 20.3184 7.19365 20.3184C7.28197 20.3184 7.36509 20.2613 7.39626 20.1781C7.43263 20.0638 7.37029 19.9444 7.26119 19.908ZM16.8931 3.85477C16.9503 3.85477 17.0074 3.8288 17.049 3.78724C17.1269 3.69892 17.1217 3.56904 17.0334 3.48591C16.9503 3.40798 16.8152 3.41837 16.7373 3.5015C16.6593 3.58982 16.6645 3.7197 16.7528 3.79763C16.7892 3.83399 16.8412 3.85477 16.8931 3.85477ZM18.4049 5.60036C18.4413 5.60036 18.4829 5.58997 18.5192 5.564C18.6179 5.49646 18.6439 5.36658 18.5764 5.27307C18.514 5.17436 18.3789 5.14838 18.2854 5.21592C18.1867 5.27826 18.1659 5.40814 18.2283 5.50685C18.2698 5.56919 18.3374 5.60036 18.4049 5.60036ZM18.5296 16.1363C18.4361 16.0687 18.3062 16.0947 18.2387 16.1934C18.1763 16.2869 18.1971 16.4168 18.2958 16.4843C18.3322 16.5103 18.3738 16.5207 18.4153 16.5207C18.4828 16.5207 18.5452 16.4895 18.5868 16.4272C18.6543 16.3337 18.6283 16.1986 18.5296 16.1363ZM16.7632 17.9026C16.6801 17.9806 16.6749 18.1156 16.7528 18.1988C16.7944 18.2455 16.8516 18.2663 16.9035 18.2663C16.9555 18.2663 17.0074 18.2507 17.049 18.2143C17.1321 18.1364 17.1373 18.0013 17.0594 17.9182C16.9814 17.8299 16.8516 17.8247 16.7632 17.9026ZM17.6984 4.68081C17.7503 4.68081 17.7971 4.66523 17.8386 4.62886C17.927 4.55613 17.9322 4.42105 17.8594 4.33273C17.7815 4.24441 17.6516 4.23922 17.5633 4.31195C17.475 4.38988 17.4646 4.51976 17.5425 4.60808C17.5841 4.66003 17.6412 4.68081 17.6984 4.68081ZM18.992 6.59265C19.0283 6.59265 19.0595 6.58746 19.0907 6.57187C19.1946 6.51472 19.2362 6.39004 19.179 6.28613C19.1271 6.18223 19.0024 6.14067 18.8985 6.19781C18.7946 6.24977 18.753 6.37445 18.805 6.47836C18.8465 6.55109 18.9192 6.59265 18.992 6.59265ZM17.5529 17.0922C17.475 17.1805 17.4854 17.3104 17.5737 17.3883C17.6152 17.4247 17.662 17.4403 17.714 17.4403C17.7711 17.4403 17.8283 17.4143 17.8698 17.3675C17.9477 17.2792 17.9374 17.1441 17.849 17.0714C17.7607 16.9935 17.6256 17.0039 17.5529 17.0922ZM20.0362 11.8035C19.9167 11.7879 19.8128 11.871 19.8024 11.9853C19.7868 12.0996 19.87 12.2087 19.9843 12.2191C19.9947 12.2191 19.9999 12.2191 20.0102 12.2191C20.1141 12.2191 20.2077 12.1411 20.2181 12.0372C20.2336 11.9229 20.1505 11.8138 20.0362 11.8035ZM19.1011 15.1284C18.9972 15.0764 18.8673 15.1128 18.8153 15.2167C18.7634 15.3206 18.805 15.4505 18.9089 15.5024C18.9348 15.518 18.9712 15.5232 19.0024 15.5232C19.0803 15.5232 19.153 15.4817 19.1894 15.4089C19.2414 15.305 19.1998 15.1803 19.1011 15.1284ZM19.8544 12.9464C19.7453 12.9204 19.631 12.988 19.5998 13.1023C19.5738 13.2114 19.6466 13.3256 19.7557 13.3516C19.7713 13.3568 19.792 13.362 19.8076 13.362C19.9011 13.362 19.9895 13.2945 20.0102 13.201C20.0362 13.0867 19.9687 12.9724 19.8544 12.9464ZM20.2856 10.8371C20.2856 10.7177 20.1921 10.6241 20.0778 10.6241C19.9583 10.6293 19.8648 10.7228 19.8648 10.8371V10.8579C19.8648 10.9722 19.9635 11.0657 20.0778 11.0657C20.1921 11.0657 20.2856 10.9722 20.2856 10.8579C20.2856 10.8527 20.2856 10.8527 20.2856 10.8475C20.2856 10.8423 20.2856 10.8423 20.2856 10.8371ZM19.5427 14.0582C19.4336 14.0166 19.3141 14.0738 19.2725 14.1829C19.231 14.292 19.2881 14.4114 19.3972 14.453C19.418 14.4634 19.444 14.4686 19.4699 14.4686C19.5531 14.4686 19.6362 14.4166 19.6674 14.3283C19.7089 14.2192 19.6518 14.0997 19.5427 14.0582ZM19.4647 7.65247C19.4855 7.65247 19.5115 7.64728 19.5375 7.63689C19.6466 7.59533 19.6985 7.47584 19.657 7.36674C19.6206 7.25764 19.4959 7.20049 19.3868 7.24205C19.2777 7.28361 19.2258 7.4031 19.2673 7.5122C19.2985 7.59533 19.3764 7.65247 19.4647 7.65247ZM13.8903 2.00008C13.9163 2.01047 13.9422 2.01567 13.9682 2.01567C14.0513 2.01567 14.1345 1.96371 14.1656 1.88059C14.2072 1.77149 14.1552 1.652 14.0513 1.61044C13.9422 1.56368 13.8175 1.61564 13.776 1.72474C13.7292 1.83383 13.7812 1.95332 13.8903 2.00008ZM11.7291 20.3028C11.6148 20.3184 11.5368 20.4275 11.5524 20.5418C11.568 20.6457 11.6615 20.7236 11.7602 20.7236C11.7706 20.7236 11.781 20.7236 11.7914 20.7184C11.9057 20.7029 11.9888 20.5938 11.9681 20.4795C11.9525 20.3652 11.8486 20.2872 11.7291 20.3028ZM12.8201 1.63642C12.8357 1.64161 12.8564 1.64681 12.872 1.64681C12.9655 1.64681 13.0487 1.58446 13.0746 1.49095C13.1058 1.37666 13.0435 1.26236 12.9292 1.23119C12.8149 1.20002 12.7006 1.26756 12.6694 1.38185C12.6382 1.49095 12.7058 1.60525 12.8201 1.63642ZM11.7135 1.40783C11.7239 1.40783 11.7343 1.40783 11.7395 1.40783C11.8434 1.40783 11.9317 1.33509 11.9473 1.23119C11.9681 1.1169 11.8849 1.00779 11.7706 0.99221C11.6563 0.976624 11.5524 1.05455 11.5317 1.16885C11.5161 1.28314 11.594 1.39224 11.7135 1.40783ZM12.8408 20.0742C12.7266 20.1002 12.659 20.2197 12.6902 20.3288C12.7162 20.4223 12.7993 20.4847 12.8928 20.4847C12.9136 20.4847 12.9292 20.4847 12.9499 20.4795C13.059 20.4483 13.1266 20.3288 13.0954 20.2197C13.0642 20.1054 12.9499 20.0431 12.8408 20.0742ZM10.6069 20.4015C10.4874 20.4067 10.3991 20.5054 10.3991 20.6197C10.4043 20.734 10.4978 20.8223 10.6121 20.8223H10.6173C10.7316 20.8223 10.8251 20.7236 10.8199 20.6093C10.8199 20.4898 10.7212 20.4015 10.6069 20.4015ZM10.5861 1.30912H10.5913C10.7056 1.30912 10.7991 1.2208 10.7991 1.1065C10.8043 0.992211 10.7108 0.893502 10.5965 0.888306C10.477 0.888306 10.3835 0.976625 10.3783 1.09611C10.3783 1.21041 10.4666 1.30912 10.5861 1.30912ZM13.9111 19.7106C13.802 19.7521 13.75 19.8768 13.7968 19.9807C13.8279 20.0638 13.9059 20.1158 13.989 20.1158C14.015 20.1158 14.0409 20.1106 14.0669 20.1002C14.176 20.0534 14.228 19.934 14.1864 19.8249C14.1397 19.7158 14.0202 19.6638 13.9111 19.7106ZM14.9293 19.2222C14.8306 19.2794 14.7942 19.404 14.8462 19.508C14.8878 19.5755 14.9605 19.6171 15.0332 19.6171C15.0644 19.6171 15.1008 19.6067 15.1319 19.5911C15.2358 19.5339 15.2722 19.404 15.2151 19.3053C15.1579 19.2014 15.0332 19.1651 14.9293 19.2222ZM9.47435 20.3704C9.36005 20.36 9.25615 20.4483 9.24576 20.5626C9.23537 20.6769 9.31849 20.7808 9.43798 20.7912C9.44318 20.7912 9.44837 20.7912 9.45357 20.7912C9.56267 20.7912 9.65618 20.708 9.66657 20.5989C9.67696 20.4847 9.58864 20.3807 9.47435 20.3704ZM15.8697 3.08588C15.906 3.11186 15.9528 3.12744 15.9943 3.12744C16.0567 3.12744 16.1242 3.09627 16.1658 3.03912C16.2333 2.94561 16.2125 2.81053 16.1138 2.743C16.0203 2.67546 15.8904 2.70144 15.8229 2.79495C15.7554 2.88846 15.7761 3.01834 15.8697 3.08588ZM14.9137 2.48324C14.9449 2.49882 14.9813 2.50921 15.0176 2.50921C15.0904 2.50921 15.1631 2.47285 15.1995 2.40011C15.2566 2.3014 15.2203 2.17152 15.1164 2.11438C15.0124 2.05723 14.8878 2.09879 14.8306 2.1975C14.7735 2.3014 14.8098 2.42609 14.9137 2.48324ZM15.8852 18.6196C15.7917 18.6871 15.7709 18.817 15.8385 18.9105C15.88 18.9676 15.9424 18.9988 16.0099 18.9988C16.0515 18.9988 16.0931 18.9832 16.1294 18.9573C16.2229 18.8897 16.2489 18.7598 16.1814 18.6663C16.1138 18.5728 15.9788 18.5468 15.8852 18.6196Z" fill="#07664D"/>
</g>
<mask id="mask1_167_47" style="mask-type:luminance" maskUnits="userSpaceOnUse" x="1" y="2" width="18" height="18">
<path d="M1.55682 2.08838H18.6595V19.191H1.55682V2.08838Z" fill="white"/>
</mask>
<g mask="url(#mask1_167_47)">
<mask id="mask2_167_47" style="mask-type:luminance" maskUnits="userSpaceOnUse" x="1" y="2" width="18" height="18">
<path d="M10.1081 2.08838C5.3857 2.08838 1.55682 5.91725 1.55682 10.6397C1.55682 15.3622 5.3857 19.191 10.1081 19.191C14.8306 19.191 18.6595 15.3622 18.6595 10.6397C18.6595 5.91725 14.8306 2.08838 10.1081 2.08838Z" fill="white"/>
</mask>
<g mask="url(#mask2_167_47)">
<path d="M1.55682 2.08838H18.6595V19.191H1.55682V2.08838Z" fill="#07664D"/>
</g>
</g>
<mask id="mask3_167_47" style="mask-type:luminance" maskUnits="userSpaceOnUse" x="3" y="4" width="14" height="12">
<path d="M3.21411 4.42102H16.1762V15.3881H3.21411V4.42102Z" fill="white"/>
</mask>
<g mask="url(#mask3_167_47)">
<path fill-rule="evenodd" clip-rule="evenodd" d="M8.10799 11.8554C8.23268 11.8554 8.3106 11.9333 8.3106 12.0476C8.3106 12.1671 8.23268 12.245 8.10799 12.245H4.61681C4.49212 12.245 4.41419 12.1671 4.41419 12.0476C4.41419 11.9333 4.49212 11.8554 4.61681 11.8554H8.10799ZM6.93907 10.2241C7.05856 10.2241 7.14168 10.302 7.14168 10.4163C7.14168 10.5306 7.06895 10.6033 6.95985 10.6137H3.44269C3.3232 10.6137 3.24527 10.5358 3.24527 10.4163C3.24527 10.3072 3.31281 10.2345 3.4271 10.2241H6.93907ZM8.10799 8.59278C8.23268 8.59278 8.3106 8.67071 8.3106 8.7902C8.3106 8.89929 8.23787 8.97203 8.12877 8.98242H4.61681C4.49212 8.98242 4.41419 8.90449 4.41419 8.7902C4.41419 8.6759 4.48693 8.60317 4.59603 8.59278H8.10799ZM15.5995 8.29665C15.9476 8.95644 16.145 9.70455 16.145 10.4942C16.145 13.1957 13.8643 15.3881 11.0537 15.3881C9.70292 15.3881 8.43009 14.8842 7.46378 13.949C7.38066 13.8711 7.38066 13.7568 7.46378 13.6789C7.54171 13.601 7.6612 13.601 7.74433 13.6789C8.63271 14.5361 9.80163 14.9985 11.0537 14.9985C13.6409 14.9985 15.7398 12.9827 15.7398 10.4942C15.7398 9.81885 15.5787 9.17464 15.2982 8.59278L15.5995 8.29665ZM14.9761 8.91488C15.1943 9.40842 15.3189 9.94873 15.3189 10.515C15.3189 12.7697 13.4175 14.5932 11.0745 14.5932C10.2069 14.5932 9.38082 14.3387 8.67427 13.8711C8.57556 13.814 8.55478 13.6997 8.61193 13.601C8.67427 13.523 8.79376 13.5075 8.91844 13.5594C9.54187 13.9906 10.29 14.2036 11.0745 14.2036C13.1941 14.2036 14.9137 12.5515 14.9137 10.515C14.9137 10.0578 14.8254 9.62143 14.6695 9.2214L14.9761 8.91488ZM14.9241 7.22124C15.1059 7.19527 15.2826 7.28358 15.3605 7.44463C15.4384 7.60049 15.4073 7.78752 15.2774 7.90701C13.7916 9.34089 12.7161 10.4994 11.2147 11.9489C11.0589 12.0995 10.8147 12.1099 10.6433 11.9749L8.82493 10.4942C8.73661 10.4215 8.68466 10.3228 8.67427 10.2189C8.66388 10.1098 8.70024 10.0059 8.77298 9.92275C8.84571 9.83963 8.94962 9.78768 9.05871 9.77729C9.17301 9.77209 9.28211 9.80326 9.36523 9.876L10.8926 11.1125C12.2278 9.80846 13.2772 8.69149 14.6799 7.34073C14.7475 7.27319 14.8306 7.23163 14.9241 7.22124ZM11.0745 6.43676C12.1447 6.43676 13.1214 6.81601 13.8695 7.44463L13.5889 7.72518C12.9188 7.16409 12.0408 6.8264 11.0745 6.8264C10.2692 6.8264 9.47953 7.06019 8.83532 7.52256C8.73142 7.58491 8.61193 7.56413 8.55478 7.4862C8.49244 7.40827 8.51322 7.27319 8.59115 7.21605C9.31847 6.71211 10.1861 6.43676 11.0745 6.43676ZM11.9836 4.42102C12.1083 4.42102 12.1862 4.49895 12.1862 4.61324C12.1862 4.72234 12.1135 4.80027 12.0044 4.80547L11.9836 4.81066H11.2563V5.62111C12.446 5.66268 13.5162 6.08868 14.3578 6.78484L14.4098 6.8264L14.4462 6.86277L14.1656 7.14851C13.3292 6.44196 12.2382 6.01076 11.0537 6.01076C9.76526 6.01076 8.54958 6.51469 7.64562 7.42905C7.56249 7.50698 7.443 7.50698 7.35988 7.42905C7.28195 7.35112 7.28195 7.23683 7.35988 7.1589C8.27424 6.22376 9.47433 5.69904 10.7835 5.62631L10.8563 5.62111V4.81066H10.1497C10.025 4.81066 9.9471 4.73273 9.9471 4.61324C9.9471 4.50414 10.0198 4.43141 10.1289 4.42102H11.9836Z" fill="white"/>
</g>
</svg>
