<svg width="7" height="9" viewBox="0 0 7 9" fill="none" xmlns="http://www.w3.org/2000/svg">
<mask id="mask0_166_45" style="mask-type:luminance" maskUnits="userSpaceOnUse" x="0" y="0" width="4" height="9">
<path d="M0.301819 0.610474H3.60078V8.58513H0.301819V0.610474Z" fill="white"/>
</mask>
<g mask="url(#mask0_166_45)">
<path d="M3.04489 4.76663C2.25522 3.37951 2.30198 2.26254 2.47861 1.56638C2.56174 1.24428 2.7072 0.948149 2.84747 0.703974C2.86825 0.667607 2.84228 0.626046 2.80072 0.631241C1.38242 0.94815 0.301819 2.60542 0.301819 4.60038C0.301819 6.63171 1.42398 8.30977 2.88384 8.57992C2.89942 8.58511 2.91501 8.57992 2.9254 8.56433C3.1436 8.29938 4.21382 6.82393 3.04489 4.76663Z" fill="#D74654"/>
</g>
<mask id="mask1_166_45" style="mask-type:luminance" maskUnits="userSpaceOnUse" x="2" y="0" width="5" height="9">
<path d="M2.99292 0.610474H6.28669V8.56954H2.99292V0.610474Z" fill="white"/>
</mask>
<g mask="url(#mask1_166_45)">
<path d="M3.6735 0.610469C3.65791 0.605273 3.64233 0.61047 3.63194 0.626055C3.43452 0.87023 2.3695 2.35606 3.54881 4.43415C4.33329 5.82127 4.28653 6.93824 4.1099 7.6292C4.02677 7.95131 3.87611 8.25263 3.72545 8.4968C3.70467 8.53317 3.73065 8.57993 3.77221 8.56954C5.1957 8.26302 6.28669 6.60055 6.28669 4.60039C6.28669 2.54828 5.14374 0.859839 3.6735 0.610469Z" fill="#D74654"/>
</g>
</svg>
