<svg width="20" height="20" viewBox="0 0 20 20" fill="none" xmlns="http://www.w3.org/2000/svg">
<mask id="mask0_170_64" style="mask-type:luminance" maskUnits="userSpaceOnUse" x="0" y="0" width="20" height="20">
<path d="M0.0481873 0.0511475H19.9874V19.9904H0.0481873V0.0511475Z" fill="white"/>
</mask>
<g mask="url(#mask0_170_64)">
<path d="M3.69002 2.58123C3.61729 2.49291 3.62768 2.36303 3.72119 2.2903C3.72119 2.2903 3.72119 2.2903 3.72119 2.28511C3.80951 2.21237 3.94459 2.22796 4.01732 2.31628C4.09005 2.40979 4.07447 2.53967 3.98615 2.6124C3.94459 2.64358 3.89783 2.65916 3.85107 2.65916C3.78873 2.65916 3.73158 2.63319 3.69002 2.58123ZM3.99654 17.4447C3.90822 17.372 3.77834 17.3824 3.70561 17.4759C3.62768 17.5642 3.64327 17.6993 3.73678 17.772C3.77315 17.8032 3.8199 17.8188 3.86666 17.8188C3.929 17.8188 3.98615 17.7928 4.02771 17.7409C4.10044 17.6474 4.09005 17.5175 3.99654 17.4447ZM4.79141 1.98378C4.82777 1.98378 4.86933 1.97339 4.90051 1.95261C4.99922 1.89027 5.03039 1.76039 4.96804 1.66168C4.9057 1.56297 4.77582 1.53699 4.67711 1.59934C4.5784 1.66168 4.55243 1.79156 4.61477 1.88507C4.65114 1.95261 4.71867 1.98378 4.79141 1.98378ZM2.42239 15.8238C2.35485 15.7303 2.21978 15.7147 2.13146 15.7875C2.03794 15.855 2.02236 15.9849 2.0899 16.0784C2.13146 16.1355 2.1938 16.1615 2.25614 16.1615C2.3029 16.1615 2.34446 16.1459 2.38602 16.12C2.47954 16.0472 2.49512 15.9173 2.42239 15.8238ZM4.91609 18.1045C4.82258 18.0422 4.6927 18.0682 4.63036 18.1669C4.56801 18.2656 4.59399 18.3955 4.6927 18.4578C4.72906 18.4786 4.76543 18.4942 4.80699 18.4942C4.87453 18.4942 4.94207 18.4578 4.98363 18.3955C5.04597 18.2968 5.0148 18.1669 4.91609 18.1045ZM2.86918 16.6758C2.78086 16.759 2.78086 16.8889 2.86398 16.972C2.90554 17.0135 2.9575 17.0395 3.01464 17.0395C3.0666 17.0395 3.11855 17.0187 3.16011 16.9772C3.24323 16.894 3.24323 16.7642 3.16531 16.681C3.08218 16.5979 2.9523 16.5927 2.86918 16.6758ZM9.12941 0.513538C9.13461 0.513538 9.145 0.508343 9.15019 0.508343C9.26449 0.497953 9.34761 0.399244 9.33722 0.284948C9.32683 0.165459 9.22812 0.0823357 9.11383 0.0927254C8.99434 0.103117 8.91121 0.207021 8.9216 0.321315C8.93199 0.430415 9.02031 0.513538 9.12941 0.513538ZM5.79928 1.4227C5.83045 1.4227 5.86162 1.41751 5.89279 1.40192C5.9967 1.35516 6.03826 1.23048 5.9915 1.12138C5.93955 1.01747 5.81486 0.975912 5.71096 1.02267C5.60706 1.07462 5.5603 1.1993 5.61225 1.30321C5.64862 1.38114 5.72135 1.4227 5.79928 1.4227ZM8.04881 19.3722C7.93451 19.3514 7.82541 19.4241 7.79944 19.5332C7.77865 19.6475 7.85139 19.7618 7.96568 19.7826C7.97607 19.7878 7.99166 19.7878 8.00725 19.7878C8.10595 19.7878 8.19427 19.7202 8.21505 19.6215C8.23583 19.5072 8.1631 19.3981 8.04881 19.3722ZM7.98646 0.68498C8.00205 0.68498 8.01764 0.679785 8.02803 0.679785C8.14232 0.653808 8.21506 0.544708 8.19427 0.430414C8.1683 0.316119 8.0592 0.243385 7.9449 0.264167C7.83061 0.290143 7.75788 0.404437 7.77866 0.513538C7.80463 0.612246 7.88776 0.68498 7.98646 0.68498ZM6.86949 0.986302C6.89547 0.986302 6.91625 0.986302 6.93703 0.975912C7.05133 0.939545 7.10847 0.820055 7.07211 0.710956C7.03574 0.601857 6.91625 0.539514 6.80196 0.581076C6.69285 0.617441 6.63571 0.736931 6.67208 0.846031C6.70325 0.93435 6.78637 0.986302 6.86949 0.986302ZM5.90838 18.65C5.80448 18.5981 5.67979 18.6448 5.62784 18.7487C5.58108 18.8526 5.62264 18.9773 5.72655 19.0293C5.75772 19.0449 5.78889 19.0501 5.82006 19.0501C5.89799 19.0501 5.97072 19.0085 6.00709 18.9306C6.05904 18.8267 6.01228 18.702 5.90838 18.65ZM2.99906 3.44364C3.05621 3.44364 3.10816 3.42286 3.14972 3.3761C3.23284 3.29298 3.22765 3.1631 3.14452 3.07997C3.0614 3.00205 2.93152 3.00205 2.8484 3.08517C2.77047 3.16829 2.77047 3.30337 2.85359 3.3813C2.89515 3.42286 2.94711 3.44364 2.99906 3.44364ZM0.988511 6.29062C1.01449 6.30101 1.04566 6.3062 1.07163 6.3062C1.15476 6.3062 1.23269 6.25944 1.26386 6.18152C1.31061 6.07761 1.26386 5.95293 1.15476 5.90617C1.05085 5.85941 0.926169 5.90617 0.879411 6.01527C0.832655 6.11917 0.87941 6.24386 0.988511 6.29062ZM0.60926 7.38161C0.63004 7.392 0.650823 7.392 0.671603 7.392C0.759922 7.392 0.843045 7.33485 0.874216 7.24134C0.905388 7.13224 0.843045 7.01275 0.733945 6.98158C0.61965 6.94521 0.505355 7.01275 0.468989 7.12185C0.437817 7.23095 0.50016 7.35044 0.60926 7.38161ZM0.255986 9.66751C0.261182 9.66751 0.261181 9.66751 0.266376 9.66751C0.38067 9.66751 0.46899 9.57919 0.47938 9.46489C0.484576 9.3506 0.396255 9.25189 0.276766 9.24669C0.162471 9.2415 0.0637624 9.32982 0.0585675 9.44411C0.0533726 9.55841 0.141692 9.65711 0.255986 9.66751ZM0.365085 8.51417C0.375475 8.51417 0.391061 8.51936 0.401452 8.51936C0.50016 8.51936 0.588478 8.44663 0.60926 8.34273C0.63004 8.22843 0.552114 8.11933 0.437818 8.09855C0.323524 8.07777 0.214423 8.1557 0.193643 8.26999C0.172861 8.38429 0.25079 8.49339 0.365085 8.51417ZM2.11587 4.27487C2.15743 4.30604 2.199 4.31643 2.24575 4.31643C2.30809 4.31643 2.37044 4.29046 2.412 4.23851C2.48473 4.14499 2.46395 4.00992 2.37563 3.94238C2.28212 3.86965 2.14704 3.89043 2.07951 3.97875C2.00677 4.07226 2.02755 4.20734 2.11587 4.27487ZM19.4939 8.87264C19.5094 8.98174 19.5978 9.05966 19.7017 9.05966C19.7121 9.05966 19.7173 9.05966 19.7276 9.05966C19.8419 9.04408 19.9251 8.94018 19.9147 8.82069C19.8991 8.70639 19.7952 8.62846 19.6809 8.63885C19.5614 8.65444 19.4835 8.75834 19.4939 8.87264ZM19.2913 7.76086C19.3172 7.85438 19.4055 7.92191 19.4991 7.92191C19.5146 7.92191 19.5302 7.91672 19.5458 7.91672C19.6601 7.88555 19.7276 7.77645 19.7017 7.66215C19.6757 7.54786 19.5614 7.48032 19.4471 7.5063C19.3328 7.53227 19.2653 7.64657 19.2913 7.76086ZM1.49245 5.25157C1.52881 5.26716 1.56518 5.27755 1.60155 5.27755C1.67428 5.27755 1.74182 5.24118 1.78338 5.17365C1.84053 5.07494 1.80935 4.94506 1.70545 4.88791C1.60674 4.83076 1.47686 4.86193 1.41971 4.96064C1.36257 5.05935 1.39374 5.18923 1.49245 5.25157ZM1.50284 14.8108C1.40413 14.8731 1.36776 15.003 1.4301 15.1017C1.46647 15.1692 1.5392 15.2056 1.61194 15.2056C1.6483 15.2056 1.68467 15.1952 1.71584 15.1744C1.81455 15.1173 1.85092 14.9874 1.78857 14.8887C1.73143 14.7848 1.60155 14.7536 1.50284 14.8108ZM0.281962 10.8208C0.396256 10.8156 0.484576 10.7169 0.47938 10.5974C0.474185 10.4832 0.370281 10.3948 0.255986 10.4C0.141692 10.4104 0.0533726 10.5091 0.0585675 10.6234C0.0637624 10.7377 0.157277 10.8208 0.266376 10.8208C0.271571 10.8208 0.276767 10.8208 0.281962 10.8208ZM0.993706 13.7769C0.889802 13.8237 0.843045 13.9484 0.889802 14.0523C0.920972 14.1302 0.998901 14.177 1.08202 14.177C1.108 14.177 1.13917 14.1718 1.16515 14.1614C1.27425 14.1146 1.321 13.9899 1.27425 13.8808C1.22749 13.7769 1.10281 13.7302 0.993706 13.7769ZM0.879411 12.821C0.843046 12.7119 0.728749 12.6496 0.614455 12.6807C0.505355 12.7171 0.443014 12.8314 0.474185 12.9457C0.505355 13.034 0.588478 13.0963 0.676798 13.0963C0.697579 13.0963 0.71836 13.0912 0.739141 13.086C0.84824 13.0496 0.910583 12.9301 0.879411 12.821ZM0.60926 11.7248C0.593674 11.6105 0.47938 11.5326 0.37028 11.5534C0.255985 11.5741 0.178057 11.6832 0.198838 11.7975C0.214423 11.8963 0.302743 11.969 0.406647 11.969C0.417037 11.969 0.427427 11.969 0.443013 11.969C0.557307 11.9482 0.63004 11.8391 0.60926 11.7248ZM6.95781 19.076C6.84871 19.0397 6.72922 19.0968 6.69286 19.2059C6.65649 19.315 6.71364 19.4345 6.82274 19.4761C6.84871 19.4813 6.86949 19.4865 6.89027 19.4865C6.97859 19.4865 7.06172 19.4293 7.08769 19.341C7.12925 19.2319 7.06691 19.1124 6.95781 19.076ZM16.5897 3.01763C16.6469 3.01763 16.704 2.99685 16.7456 2.95009C16.8235 2.86697 16.8183 2.73189 16.73 2.65397C16.6417 2.57604 16.5118 2.58123 16.4339 2.66955C16.356 2.75268 16.3611 2.88775 16.4495 2.96568C16.4858 3.00204 16.5378 3.01763 16.5897 3.01763ZM18.1015 4.76322C18.1379 4.76322 18.1795 4.75283 18.2158 4.72686C18.3146 4.66451 18.3405 4.53463 18.273 4.43592C18.2106 4.34241 18.0756 4.31643 17.9821 4.37878C17.8833 4.44631 17.8626 4.57619 17.9249 4.6749C17.9665 4.73205 18.034 4.76322 18.1015 4.76322ZM18.2262 15.2991C18.1327 15.2368 18.0028 15.2627 17.9353 15.3563C17.873 15.455 17.8937 15.5849 17.9924 15.6524C18.0288 15.6732 18.0704 15.6836 18.1119 15.6836C18.1743 15.6836 18.2418 15.6524 18.2834 15.5952C18.3509 15.4965 18.3249 15.3667 18.2262 15.2991ZM16.4599 17.0707C16.3715 17.1486 16.3663 17.2785 16.4495 17.3668C16.4858 17.4136 16.543 17.4343 16.6001 17.4343C16.6521 17.4343 16.704 17.4188 16.7456 17.3772C16.8287 17.2993 16.8339 17.1694 16.756 17.0811C16.6781 16.998 16.543 16.9928 16.4599 17.0707ZM17.395 3.84887C17.4469 3.84887 17.4937 3.83328 17.5353 3.79691C17.6184 3.71898 17.6288 3.58911 17.556 3.50079C17.4781 3.41247 17.3482 3.40208 17.2599 3.48001C17.1716 3.55274 17.1612 3.68781 17.2339 3.77613C17.2755 3.82289 17.3378 3.84887 17.395 3.84887ZM18.6886 5.7607C18.725 5.7607 18.7561 5.75031 18.7873 5.73473C18.8912 5.68278 18.9276 5.5529 18.8756 5.45419C18.8237 5.35028 18.6938 5.30872 18.5951 5.36067C18.4912 5.41262 18.4496 5.54251 18.5016 5.64641C18.5379 5.71914 18.6159 5.7607 18.6886 5.7607ZM17.2495 16.255C17.1716 16.3434 17.182 16.4784 17.2703 16.5564C17.3119 16.5875 17.3586 16.6031 17.4054 16.6031C17.4677 16.6031 17.5249 16.5823 17.5664 16.5304C17.6444 16.4421 17.634 16.3122 17.5457 16.2343C17.4573 16.1615 17.3223 16.1719 17.2495 16.255ZM19.7328 10.9663C19.6134 10.9559 19.5094 11.039 19.4991 11.1533C19.4835 11.2676 19.5666 11.3715 19.6809 11.3871C19.6913 11.3871 19.6965 11.3871 19.7069 11.3871C19.8108 11.3871 19.9043 11.3092 19.9147 11.2001C19.9303 11.0858 19.8471 10.9819 19.7328 10.9663ZM18.7925 14.2912C18.6938 14.2393 18.5639 14.2809 18.512 14.3848C18.46 14.4887 18.5016 14.6133 18.6003 14.6653C18.6315 14.6809 18.6678 14.6913 18.699 14.6913C18.7769 14.6913 18.8497 14.6497 18.886 14.577C18.938 14.4731 18.8964 14.3484 18.7925 14.2912ZM19.551 12.1093C19.4367 12.0833 19.3276 12.156 19.2964 12.2651C19.2705 12.3794 19.338 12.4937 19.4523 12.5197C19.4679 12.5249 19.4887 12.5249 19.5043 12.5249C19.5978 12.5249 19.6861 12.4625 19.7069 12.3638C19.7328 12.2495 19.6653 12.1404 19.551 12.1093ZM19.9822 10C19.9822 9.8857 19.8887 9.79219 19.7744 9.79219C19.6549 9.79219 19.5614 9.8857 19.5614 10.0052V10.0208C19.5614 10.1403 19.6549 10.2338 19.7744 10.2338C19.8887 10.2338 19.9822 10.1403 19.9822 10.0208V10.0156C19.9822 10.0104 19.9822 10.0052 19.9822 10ZM19.2393 13.2262C19.1302 13.1847 19.0107 13.2418 18.9691 13.3509C18.9276 13.46 18.9847 13.5795 19.0938 13.6211C19.1146 13.6263 19.1406 13.6315 19.1666 13.6315C19.2497 13.6315 19.3328 13.5795 19.364 13.4964C19.4004 13.3873 19.3484 13.2678 19.2393 13.2262ZM19.1562 6.81533C19.1821 6.81533 19.2081 6.81014 19.2341 6.80494C19.3432 6.76338 19.3952 6.63869 19.3536 6.5296C19.3172 6.4205 19.1925 6.36854 19.0834 6.41011C18.9743 6.45167 18.9224 6.57116 18.964 6.68026C18.9951 6.76338 19.0731 6.81533 19.1562 6.81533ZM13.5869 1.16294C13.6129 1.17333 13.6389 1.17853 13.6648 1.17853C13.748 1.17853 13.8259 1.13177 13.8623 1.04864C13.9038 0.939546 13.8519 0.81486 13.7428 0.773298C13.6389 0.731737 13.5142 0.783688 13.4726 0.892788C13.4259 0.996693 13.4778 1.12138 13.5869 1.16294ZM11.4257 19.4709C11.3114 19.4865 11.2335 19.5956 11.2491 19.7099C11.2646 19.8138 11.3582 19.8865 11.4569 19.8865C11.4673 19.8865 11.4776 19.8865 11.488 19.8865C11.6023 19.8709 11.6855 19.7618 11.6647 19.6475C11.6491 19.5332 11.54 19.4553 11.4257 19.4709ZM12.5167 0.80447C12.5323 0.809665 12.5531 0.809665 12.5686 0.809665C12.6622 0.809665 12.7453 0.747323 12.7713 0.653809C12.8024 0.544709 12.7349 0.425219 12.6258 0.399243C12.5115 0.368071 12.3972 0.43561 12.366 0.544709C12.3349 0.659003 12.4024 0.773298 12.5167 0.80447ZM11.4049 0.570685C11.4153 0.57588 11.4257 0.57588 11.4361 0.57588C11.54 0.57588 11.6283 0.497952 11.6439 0.394048C11.6647 0.279752 11.5816 0.175849 11.4673 0.155068C11.353 0.139483 11.2439 0.21741 11.2283 0.3369C11.2127 0.451195 11.2906 0.5551 11.4049 0.570685ZM12.5323 19.2371C12.4232 19.2683 12.3556 19.3826 12.3868 19.4968C12.4128 19.5904 12.4959 19.6527 12.5894 19.6527C12.6102 19.6527 12.6258 19.6475 12.6466 19.6423C12.7557 19.6111 12.8232 19.4968 12.792 19.3826C12.7609 19.2735 12.6466 19.2059 12.5323 19.2371ZM10.2983 19.5696C10.184 19.5748 10.0957 19.6683 10.0957 19.7878C10.1009 19.9021 10.1944 19.9904 10.3087 19.9904C10.3087 19.9904 10.3087 19.9904 10.3139 19.9904C10.4282 19.9852 10.5217 19.8917 10.5165 19.7722C10.5113 19.6579 10.4178 19.5644 10.2983 19.5696ZM10.2827 0.477171H10.2879C10.397 0.477171 10.4906 0.383657 10.4958 0.269363C10.5009 0.155067 10.4074 0.0563589 10.2931 0.0563589C10.1736 0.0511627 10.0801 0.144678 10.0749 0.258972C10.0749 0.378463 10.1633 0.471976 10.2827 0.477171ZM13.6077 18.8734C13.4986 18.9202 13.4466 19.0397 13.4882 19.1488C13.5246 19.2319 13.6025 19.2787 13.6856 19.2787C13.7116 19.2787 13.7376 19.2735 13.7635 19.2631C13.8726 19.2215 13.9246 19.0968 13.8778 18.9929C13.8363 18.8838 13.7116 18.8319 13.6077 18.8734ZM14.6259 18.3851C14.5272 18.4422 14.4857 18.5721 14.5428 18.6708C14.5844 18.7435 14.6519 18.7799 14.7299 18.7799C14.761 18.7799 14.7974 18.7747 14.8286 18.7539C14.9325 18.702 14.9688 18.5721 14.9117 18.4682C14.8545 18.3695 14.7299 18.3331 14.6259 18.3851ZM9.17097 19.5384C9.05148 19.528 8.95278 19.6111 8.94238 19.7306C8.93199 19.8449 9.01512 19.9436 9.13461 19.954C9.1398 19.954 9.145 19.9592 9.15019 19.9592C9.25929 19.9592 9.35281 19.8761 9.358 19.767C9.36839 19.6475 9.28527 19.5488 9.17097 19.5384ZM15.5663 2.25393C15.6026 2.27991 15.6494 2.2903 15.691 2.2903C15.7533 2.2903 15.8208 2.25913 15.8624 2.20198C15.9299 2.10847 15.904 1.97859 15.8105 1.91105C15.7169 1.84351 15.5871 1.86429 15.5195 1.95781C15.452 2.05132 15.4728 2.1864 15.5663 2.25393ZM14.6104 1.65129C14.6415 1.66688 14.6779 1.67727 14.7091 1.67727C14.787 1.67727 14.8545 1.6357 14.8961 1.56817C14.9532 1.46426 14.9169 1.33438 14.813 1.28243C14.7091 1.22528 14.5844 1.26165 14.5272 1.36555C14.4701 1.46426 14.5065 1.59414 14.6104 1.65129ZM15.5819 17.7824C15.4884 17.85 15.4676 17.9798 15.5351 18.0786C15.5767 18.1357 15.639 18.1617 15.7066 18.1617C15.7481 18.1617 15.7897 18.1513 15.826 18.1253C15.9196 18.0578 15.9455 17.9227 15.8728 17.8292C15.8053 17.7357 15.6754 17.7149 15.5819 17.7824Z" fill="#07664D"/>
</g>
<mask id="mask1_170_64" style="mask-type:luminance" maskUnits="userSpaceOnUse" x="1" y="1" width="18" height="18">
<path d="M1.25345 1.25647H18.3561V18.3591H1.25345V1.25647Z" fill="white"/>
</mask>
<g mask="url(#mask1_170_64)">
<mask id="mask2_170_64" style="mask-type:luminance" maskUnits="userSpaceOnUse" x="1" y="1" width="18" height="18">
<path d="M9.80477 1.25647C5.08232 1.25647 1.25345 5.08015 1.25345 9.80779C1.25345 14.5302 5.08232 18.3591 9.80477 18.3591C14.5272 18.3591 18.3561 14.5302 18.3561 9.80779C18.3561 5.08015 14.5272 1.25647 9.80477 1.25647Z" fill="white"/>
</mask>
<g mask="url(#mask2_170_64)">
<path d="M1.25345 1.25647H18.3561V18.3591H1.25345V1.25647Z" fill="#07664D"/>
</g>
</g>
<mask id="mask3_170_64" style="mask-type:luminance" maskUnits="userSpaceOnUse" x="10" y="8" width="7" height="7">
<path d="M10.1373 8.75317H16.4806V14.7796H10.1373V8.75317Z" fill="white"/>
</mask>
<g mask="url(#mask3_170_64)">
<path fill-rule="evenodd" clip-rule="evenodd" d="M13.4882 14.6601C11.8673 14.6601 10.5477 13.3509 10.5477 11.7456C10.5477 10.1402 11.8673 8.83105 13.4882 8.83105C15.1039 8.83105 16.4235 10.1402 16.4235 11.7456C16.4235 13.3509 15.1039 14.6601 13.4882 14.6601ZM13.4882 9.12718C12.0283 9.12718 10.849 10.3013 10.849 11.7456C10.849 13.1846 12.0283 14.3588 13.4882 14.3588C14.9429 14.3588 16.1222 13.1846 16.1222 11.7456C16.1222 10.3013 14.9429 9.12718 13.4882 9.12718Z" fill="white"/>
</g>
<mask id="mask4_170_64" style="mask-type:luminance" maskUnits="userSpaceOnUse" x="10" y="10" width="7" height="5">
<path d="M10.1373 10.0831H16.4806V14.0731H10.1373V10.0831Z" fill="white"/>
</mask>
<g mask="url(#mask4_170_64)">
<path fill-rule="evenodd" clip-rule="evenodd" d="M16.1066 12.8366H10.8646C10.7919 12.8366 10.7399 12.8002 10.7191 12.7379C10.4853 12.0937 10.4853 11.3923 10.7191 10.7533C10.7399 10.691 10.7919 10.6546 10.8646 10.6546H16.1066C16.1689 10.6546 16.2313 10.691 16.2468 10.7533C16.4806 11.3923 16.4806 12.0937 16.2468 12.7379C16.2313 12.8002 16.1689 12.8366 16.1066 12.8366ZM10.9685 12.5353H15.9975C16.1637 12.0209 16.1637 11.4703 15.9975 10.9507H10.9685C10.8023 11.4703 10.8023 12.0209 10.9685 12.5353Z" fill="white"/>
</g>
<mask id="mask5_170_64" style="mask-type:luminance" maskUnits="userSpaceOnUse" x="11" y="8" width="5" height="7">
<path d="M11.4673 8.75317H15.4572V14.7796H11.4673V8.75317Z" fill="white"/>
</mask>
<g mask="url(#mask5_170_64)">
<path fill-rule="evenodd" clip-rule="evenodd" d="M13.4882 14.6601C12.657 14.6601 12.0179 13.3821 12.0179 11.7456C12.0179 10.1091 12.657 8.83105 13.4882 8.83105C14.309 8.83105 14.9532 10.1091 14.9532 11.7456C14.9532 13.3821 14.309 14.6601 13.4882 14.6601ZM13.4882 9.12718C12.8544 9.12718 12.3193 10.3273 12.3193 11.7456C12.3193 13.1639 12.8544 14.3588 13.4882 14.3588C14.1168 14.3588 14.6519 13.1639 14.6519 11.7456C14.6519 10.3273 14.1168 9.12718 13.4882 9.12718Z" fill="white"/>
</g>
<mask id="mask6_170_64" style="mask-type:luminance" maskUnits="userSpaceOnUse" x="3" y="6" width="8" height="9">
<path d="M3.51859 6.0932H10.1373V14.7796H3.51859V6.0932Z" fill="white"/>
</mask>
<g mask="url(#mask6_170_64)">
<path fill-rule="evenodd" clip-rule="evenodd" d="M9.17096 14.7796L3.66403 13.0132C3.60169 13.0028 3.55493 12.9405 3.55493 12.8729V7.02311C3.55493 6.91921 3.65364 6.85167 3.75235 6.87765L9.22811 8.63363C9.28525 8.64921 9.32162 8.71156 9.32162 8.77909V14.6289C9.32162 14.712 9.25408 14.7796 9.17096 14.7796ZM3.85625 12.769L9.0203 14.4263V8.883L3.85625 7.22573V12.769Z" fill="white"/>
</g>
<mask id="mask7_170_64" style="mask-type:luminance" maskUnits="userSpaceOnUse" x="3" y="4" width="13" height="7">
<path d="M3.51859 4.80994H15.4572V10.0831H3.51859V4.80994Z" fill="white"/>
</mask>
<g mask="url(#mask7_170_64)">
<path fill-rule="evenodd" clip-rule="evenodd" d="M9.17097 8.9297L3.66405 7.16333C3.51858 7.11657 3.52897 6.91915 3.66405 6.87759L8.7034 5.40735C8.73457 5.40215 8.76575 5.39176 8.78653 5.40215L12.3608 6.29573C12.5583 6.34248 12.4855 6.63342 12.2933 6.58666L8.76055 5.69828L4.21993 7.02825L9.17097 8.62318L12.7401 7.48024C12.9271 7.41789 13.0258 7.70363 12.8388 7.76078L9.17097 8.9297ZM14.1792 7.31919C14.0233 7.31919 13.9662 7.11138 14.1116 7.03864C13.9506 6.95552 14.0441 6.71654 14.2155 6.7581C14.5013 6.83603 14.7922 6.85162 14.7974 7.01267C14.7974 7.08021 14.7506 7.14255 14.6935 7.16333L14.1792 7.31919Z" fill="white"/>
</g>
<path fill-rule="evenodd" clip-rule="evenodd" d="M7.1812 10.0052C7.14483 10.0052 7.10847 9.9896 7.0773 9.95843C6.3084 9.18954 6.51102 9.19473 5.82525 9.87011C5.72654 9.97402 5.57068 9.89089 5.56029 9.76621L5.54471 7.66215C5.54471 7.55824 5.64342 7.48551 5.74213 7.51668L7.23835 7.99464C7.2955 8.01542 7.33186 8.07776 7.33186 8.13491V9.85453C7.33186 9.93765 7.26432 10.0052 7.1812 10.0052ZM6.41231 9.07524C6.67727 9.07524 6.82273 9.28825 7.03054 9.49606V8.24921L5.85123 7.86476L5.86162 9.41293C6.03825 9.24149 6.15774 9.07524 6.41231 9.07524Z" fill="white"/>
<mask id="mask8_170_64" style="mask-type:luminance" maskUnits="userSpaceOnUse" x="8" y="6" width="8" height="9">
<path d="M8.80731 6.0932H15.4572V14.7796H8.80731V6.0932Z" fill="white"/>
</mask>
<g mask="url(#mask8_170_64)">
<path fill-rule="evenodd" clip-rule="evenodd" d="M9.17096 14.7796C9.08783 14.7796 9.02029 14.712 9.02029 14.6289V8.77909C9.02029 8.71156 9.06705 8.64921 9.12939 8.63363L12.7401 7.48029C12.9375 7.41795 13.0258 7.70369 12.8388 7.76083L9.32162 8.883V14.4263L11.6075 13.6938C11.8049 13.6366 11.8932 13.9172 11.7062 13.9795L9.17096 14.7796ZM14.6467 9.38174C14.5636 9.38174 14.496 9.3142 14.496 9.23627V7.22573C14.3142 7.28287 14.096 7.40236 14.0337 7.21533C13.9661 7.01272 14.2986 6.97635 14.6 6.87765C14.6935 6.85167 14.7974 6.91921 14.7974 7.02311V9.23627C14.7974 9.3142 14.7298 9.38174 14.6467 9.38174Z" fill="white"/>
</g>
<mask id="mask9_170_64" style="mask-type:luminance" maskUnits="userSpaceOnUse" x="4" y="4" width="9" height="5">
<path d="M4.81738 4.80994H12.7972V8.7531H4.81738V4.80994Z" fill="white"/>
</mask>
<g mask="url(#mask9_170_64)">
<path fill-rule="evenodd" clip-rule="evenodd" d="M7.18119 8.28551L5.6538 7.79716C5.51873 7.76079 5.50833 7.56857 5.64341 7.52181L10.423 5.84376C10.4542 5.82817 10.4854 5.82817 10.5165 5.83337L12.1738 6.25418C12.3193 6.29055 12.3297 6.48277 12.1894 6.53472L7.18119 8.28551ZM6.16293 7.65169L7.18119 7.97899L11.6231 6.41523L10.4854 6.13469L6.16293 7.65169Z" fill="white"/>
</g>
<mask id="mask10_170_64" style="mask-type:luminance" maskUnits="userSpaceOnUse" x="11" y="4" width="5" height="7">
<path d="M11.4673 4.80994H15.4572V10.0831H11.4673V4.80994Z" fill="white"/>
</mask>
<g mask="url(#mask10_170_64)">
<path fill-rule="evenodd" clip-rule="evenodd" d="M14.1792 9.22066C14.0077 9.22066 13.5817 9.02324 12.8232 9.21027C12.7297 9.23625 12.6414 9.16871 12.6414 9.07V6.74774C12.392 6.74774 12.153 6.7893 12.0855 6.66462C12.0595 6.61266 12.0595 6.55032 12.0959 6.50876L13.0882 5.11125C13.296 4.80992 13.6752 4.80992 13.883 5.11125L14.8597 6.49317C14.9532 6.61266 14.8649 6.74774 14.7454 6.74774H14.3298V9.07C14.3298 9.15312 14.2623 9.22066 14.1792 9.22066ZM13.4882 8.83102C13.6648 8.83102 13.8467 8.8466 14.0285 8.88297V6.59708C14.0285 6.39966 14.2675 6.44642 14.4597 6.44642L13.6389 5.28269C13.5453 5.1632 13.4155 5.1632 13.3323 5.28269L12.5115 6.44642C12.6933 6.44642 12.9427 6.39966 12.9427 6.59708V8.88297C13.1141 8.8466 13.296 8.83102 13.4882 8.83102Z" fill="white"/>
</g>
</svg>
