<svg width="21" height="21" viewBox="0 0 21 21" fill="none" xmlns="http://www.w3.org/2000/svg">
<mask id="mask0_170_67" style="mask-type:luminance" maskUnits="userSpaceOnUse" x="0" y="0" width="21" height="21">
<path d="M0.149414 0.30481H20.0886V20.2388H0.149414V0.30481Z" fill="white"/>
</mask>
<g mask="url(#mask0_170_67)">
<path d="M3.79125 2.83489C3.71852 2.74658 3.72891 2.6115 3.82242 2.53877C3.91074 2.46603 4.04581 2.48162 4.11855 2.56994C4.19128 2.65826 4.17569 2.79333 4.08738 2.86607C4.04581 2.89724 3.99906 2.91282 3.9523 2.91282C3.89515 2.91282 3.83281 2.88685 3.79125 2.83489ZM4.10296 17.6984C4.00945 17.6257 3.87957 17.6361 3.80683 17.7296C3.7341 17.8179 3.74449 17.9478 3.83801 18.0205C3.87437 18.0569 3.92113 18.0673 3.96789 18.0673C4.03023 18.0673 4.09257 18.0413 4.13413 17.9945C4.20687 17.901 4.19128 17.7711 4.10296 17.6984ZM4.89263 2.23745C4.929 2.23745 4.97056 2.22705 5.00693 2.20627C5.10044 2.14393 5.13161 2.01405 5.06927 1.91534C5.00693 1.81663 4.87705 1.78546 4.77834 1.8478C4.67963 1.91015 4.65365 2.04003 4.716 2.13874C4.75236 2.20108 4.8251 2.23745 4.89263 2.23745ZM2.52881 16.0775C2.45608 15.984 2.321 15.9684 2.23268 16.0359C2.13917 16.1087 2.12358 16.2385 2.19112 16.3321C2.23268 16.384 2.29503 16.4152 2.35737 16.4152C2.40413 16.4152 2.45088 16.3996 2.48725 16.3736C2.58076 16.3009 2.59635 16.171 2.52881 16.0775ZM5.02251 18.3582C4.92381 18.2959 4.79393 18.3218 4.73158 18.4205C4.66924 18.5192 4.69522 18.6491 4.79393 18.7115C4.83029 18.7323 4.87185 18.7426 4.90822 18.7426C4.97576 18.7426 5.0433 18.7115 5.08486 18.6439C5.1472 18.5504 5.11603 18.4205 5.02251 18.3582ZM2.97041 16.9295C2.88728 17.0074 2.88209 17.1425 2.96521 17.2256C3.00677 17.2672 3.05872 17.288 3.11587 17.288C3.16782 17.288 3.21978 17.2724 3.26134 17.2308C3.34446 17.1477 3.34446 17.0178 3.26653 16.9347C3.18341 16.8516 3.05353 16.8464 2.97041 16.9295ZM9.23064 0.762005C9.23583 0.762005 9.24622 0.762005 9.25142 0.762005C9.36571 0.751615 9.45403 0.652905 9.44364 0.533415C9.43325 0.419121 9.32935 0.335998 9.21505 0.346387C9.09556 0.356777 9.01244 0.455487 9.02283 0.574977C9.03322 0.684076 9.12673 0.762005 9.23064 0.762005ZM5.9057 1.67636C5.93168 1.67636 5.96285 1.67117 5.99402 1.65558C6.09793 1.60882 6.14468 1.47894 6.09273 1.37504C6.04078 1.27113 5.91609 1.22957 5.81219 1.27633C5.70828 1.32828 5.66153 1.45297 5.71348 1.55687C5.74985 1.6348 5.82258 1.67636 5.9057 1.67636ZM8.15003 19.6258C8.04093 19.5998 7.92664 19.6726 7.90586 19.7869C7.87988 19.9012 7.95262 20.0155 8.06691 20.0362C8.0825 20.0414 8.09289 20.0414 8.10847 20.0414C8.20718 20.0414 8.2955 19.9739 8.31628 19.8752C8.33706 19.7609 8.26433 19.6466 8.15003 19.6258ZM8.08769 0.933447C8.10328 0.933447 8.11886 0.933446 8.13445 0.928251C8.24355 0.907471 8.31628 0.793177 8.2955 0.684076C8.26952 0.569782 8.16043 0.497049 8.04613 0.517829C7.93184 0.543807 7.8591 0.652906 7.88508 0.7672C7.90586 0.865909 7.98898 0.933447 8.08769 0.933447ZM6.97592 1.23996C6.9967 1.23996 7.01748 1.23477 7.04345 1.22957C7.15255 1.19321 7.2097 1.07372 7.17333 0.964618C7.13697 0.855517 7.01748 0.793177 6.90838 0.829542C6.79408 0.871104 6.73694 0.990594 6.7733 1.09969C6.80447 1.18801 6.8876 1.23996 6.97592 1.23996ZM6.00961 18.9037C5.9057 18.8517 5.78102 18.8985 5.72906 19.0024C5.68231 19.1063 5.72387 19.231 5.82777 19.2829C5.85894 19.2985 5.89012 19.3037 5.92129 19.3037C5.99922 19.3037 6.07714 19.257 6.10831 19.1842C6.16027 19.0803 6.11351 18.9556 6.00961 18.9037ZM3.10029 3.6973C3.15743 3.6973 3.21458 3.67132 3.25095 3.62976C3.33407 3.54664 3.33407 3.41676 3.25095 3.33364C3.16782 3.25571 3.03275 3.25571 2.94962 3.33883C2.8717 3.42195 2.8717 3.55703 2.95482 3.63496C2.99638 3.67652 3.04833 3.6973 3.10029 3.6973ZM1.08974 6.54428C1.11571 6.55467 1.14689 6.55986 1.17286 6.55986C1.25598 6.55986 1.33391 6.51311 1.36508 6.43518C1.41184 6.32608 1.36508 6.20659 1.26118 6.15983C1.15208 6.11308 1.0274 6.15983 0.980638 6.26374C0.933882 6.37284 0.985835 6.49752 1.08974 6.54428ZM0.710487 7.63527C0.731268 7.64047 0.752049 7.64566 0.77283 7.64566C0.861149 7.64566 0.944272 7.58852 0.975443 7.495C1.00661 7.3859 0.944273 7.26641 0.835172 7.23524C0.720878 7.19887 0.606582 7.26122 0.570216 7.37551C0.539044 7.48461 0.601388 7.6041 0.710487 7.63527ZM0.357212 9.91597C0.362409 9.91597 0.367603 9.91597 0.367603 9.91597C0.481897 9.91597 0.570217 9.83285 0.580607 9.71855C0.585802 9.60426 0.497484 9.50555 0.383189 9.50035C0.2637 9.48996 0.164989 9.57828 0.159794 9.69777C0.154599 9.81207 0.242918 9.91078 0.357212 9.91597ZM0.466312 8.76783C0.476703 8.76783 0.492289 8.76783 0.502678 8.76783C0.601388 8.76783 0.689706 8.70029 0.710487 8.59639C0.731268 8.48209 0.65334 8.37299 0.539045 8.35221C0.42475 8.33143 0.315651 8.40936 0.29487 8.52365C0.274089 8.63795 0.352018 8.74705 0.466312 8.76783ZM2.22229 4.52853C2.25866 4.55971 2.30542 4.5701 2.34698 4.5701C2.40932 4.5701 2.47166 4.54412 2.51323 4.48697C2.58596 4.39865 2.57037 4.26358 2.47686 4.19604C2.38335 4.12331 2.25346 4.14409 2.18073 4.23241C2.108 4.32592 2.12878 4.4558 2.22229 4.52853ZM19.5951 9.1263C19.6107 9.2302 19.699 9.31333 19.8029 9.31333C19.8133 9.31333 19.8237 9.31333 19.8289 9.30813C19.9432 9.29774 20.0263 9.18864 20.0159 9.07435C20.0003 8.96005 19.8964 8.87693 19.7821 8.89251C19.6678 8.9081 19.5847 9.012 19.5951 9.1263ZM19.3977 8.01452C19.4185 8.10804 19.5068 8.17558 19.6003 8.17558C19.6159 8.17558 19.6315 8.17038 19.647 8.16518C19.7613 8.13921 19.8341 8.02491 19.8029 7.91581C19.7769 7.80152 19.6626 7.73398 19.5483 7.75996C19.4392 7.78593 19.3665 7.90023 19.3977 8.01452ZM1.59367 5.50004C1.63004 5.52082 1.66641 5.53121 1.70277 5.53121C1.77551 5.53121 1.84304 5.49485 1.88461 5.42731C1.94175 5.3286 1.91058 5.19872 1.80668 5.14157C1.70797 5.07923 1.57809 5.11559 1.52094 5.2143C1.46379 5.31301 1.49496 5.44289 1.59367 5.50004ZM1.60406 15.0644C1.50535 15.1268 1.47418 15.2567 1.53133 15.3554C1.57289 15.4177 1.64043 15.4593 1.71316 15.4593C1.74953 15.4593 1.7859 15.4489 1.81707 15.4281C1.92097 15.3658 1.95214 15.2411 1.895 15.1372C1.83265 15.0385 1.70277 15.0073 1.60406 15.0644ZM0.383189 11.0745C0.497484 11.0693 0.585802 10.9654 0.580607 10.8511C0.575412 10.7368 0.471508 10.6485 0.357212 10.6537C0.242918 10.6589 0.154599 10.7628 0.159794 10.8771C0.164989 10.9862 0.258503 11.0745 0.372798 11.0745C0.372798 11.0745 0.377994 11.0745 0.383189 11.0745ZM1.10013 14.0254C0.991029 14.0721 0.944272 14.1968 0.991029 14.3059C1.0274 14.3839 1.10013 14.4306 1.18325 14.4306C1.20923 14.4306 1.2404 14.4254 1.26637 14.4098C1.37547 14.3631 1.42223 14.2384 1.37547 14.1345C1.32872 14.0306 1.20403 13.9786 1.10013 14.0254ZM0.980638 13.0747C0.944273 12.9656 0.829978 12.9032 0.715682 12.9344C0.606583 12.9708 0.544239 13.0851 0.575411 13.1993C0.606582 13.2877 0.689705 13.3448 0.778025 13.3448C0.798804 13.3448 0.819588 13.3448 0.840367 13.3396C0.949468 13.3033 1.01181 13.1838 0.980638 13.0747ZM0.715682 11.9733C0.694903 11.859 0.585801 11.7862 0.471507 11.807C0.357212 11.8278 0.279286 11.9369 0.300065 12.0512C0.320847 12.1499 0.409166 12.2226 0.507874 12.2226C0.518265 12.2226 0.53385 12.2226 0.54424 12.2175C0.658536 12.1967 0.736464 12.0876 0.715682 11.9733ZM7.05904 19.3297C6.94994 19.2933 6.83045 19.3505 6.79408 19.4596C6.75772 19.5687 6.81486 19.6882 6.92396 19.7245C6.94994 19.7349 6.97072 19.7349 6.9915 19.7349C7.07982 19.7349 7.16294 19.683 7.19411 19.5947C7.23048 19.4856 7.16814 19.3661 7.05904 19.3297ZM16.691 3.27129C16.7481 3.27129 16.8053 3.25051 16.8468 3.20376C16.9247 3.11544 16.9196 2.98556 16.8312 2.90763C16.7481 2.8297 16.613 2.83489 16.5351 2.91802C16.4572 3.00634 16.4624 3.14141 16.5507 3.21934C16.5871 3.25571 16.639 3.27129 16.691 3.27129ZM18.2028 5.01688C18.2443 5.01688 18.2807 5.00649 18.3171 4.98052C18.4158 4.91818 18.4418 4.7831 18.3742 4.68959C18.3119 4.59088 18.1768 4.5701 18.0833 4.63244C17.9846 4.69998 17.9638 4.82986 18.0261 4.92337C18.0677 4.98571 18.1352 5.01688 18.2028 5.01688ZM18.3275 15.5528C18.2339 15.4904 18.1041 15.5164 18.0365 15.6099C17.9742 15.7086 17.995 15.8385 18.0937 15.9009C18.13 15.9268 18.1716 15.9372 18.2132 15.9372C18.2807 15.9372 18.343 15.9061 18.3846 15.8437C18.4521 15.7502 18.4262 15.6203 18.3275 15.5528ZM16.5611 17.3243C16.478 17.4023 16.4728 17.5322 16.5507 17.6205C16.5923 17.662 16.6494 17.688 16.7066 17.688C16.7533 17.688 16.8053 17.6672 16.8468 17.6309C16.9299 17.5529 16.9351 17.4231 16.8572 17.3347C16.7793 17.2516 16.6494 17.2412 16.5611 17.3243ZM17.4962 4.10253C17.5482 4.10253 17.5949 4.08175 17.6365 4.05058C17.7248 3.97265 17.73 3.84277 17.6573 3.75445C17.5793 3.66613 17.4495 3.65574 17.3611 3.73367C17.2728 3.8064 17.2624 3.94148 17.3404 4.02979C17.3819 4.07655 17.4391 4.10253 17.4962 4.10253ZM18.7898 6.00917C18.8262 6.00917 18.8574 6.00397 18.8885 5.98839C18.9924 5.93644 19.034 5.80656 18.9769 5.70265C18.9249 5.59875 18.8002 5.56238 18.6963 5.61433C18.5924 5.66629 18.5509 5.79617 18.6028 5.89488C18.6444 5.96761 18.7171 6.00917 18.7898 6.00917ZM17.3508 16.5087C17.2728 16.597 17.2832 16.7321 17.3715 16.8048C17.4131 16.8412 17.4599 16.8568 17.5118 16.8568C17.569 16.8568 17.6261 16.8308 17.6677 16.784C17.7456 16.6957 17.7352 16.5658 17.6469 16.4879C17.5586 16.41 17.4235 16.4204 17.3508 16.5087ZM19.8341 11.22C19.7146 11.2096 19.6107 11.2875 19.6003 11.407C19.5847 11.5213 19.6678 11.6252 19.7821 11.6408C19.7925 11.6408 19.7977 11.6408 19.8081 11.6408C19.912 11.6408 20.0055 11.5629 20.0159 11.4538C20.0315 11.3395 19.9484 11.2356 19.8341 11.22ZM18.8989 14.5449C18.795 14.493 18.6651 14.5345 18.6132 14.6384C18.5612 14.7423 18.6028 14.867 18.7067 14.919C18.7327 14.9345 18.7691 14.9449 18.8002 14.9449C18.8781 14.9449 18.9509 14.9034 18.9872 14.8306C19.0392 14.7267 18.9976 14.5969 18.8989 14.5449ZM19.6522 12.3629C19.5431 12.3369 19.4288 12.4045 19.4029 12.5188C19.3717 12.6331 19.4444 12.7474 19.5535 12.7733C19.5743 12.7785 19.5899 12.7785 19.6055 12.7785C19.699 12.7785 19.7873 12.711 19.8081 12.6175C19.8341 12.5032 19.7665 12.3889 19.6522 12.3629ZM20.0834 10.2537C20.0834 10.1394 19.9899 10.0459 19.8756 10.0459C19.7561 10.0459 19.6626 10.1394 19.6678 10.2537V10.2744C19.6678 10.3939 19.7613 10.4874 19.8756 10.4874C19.9899 10.4874 20.0834 10.3939 20.0834 10.2744C20.0834 10.2744 20.0834 10.2692 20.0834 10.2641C20.0834 10.2641 20.0834 10.2589 20.0834 10.2537ZM19.3405 13.4799C19.2314 13.4383 19.1119 13.4903 19.0704 13.5994C19.0288 13.7085 19.086 13.8332 19.1951 13.8695C19.2158 13.8799 19.2418 13.8851 19.2678 13.8851C19.3509 13.8851 19.434 13.8332 19.4652 13.75C19.5068 13.6409 19.4496 13.5163 19.3405 13.4799ZM19.2626 7.06899C19.2834 7.06899 19.3094 7.0638 19.3353 7.05341C19.4444 7.01185 19.4964 6.89236 19.4548 6.78326C19.4185 6.67416 19.2938 6.62221 19.1847 6.66377C19.0756 6.70013 19.0236 6.82482 19.0652 6.93392C19.0963 7.01704 19.1743 7.06899 19.2626 7.06899ZM13.6881 1.4166C13.7141 1.42699 13.7401 1.43219 13.7661 1.43219C13.8492 1.43219 13.9323 1.38024 13.9635 1.30231C14.005 1.19321 13.9531 1.06852 13.8492 1.02696C13.7401 0.985399 13.6154 1.03735 13.5738 1.14126C13.5323 1.25036 13.5842 1.37504 13.6881 1.4166ZM11.5269 19.7245C11.4126 19.7401 11.3347 19.844 11.3503 19.9635C11.3659 20.0674 11.4594 20.1402 11.5581 20.1402C11.5685 20.1402 11.5789 20.1402 11.5893 20.1402C11.7036 20.1194 11.7867 20.0155 11.7659 19.9012C11.7503 19.7869 11.6464 19.7038 11.5269 19.7245ZM12.6179 1.05813C12.6335 1.06333 12.6543 1.06333 12.6699 1.06333C12.7634 1.06333 12.8517 1.00099 12.8725 0.907471C12.9037 0.793177 12.8413 0.678882 12.727 0.64771C12.6127 0.621734 12.4984 0.684076 12.4673 0.798371C12.4361 0.912665 12.5036 1.02696 12.6179 1.05813ZM11.5113 0.824347C11.5217 0.829542 11.5321 0.829542 11.5373 0.829542C11.6412 0.829542 11.7347 0.751615 11.7451 0.64771C11.7659 0.533416 11.6828 0.424316 11.5685 0.40873C11.4542 0.393144 11.3503 0.471072 11.3295 0.585367C11.3139 0.704856 11.397 0.808761 11.5113 0.824347ZM12.6387 19.4908C12.5244 19.5219 12.4569 19.6362 12.488 19.7505C12.514 19.844 12.5971 19.9012 12.6907 19.9012C12.7114 19.9012 12.727 19.9012 12.7478 19.896C12.8569 19.8648 12.9244 19.7505 12.8933 19.6362C12.8621 19.5271 12.7478 19.4596 12.6387 19.4908ZM10.4048 19.8232C10.2853 19.8232 10.1969 19.922 10.1969 20.0362C10.2021 20.1505 10.2957 20.2441 10.41 20.2441H10.4151C10.5294 20.2389 10.623 20.1402 10.6178 20.0259C10.6178 19.9116 10.5191 19.8181 10.4048 19.8232ZM10.384 0.730833H10.3892C10.5035 0.730833 10.597 0.63732 10.597 0.523025C10.6022 0.408731 10.5087 0.310021 10.3944 0.310021C10.2801 0.304826 10.1814 0.398339 10.1762 0.512634C10.1762 0.62693 10.2645 0.725638 10.384 0.730833ZM13.7089 19.1271C13.5998 19.1686 13.5479 19.2933 13.5946 19.4024C13.6258 19.4804 13.7037 19.5323 13.7868 19.5323C13.8128 19.5323 13.8388 19.5271 13.8648 19.5167C13.9739 19.4752 14.0258 19.3505 13.9843 19.2414C13.9375 19.1375 13.818 19.0855 13.7089 19.1271ZM14.7272 18.6387C14.6285 18.6959 14.5921 18.8258 14.6441 18.9245C14.6856 18.9972 14.7583 19.0336 14.8311 19.0336C14.8622 19.0336 14.8986 19.0284 14.9298 19.0076C15.0337 18.9504 15.0701 18.8258 15.0129 18.7219C14.9558 18.6232 14.8311 18.5816 14.7272 18.6387ZM9.2722 19.7921C9.15791 19.7817 9.054 19.8648 9.04361 19.9791C9.03322 20.0986 9.12154 20.1973 9.23583 20.2077C9.24103 20.2077 9.24622 20.2077 9.25142 20.2077C9.36052 20.2077 9.45403 20.1246 9.46442 20.0155C9.47481 19.9012 9.3865 19.8025 9.2722 19.7921ZM15.6675 2.5076C15.7039 2.53357 15.7506 2.54396 15.7922 2.54396C15.8545 2.54396 15.9221 2.51279 15.9636 2.45564C16.0312 2.36213 16.0104 2.23225 15.9117 2.16471C15.8182 2.09717 15.6883 2.11795 15.6208 2.21147C15.5532 2.30498 15.574 2.44006 15.6675 2.5076ZM14.7116 1.89976C14.7428 1.92054 14.7791 1.92573 14.8155 1.92573C14.8882 1.92573 14.961 1.88937 14.9973 1.82183C15.0545 1.71792 15.0181 1.58804 14.9142 1.53609C14.8103 1.47894 14.6856 1.51531 14.6285 1.61402C14.5713 1.71792 14.6077 1.8478 14.7116 1.89976ZM15.6831 18.0361C15.5896 18.1036 15.5688 18.2335 15.6363 18.327C15.6779 18.3842 15.7402 18.4153 15.8078 18.4153C15.8493 18.4153 15.8909 18.405 15.9273 18.379C16.026 18.3114 16.0468 18.1764 15.9792 18.0828C15.9117 17.9893 15.7766 17.9686 15.6831 18.0361Z" fill="#07664D"/>
</g>
<mask id="mask1_170_67" style="mask-type:luminance" maskUnits="userSpaceOnUse" x="1" y="1" width="18" height="18">
<path d="M1.35471 1.50488H18.4573V18.6075H1.35471V1.50488Z" fill="white"/>
</mask>
<g mask="url(#mask1_170_67)">
<mask id="mask2_170_67" style="mask-type:luminance" maskUnits="userSpaceOnUse" x="1" y="1" width="18" height="18">
<path d="M9.90603 1.50488C5.18358 1.50488 1.35471 5.33376 1.35471 10.0562C1.35471 14.7787 5.18358 18.6075 9.90603 18.6075C14.6285 18.6075 18.4573 14.7787 18.4573 10.0562C18.4573 5.33376 14.6285 1.50488 9.90603 1.50488Z" fill="white"/>
</mask>
<g mask="url(#mask2_170_67)">
<path d="M1.35471 1.50488H18.4573V18.6075H1.35471V1.50488Z" fill="#07664D"/>
</g>
</g>
<mask id="mask3_170_67" style="mask-type:luminance" maskUnits="userSpaceOnUse" x="12" y="10" width="6" height="4">
<path d="M12.4673 10.9446H17.5586V13.6045H12.4673V10.9446Z" fill="white"/>
</mask>
<g mask="url(#mask3_170_67)">
<path d="M16.639 12.5707C16.6338 12.5707 15.3558 12.1135 14.6337 11.8901C14.5038 11.8642 14.3739 11.8746 14.244 11.9161C13.6985 12.1603 13.1738 12.446 12.6699 12.7681C12.5244 12.8564 12.4984 12.9759 12.5867 13.1162C12.6751 13.2617 12.7946 13.2877 12.9348 13.1993C13.4128 12.8876 13.9115 12.6175 14.431 12.3889C14.4622 12.3785 14.4934 12.3785 14.5246 12.3889C15.2467 12.6175 16.4624 13.0539 16.4728 13.0539C16.6286 13.1058 16.7377 13.0591 16.7897 12.898C16.8468 12.7422 16.7949 12.6383 16.639 12.5811V12.5707Z" fill="white"/>
</g>
<mask id="mask4_170_67" style="mask-type:luminance" maskUnits="userSpaceOnUse" x="12" y="8" width="6" height="3">
<path d="M12.4673 8.28467H17.5586V10.9446H12.4673V8.28467Z" fill="white"/>
</mask>
<g mask="url(#mask4_170_67)">
<path d="M17.3819 10.1186L15.3402 9.5471C15.07 9.40683 14.8259 9.225 14.6233 8.99641C14.4622 8.84055 14.2804 8.70548 14.0881 8.59118C13.9479 8.51325 13.8388 8.54442 13.7556 8.6795C13.6725 8.81977 13.6933 8.92887 13.8284 9.01719C13.9842 9.1107 14.1297 9.21461 14.2648 9.33929C14.5193 9.61464 14.8155 9.83803 15.1532 10.0043L15.1895 10.0199L17.252 10.5965C17.2728 10.5965 17.2936 10.5965 17.3196 10.5965C17.4443 10.5809 17.517 10.5082 17.5326 10.3783C17.5534 10.2537 17.5014 10.1653 17.3819 10.1186Z" fill="white"/>
</g>
<path d="M14.3323 4.89738C14.4362 4.76231 14.4206 4.64282 14.2856 4.53891C14.1557 4.4402 14.0362 4.45579 13.9323 4.58567C13.9323 4.59606 13.1218 5.6403 12.6803 6.26372C12.6023 6.38841 12.566 6.51829 12.5712 6.66375C12.6283 7.20406 12.7218 7.73916 12.8569 8.26908C12.9764 8.76782 13.1582 9.41202 13.3556 9.67178C13.5479 9.93154 13.5479 9.98869 13.5479 10.0043C13.4128 10.2225 13.1842 10.0614 13.0335 9.84842C12.9348 9.71335 12.8205 9.69776 12.6854 9.79127C12.5504 9.88998 12.5296 10.0095 12.6283 10.1394C12.9868 10.6329 13.4491 10.7472 13.8128 10.4511C14.2648 10.0614 13.9687 9.66659 13.7557 9.38085C13.5219 9.06914 13.1218 7.38589 13.0699 6.63258C13.0751 6.60141 13.0803 6.57024 13.0959 6.54426C13.5375 5.92603 14.3219 4.90777 14.3323 4.89738Z" fill="white"/>
<mask id="mask5_170_67" style="mask-type:luminance" maskUnits="userSpaceOnUse" x="8" y="2" width="5" height="5">
<path d="M8.47733 2.92316H12.4672V6.95464H8.47733V2.92316Z" fill="white"/>
</mask>
<g mask="url(#mask5_170_67)">
<path d="M12.3218 3.34403C12.4101 3.20376 12.3893 3.08946 12.249 2.99595C12.114 2.90763 11.9945 2.92841 11.9062 3.06868L10.7424 4.82986C10.5242 5.04805 10.2749 5.2195 9.99432 5.33899C9.693 5.51043 9.42285 5.72343 9.18387 5.96761C9.06957 6.0819 9.06957 6.20139 9.18387 6.31569C9.29297 6.42998 9.41246 6.43518 9.52675 6.32608C9.72936 6.11827 9.95795 5.94163 10.2073 5.79097C10.545 5.63511 10.8463 5.4273 11.1061 5.15715C11.1165 5.14676 11.1269 5.13637 11.1321 5.12598L12.3218 3.34403Z" fill="white"/>
</g>
<path d="M5.37059 4.77266C5.37059 4.78306 6.13948 5.90003 6.59666 6.50267C6.68498 6.60138 6.79927 6.67411 6.92915 6.71048C7.62531 6.87673 9.49559 7.07934 10.0307 6.89751C10.3216 6.7988 10.3892 6.80919 10.4048 6.80919C10.6333 7.10532 10.1086 7.28195 9.79172 7.32351C9.41766 7.39105 8.57604 7.53132 8.87736 7.97811C8.98646 8.1028 9.10075 8.11319 9.22544 7.99889C9.32415 7.91577 9.63066 7.85862 9.88003 7.81706C10.4255 7.74433 10.784 7.47937 10.8775 7.26117C10.9814 7.07934 10.9866 6.89231 10.9087 6.69489C10.6749 6.1494 10.2073 6.30525 9.86964 6.42474C9.50078 6.54943 7.77597 6.40916 7.03825 6.22732C7.01228 6.21174 6.9863 6.19615 6.96032 6.17537C6.50834 5.56753 5.78101 4.5129 5.77581 4.49212C5.6823 4.34146 5.56801 4.31029 5.41734 4.4142C5.27188 4.5129 5.2511 4.63239 5.36539 4.77266H5.37059Z" fill="white"/>
<path d="M5.17838 7.46384L3.84841 5.78578C3.7445 5.6559 3.62501 5.64032 3.49513 5.74422C3.36525 5.84813 3.34967 5.96242 3.45357 6.0923L4.76796 7.75997C4.90823 8.03012 4.99655 8.32105 5.02772 8.62237C5.08487 8.9185 5.17838 9.20423 5.31346 9.46919C5.36022 9.5679 5.43295 9.61466 5.53685 9.61466C5.63037 9.61466 5.6979 9.57829 5.74986 9.50036C5.79661 9.42243 5.80181 9.34451 5.76544 9.26138C5.65115 9.03799 5.57322 8.8042 5.52127 8.56003C5.4849 8.17039 5.37061 7.80153 5.17838 7.46384Z" fill="white"/>
<mask id="mask6_170_67" style="mask-type:luminance" maskUnits="userSpaceOnUse" x="2" y="6" width="7" height="8">
<path d="M2.60675 6.95465H8.47734V13.6045H2.60675V6.95465Z" fill="white"/>
</mask>
<g mask="url(#mask6_170_67)">
<path d="M4.99654 12.2382C5.12123 12.1811 5.21993 12.0979 5.29786 11.9836C5.67711 11.3758 6.44081 9.65618 6.43042 9.0899C6.41483 8.96002 6.42522 8.83533 6.46679 8.71065C6.78369 8.59116 6.82526 9.01197 6.78369 9.33927C6.72135 9.80684 6.61745 10.3419 6.92396 10.5861C7.16814 10.7887 7.50583 10.6744 7.62012 10.6381L7.88508 10.5446C8.04613 10.4926 8.09808 10.3835 8.04094 10.2277C7.98379 10.0666 7.87988 10.0198 7.71883 10.0718L7.45388 10.1653C7.38634 10.1965 7.31361 10.2069 7.23568 10.2017C7.16295 10.0926 7.24607 9.62501 7.27204 9.40681C7.37075 8.66389 7.05904 8.15996 6.50835 8.19113C5.91609 8.23788 5.92129 8.73143 5.93168 9.0899C5.93168 9.47954 5.26669 11.0745 4.86666 11.7135C4.84588 11.7395 4.8251 11.755 4.79393 11.7706C4.07699 12.0148 2.84053 12.3785 2.83014 12.3785C2.66908 12.4252 2.61194 12.5291 2.65869 12.6902C2.70545 12.8512 2.80936 12.9084 2.97041 12.8616C2.97041 12.8616 4.2848 12.4772 4.99654 12.2382Z" fill="white"/>
</g>
<path d="M7.0123 13.8851C6.9032 13.8903 6.79929 13.8851 6.69539 13.8695C6.32653 13.7916 5.95767 13.7864 5.58361 13.8539C5.57322 13.8539 5.55764 13.8591 5.54205 13.8643L3.54709 14.6072C3.41201 14.6748 3.37045 14.7735 3.4224 14.9137C3.46916 15.0592 3.56787 15.1112 3.71334 15.0748L5.69791 14.3371C5.99923 14.2903 6.30575 14.2955 6.60187 14.3631C6.74214 14.3838 6.87722 14.3942 7.01749 14.3838C7.18374 14.3838 7.26686 14.3007 7.26686 14.1345C7.26167 13.9682 7.17854 13.8851 7.0123 13.8851Z" fill="white"/>
<mask id="mask7_170_67" style="mask-type:luminance" maskUnits="userSpaceOnUse" x="5" y="6" width="9" height="12">
<path d="M5.81738 6.95465H13.7972V17.875H5.81738V6.95465Z" fill="white"/>
</mask>
<g mask="url(#mask7_170_67)">
<path d="M12.2802 8.91324C12.1763 8.80934 12.0516 8.75739 11.9114 8.76258C11.7659 8.76258 11.6464 8.81973 11.5477 8.92883C11.5217 8.55997 11.3399 8.18591 10.9295 8.19111C10.6905 8.19111 10.5191 8.30021 10.4204 8.5236C10.3684 8.19111 10.1554 7.92615 9.80732 7.93135C9.3865 7.93135 9.24104 8.33138 9.24104 8.7418C9.12674 8.47165 8.91893 8.35216 8.6332 8.38333C8.47734 8.39372 8.35265 8.45607 8.25914 8.57556C8.03575 8.84571 8.09289 9.29769 8.13446 9.69772C8.15524 9.92112 8.17602 10.0822 8.21758 10.3627C8.25914 10.6484 8.3059 11.0017 8.33707 11.3394C8.37863 11.7706 8.37863 12.1551 8.38383 12.5187C8.38902 12.5967 8.37863 12.6694 8.34746 12.7421C8.22277 12.7733 7.80716 12.5551 7.60454 12.4616C6.92917 12.1395 6.35769 12.2797 6.21223 12.8097C6.07715 13.3863 6.54472 13.5318 6.8928 13.6409C7.26166 13.7552 8.57605 14.8825 9.05401 15.4592C9.06959 15.4852 9.07999 15.5164 9.08518 15.5475C9.08518 16.306 9.0592 17.5893 9.0592 17.6048C9.05401 17.7711 9.13194 17.8542 9.29818 17.8594C9.46443 17.8646 9.55275 17.7867 9.55794 17.6204C9.55794 17.6048 9.59431 16.2541 9.58392 15.5008C9.56834 15.3657 9.52158 15.2462 9.44365 15.1371C8.98128 14.5916 7.57857 13.3292 7.04346 13.1629C6.74733 13.0746 6.70058 13.0227 6.69019 13.0123C6.69019 12.9811 6.69019 12.9499 6.70058 12.9188C6.76812 12.7058 7.12658 12.7837 7.39154 12.9188C7.81755 13.1214 8.3007 13.3811 8.62281 13.1681C8.94491 12.9551 8.87737 12.6122 8.88257 12.42C8.88257 11.7083 8.83061 11.0017 8.71632 10.3004C8.67995 10.0302 8.65917 9.87436 8.63839 9.66136C8.61241 9.44316 8.56046 8.97559 8.64878 8.91324C8.81503 8.79375 8.90335 9.21457 8.97089 9.75487C9.15272 11.2511 9.24104 11.3966 9.37611 11.4901C9.44365 11.5368 9.51638 11.5524 9.59951 11.5368C9.8281 11.4849 9.8229 11.2459 9.81771 11.0537C9.81771 10.903 9.80731 10.7212 9.79692 10.4874C9.76056 9.96787 9.73458 9.03274 9.74497 8.76778C9.74497 8.53399 9.78653 8.46646 9.80732 8.45087C9.83329 8.44048 9.94239 8.45087 9.95798 8.81454C9.95798 8.90285 10.0567 10.477 10.0775 10.9342C10.0775 11.0225 10.0827 11.1108 10.0931 11.1939C10.1034 11.3134 10.1658 11.3966 10.2749 11.4433C10.3892 11.4901 10.4879 11.4693 10.5762 11.3914C10.6957 11.2927 10.7269 11.1524 10.7736 10.316C10.7944 9.90034 10.7996 9.59382 10.7996 9.37042C10.7996 9.27172 10.7996 9.18859 10.7996 9.12105C10.7996 8.88727 10.8775 8.70544 10.9347 8.70544C10.9918 8.70544 11.0438 8.70544 11.0698 9.15222C11.0905 9.65097 11.1321 10.5186 11.1321 10.7575C11.1321 11.2719 11.1581 11.4069 11.2776 11.5109C11.3399 11.568 11.4178 11.5888 11.501 11.5784C11.7295 11.542 11.7555 11.3186 11.7659 11.2199C11.7763 11.1264 11.7971 10.6173 11.8075 10.2432C11.8127 9.96268 11.8075 9.45874 11.927 9.27691C11.9841 9.41718 12.0101 9.56784 12.0049 9.7185C12.0205 10.0354 12.0049 10.4822 11.9945 11.0537C11.9789 11.6563 12.0309 12.3317 11.9945 12.9136C11.9789 13.4279 11.875 13.9266 11.6776 14.4098C11.4906 14.7319 11.3711 15.0852 11.3191 15.454C11.3191 15.4696 11.3191 15.4852 11.3191 15.5008L11.4074 17.636C11.4126 17.8023 11.501 17.8802 11.6672 17.875C11.8334 17.8698 11.9114 17.7815 11.9062 17.6152L11.8179 15.5008C11.8594 15.1943 11.9529 14.9033 12.1036 14.6332C12.2543 14.3682 12.4361 13.7344 12.4829 12.9343C12.5244 12.3265 12.4725 11.6667 12.4829 11.0537C12.5244 9.77565 12.54 9.19379 12.2802 8.91324Z" fill="white"/>
</g>
</svg>
