<svg width="14" height="14" viewBox="0 0 14 14" fill="none" xmlns="http://www.w3.org/2000/svg">
<path d="M6.01497 9.47919C5.72403 9.17267 5.57337 8.63757 5.56298 8.07129H4.90839C4.90839 8.80901 5.13698 9.474 5.50584 9.85325C5.85911 10.2169 6.42019 10.4351 7.1735 10.513V11.6975H7.69302V10.539C7.99434 10.539 8.29047 10.4975 8.57621 10.4195C8.86714 10.3364 9.1217 10.2117 9.35029 10.0455C9.57369 9.88442 9.75033 9.67661 9.8906 9.43243C10.0257 9.18826 10.0932 8.90772 10.0932 8.59081C10.0932 8.25312 10.0205 7.96738 9.8854 7.73879C9.74513 7.5154 9.5633 7.32318 9.3399 7.17252C9.11131 7.02705 8.85675 6.90756 8.56582 6.82444C8.28008 6.74131 7.98915 6.66858 7.69302 6.61143V3.80082C8.1502 3.80082 8.51906 3.94629 8.7996 4.23203C9.08534 4.52296 9.2412 4.99053 9.24639 5.47888H9.89579C9.90099 5.16197 9.84903 4.79311 9.73474 4.53335C9.61525 4.27359 9.45939 4.05019 9.25678 3.86317C9.04897 3.67614 8.80999 3.53587 8.53984 3.43196C8.26969 3.33325 7.98915 3.2865 7.69302 3.2865V2.36694H7.1735V3.29169C6.90854 3.30208 6.65917 3.33845 6.42539 3.41638C6.16563 3.5047 5.93184 3.62938 5.73443 3.79563C5.53701 3.96187 5.38115 4.15929 5.26686 4.39308C5.15256 4.62686 5.09541 4.89182 5.09541 5.18275C5.09541 5.53083 5.15256 5.81137 5.27205 6.03476C5.39154 6.25296 5.5474 6.43479 5.74482 6.58026C5.94223 6.72053 6.17602 6.83483 6.44097 6.91795C6.67476 6.99588 6.92413 7.05303 7.1735 7.10498V10.0039C6.67995 9.93637 6.29031 9.75973 6.01497 9.47919ZM7.69302 7.21408C7.89044 7.26083 8.09305 7.31798 8.30086 7.38032C8.50867 7.44267 8.6957 7.52579 8.86194 7.62969C9.02819 7.7284 9.16846 7.85828 9.27237 8.01414C9.38147 8.17 9.43861 8.36742 9.43861 8.6012C9.43861 8.85057 9.38666 9.06877 9.28795 9.24541C9.18405 9.42724 9.05417 9.57271 8.88792 9.69219C8.72687 9.80649 8.53984 9.89481 8.33203 9.94676C8.12422 9.99871 7.91122 10.0247 7.69302 10.0247V7.21408ZM6.71632 6.37765C6.52929 6.3205 6.36824 6.25296 6.22278 6.15945C6.0825 6.07113 5.96821 5.95164 5.87989 5.81137C5.79677 5.66591 5.75001 5.47888 5.75001 5.25548C5.75001 5.00092 5.79157 4.78272 5.8695 4.59569C5.95262 4.40866 6.06172 4.258 6.20719 4.13851C6.34746 4.02422 6.50851 3.9359 6.69554 3.88395C6.8462 3.83719 7.00725 3.81641 7.1735 3.80602V6.49194C7.01764 6.45558 6.86179 6.41921 6.71632 6.37765Z" fill="white"/>
<mask id="mask0_170_59" style="mask-type:luminance" maskUnits="userSpaceOnUse" x="0" y="0" width="14" height="14">
<path d="M0.954803 0.553833H13.9117V13.5159H0.954803V0.553833Z" fill="white"/>
</mask>
<g mask="url(#mask0_170_59)">
<path d="M7.43324 13.5159C11.0127 13.5159 13.9117 10.6118 13.9117 7.03226C13.9117 3.45796 11.0127 0.553833 7.43324 0.553833C3.85373 0.553833 0.954803 3.45796 0.954803 7.03226C0.954803 10.6118 3.85373 13.5159 7.43324 13.5159ZM7.43324 1.07335C10.7218 1.07335 13.3921 3.74889 13.3921 7.03226C13.3921 10.3208 10.7218 12.9964 7.43324 12.9964C4.14467 12.9964 1.46913 10.3208 1.46913 7.03226C1.46913 3.74889 4.14467 1.07335 7.43324 1.07335Z" fill="white"/>
</g>
</svg>
