<svg width="43" height="84" viewBox="0 0 43 84" fill="none" xmlns="http://www.w3.org/2000/svg">
<mask id="mask0_102_13012" style="mask-type:luminance" maskUnits="userSpaceOnUse" x="1" y="0" width="41" height="84">
<path d="M1.32022 0.978638H41.739V83.3955H1.32022V0.978638Z" fill="white"/>
</mask>
<g mask="url(#mask0_102_13012)">
<mask id="mask1_102_13012" style="mask-type:luminance" maskUnits="userSpaceOnUse" x="1" y="0" width="41" height="84">
<path d="M36.019 0.983887H7.04533C3.90742 0.983887 1.35657 3.52954 1.35657 6.67265V77.686C1.35657 80.8239 3.90742 83.3748 7.04533 83.3748H36.019C39.1569 83.3748 41.7078 80.8239 41.7078 77.686V6.67265C41.7078 3.52954 39.1569 0.983887 36.019 0.983887ZM26.3715 3.59188C26.6573 3.59188 26.8858 3.81528 26.8858 4.10102C26.8858 4.38675 26.6573 4.61015 26.3715 4.61015C26.0858 4.61015 25.8624 4.38675 25.8624 4.10102C25.8624 3.81528 26.1066 3.59188 26.3715 3.59188ZM18.8489 3.75294H23.7427C23.9246 3.75294 24.0908 3.8984 24.0908 4.10102C24.0908 4.30363 23.9246 4.44909 23.7427 4.44909H18.8489C18.667 4.44909 18.506 4.30363 18.506 4.10102C18.506 3.8984 18.667 3.75294 18.8489 3.75294ZM39.6245 78.0133C39.6245 79.868 38.1179 81.3746 36.2632 81.3746H6.84271C4.98802 81.3746 3.47621 79.868 3.47621 78.0133V6.44406C3.47621 4.58937 4.98802 3.08275 6.84271 3.08275H11.2223V3.99711C11.2223 5.04135 12.0795 5.89336 13.1185 5.89336H29.9822C31.0212 5.89336 31.8784 5.04135 31.8784 3.99711V3.08275H36.2424C38.0971 3.08275 39.6037 4.58937 39.6037 6.44406V78.0133H39.6245Z" fill="white"/>
</mask>
<g mask="url(#mask1_102_13012)">
<path d="M0.499359 0.573486H42.5598V83.8008H0.499359V0.573486Z" fill="black"/>
</g>
</g>
<mask id="mask2_102_13012" style="mask-type:luminance" maskUnits="userSpaceOnUse" x="18" y="3" width="7" height="2">
<path d="M18.4073 3.62817H24.1584V4.64124H18.4073V3.62817Z" fill="white"/>
</mask>
<g mask="url(#mask2_102_13012)">
<mask id="mask3_102_13012" style="mask-type:luminance" maskUnits="userSpaceOnUse" x="18" y="3" width="7" height="2">
<path d="M23.7428 3.75281H18.8489C18.667 3.75281 18.506 3.89827 18.506 4.10089C18.506 4.3035 18.667 4.44897 18.8489 4.44897H23.7428C23.9246 4.44897 24.0908 4.3035 24.0908 4.10089C24.0908 3.89827 23.9246 3.75281 23.7428 3.75281Z" fill="white"/>
</mask>
<g mask="url(#mask3_102_13012)">
<path d="M0.499359 0.573364H42.5598V83.8007H0.499359V0.573364Z" fill="#555555"/>
</g>
</g>
<mask id="mask4_102_13012" style="mask-type:luminance" maskUnits="userSpaceOnUse" x="25" y="3" width="2" height="2">
<path d="M25.8053 3.42029H26.9534V4.64116H25.8053V3.42029Z" fill="white"/>
</mask>
<g mask="url(#mask4_102_13012)">
<mask id="mask5_102_13012" style="mask-type:luminance" maskUnits="userSpaceOnUse" x="25" y="3" width="2" height="2">
<path d="M26.3715 3.5918C26.091 3.5918 25.8624 3.82039 25.8624 4.10093C25.8624 4.38147 26.091 4.61006 26.3715 4.61006C26.6573 4.61006 26.8859 4.38147 26.8859 4.10093C26.8859 3.82039 26.6573 3.5918 26.3715 3.5918Z" fill="white"/>
</mask>
<g mask="url(#mask5_102_13012)">
<path d="M0.499359 0.573364H42.5598V83.8007H0.499359V0.573364Z" fill="#555555"/>
</g>
</g>
<mask id="mask6_102_13012" style="mask-type:luminance" maskUnits="userSpaceOnUse" x="0" y="11" width="1" height="5">
<path d="M0.499359 11.5612H0.992904V15.0212H0.499359V11.5612Z" fill="white"/>
</mask>
<g mask="url(#mask6_102_13012)">
<mask id="mask7_102_13012" style="mask-type:luminance" maskUnits="userSpaceOnUse" x="0" y="11" width="1" height="5">
<path d="M0.499359 12.0132V14.5589C0.499359 14.8031 0.701972 15.0109 0.951343 15.0109V11.582C0.701972 11.582 0.499359 11.7691 0.499359 12.0132Z" fill="white"/>
</mask>
<g mask="url(#mask7_102_13012)">
<path d="M0.499359 0.573364H42.5598V83.8007H0.499359V0.573364Z" fill="#2E2E2E"/>
</g>
</g>
<mask id="mask8_102_13012" style="mask-type:luminance" maskUnits="userSpaceOnUse" x="0" y="17" width="1" height="7">
<path d="M0.499359 17.463H0.992904V23.77H0.499359V17.463Z" fill="white"/>
</mask>
<g mask="url(#mask8_102_13012)">
<mask id="mask9_102_13012" style="mask-type:luminance" maskUnits="userSpaceOnUse" x="0" y="17" width="1" height="7">
<path d="M0.499359 17.9877V23.2868C0.499359 23.531 0.701972 23.7336 0.951343 23.7336V17.5565C0.701972 17.5565 0.499359 17.7435 0.499359 17.9877Z" fill="white"/>
</mask>
<g mask="url(#mask9_102_13012)">
<path d="M0.499359 0.573364H42.5598V83.8007H0.499359V0.573364Z" fill="#2E2E2E"/>
</g>
</g>
<mask id="mask10_102_13012" style="mask-type:luminance" maskUnits="userSpaceOnUse" x="0" y="24" width="1" height="8">
<path d="M0.499359 24.9908H0.992904V31.2771H0.499359V24.9908Z" fill="white"/>
</mask>
<g mask="url(#mask10_102_13012)">
<mask id="mask11_102_13012" style="mask-type:luminance" maskUnits="userSpaceOnUse" x="0" y="25" width="1" height="7">
<path d="M0.499359 25.5311V30.8303C0.499359 31.0744 0.701972 31.2771 0.951343 31.2771V25.0792C0.701972 25.0792 0.499359 25.287 0.499359 25.5311Z" fill="white"/>
</mask>
<g mask="url(#mask11_102_13012)">
<path d="M0.499359 0.573364H42.5598V83.8007H0.499359V0.573364Z" fill="#2E2E2E"/>
</g>
</g>
<mask id="mask12_102_13012" style="mask-type:luminance" maskUnits="userSpaceOnUse" x="42" y="19" width="1" height="11">
<path d="M42.0715 19.4995H42.5598V29.6717H42.0715V19.4995Z" fill="white"/>
</mask>
<g mask="url(#mask12_102_13012)">
<mask id="mask13_102_13012" style="mask-type:luminance" maskUnits="userSpaceOnUse" x="42" y="19" width="1" height="11">
<path d="M42.113 19.5982V29.5263C42.3572 29.5263 42.5598 29.3236 42.5598 29.0795V20.045C42.5598 19.8008 42.3572 19.5982 42.113 19.5982Z" fill="white"/>
</mask>
<g mask="url(#mask13_102_13012)">
<path d="M0.499359 0.573364H42.5598V83.8007H0.499359V0.573364Z" fill="#2E2E2E"/>
</g>
</g>
<mask id="mask14_102_13012" style="mask-type:luminance" maskUnits="userSpaceOnUse" x="0" y="0" width="43" height="84">
<path d="M0.82666 0.573364H42.2325V83.8007H0.82666V0.573364Z" fill="white"/>
</mask>
<g mask="url(#mask14_102_13012)">
<mask id="mask15_102_13012" style="mask-type:luminance" maskUnits="userSpaceOnUse" x="0" y="0" width="43" height="84">
<path d="M42.113 19.5982V6.67255C42.113 6.24134 42.0715 5.83612 41.9935 5.44648C41.952 5.24386 41.9104 5.06203 41.8481 4.85422C41.765 4.56848 41.6455 4.28275 41.5208 4.01779C41.4429 3.83596 41.3389 3.67491 41.235 3.50866C41.1363 3.34761 41.0324 3.18136 40.9129 3.02031C40.7259 2.77613 40.5441 2.57352 40.3415 2.35013C40.196 2.20466 40.0557 2.08517 39.9103 1.96049C38.8504 1.0825 37.5049 0.573364 36.0398 0.573364H7.04534C5.5751 0.573364 4.20875 1.10328 3.16971 1.96049C3.02944 2.08517 2.88397 2.22544 2.7437 2.35013C2.54109 2.55274 2.33328 2.77613 2.17223 3.02031C2.04755 3.18136 1.94884 3.34761 1.84493 3.50866C1.74622 3.67491 1.64232 3.85674 1.5592 4.01779C1.41892 4.30353 1.31502 4.56848 1.21631 4.85422C1.15397 5.06203 1.11241 5.24386 1.07084 5.44648C0.987721 5.83612 0.951355 6.26212 0.951355 6.67255V77.6859C0.951355 81.0472 3.67884 83.7799 7.04534 83.7799H36.0191C39.3804 83.7799 42.113 81.0472 42.113 77.6859V19.5982ZM41.7078 19.5982V77.7067C41.7078 80.8446 39.157 83.3955 36.0191 83.3955H7.04534C3.90743 83.3955 1.35658 80.8446 1.35658 77.7067V6.68813C1.35658 3.52944 3.90743 0.983786 7.04534 0.983786H36.0191C39.157 0.983786 41.7078 3.52944 41.7078 6.67255V19.5982Z" fill="white"/>
</mask>
<g mask="url(#mask15_102_13012)">
<path d="M0.499359 0.573364H42.5598V83.8007H0.499359V0.573364Z" fill="#555555"/>
</g>
</g>
</svg>
