<svg width="179" height="333" viewBox="0 0 179 333" fill="none" xmlns="http://www.w3.org/2000/svg">
<mask id="mask0_124_13364" style="mask-type:luminance" maskUnits="userSpaceOnUse" x="0" y="0" width="179" height="333">
<path d="M0 0H179V333H0V0Z" fill="white"/>
</mask>
<g mask="url(#mask0_124_13364)">
<path d="M145.679 0H33.4542C14.9278 0 0 16.6833 0 37.1038V295.896C0 316.317 14.9278 333 33.4542 333H145.679C164.072 333 179 316.317 179 295.896V37.1038C179 16.6833 164.072 0 145.679 0ZM9.72971 42.4425H169.27V266.133H9.72971V42.4425ZM33.4542 10.8108H145.679C157.008 10.8108 166.605 19.7531 168.87 31.6317H10.2628C12.5287 19.7531 21.9918 10.8108 33.4542 10.8108ZM145.679 322.189H33.4542C20.3924 322.189 9.72971 310.444 9.72971 295.896V276.944H169.27V295.896C169.27 310.444 158.741 322.189 145.679 322.189Z" fill="white"/>
</g>
<mask id="mask1_124_13364" style="mask-type:luminance" maskUnits="userSpaceOnUse" x="56" y="276" width="69" height="57">
<path d="M56.2458 276.543H124.487V332.999H56.2458V276.543Z" fill="white"/>
</mask>
<g mask="url(#mask1_124_13364)">
<path d="M89.5666 283.884C81.8362 283.884 75.4386 290.824 75.4386 299.366C75.4386 308.041 81.8362 314.982 89.5666 314.982C97.2971 314.982 103.561 308.041 103.561 299.366C103.561 290.824 97.2971 283.884 89.5666 283.884ZM89.5666 304.171C87.1675 304.171 85.1683 302.035 85.1683 299.366C85.1683 296.83 87.1675 294.695 89.5666 294.695C91.9658 294.695 93.8317 296.83 93.8317 299.366C93.8317 302.035 91.9658 304.171 89.5666 304.171Z" fill="white"/>
</g>
</svg>
