<svg width="21" height="21" viewBox="0 0 21 21" fill="none" xmlns="http://www.w3.org/2000/svg">
<mask id="mask0_168_50" style="mask-type:luminance" maskUnits="userSpaceOnUse" x="0" y="0" width="21" height="21">
<path d="M0.351532 0.456299H20.2908V20.3955H0.351532V0.456299Z" fill="white"/>
</mask>
<g mask="url(#mask0_168_50)">
<path d="M3.9934 2.98638C3.92066 2.89807 3.93105 2.76819 4.02457 2.69545C4.02457 2.69545 4.02457 2.69545 4.02457 2.69026C4.11289 2.61752 4.24796 2.63311 4.3207 2.72143C4.39343 2.81494 4.37784 2.94482 4.28952 3.01756C4.24796 3.04873 4.20121 3.06431 4.15445 3.06431C4.0973 3.06431 4.03496 3.03834 3.9934 2.98638ZM4.30511 17.8499C4.2116 17.7772 4.08172 17.7875 4.00898 17.8811C3.93625 17.9694 3.94664 18.1045 4.04015 18.1772C4.07652 18.2084 4.12328 18.2239 4.17003 18.2239C4.23238 18.2239 4.29472 18.198 4.33628 18.146C4.40902 18.0525 4.39343 17.9226 4.30511 17.8499ZM5.09478 2.38893C5.13115 2.38893 5.17271 2.37854 5.20388 2.35776C5.30259 2.29542 5.33376 2.16554 5.27142 2.06683C5.20908 1.96812 5.0792 1.94215 4.98049 2.00449C4.88178 2.06683 4.8558 2.19671 4.91815 2.29023C4.95451 2.35776 5.02725 2.38893 5.09478 2.38893ZM2.72577 16.229C2.65823 16.1355 2.52315 16.1199 2.43483 16.1926C2.34132 16.2602 2.32573 16.39 2.39327 16.4836C2.43483 16.5407 2.49718 16.5667 2.55952 16.5667C2.60628 16.5667 2.65303 16.5511 2.6894 16.5251C2.78291 16.4524 2.7985 16.3225 2.72577 16.229ZM5.22466 18.5097C5.12595 18.4473 4.99607 18.4733 4.93373 18.572C4.87139 18.6707 4.89736 18.8006 4.99607 18.863C5.03244 18.8837 5.074 18.8993 5.11037 18.8993C5.17791 18.8993 5.24544 18.863 5.28701 18.8006C5.34935 18.7019 5.31818 18.572 5.22466 18.5097ZM3.17255 17.081C3.08943 17.1641 3.08424 17.294 3.16736 17.3771C3.20892 17.4187 3.26087 17.4395 3.31802 17.4395C3.36997 17.4395 3.42192 17.4239 3.46349 17.3823C3.54661 17.2992 3.54661 17.1693 3.46868 17.0862C3.38556 17.0031 3.25568 16.9979 3.17255 17.081ZM9.43279 0.918689C9.43798 0.918689 9.44837 0.913494 9.45357 0.913494C9.56786 0.903104 9.65618 0.804394 9.64579 0.6901C9.6354 0.570609 9.5315 0.487487 9.4172 0.497877C9.29771 0.508268 9.21459 0.606976 9.22498 0.726466C9.23537 0.835565 9.32369 0.918689 9.43279 0.918689ZM6.10785 1.82785C6.13383 1.82785 6.165 1.82266 6.19617 1.80707C6.30007 1.76031 6.34683 1.63563 6.29488 1.52653C6.24293 1.42262 6.11824 1.38106 6.01434 1.42782C5.91043 1.47977 5.86368 1.60446 5.91563 1.70836C5.95199 1.78629 6.02473 1.82785 6.10785 1.82785ZM8.35218 19.7773C8.24308 19.7565 8.12879 19.8293 8.10801 19.9384C8.08203 20.0527 8.15476 20.167 8.26906 20.1877C8.28464 20.1929 8.29503 20.1929 8.31062 20.1929C8.40933 20.1929 8.49765 20.1254 8.51843 20.0267C8.53921 19.9124 8.46648 19.8033 8.35218 19.7773ZM8.28984 1.09013C8.30543 1.09013 8.32101 1.08494 8.3314 1.08494C8.4457 1.05896 8.51843 0.94986 8.49765 0.835566C8.47167 0.72127 8.36257 0.648538 8.24828 0.669319C8.13398 0.695295 8.06125 0.80959 8.08723 0.918689C8.10801 1.0174 8.19113 1.09013 8.28984 1.09013ZM7.17806 1.39145C7.19884 1.39145 7.21963 1.39145 7.2456 1.38106C7.3547 1.3447 7.41185 1.22521 7.37548 1.11611C7.33912 1.00701 7.21962 0.944665 7.11053 0.986227C6.99623 1.02259 6.93908 1.14208 6.97545 1.25118C7.00662 1.3395 7.08974 1.39145 7.17806 1.39145ZM6.21175 19.0552C6.10785 19.0032 5.98316 19.05 5.93121 19.1539C5.88445 19.2578 5.92602 19.3825 6.02992 19.4344C6.06109 19.45 6.09226 19.4552 6.12344 19.4552C6.20136 19.4552 6.27929 19.4137 6.31046 19.3357C6.36242 19.2318 6.31566 19.1071 6.21175 19.0552ZM3.30243 3.84879C3.35958 3.84879 3.41153 3.82801 3.4531 3.78125C3.53622 3.69813 3.53622 3.56825 3.4479 3.48513C3.36478 3.4072 3.2349 3.4072 3.15177 3.49032C3.07384 3.57344 3.07384 3.70852 3.15697 3.78645C3.19853 3.82801 3.25048 3.84879 3.30243 3.84879ZM1.29189 6.69577C1.31786 6.70616 1.34903 6.71135 1.37501 6.71135C1.45813 6.71135 1.53606 6.6646 1.56723 6.58667C1.61399 6.48276 1.56723 6.35808 1.46333 6.31132C1.35423 6.26456 1.22954 6.31132 1.18279 6.42042C1.13603 6.52432 1.18279 6.64901 1.29189 6.69577ZM0.912636 7.78676C0.933416 7.79715 0.954197 7.79715 0.974978 7.79715C1.0633 7.79715 1.14642 7.74001 1.17759 7.64649C1.20876 7.53739 1.14642 7.4179 1.03732 7.38673C0.923027 7.35036 0.808732 7.4179 0.772365 7.527C0.741194 7.6361 0.803536 7.75559 0.912636 7.78676ZM0.559361 10.0727C0.564556 10.0727 0.569751 10.0727 0.569751 10.0727C0.684045 10.0727 0.772364 9.98434 0.782755 9.87004C0.78795 9.75575 0.699631 9.65704 0.585337 9.65184C0.465847 9.64665 0.367138 9.72977 0.361943 9.84926C0.356747 9.96356 0.445067 10.0623 0.559361 10.0727ZM0.66846 8.91932C0.67885 8.91932 0.694437 8.92451 0.704827 8.92451C0.803536 8.92451 0.891855 8.85178 0.912636 8.74788C0.933416 8.63358 0.855488 8.52448 0.741193 8.5037C0.626899 8.48292 0.517799 8.56085 0.497018 8.67514C0.476238 8.78944 0.554165 8.89854 0.66846 8.91932ZM2.42444 4.68002C2.46081 4.71119 2.50757 4.72159 2.54913 4.72159C2.61147 4.72159 2.67381 4.69561 2.71537 4.64366C2.78811 4.55014 2.76733 4.41507 2.67901 4.34753C2.58549 4.2748 2.45561 4.29558 2.38288 4.3839C2.31015 4.47741 2.33093 4.61249 2.42444 4.68002ZM19.7972 9.27779C19.8128 9.38689 19.9011 9.46482 20.005 9.46482C20.0154 9.46482 20.0258 9.46482 20.031 9.46482C20.1453 9.44923 20.2284 9.34533 20.2181 9.22584C20.2025 9.11154 20.0986 9.03361 19.9843 9.044C19.8648 9.05959 19.7868 9.16349 19.7972 9.27779ZM19.5998 8.16601C19.6206 8.25953 19.7089 8.32706 19.8024 8.32706C19.818 8.32706 19.8336 8.32187 19.8492 8.32187C19.9635 8.2907 20.031 8.1816 20.005 8.0673C19.9791 7.95301 19.8648 7.88547 19.7505 7.91145C19.6414 7.93742 19.5686 8.05172 19.5998 8.16601ZM1.79582 5.65672C1.83219 5.67231 1.86855 5.6827 1.90492 5.6827C1.97765 5.6827 2.04519 5.64633 2.08675 5.5788C2.1439 5.48009 2.11273 5.35021 2.00883 5.29306C1.91012 5.23072 1.78024 5.26708 1.72309 5.36579C1.66594 5.4645 1.69711 5.59438 1.79582 5.65672ZM1.80621 15.2159C1.7075 15.2783 1.67633 15.4081 1.73348 15.5069C1.77504 15.5744 1.84258 15.6108 1.91531 15.6108C1.95168 15.6108 1.98805 15.6004 2.01922 15.5796C2.12312 15.5224 2.15429 15.3926 2.09714 15.2938C2.0348 15.1899 1.90492 15.1588 1.80621 15.2159ZM0.585337 11.226C0.699631 11.2208 0.78795 11.1221 0.782755 11.0026C0.77756 10.8883 0.673656 10.8 0.559361 10.8052C0.445067 10.8156 0.356747 10.9143 0.361943 11.0286C0.367138 11.1429 0.460653 11.226 0.574947 11.226C0.574947 11.226 0.580141 11.226 0.585337 11.226ZM1.30228 14.1821C1.19318 14.2288 1.14642 14.3535 1.19318 14.4574C1.22435 14.5353 1.30228 14.5821 1.3854 14.5821C1.41138 14.5821 1.44255 14.5769 1.46852 14.5665C1.57762 14.5198 1.62438 14.3951 1.57762 14.286C1.53087 14.1821 1.40618 14.1353 1.30228 14.1821ZM1.18279 13.2262C1.14642 13.1171 1.03212 13.0547 0.917831 13.0859C0.80873 13.1222 0.746388 13.2365 0.77756 13.3508C0.808731 13.4392 0.891855 13.5015 0.980173 13.5015C1.00096 13.5015 1.02173 13.4963 1.04252 13.4911C1.15162 13.4547 1.21396 13.3352 1.18279 13.2262ZM0.917831 12.13C0.897049 12.0157 0.78795 11.9377 0.673656 11.9585C0.55936 11.9793 0.481431 12.0884 0.502214 12.2027C0.522993 12.3014 0.611313 12.3741 0.710022 12.3741C0.720412 12.3741 0.735999 12.3741 0.746389 12.3741C0.860684 12.3534 0.93861 12.2443 0.917831 12.13ZM7.26119 19.4812C7.15209 19.4448 7.0326 19.502 6.99623 19.6111C6.95986 19.7202 7.01701 19.8397 7.12611 19.8812C7.15209 19.8864 7.17287 19.8916 7.19365 19.8916C7.28197 19.8916 7.36509 19.8345 7.39626 19.7461C7.43263 19.637 7.37029 19.5176 7.26119 19.4812ZM16.8931 3.42278C16.9503 3.42278 17.0074 3.402 17.049 3.35524C17.1269 3.27212 17.1217 3.13705 17.0334 3.05912C16.9503 2.98119 16.8152 2.98638 16.7373 3.0747C16.6593 3.15783 16.6645 3.2929 16.7528 3.37083C16.7892 3.4072 16.8412 3.42278 16.8931 3.42278ZM18.4049 5.16837C18.4413 5.16837 18.4829 5.15798 18.5192 5.13201C18.6179 5.06966 18.6439 4.93978 18.5764 4.84108C18.514 4.74756 18.3789 4.72159 18.2854 4.78393C18.1867 4.85147 18.1659 4.98135 18.2283 5.08006C18.2698 5.1372 18.3374 5.16837 18.4049 5.16837ZM18.5296 15.7043C18.4361 15.6419 18.3062 15.6679 18.2387 15.7614C18.1763 15.8601 18.1971 15.99 18.2958 16.0575C18.3322 16.0783 18.3738 16.0887 18.4153 16.0887C18.4828 16.0887 18.5452 16.0575 18.5868 16.0004C18.6543 15.9017 18.6283 15.7718 18.5296 15.7043ZM16.7632 17.4758C16.6801 17.5538 16.6749 17.6836 16.7528 17.772C16.7944 17.8187 16.8516 17.8395 16.9035 17.8395C16.9555 17.8395 17.0074 17.8239 17.049 17.7824C17.1321 17.7044 17.1373 17.5745 17.0594 17.4862C16.9814 17.4031 16.8516 17.3979 16.7632 17.4758ZM17.6984 4.25402C17.7503 4.25402 17.7971 4.23843 17.8386 4.20206C17.927 4.12414 17.9322 3.99426 17.8594 3.90594C17.7815 3.81762 17.6516 3.80723 17.5633 3.88516C17.475 3.95789 17.4646 4.09297 17.5425 4.18128C17.5841 4.22804 17.6412 4.25402 17.6984 4.25402ZM18.992 6.16586C19.0283 6.16586 19.0595 6.15547 19.0907 6.13988C19.1946 6.08793 19.2362 5.95805 19.179 5.85934C19.1271 5.75543 19.0024 5.71387 18.8985 5.76582C18.7946 5.81778 18.753 5.94766 18.805 6.05156C18.8465 6.12429 18.9192 6.16586 18.992 6.16586ZM17.5529 16.6602C17.475 16.7485 17.4854 16.8836 17.5737 16.9615C17.6152 16.9927 17.662 17.0083 17.714 17.0083C17.7711 17.0083 17.8283 16.9875 17.8698 16.9355C17.9477 16.8472 17.9374 16.7173 17.849 16.6394C17.7607 16.5667 17.6256 16.5771 17.5529 16.6602ZM20.0362 11.3715C19.9167 11.3611 19.8128 11.4442 19.8024 11.5585C19.7868 11.6728 19.87 11.7767 19.9843 11.7923C19.9947 11.7923 19.9999 11.7923 20.0102 11.7923C20.1141 11.7923 20.2077 11.7143 20.2181 11.6052C20.2336 11.491 20.1505 11.387 20.0362 11.3715ZM19.1011 14.6964C18.9972 14.6444 18.8673 14.686 18.8153 14.7899C18.7634 14.8938 18.805 15.0185 18.9089 15.0705C18.9348 15.086 18.9712 15.0964 19.0024 15.0964C19.0803 15.0964 19.153 15.0549 19.1894 14.9821C19.2414 14.8782 19.1998 14.7535 19.1011 14.6964ZM19.8544 12.5144C19.7453 12.4884 19.631 12.556 19.5998 12.6703C19.5738 12.7846 19.6466 12.8989 19.7557 12.9248C19.7713 12.93 19.792 12.93 19.8076 12.93C19.9011 12.93 19.9895 12.8677 20.0102 12.769C20.0362 12.6547 19.9687 12.5456 19.8544 12.5144ZM20.2856 10.4052C20.2856 10.2909 20.1921 10.1973 20.0778 10.1973C19.9583 10.1973 19.8648 10.2909 19.8648 10.4103V10.4259C19.8648 10.5454 19.9635 10.6389 20.0778 10.6389C20.1921 10.6389 20.2856 10.5454 20.2856 10.4259C20.2856 10.4259 20.2856 10.4207 20.2856 10.4155C20.2856 10.4155 20.2856 10.4103 20.2856 10.4052ZM19.5427 13.6314C19.4336 13.5898 19.3141 13.647 19.2725 13.7561C19.231 13.8652 19.2881 13.9847 19.3972 14.0262C19.418 14.0314 19.444 14.0366 19.4699 14.0366C19.5531 14.0366 19.6362 13.9847 19.6674 13.9015C19.7089 13.7924 19.6518 13.6729 19.5427 13.6314ZM19.4647 7.22048C19.4855 7.22048 19.5115 7.21529 19.5375 7.2049C19.6466 7.16853 19.6985 7.04385 19.657 6.93475C19.6206 6.82565 19.4959 6.7737 19.3868 6.81526C19.2777 6.85682 19.2258 6.97631 19.2673 7.08541C19.2985 7.16853 19.3764 7.22048 19.4647 7.22048ZM13.8903 1.56809C13.9163 1.57848 13.9422 1.58368 13.9682 1.58368C14.0513 1.58368 14.1345 1.53692 14.1656 1.4538C14.2072 1.3447 14.1552 1.22001 14.0513 1.17845C13.9422 1.13689 13.8175 1.18884 13.776 1.29274C13.7292 1.40184 13.7812 1.52653 13.8903 1.56809ZM11.7291 19.876C11.6148 19.8916 11.5368 20.0007 11.5524 20.115C11.568 20.2189 11.6615 20.2916 11.7602 20.2916C11.7706 20.2916 11.781 20.2916 11.7914 20.2916C11.9057 20.2761 11.9888 20.167 11.9681 20.0527C11.9525 19.9384 11.8486 19.8604 11.7291 19.876ZM12.8201 1.20962C12.8357 1.21482 12.8564 1.21482 12.872 1.21482C12.9655 1.21482 13.0487 1.15247 13.0746 1.05896C13.1058 0.949859 13.0435 0.83037 12.9292 0.804394C12.8149 0.773224 12.7006 0.840761 12.6694 0.94986C12.6382 1.06416 12.7058 1.17845 12.8201 1.20962ZM11.7135 0.975836C11.7239 0.981031 11.7343 0.981032 11.7395 0.981032C11.8434 0.981032 11.9317 0.903103 11.9473 0.799199C11.9681 0.684905 11.8849 0.580999 11.7706 0.560219C11.6563 0.544633 11.5524 0.622562 11.5317 0.742052C11.5161 0.856347 11.594 0.96025 11.7135 0.975836ZM12.8408 19.6422C12.7266 19.6734 12.659 19.7877 12.6902 19.902C12.7162 19.9955 12.7993 20.0579 12.8928 20.0579C12.9136 20.0579 12.9292 20.0527 12.9499 20.0475C13.059 20.0163 13.1266 19.902 13.0954 19.7877C13.0642 19.6786 12.9499 19.6111 12.8408 19.6422ZM10.6069 19.9747C10.4874 19.9799 10.3991 20.0734 10.3991 20.1929C10.4043 20.3072 10.4978 20.3955 10.6121 20.3955H10.6173C10.7316 20.3904 10.8251 20.2968 10.8199 20.1773C10.8199 20.0631 10.7212 19.9695 10.6069 19.9747ZM10.5861 0.882323H10.5913C10.7056 0.882323 10.7991 0.788808 10.7991 0.674514C10.8043 0.56022 10.7108 0.46151 10.5965 0.46151C10.477 0.456314 10.3835 0.54983 10.3783 0.664124C10.3783 0.778419 10.4666 0.877128 10.5861 0.882323ZM13.9111 19.2786C13.802 19.3253 13.75 19.4448 13.7968 19.5539C13.8279 19.637 13.9059 19.6838 13.989 19.6838C14.015 19.6838 14.0409 19.6786 14.0669 19.6682C14.176 19.6267 14.228 19.502 14.1864 19.3981C14.1397 19.289 14.0202 19.237 13.9111 19.2786ZM14.9293 18.7902C14.8306 18.8474 14.7942 18.9773 14.8462 19.076C14.8878 19.1487 14.9605 19.1851 15.0332 19.1851C15.0644 19.1851 15.1008 19.1799 15.1319 19.1591C15.2358 19.1071 15.2722 18.9773 15.2151 18.8733C15.1579 18.7746 15.0332 18.7383 14.9293 18.7902ZM9.47435 19.9436C9.36005 19.9332 9.25615 20.0163 9.24576 20.1358C9.23537 20.2501 9.31849 20.3488 9.43798 20.3592C9.44318 20.3592 9.44837 20.3644 9.45357 20.3644C9.56267 20.3644 9.65618 20.2813 9.66657 20.1722C9.67696 20.0527 9.58864 19.954 9.47435 19.9436ZM15.8697 2.65909C15.906 2.68506 15.9528 2.69545 15.9943 2.69545C16.0567 2.69545 16.1242 2.66428 16.1658 2.60713C16.2333 2.51362 16.2125 2.38374 16.1138 2.3162C16.0203 2.24866 15.8904 2.26945 15.8229 2.36296C15.7554 2.45647 15.7761 2.59155 15.8697 2.65909ZM14.9137 2.05644C14.9449 2.07203 14.9813 2.08242 15.0176 2.08242C15.0904 2.08242 15.1631 2.04086 15.1995 1.97332C15.2566 1.86941 15.2203 1.73953 15.1164 1.68758C15.0124 1.63043 14.8878 1.6668 14.8306 1.7707C14.7735 1.86941 14.8098 1.99929 14.9137 2.05644ZM15.8852 18.1876C15.7917 18.2551 15.7709 18.385 15.8385 18.4837C15.88 18.5409 15.9424 18.5668 16.0099 18.5668C16.0515 18.5668 16.0931 18.5564 16.1294 18.5305C16.2229 18.4629 16.2489 18.3279 16.1814 18.2343C16.1138 18.1408 15.9788 18.12 15.8852 18.1876Z" fill="#07664D"/>
</g>
<mask id="mask1_168_50" style="mask-type:luminance" maskUnits="userSpaceOnUse" x="1" y="1" width="18" height="18">
<path d="M1.55682 1.6615H18.6595V18.7641H1.55682V1.6615Z" fill="white"/>
</mask>
<g mask="url(#mask1_168_50)">
<mask id="mask2_168_50" style="mask-type:luminance" maskUnits="userSpaceOnUse" x="1" y="1" width="18" height="18">
<path d="M10.1081 1.6615C5.3857 1.6615 1.55682 5.48518 1.55682 10.2128C1.55682 14.9353 5.3857 18.7641 10.1081 18.7641C14.8306 18.7641 18.6595 14.9353 18.6595 10.2128C18.6595 5.48518 14.8306 1.6615 10.1081 1.6615Z" fill="white"/>
</mask>
<g mask="url(#mask2_168_50)">
<path d="M1.55682 1.6615H18.6595V18.7641H1.55682V1.6615Z" fill="#07664D"/>
</g>
</g>
<mask id="mask3_168_50" style="mask-type:luminance" maskUnits="userSpaceOnUse" x="6" y="3" width="8" height="14">
<path d="M6.38318 3.56299H13.3604V16.525H6.38318V3.56299Z" fill="white"/>
</mask>
<g mask="url(#mask3_168_50)">
<path d="M12.0615 3.56299H7.68718C6.96504 3.56299 6.38318 4.21239 6.38318 5.00726V15.0808C6.38318 15.8756 6.96504 16.525 7.68718 16.525H12.0615C12.7785 16.525 13.3604 15.8756 13.3604 15.0808V5.00726C13.3604 4.21239 12.7785 3.56299 12.0615 3.56299ZM6.76243 5.21507H12.9811V13.9222H6.76243V5.21507ZM7.68718 3.9838H12.0615C12.5031 3.9838 12.8772 4.33188 12.9655 4.79425H6.78321C6.87153 4.33188 7.24039 3.9838 7.68718 3.9838ZM12.0615 16.1042H7.68718C7.17805 16.1042 6.76243 15.6471 6.76243 15.0808V14.3431H12.9811V15.0808C12.9811 15.6471 12.5707 16.1042 12.0615 16.1042Z" fill="white"/>
</g>
<mask id="mask4_168_50" style="mask-type:luminance" maskUnits="userSpaceOnUse" x="8" y="14" width="4" height="3">
<path d="M8.57556 14.3275H11.2355V16.525H8.57556V14.3275Z" fill="white"/>
</mask>
<g mask="url(#mask4_168_50)">
<path d="M9.87436 14.6132C9.57304 14.6132 9.32367 14.8833 9.32367 15.2158C9.32367 15.5535 9.57304 15.8236 9.87436 15.8236C10.1757 15.8236 10.4199 15.5535 10.4199 15.2158C10.4199 14.8833 10.1757 14.6132 9.87436 14.6132ZM9.87436 15.4028C9.78085 15.4028 9.70292 15.3197 9.70292 15.2158C9.70292 15.1171 9.78085 15.034 9.87436 15.034C9.96788 15.034 10.0406 15.1171 10.0406 15.2158C10.0406 15.3197 9.96788 15.4028 9.87436 15.4028Z" fill="white"/>
</g>
</svg>
