<svg width="21" height="21" viewBox="0 0 21 21" fill="none" xmlns="http://www.w3.org/2000/svg">
<mask id="mask0_170_63" style="mask-type:luminance" maskUnits="userSpaceOnUse" x="0" y="0" width="21" height="21">
<path d="M0.149414 0.365234H20.0886V20.2993H0.149414V0.365234Z" fill="white"/>
</mask>
<g mask="url(#mask0_170_63)">
<path d="M3.79125 2.89013C3.71852 2.80181 3.72891 2.67193 3.82242 2.594C3.91074 2.52127 4.04581 2.53686 4.11855 2.62518C4.19128 2.71869 4.17569 2.84857 4.08738 2.9213C4.04581 2.95247 3.99906 2.96806 3.9523 2.96806C3.89515 2.96806 3.83281 2.94208 3.79125 2.89013ZM4.10296 17.7536C4.00945 17.6809 3.87957 17.6913 3.80683 17.7848C3.7341 17.8731 3.74449 18.0082 3.83801 18.0809C3.87437 18.1121 3.92113 18.1277 3.96789 18.1277C4.03023 18.1277 4.09257 18.0965 4.13413 18.0498C4.20687 17.9563 4.19128 17.8264 4.10296 17.7536ZM4.89263 2.29268C4.929 2.29268 4.97056 2.28229 5.00693 2.26151C5.10044 2.19917 5.13161 2.06929 5.06927 1.97058C5.00693 1.87187 4.87705 1.84589 4.77834 1.90824C4.67963 1.97058 4.65365 2.10046 4.716 2.19397C4.75236 2.26151 4.8251 2.29268 4.89263 2.29268ZM2.52881 16.1327C2.45608 16.0392 2.321 16.0236 2.23268 16.0912C2.13917 16.1639 2.12358 16.2938 2.19112 16.3873C2.23268 16.4444 2.29503 16.4704 2.35737 16.4704C2.40413 16.4704 2.45088 16.4548 2.48725 16.4289C2.58076 16.3561 2.59635 16.2262 2.52881 16.1327ZM5.02251 18.4134C4.92381 18.3511 4.79393 18.3771 4.73158 18.4758C4.66924 18.5745 4.69522 18.7044 4.79393 18.7667C4.83029 18.7875 4.87185 18.7979 4.90822 18.7979C4.97576 18.7979 5.0433 18.7667 5.08486 18.7044C5.1472 18.6057 5.11603 18.4758 5.02251 18.4134ZM2.97041 16.9847C2.88728 17.0679 2.88209 17.1978 2.96521 17.2809C3.00677 17.3224 3.05872 17.3432 3.11587 17.3432C3.16782 17.3432 3.21978 17.3276 3.26134 17.2861C3.34446 17.2029 3.34446 17.0731 3.26653 16.9899C3.18341 16.9068 3.05353 16.9016 2.97041 16.9847ZM9.23064 0.822437C9.23583 0.822437 9.24622 0.817241 9.25142 0.817241C9.36571 0.80685 9.45403 0.708141 9.44364 0.588652C9.43325 0.474357 9.32935 0.391233 9.21505 0.401624C9.09556 0.412014 9.01244 0.510723 9.02283 0.630214C9.03322 0.739313 9.12673 0.822437 9.23064 0.822437ZM5.9057 1.7316C5.93168 1.7316 5.96285 1.7264 5.99402 1.71082C6.09793 1.66406 6.14468 1.53938 6.09273 1.43028C6.04078 1.32637 5.91609 1.28481 5.81219 1.33157C5.70828 1.38352 5.66153 1.5082 5.71348 1.61211C5.74985 1.69004 5.82258 1.7316 5.9057 1.7316ZM8.15003 19.6811C8.04093 19.6551 7.92664 19.7278 7.90586 19.8421C7.87988 19.9564 7.95262 20.0707 8.06691 20.0915C8.0825 20.0967 8.09289 20.0967 8.10847 20.0967C8.20718 20.0967 8.2955 20.0291 8.31628 19.9304C8.33706 19.8161 8.26433 19.707 8.15003 19.6811ZM8.08769 0.993879C8.10328 0.993879 8.11886 0.988683 8.13445 0.988683C8.24355 0.962708 8.31628 0.853609 8.2955 0.739313C8.26952 0.625018 8.16043 0.552285 8.04613 0.573066C7.93184 0.599042 7.8591 0.708141 7.88508 0.822437C7.90586 0.921146 7.98898 0.993879 8.08769 0.993879ZM6.97592 1.2952C6.9967 1.2952 7.01748 1.2952 7.04345 1.28481C7.15255 1.24844 7.2097 1.12895 7.17333 1.01985C7.13697 0.910754 7.01748 0.848413 6.90838 0.889974C6.79408 0.926341 6.73694 1.04583 6.7733 1.15493C6.80447 1.24325 6.8876 1.2952 6.97592 1.2952ZM6.00961 18.9589C5.9057 18.907 5.78102 18.9537 5.72906 19.0576C5.68231 19.1615 5.72387 19.2862 5.82777 19.3382C5.85894 19.3538 5.89012 19.359 5.92129 19.359C5.99922 19.359 6.07714 19.3122 6.10831 19.2395C6.16027 19.1356 6.11351 19.0109 6.00961 18.9589ZM3.10029 3.75254C3.15743 3.75254 3.21458 3.73176 3.25095 3.685C3.33407 3.60188 3.33407 3.472 3.25095 3.38887C3.16782 3.31094 3.03275 3.31094 2.94962 3.39407C2.8717 3.47719 2.8717 3.61227 2.95482 3.69019C2.99638 3.73176 3.04833 3.75254 3.10029 3.75254ZM1.08974 6.59951C1.11571 6.6099 1.14689 6.6151 1.17286 6.6151C1.25598 6.6151 1.33391 6.56834 1.36508 6.49042C1.41184 6.38651 1.36508 6.26183 1.26118 6.21507C1.15208 6.16831 1.0274 6.21507 0.980638 6.31897C0.933882 6.42807 0.985835 6.55276 1.08974 6.59951ZM0.710487 7.69051C0.731268 7.7009 0.752049 7.7009 0.77283 7.7009C0.861149 7.7009 0.944272 7.64375 0.975443 7.55024C1.00661 7.44114 0.944273 7.32165 0.835172 7.29048C0.720878 7.25411 0.606582 7.31645 0.570216 7.43075C0.539044 7.53985 0.601388 7.65934 0.710487 7.69051ZM0.357212 9.97121C0.362409 9.9764 0.367603 9.9764 0.367603 9.9764C0.481897 9.9764 0.570217 9.88808 0.580607 9.77379C0.585802 9.6595 0.497484 9.56079 0.383189 9.55559C0.2637 9.5452 0.164989 9.63352 0.159794 9.75301C0.154599 9.8673 0.242918 9.96601 0.357212 9.97121ZM0.466312 8.82307C0.476703 8.82307 0.492289 8.82826 0.502678 8.82826C0.601388 8.82826 0.689706 8.75553 0.710487 8.65162C0.731268 8.53733 0.65334 8.42823 0.539045 8.40745C0.42475 8.38667 0.315651 8.4646 0.29487 8.57889C0.274089 8.69319 0.352018 8.80229 0.466312 8.82307ZM2.22229 4.58377C2.25866 4.61494 2.30542 4.62533 2.34698 4.62533C2.40932 4.62533 2.47166 4.59936 2.51323 4.5474C2.58596 4.45389 2.57037 4.31882 2.47686 4.25128C2.38335 4.17855 2.25346 4.19932 2.18073 4.28764C2.108 4.38116 2.12878 4.51623 2.22229 4.58377ZM19.5951 9.18154C19.6107 9.29064 19.699 9.36856 19.8029 9.36856C19.8133 9.36856 19.8237 9.36856 19.8289 9.36337C19.9432 9.35298 20.0263 9.24907 20.0159 9.12958C20.0003 9.01529 19.8964 8.93217 19.7821 8.94775C19.6678 8.96334 19.5847 9.06724 19.5951 9.18154ZM19.3977 8.06976C19.4185 8.16327 19.5068 8.23081 19.6003 8.23081C19.6159 8.23081 19.6315 8.22562 19.647 8.22562C19.7613 8.19445 19.8341 8.08015 19.8029 7.97105C19.7769 7.85676 19.6626 7.78922 19.5483 7.81519C19.4392 7.84117 19.3665 7.95546 19.3977 8.06976ZM1.59367 5.56047C1.63004 5.57606 1.66641 5.58645 1.70277 5.58645C1.77551 5.58645 1.84304 5.55008 1.88461 5.48254C1.94175 5.38384 1.91058 5.25395 1.80668 5.19681C1.70797 5.13447 1.57809 5.17083 1.52094 5.26954C1.46379 5.36825 1.49496 5.49813 1.59367 5.56047ZM1.60406 15.1197C1.50535 15.182 1.47418 15.3119 1.53133 15.4106C1.57289 15.4781 1.64043 15.5145 1.71316 15.5145C1.74953 15.5145 1.7859 15.5041 1.81707 15.4833C1.92097 15.4262 1.95214 15.2963 1.895 15.1976C1.83265 15.0937 1.70277 15.0625 1.60406 15.1197ZM0.383189 11.1297C0.497484 11.1245 0.585802 11.0258 0.580607 10.9063C0.575412 10.7921 0.471508 10.7037 0.357212 10.7089C0.242918 10.7193 0.154599 10.818 0.159794 10.9323C0.164989 11.0466 0.258503 11.1297 0.372798 11.1297C0.372798 11.1297 0.377994 11.1297 0.383189 11.1297ZM1.10013 14.0858C0.991029 14.1326 0.944272 14.2521 0.991029 14.3612C1.0274 14.4391 1.10013 14.4858 1.18325 14.4858C1.20923 14.4858 1.2404 14.4807 1.26637 14.4703C1.37547 14.4183 1.42223 14.2988 1.37547 14.1897C1.32872 14.0858 1.20403 14.0339 1.10013 14.0858ZM0.980638 13.1299C0.944273 13.0208 0.829978 12.9585 0.715682 12.9896C0.606583 13.026 0.544239 13.1403 0.575411 13.2546C0.606582 13.3429 0.689705 13.4001 0.778025 13.4001C0.798804 13.4001 0.819588 13.4 0.840367 13.3949C0.949468 13.3585 1.01181 13.239 0.980638 13.1299ZM0.715682 12.0285C0.694903 11.9194 0.585801 11.8415 0.471507 11.8623C0.357212 11.883 0.279286 11.9921 0.300065 12.1064C0.320847 12.2052 0.409166 12.2779 0.507874 12.2779C0.518265 12.2779 0.53385 12.2779 0.54424 12.2727C0.658536 12.2571 0.736464 12.1428 0.715682 12.0285ZM7.05904 19.3849C6.94994 19.3486 6.83045 19.4057 6.79408 19.5148C6.75772 19.6239 6.81486 19.7434 6.92396 19.7798C6.94994 19.7902 6.97072 19.7954 6.9915 19.7954C7.07982 19.7954 7.16294 19.7382 7.19411 19.6499C7.23048 19.5408 7.16814 19.4213 7.05904 19.3849ZM16.691 3.32653C16.7481 3.32653 16.8053 3.30575 16.8468 3.25899C16.9247 3.17587 16.9196 3.04079 16.8312 2.96286C16.7481 2.88494 16.613 2.89013 16.5351 2.97845C16.4572 3.06157 16.4624 3.19665 16.5507 3.27458C16.5871 3.31094 16.639 3.32653 16.691 3.32653ZM18.2028 5.07212C18.2443 5.07212 18.2807 5.06173 18.3171 5.03576C18.4158 4.97341 18.4418 4.84353 18.3742 4.74482C18.3119 4.65131 18.1768 4.62533 18.0833 4.68768C17.9846 4.75521 17.9638 4.88509 18.0261 4.9838C18.0677 5.04095 18.1352 5.07212 18.2028 5.07212ZM18.3275 15.608C18.2339 15.5457 18.1041 15.5716 18.0365 15.6652C17.9742 15.7639 17.995 15.8938 18.0937 15.9561C18.13 15.9821 18.1716 15.9925 18.2132 15.9925C18.2807 15.9925 18.343 15.9613 18.3846 15.9041C18.4521 15.8054 18.4262 15.6756 18.3275 15.608ZM16.5611 17.3796C16.478 17.4575 16.4728 17.5874 16.5507 17.6757C16.5923 17.7225 16.6494 17.7432 16.7066 17.7432C16.7533 17.7432 16.8053 17.7225 16.8468 17.6861C16.9299 17.6082 16.9351 17.4783 16.8572 17.39C16.7793 17.3069 16.6494 17.3017 16.5611 17.3796ZM17.4962 4.15776C17.5482 4.15776 17.5949 4.13698 17.6365 4.10581C17.7248 4.02788 17.73 3.898 17.6573 3.80968C17.5793 3.72137 17.4495 3.71098 17.3611 3.7889C17.2728 3.86164 17.2624 3.99671 17.3404 4.08503C17.3819 4.13179 17.4391 4.15776 17.4962 4.15776ZM18.7898 6.0696C18.8262 6.0696 18.8574 6.05921 18.8885 6.04363C18.9924 5.99168 19.034 5.86179 18.9769 5.75789C18.9249 5.65918 18.8002 5.61762 18.6963 5.66957C18.5924 5.72152 18.5509 5.8514 18.6028 5.95531C18.6444 6.02804 18.7171 6.0696 18.7898 6.0696ZM17.3508 16.5639C17.2728 16.6523 17.2832 16.7873 17.3715 16.8601C17.4131 16.8964 17.4599 16.912 17.5118 16.912C17.569 16.912 17.6261 16.8912 17.6677 16.8393C17.7456 16.751 17.7352 16.6211 17.6469 16.5432C17.5586 16.4704 17.4235 16.4756 17.3508 16.5639ZM19.8341 11.2752C19.7146 11.2648 19.6107 11.3479 19.6003 11.4622C19.5847 11.5765 19.6678 11.6804 19.7821 11.696C19.7925 11.696 19.7977 11.696 19.8081 11.696C19.912 11.696 20.0055 11.6181 20.0159 11.509C20.0315 11.3947 19.9484 11.2908 19.8341 11.2752ZM18.8989 14.6001C18.795 14.5482 18.6651 14.5898 18.6132 14.6937C18.5612 14.7976 18.6028 14.9222 18.7067 14.9742C18.7327 14.9898 18.7691 15.0002 18.8002 15.0002C18.8781 15.0002 18.9509 14.9586 18.9872 14.8859C19.0392 14.782 18.9976 14.6573 18.8989 14.6001ZM19.6522 12.4182C19.5431 12.3922 19.4288 12.4597 19.4029 12.574C19.3717 12.6883 19.4444 12.8026 19.5535 12.8286C19.5743 12.8338 19.5899 12.8338 19.6055 12.8338C19.699 12.8338 19.7873 12.7714 19.8081 12.6727C19.8341 12.5584 19.7665 12.4441 19.6522 12.4182ZM20.0834 10.3089C20.0834 10.1946 19.9899 10.1011 19.8756 10.1011C19.7561 10.1011 19.6626 10.1946 19.6678 10.3089V10.3297C19.6678 10.4492 19.7613 10.5427 19.8756 10.5427C19.9899 10.5427 20.0834 10.4492 20.0834 10.3297C20.0834 10.3297 20.0834 10.3245 20.0834 10.3193C20.0834 10.3193 20.0834 10.3141 20.0834 10.3089ZM19.3405 13.5351C19.2314 13.4936 19.1119 13.5507 19.0704 13.6598C19.0288 13.7689 19.086 13.8884 19.1951 13.93C19.2158 13.9352 19.2418 13.9404 19.2678 13.9404C19.3509 13.9404 19.434 13.8884 19.4652 13.8053C19.5068 13.6962 19.4496 13.5715 19.3405 13.5351ZM19.2626 7.12423C19.2834 7.12423 19.3094 7.11904 19.3353 7.10865C19.4444 7.07228 19.4964 6.94759 19.4548 6.83849C19.4185 6.72939 19.2938 6.67744 19.1847 6.719C19.0756 6.75537 19.0236 6.88006 19.0652 6.98916C19.0963 7.07228 19.1743 7.12423 19.2626 7.12423ZM13.6881 1.47184C13.7141 1.48223 13.7401 1.48742 13.7661 1.48742C13.8492 1.48742 13.9323 1.43547 13.9635 1.35754C14.005 1.24844 13.9531 1.12376 13.8492 1.0822C13.7401 1.04064 13.6154 1.09259 13.5738 1.19649C13.5323 1.30559 13.5842 1.43028 13.6881 1.47184ZM11.5269 19.7798C11.4126 19.7954 11.3347 19.9045 11.3503 20.0188C11.3659 20.1227 11.4594 20.1954 11.5581 20.1954C11.5685 20.1954 11.5789 20.1954 11.5893 20.1954C11.7036 20.1798 11.7867 20.0707 11.7659 19.9564C11.7503 19.8421 11.6464 19.7642 11.5269 19.7798ZM12.6179 1.11337C12.6335 1.11856 12.6543 1.11856 12.6699 1.11856C12.7634 1.11856 12.8517 1.05622 12.8725 0.962707C12.9037 0.853608 12.8413 0.734119 12.727 0.708142C12.6127 0.676971 12.4984 0.744507 12.4673 0.853608C12.4361 0.967902 12.5036 1.0822 12.6179 1.11337ZM11.5113 0.879584C11.5217 0.884779 11.5321 0.884779 11.5373 0.884779C11.6412 0.884779 11.7347 0.806851 11.7451 0.702947C11.7659 0.588653 11.6828 0.484748 11.5685 0.463967C11.4542 0.448381 11.3503 0.526309 11.3295 0.645799C11.3139 0.760093 11.397 0.863998 11.5113 0.879584ZM12.6387 19.546C12.5244 19.5772 12.4569 19.6915 12.488 19.8057C12.514 19.8993 12.5971 19.9616 12.6907 19.9616C12.7114 19.9616 12.727 19.9564 12.7478 19.9512C12.8569 19.92 12.9244 19.8057 12.8933 19.6915C12.8621 19.5824 12.7478 19.5148 12.6387 19.546ZM10.4048 19.8785C10.2853 19.8837 10.1969 19.9772 10.1969 20.0967C10.2021 20.211 10.2957 20.2993 10.41 20.2993H10.4151C10.5294 20.2941 10.623 20.2006 10.6178 20.0811C10.6178 19.9668 10.5191 19.8733 10.4048 19.8785ZM10.384 0.78607H10.3892C10.5035 0.78607 10.597 0.692557 10.597 0.578262C10.6022 0.463967 10.5087 0.365258 10.3944 0.365258C10.2801 0.360063 10.1814 0.453576 10.1762 0.567871C10.1762 0.682165 10.2645 0.780875 10.384 0.78607ZM13.7089 19.1823C13.5998 19.2291 13.5479 19.3486 13.5946 19.4577C13.6258 19.5408 13.7037 19.5875 13.7868 19.5875C13.8128 19.5875 13.8388 19.5824 13.8648 19.572C13.9739 19.5304 14.0258 19.4057 13.9843 19.2966C13.9375 19.1927 13.818 19.1408 13.7089 19.1823ZM14.7272 18.694C14.6285 18.7511 14.5921 18.881 14.6441 18.9797C14.6856 19.0524 14.7583 19.0888 14.8311 19.0888C14.8622 19.0888 14.8986 19.0836 14.9298 19.0628C15.0337 19.0057 15.0701 18.881 15.0129 18.7771C14.9558 18.6784 14.8311 18.642 14.7272 18.694ZM9.2722 19.8473C9.15791 19.8369 9.054 19.92 9.04361 20.0395C9.03322 20.1538 9.12154 20.2525 9.23583 20.2629C9.24103 20.2629 9.24622 20.2681 9.25142 20.2681C9.36052 20.2681 9.45403 20.185 9.46442 20.0759C9.47481 19.9564 9.3865 19.8577 9.2722 19.8473ZM15.6675 2.56283C15.7039 2.58881 15.7506 2.5992 15.7922 2.5992C15.8545 2.5992 15.9221 2.56803 15.9636 2.51088C16.0312 2.41737 16.0104 2.28749 15.9117 2.21995C15.8182 2.15241 15.6883 2.17319 15.6208 2.26671C15.5532 2.36022 15.574 2.49529 15.6675 2.56283ZM14.7116 1.96019C14.7428 1.97577 14.7791 1.98616 14.8155 1.98616C14.8882 1.98616 14.961 1.9446 14.9973 1.87706C15.0545 1.77316 15.0181 1.64328 14.9142 1.59133C14.8103 1.53418 14.6856 1.57055 14.6285 1.67445C14.5713 1.77316 14.6077 1.90304 14.7116 1.96019ZM15.6831 18.0913C15.5896 18.1589 15.5688 18.2887 15.6363 18.3875C15.6779 18.4394 15.7402 18.4706 15.8078 18.4706C15.8493 18.4706 15.8909 18.4602 15.9273 18.4342C16.026 18.3667 16.0468 18.2316 15.9792 18.1381C15.9117 18.0446 15.7766 18.0238 15.6831 18.0913Z" fill="#07664D"/>
</g>
<mask id="mask1_170_63" style="mask-type:luminance" maskUnits="userSpaceOnUse" x="1" y="1" width="18" height="18">
<path d="M1.35471 1.56012H18.4573V18.668H1.35471V1.56012Z" fill="white"/>
</mask>
<g mask="url(#mask1_170_63)">
<mask id="mask2_170_63" style="mask-type:luminance" maskUnits="userSpaceOnUse" x="1" y="1" width="18" height="18">
<path d="M9.90603 1.56012C5.18358 1.56012 1.35471 5.38899 1.35471 10.1166C1.35471 14.8391 5.18358 18.668 9.90603 18.668C14.6285 18.668 18.4573 14.8391 18.4573 10.1166C18.4573 5.38899 14.6285 1.56012 9.90603 1.56012Z" fill="white"/>
</mask>
<g mask="url(#mask2_170_63)">
<path d="M1.35471 1.56012H18.4573V18.668H1.35471V1.56012Z" fill="#07664D"/>
</g>
</g>
<path fill-rule="evenodd" clip-rule="evenodd" d="M7.05902 7.7113V8.86464C7.05902 9.76341 7.6201 10.7349 8.66954 10.7349C9.65143 10.7349 10.2593 9.81017 10.2593 8.93218V7.7113H7.05902Z" fill="white"/>
<path fill-rule="evenodd" clip-rule="evenodd" d="M8.64356 11.0778C7.38632 11.0778 6.70575 9.92445 6.70575 8.86463V7.52946C6.70575 7.43595 6.77848 7.36841 6.89278 7.36841H10.4203C10.5398 7.36841 10.6074 7.43595 10.6074 7.52946V8.93217C10.6074 9.97121 9.85924 11.0778 8.64356 11.0778Z" fill="white"/>
<mask id="mask3_170_63" style="mask-type:luminance" maskUnits="userSpaceOnUse" x="4" y="5" width="9" height="4">
<path d="M4.78873 5.68512H12.4673V8.34507H4.78873V5.68512Z" fill="white"/>
</mask>
<g mask="url(#mask3_170_63)">
<path fill-rule="evenodd" clip-rule="evenodd" d="M11.8698 7.71126H5.44331C5.32902 7.71126 5.25629 7.61774 5.25629 7.52942V6.906C5.25629 6.46441 5.63034 6.12152 6.05115 6.12152H11.2412C11.6828 6.12152 12.036 6.46441 12.036 6.906V7.52942C12.0568 7.61774 11.9893 7.71126 11.8698 7.71126Z" fill="white"/>
</g>
<mask id="mask4_170_63" style="mask-type:luminance" maskUnits="userSpaceOnUse" x="7" y="4" width="5" height="4">
<path d="M7.14737 4.92145H11.1373V7.01512H7.14737V4.92145Z" fill="white"/>
</mask>
<g mask="url(#mask4_170_63)">
<path fill-rule="evenodd" clip-rule="evenodd" d="M7.43311 5.79944L7.71365 5.01496C7.7604 4.94223 7.80716 4.92145 7.8747 4.92145H9.43846C9.51119 4.92145 9.57873 4.94223 9.6047 5.01496L9.90603 5.79944H7.43311Z" fill="white"/>
</g>
<mask id="mask5_170_63" style="mask-type:luminance" maskUnits="userSpaceOnUse" x="4" y="11" width="10" height="4">
<path d="M4.78873 11.005H13.7972V14.8858H4.78873V11.005Z" fill="white"/>
</mask>
<g mask="url(#mask5_170_63)">
<path fill-rule="evenodd" clip-rule="evenodd" d="M12.5971 14.8858H11.1684L11.2152 11.9557C11.8698 12.2103 12.3841 12.7194 12.5036 13.3168L12.7582 14.704C12.7582 14.7455 12.7582 14.7923 12.7114 14.839C12.6906 14.8858 12.6439 14.8858 12.5971 14.8858ZM10.8204 14.8858H6.54471L6.59147 12.5324C6.75252 12.7402 6.9863 12.9012 7.22009 13.0155C7.66687 13.2025 8.1812 13.2961 8.64358 13.2961C9.13712 13.2961 9.65145 13.2025 10.093 13.0155C10.4463 12.8545 10.7476 12.5999 10.8879 12.231L10.8204 14.8858ZM6.19143 14.8858H4.95497C4.90822 14.8858 4.86146 14.8858 4.83548 14.839C4.8147 14.7923 4.78873 14.7455 4.78873 14.704L5.04849 13.3168C5.16278 12.7402 5.63035 12.231 6.26417 11.9557L6.19143 14.8858Z" fill="white"/>
</g>
<path fill-rule="evenodd" clip-rule="evenodd" d="M8.64359 12.974C7.5474 12.974 6.73175 12.5324 6.73175 11.9558C6.73175 11.8415 6.79929 11.7739 6.8928 11.7739H7.19932L7.47986 11.057C7.80716 11.2648 8.202 11.4051 8.64359 11.4051C9.09038 11.4051 9.48521 11.2648 9.83849 11.057L10.119 11.7739H10.4204C10.5139 11.7739 10.6074 11.8415 10.6074 11.9558C10.6074 12.5324 9.76576 12.974 8.64359 12.974Z" fill="white"/>
<path fill-rule="evenodd" clip-rule="evenodd" d="M13.9479 8.79706C13.5998 8.79706 13.2465 8.65679 12.992 8.4282C12.6907 8.1061 12.5504 7.64373 12.6439 7.20213C12.6439 7.1346 12.7114 7.08784 12.7582 7.06706C13.1998 6.97354 13.6674 7.11382 14.0206 7.43592C14.322 7.73724 14.4622 8.19442 14.3687 8.63601C14.3687 8.70355 14.3012 8.75031 14.2544 8.77109C14.1349 8.79707 14.0414 8.79706 13.9479 8.79706Z" fill="white"/>
<path fill-rule="evenodd" clip-rule="evenodd" d="M14.2077 13.1559C14.1141 13.1559 14.0206 13.0883 14.0206 12.9948V8.58927C14.0206 8.49576 14.1141 8.42822 14.2077 8.42822C14.3012 8.42822 14.3687 8.49576 14.3687 8.58927V12.9948C14.3687 13.1091 14.3012 13.1559 14.2077 13.1559Z" fill="white"/>
<mask id="mask6_170_63" style="mask-type:luminance" maskUnits="userSpaceOnUse" x="13" y="7" width="4" height="3">
<path d="M13.7972 7.01514H16.7533V9.67509H13.7972V7.01514Z" fill="white"/>
</mask>
<g mask="url(#mask6_170_63)">
<path fill-rule="evenodd" clip-rule="evenodd" d="M15.4233 9.55563C15.1896 9.55563 14.9766 9.4881 14.7687 9.39458C14.722 9.34783 14.6752 9.28029 14.6752 9.23353C14.722 8.77116 14.9766 8.35554 15.3766 8.15293C15.7714 7.94512 16.265 7.94512 16.6598 8.15293C16.7325 8.19449 16.7533 8.24125 16.7533 8.31398C16.7325 8.75038 16.452 9.16599 16.052 9.39458C15.8649 9.4881 15.6571 9.55563 15.4233 9.55563Z" fill="white"/>
</g>
<path fill-rule="evenodd" clip-rule="evenodd" d="M14.2076 9.76337C14.1609 9.76337 14.1349 9.74259 14.1141 9.74259C14.0206 9.67506 14.0206 9.55556 14.0674 9.50881C14.4154 9.05163 14.8363 9.07241 14.8622 9.07241C14.9557 9.09839 15.0233 9.16592 15.0233 9.25944C15.0025 9.34776 14.9298 9.42049 14.8363 9.42049C14.8155 9.42049 14.5557 9.39451 14.3219 9.69584C14.3011 9.74259 14.2544 9.76337 14.2076 9.76337Z" fill="white"/>
<path fill-rule="evenodd" clip-rule="evenodd" d="M13.1998 10.6881C12.966 10.6881 12.7582 10.6206 12.5504 10.5271C12.1504 10.2933 11.8958 9.90367 11.8698 9.4413C11.8698 9.37376 11.8958 9.327 11.9425 9.28025C12.3374 9.07244 12.8309 9.07244 13.2465 9.28025C13.6466 9.50884 13.9011 9.90367 13.9479 10.366C13.9479 10.4128 13.9011 10.4803 13.8544 10.5271C13.6466 10.6206 13.4336 10.6881 13.1998 10.6881Z" fill="white"/>
<path fill-rule="evenodd" clip-rule="evenodd" d="M14.2077 10.6621C14.1817 10.6621 14.1349 10.6621 14.1141 10.6413C13.9271 10.527 13.7868 10.527 13.7868 10.527C13.6933 10.527 13.6206 10.4595 13.6206 10.366C13.5998 10.2725 13.6674 10.179 13.7609 10.179C13.7868 10.179 14.0414 10.179 14.3012 10.366C14.3687 10.4127 14.3947 10.5011 14.3479 10.5946C14.322 10.6413 14.2544 10.6621 14.2077 10.6621Z" fill="white"/>
<mask id="mask7_170_63" style="mask-type:luminance" maskUnits="userSpaceOnUse" x="13" y="9" width="4" height="4">
<path d="M13.7972 9.67505H16.7533V12.335H13.7972V9.67505Z" fill="white"/>
</mask>
<g mask="url(#mask7_170_63)">
<path fill-rule="evenodd" clip-rule="evenodd" d="M15.1428 11.7947C14.909 11.7947 14.696 11.7272 14.4882 11.6336C14.4414 11.6129 14.4155 11.5401 14.4155 11.4726C14.4414 11.0362 14.696 10.6206 15.096 10.4128C15.5169 10.179 15.9844 10.179 16.4052 10.4128C16.452 10.4335 16.4987 10.5011 16.4728 10.5478C16.452 11.0102 16.1922 11.4258 15.7974 11.6336C15.5844 11.7272 15.3506 11.7947 15.1428 11.7947Z" fill="white"/>
</g>
<path fill-rule="evenodd" clip-rule="evenodd" d="M14.2077 11.7479C14.1349 11.7479 14.0882 11.7272 14.0674 11.6804C14.0206 11.6129 14.0414 11.4934 14.1141 11.4466C14.3479 11.3115 14.5557 11.3115 14.6025 11.3323C14.696 11.3323 14.7687 11.4051 14.7428 11.4934C14.7428 11.6129 14.6492 11.6804 14.5557 11.6544C14.5557 11.6544 14.4414 11.6544 14.3012 11.7272C14.2544 11.7479 14.2284 11.7479 14.2077 11.7479Z" fill="white"/>
</svg>
