<svg width="13" height="14" viewBox="0 0 13 14" fill="none" xmlns="http://www.w3.org/2000/svg">
<mask id="mask0_170_60" style="mask-type:luminance" maskUnits="userSpaceOnUse" x="0" y="0" width="13" height="14">
<path d="M0.0458069 0.875305H12.0104V13.8322H0.0458069V0.875305Z" fill="white"/>
</mask>
<g mask="url(#mask0_170_60)">
<path d="M11.0025 7.74337C10.244 10.7254 8.57116 12.6269 6.0307 13.3958C3.49024 12.6269 1.81738 10.7306 1.05888 7.75376C0.580918 5.88868 0.632872 4.15868 0.664042 3.59759C3.03826 3.51966 5.02283 2.10657 6.0307 1.36885C7.03337 2.10137 9.01795 3.51966 11.3922 3.59759C11.4285 4.15868 11.4753 5.88349 11.0025 7.74337ZM11.8026 3.36381C11.7922 3.24951 11.6987 3.16639 11.5896 3.16639C9.22056 3.16639 7.27235 1.7429 6.22292 0.979205L6.15538 0.932448C6.07746 0.8753 5.97875 0.8753 5.90601 0.932448L5.84887 0.968815C4.87736 1.68575 2.84603 3.16639 0.466624 3.16639C0.357525 3.16639 0.26401 3.24951 0.253621 3.36381C0.243229 3.44693 0.0458127 5.51463 0.638066 7.85247C1.43294 10.9696 3.27723 13.0373 5.96836 13.827C5.98914 13.8322 6.00992 13.8322 6.0307 13.8322C6.05148 13.8322 6.06706 13.8322 6.08785 13.827C8.78416 13.0373 10.6233 10.9696 11.4181 7.85247C12.0104 5.51463 11.813 3.44693 11.8026 3.36381Z" fill="white"/>
</g>
<path d="M8.38414 5.67566L5.64627 9.27074C5.57873 9.36426 5.46963 9.4266 5.35533 9.44219C5.33975 9.44219 5.31897 9.44219 5.30338 9.44219C5.20467 9.44219 5.10596 9.40582 5.02804 9.34348L3.6513 8.20573C3.46428 8.04987 3.4383 7.77452 3.58896 7.5875C3.73962 7.40566 4.01497 7.37449 4.1968 7.53035L5.23065 8.38236L7.69838 5.14575C7.84384 4.95352 8.11919 4.91715 8.30621 5.06262C8.49844 5.21328 8.5348 5.48343 8.38414 5.67566ZM6.03071 2.21045C5.10077 2.88583 3.41752 4.03397 1.39139 4.15865C1.33943 5.58734 1.43814 11.1462 6.03071 12.5749C10.6233 11.1462 10.7168 5.58734 10.6648 4.15865C8.63871 4.02877 6.95026 2.88063 6.03071 2.21045Z" fill="white"/>
</svg>
