<svg width="115" height="21" viewBox="0 0 115 21" fill="none" xmlns="http://www.w3.org/2000/svg">
<path d="M5.42632 10.5696C5.42632 12.0554 5.81597 13.3282 6.59525 14.3829C7.37453 15.4375 8.31486 15.9674 9.42145 15.9674C10.7878 15.9674 11.8424 15.4635 12.5853 14.4556L15.8583 17.1156C14.2998 19.1053 12.1541 20.1028 9.42145 20.1028C7.09399 20.1028 5.10942 19.1729 3.46773 17.313C1.82604 15.4583 1 13.2088 1 10.5696H5.42632ZM12.5853 6.6472C11.8424 5.6653 10.7878 5.17176 9.42145 5.17176C8.3876 5.17176 7.49921 5.63413 6.7563 6.55888C6.01338 7.48363 5.58218 8.62658 5.46269 9.99292H1C1.11949 7.47843 1.99229 5.3484 3.608 3.608C5.22891 1.8728 7.16672 1 9.42145 1C12.1749 1 14.3257 1.98709 15.8583 3.95088L12.5853 6.6472ZM25.5162 8.66294C27.4125 8.66294 29.1477 9.25 30.7166 10.4241C32.2856 11.6034 33.0701 12.897 33.0701 14.3101V19.9937H28.758V14.9232C28.758 14.1803 28.4931 13.5413 27.9632 13.0165C27.4385 12.4866 26.7994 12.2269 26.0565 12.2269H24.4408V8.66294H25.5162ZM19.5833 19.9937V5.74843H23.9005V19.9937H19.5833ZM30.9504 9.92019C29.9166 9.20325 28.8152 8.69931 27.6411 8.41357C28.384 8.00315 28.758 7.4057 28.758 6.61083C28.758 6.23158 28.6334 5.89909 28.3944 5.62374C28.1554 5.3484 27.88 5.20813 27.5683 5.20813H19.4742V1.1091H27.6774C29.1633 1.1091 30.4361 1.64421 31.4907 2.70923C32.5454 3.77944 33.0701 5.04188 33.0701 6.50693C33.0701 7.946 32.3635 9.08376 30.9504 9.92019ZM44.0631 1.03637V5.20813C43.154 5.40035 42.3851 6.00299 41.7617 7.01086C41.1382 8.01354 40.8265 9.20325 40.8265 10.5696H36.4002C36.4002 8.04991 37.1379 5.87311 38.6134 4.0392C40.0888 2.20529 41.9071 1.20781 44.0631 1.03637ZM47.2842 14.3829C48.0115 13.3282 48.3804 12.0554 48.3804 10.5696C48.3804 9.08376 48.0115 7.81093 47.2842 6.7563C46.5517 5.70167 45.6581 5.17176 44.6035 5.17176V1C46.879 1 48.8168 1.93514 50.4117 3.80542C52.0066 5.67569 52.8015 7.93042 52.8015 10.5696C52.8015 13.2088 52.0066 15.4583 50.4117 17.313C48.8168 19.1729 46.879 20.1028 44.6035 20.1028C42.4215 20.1028 40.5356 19.2248 38.9563 17.474C37.3717 15.7232 36.5197 13.5932 36.4002 11.0735H40.8629C40.9564 12.4399 41.3668 13.5984 42.0838 14.5439C42.8059 15.4895 43.6423 15.9674 44.6035 15.9674C45.6581 15.9674 46.5517 15.4375 47.2842 14.3829ZM56.4537 19.9937V5.85753H60.771V19.9937H56.4537ZM66.2571 9.63445C66.7507 9.13051 66.9948 8.53306 66.9948 7.83691C66.9948 7.14075 66.7507 6.54849 66.2571 6.05495C65.7688 5.5614 65.1973 5.31722 64.5479 5.31722H56.3498V1.1091H64.5479C66.4182 1.1091 68.0131 1.7637 69.3327 3.0677C70.6523 4.37689 71.3121 5.96663 71.3121 7.83691C71.3121 9.70718 70.6523 11.3021 69.3327 12.6217C68.0131 13.9413 66.4182 14.6011 64.5479 14.6011H61.3113V10.3878H64.5479C65.1973 10.3878 65.7688 10.1384 66.2571 9.63445ZM74.9279 19.9937V5.85753H79.2451V19.9937H74.9279ZM84.7313 9.63445C85.2248 9.13051 85.469 8.53306 85.469 7.83691C85.469 7.14075 85.2248 6.54849 84.7313 6.05495C84.2377 5.5614 83.6715 5.31722 83.0221 5.31722H74.8188V1.1091H83.0221C84.8923 1.1091 86.4873 1.7637 87.8069 3.0677C89.1264 4.37689 89.7862 5.96663 89.7862 7.83691C89.7862 9.70718 89.1264 11.3021 87.8069 12.6217C86.4873 13.9413 84.8923 14.6011 83.0221 14.6011H79.7854V10.3878H83.0221C83.6715 10.3878 84.2377 10.1384 84.7313 9.63445ZM93.4021 19.9937V1.1091H97.7193V19.9937H93.4021ZM101.803 15.2453V5.85753H106.12V15.2453H101.803ZM106.66 8.34084H112.598V12.549H106.66V8.34084ZM101.699 15.7856H113.928V19.9937H101.699V15.7856ZM101.699 1.1091H113.928V5.31722H101.699V1.1091Z" stroke="black" stroke-width="0.920932"/>
<path d="M5.43719 10.5598C5.43719 12.056 5.82163 13.334 6.60091 14.3835C7.375 15.4381 8.31534 15.9628 9.42711 15.9628C10.7831 15.9628 11.8377 15.4589 12.5858 14.4458L15.8692 17.1058C14.3002 19.1007 12.1546 20.0982 9.42711 20.0982C7.09966 20.0982 5.10989 19.1735 3.46301 17.3136C1.82651 15.4589 1.01086 13.2094 1.01086 10.5598H5.43719ZM12.5858 6.653C11.8377 5.67111 10.7831 5.17756 9.42711 5.17756C8.38807 5.17756 7.49449 5.64513 6.74638 6.56988C6.00866 7.48424 5.58265 8.62718 5.45797 9.99872H1.01086C1.11996 7.47904 1.98756 5.3542 3.60847 3.619C5.22938 1.87341 7.16719 1.00061 9.42711 1.00061C12.1806 1.00061 14.3314 1.9877 15.8692 3.95149L12.5858 6.653Z" fill="white"/>
<path d="M25.5188 8.66872C27.415 8.66872 29.145 9.26098 30.714 10.4351C32.2933 11.5988 33.083 12.8872 33.083 14.3003V19.9943H28.7606V14.9238C28.7606 14.1757 28.4956 13.5418 27.9709 13.0119C27.441 12.4872 26.8072 12.2223 26.0591 12.2223H24.4382V8.66872H25.5188ZM19.5754 19.9943V5.73862H23.8978V19.9943H19.5754ZM30.9426 9.91558C29.9139 9.19863 28.8125 8.6895 27.6384 8.39857C28.3865 7.99854 28.7606 7.40109 28.7606 6.61142C28.7606 6.22697 28.6359 5.89448 28.3865 5.61394C28.1475 5.33859 27.8774 5.19832 27.5761 5.19832H19.4715V1.10449H27.68C29.1606 1.10449 30.4282 1.6396 31.4829 2.70462C32.5479 3.77483 33.083 5.04246 33.083 6.50751C33.083 7.95178 32.366 9.08434 30.9426 9.91558Z" fill="white"/>
<path d="M44.0572 1.04217V5.19834C43.1532 5.39576 42.3947 5.99841 41.7713 7.00628C41.1479 8.01934 40.8362 9.20385 40.8362 10.5598H36.4099C36.4099 8.05571 37.1424 5.88411 38.6126 4.0554C40.0933 2.21629 41.9064 1.20842 44.0572 1.04217ZM47.2782 14.3835C48.0108 13.334 48.3796 12.0664 48.3796 10.5806C48.3796 9.08436 48.0108 7.81154 47.2782 6.75691C46.5561 5.70747 45.6625 5.17756 44.5975 5.17756V1.00061C46.8834 1.00061 48.8212 1.93575 50.4161 3.80603C52.0059 5.6763 52.8059 7.93622 52.8059 10.5806C52.8059 13.2146 52.0059 15.4589 50.4161 17.3136C48.8212 19.1735 46.8834 20.0982 44.5975 20.0982C42.4207 20.0982 40.5349 19.2254 38.9451 17.4798C37.3658 15.7238 36.519 13.5886 36.4099 11.0793H40.857C40.9505 12.4405 41.3609 13.5938 42.083 14.5497C42.8 15.4953 43.6416 15.9628 44.5975 15.9628C45.6625 15.9628 46.5561 15.4381 47.2782 14.3835Z" fill="white"/>
<path d="M56.4488 19.9943V5.86331H60.7712V19.9943H56.4488ZM66.2573 9.64542C66.7561 9.13629 67.0054 8.53365 67.0054 7.83749C67.0054 7.14653 66.7561 6.55947 66.2573 6.07112C65.769 5.57238 65.2027 5.32301 64.5533 5.32301H56.3448V1.10449H64.5533C66.4236 1.10449 68.0133 1.76428 69.3329 3.07867C70.6473 4.38267 71.3071 5.96721 71.3071 7.83749C71.3071 9.70777 70.6473 11.3027 69.3329 12.6171C68.0133 13.9367 66.4236 14.5913 64.5533 14.5913H61.3115V10.3935H64.5533C65.2027 10.3935 65.769 10.1442 66.2573 9.64542Z" fill="white"/>
<path d="M74.9213 19.9943V5.86331H79.2438V19.9943H74.9213ZM84.7299 9.64542C85.2287 9.13629 85.478 8.53365 85.478 7.83749C85.478 7.14653 85.2287 6.55947 84.7299 6.07112C84.2416 5.57238 83.6753 5.32301 83.0259 5.32301H74.8174V1.10449H83.0259C84.8962 1.10449 86.4859 1.76428 87.8055 3.07867C89.1199 4.38267 89.7797 5.96721 89.7797 7.83749C89.7797 9.70777 89.1199 11.3027 87.8055 12.6171C86.4859 13.9367 84.8962 14.5913 83.0259 14.5913H79.7841V10.3935H83.0259C83.6753 10.3935 84.2416 10.1442 84.7299 9.64542Z" fill="white"/>
<path d="M93.394 19.9943V1.10449H97.7164V19.9943H93.394Z" fill="white"/>
<path d="M101.798 15.2355V5.86331H106.12V15.2355H101.798ZM106.661 8.33623H112.604V12.5547H106.661V8.33623ZM101.694 15.7758H113.934V19.9943H101.694V15.7758ZM101.694 1.10449H113.934V5.32301H101.694V1.10449Z" fill="white"/>
</svg>
