<svg width="132" height="20" viewBox="0 0 132 20" fill="none" xmlns="http://www.w3.org/2000/svg">
<path d="M10.8896 13.104H14.5396C14.4663 14.3003 14.1367 15.3623 13.5508 16.29C12.973 17.2178 12.1632 17.9421 11.1216 18.4629C10.0881 18.9837 8.84294 19.2441 7.38623 19.2441C6.24691 19.2441 5.22559 19.0488 4.32227 18.6582C3.41895 18.2594 2.64583 17.6898 2.00293 16.9492C1.36816 16.2087 0.883952 15.3135 0.550293 14.2637C0.216634 13.2139 0.0498047 12.0379 0.0498047 10.7358V9.50293C0.0498047 8.20085 0.220703 7.0249 0.5625 5.9751C0.912435 4.91715 1.40885 4.0179 2.05176 3.27734C2.7028 2.53678 3.47998 1.96712 4.3833 1.56836C5.28662 1.1696 6.29574 0.970215 7.41064 0.970215C8.89176 0.970215 10.141 1.23877 11.1582 1.77588C12.1836 2.31299 12.9771 3.05355 13.5386 3.99756C14.1082 4.94157 14.45 6.01579 14.564 7.22021H10.9019C10.8612 6.50407 10.7188 5.89779 10.4746 5.40137C10.2305 4.89681 9.86019 4.51839 9.36377 4.26611C8.87549 4.0057 8.22445 3.87549 7.41064 3.87549C6.80029 3.87549 6.26725 3.98942 5.81152 4.21729C5.35579 4.44515 4.97331 4.79102 4.66406 5.25488C4.35482 5.71875 4.12288 6.30469 3.96826 7.0127C3.82178 7.71257 3.74854 8.53451 3.74854 9.47852V10.7358C3.74854 11.6554 3.81771 12.4652 3.95605 13.165C4.0944 13.8568 4.30599 14.4427 4.59082 14.9229C4.88379 15.3949 5.25814 15.7529 5.71387 15.9971C6.17773 16.2331 6.73519 16.3511 7.38623 16.3511C8.1512 16.3511 8.7819 16.229 9.27832 15.9849C9.77474 15.7407 10.1532 15.3786 10.4136 14.8984C10.6821 14.4183 10.8408 13.8201 10.8896 13.104ZM21.9443 1.22656H28.5728C29.9318 1.22656 31.0996 1.43001 32.0762 1.83691C33.0609 2.24382 33.8177 2.84603 34.3467 3.64355C34.8757 4.44108 35.1401 5.42171 35.1401 6.58545C35.1401 7.5376 34.9774 8.35547 34.6519 9.03906C34.3345 9.71452 33.8828 10.2801 33.2969 10.7358C32.7191 11.1834 32.0396 11.5415 31.2583 11.8101L30.0986 12.4204H24.3369L24.3125 9.56396H28.5972C29.2401 9.56396 29.7731 9.45003 30.1963 9.22217C30.6195 8.9943 30.9368 8.67692 31.1484 8.27002C31.3682 7.86312 31.478 7.39111 31.478 6.854C31.478 6.28434 31.3722 5.79199 31.1606 5.37695C30.9491 4.96191 30.6276 4.64453 30.1963 4.4248C29.765 4.20508 29.2238 4.09521 28.5728 4.09521H25.6064V19H21.9443V1.22656ZM31.8809 19L27.8281 11.0776L31.6978 11.0532L35.7993 18.8291V19H31.8809ZM57.5596 9.69824V10.5405C57.5596 11.8914 57.3765 13.104 57.0103 14.1782C56.644 15.2524 56.1273 16.168 55.46 16.9248C54.7926 17.6735 53.9951 18.2472 53.0674 18.646C52.1478 19.0448 51.1265 19.2441 50.0034 19.2441C48.8885 19.2441 47.8672 19.0448 46.9395 18.646C46.0199 18.2472 45.2223 17.6735 44.5469 16.9248C43.8714 16.168 43.3465 15.2524 42.9722 14.1782C42.606 13.104 42.4229 11.8914 42.4229 10.5405V9.69824C42.4229 8.33919 42.606 7.12663 42.9722 6.06055C43.3384 4.98633 43.8551 4.0708 44.5225 3.31396C45.1979 2.55713 45.9954 1.97933 46.915 1.58057C47.8428 1.1818 48.8641 0.982422 49.979 0.982422C51.1021 0.982422 52.1234 1.1818 53.043 1.58057C53.9707 1.97933 54.7682 2.55713 55.4355 3.31396C56.111 4.0708 56.6318 4.98633 56.998 6.06055C57.3724 7.12663 57.5596 8.33919 57.5596 9.69824ZM53.8608 10.5405V9.67383C53.8608 8.72982 53.7754 7.89974 53.6045 7.18359C53.4336 6.46745 53.1813 5.86523 52.8477 5.37695C52.514 4.88867 52.1071 4.52246 51.627 4.27832C51.1468 4.02604 50.5975 3.8999 49.979 3.8999C49.3605 3.8999 48.8112 4.02604 48.3311 4.27832C47.859 4.52246 47.4562 4.88867 47.1226 5.37695C46.797 5.86523 46.5488 6.46745 46.3779 7.18359C46.207 7.89974 46.1216 8.72982 46.1216 9.67383V10.5405C46.1216 11.4764 46.207 12.3065 46.3779 13.0308C46.5488 13.7469 46.8011 14.3532 47.1348 14.8496C47.4684 15.3379 47.8753 15.7082 48.3555 15.9604C48.8356 16.2127 49.3849 16.3389 50.0034 16.3389C50.6219 16.3389 51.1712 16.2127 51.6514 15.9604C52.1315 15.7082 52.5343 15.3379 52.8599 14.8496C53.1854 14.3532 53.4336 13.7469 53.6045 13.0308C53.7754 12.3065 53.8608 11.4764 53.8608 10.5405ZM72.1177 12.6646H67.5889V9.80811H72.1177C72.8175 9.80811 73.3872 9.69417 73.8267 9.46631C74.2661 9.23031 74.5876 8.90479 74.791 8.48975C74.9945 8.07471 75.0962 7.60677 75.0962 7.08594C75.0962 6.55697 74.9945 6.06462 74.791 5.60889C74.5876 5.15316 74.2661 4.78695 73.8267 4.51025C73.3872 4.23356 72.8175 4.09521 72.1177 4.09521H68.8584V19H65.1963V1.22656H72.1177C73.5093 1.22656 74.7015 1.47884 75.6943 1.9834C76.6953 2.47982 77.4603 3.16748 77.9893 4.04639C78.5182 4.92529 78.7827 5.93034 78.7827 7.06152C78.7827 8.20898 78.5182 9.20182 77.9893 10.04C77.4603 10.8783 76.6953 11.5252 75.6943 11.981C74.7015 12.4367 73.5093 12.6646 72.1177 12.6646ZM93.231 12.6646H88.7021V9.80811H93.231C93.9308 9.80811 94.5005 9.69417 94.9399 9.46631C95.3794 9.23031 95.7008 8.90479 95.9043 8.48975C96.1077 8.07471 96.2095 7.60677 96.2095 7.08594C96.2095 6.55697 96.1077 6.06462 95.9043 5.60889C95.7008 5.15316 95.3794 4.78695 94.9399 4.51025C94.5005 4.23356 93.9308 4.09521 93.231 4.09521H89.9717V19H86.3096V1.22656H93.231C94.6226 1.22656 95.8148 1.47884 96.8076 1.9834C97.8086 2.47982 98.5736 3.16748 99.1025 4.04639C99.6315 4.92529 99.896 5.93034 99.896 7.06152C99.896 8.20898 99.6315 9.20182 99.1025 10.04C98.5736 10.8783 97.8086 11.5252 96.8076 11.981C95.8148 12.4367 94.6226 12.6646 93.231 12.6646ZM111.317 1.22656V19H107.667V1.22656H111.317ZM131.673 16.1436V19H122.213V16.1436H131.673ZM123.409 1.22656V19H119.747V1.22656H123.409ZM130.44 8.46533V11.2485H122.213V8.46533H130.44ZM131.661 1.22656V4.09521H122.213V1.22656H131.661Z" fill="white"/>
<path d="M10.8896 13.104V11.604H9.48844L9.39312 13.002L10.8896 13.104ZM14.5396 13.104L16.0367 13.1957L16.1342 11.604H14.5396V13.104ZM13.5508 16.29L12.2825 15.489L12.2775 15.497L13.5508 16.29ZM11.1216 18.4629L10.4508 17.1212L10.4465 17.1234L11.1216 18.4629ZM4.32227 18.6582L3.71648 20.0305L3.7269 20.035L4.32227 18.6582ZM2.00293 16.9492L0.864022 17.9254L0.870218 17.9326L2.00293 16.9492ZM0.550293 14.2637L-0.879241 14.718L0.550293 14.2637ZM0.5625 5.9751L-0.861632 5.50404L-0.863807 5.51072L0.5625 5.9751ZM2.05176 3.27734L0.925175 2.28694L0.919046 2.294L2.05176 3.27734ZM11.1582 1.77588L10.4578 3.10234L10.4622 3.10463L11.1582 1.77588ZM13.5386 3.99756L12.2494 4.76441L12.2543 4.77256L13.5386 3.99756ZM14.564 7.22021V8.72021H16.2126L16.0573 7.07895L14.564 7.22021ZM10.9019 7.22021L9.40427 7.3053L9.48466 8.72021H10.9019V7.22021ZM10.4746 5.40137L9.12434 6.05472L9.12858 6.06335L10.4746 5.40137ZM9.36377 4.26611L8.65789 5.58964L8.67097 5.59662L8.68419 5.60334L9.36377 4.26611ZM3.96826 7.0127L2.50275 6.69264L2.50008 6.7054L3.96826 7.0127ZM3.95605 13.165L2.48453 13.4559L2.48518 13.4592L3.95605 13.165ZM4.59082 14.9229L3.30074 15.6882L3.30842 15.7011L3.31636 15.7139L4.59082 14.9229ZM5.71387 15.9971L5.00554 17.3193L5.01953 17.3268L5.03368 17.334L5.71387 15.9971ZM10.4136 14.8984L9.10444 14.1662L9.09968 14.1747L9.09503 14.1833L10.4136 14.8984ZM10.8896 14.604H14.5396V11.604H10.8896V14.604ZM13.0424 13.0123C12.9831 13.9805 12.7215 14.794 12.2825 15.489L14.819 17.091C15.5519 15.9306 15.9495 14.6201 16.0367 13.1957L13.0424 13.0123ZM12.2775 15.497C11.8558 16.1743 11.2618 16.7158 10.4508 17.1213L11.7924 19.8045C13.0647 19.1684 14.0902 18.2613 14.824 17.083L12.2775 15.497ZM10.4465 17.1234C9.6695 17.5149 8.66762 17.7441 7.38623 17.7441V20.7441C9.01825 20.7441 10.5066 20.4525 11.7966 19.8024L10.4465 17.1234ZM7.38623 17.7441C6.41968 17.7441 5.60568 17.579 4.91763 17.2814L3.7269 20.035C4.84549 20.5187 6.07413 20.7441 7.38623 20.7441V17.7441ZM4.92803 17.286C4.22542 16.9758 3.63266 16.5384 3.13564 15.9659L0.870218 17.9326C1.65901 18.8412 2.61247 19.5431 3.7165 20.0304L4.92803 17.286ZM3.14181 15.973C2.65383 15.4037 2.26043 14.6922 1.97983 13.8093L-0.879241 14.718C-0.492525 15.9348 0.0824968 17.0136 0.864045 17.9254L3.14181 15.973ZM1.97983 13.8093C1.70047 12.9304 1.5498 11.911 1.5498 10.7358H-1.4502C-1.4502 12.1648 -1.2672 13.4974 -0.879241 14.718L1.97983 13.8093ZM1.5498 10.7358V9.50293H-1.4502V10.7358H1.5498ZM1.5498 9.50293C1.5498 8.33102 1.70368 7.31521 1.98881 6.43948L-0.863807 5.51072C-1.26228 6.73459 -1.4502 8.07068 -1.4502 9.50293H1.5498ZM1.98662 6.44615C2.2827 5.55103 2.68816 4.83238 3.18447 4.26069L0.919046 2.294C0.129543 3.20343 -0.457827 4.28328 -0.861617 5.50404L1.98662 6.44615ZM3.17832 4.26773C3.68534 3.69099 4.28472 3.25153 4.98907 2.9406L3.77754 0.196117C2.67524 0.682717 1.72026 1.38258 0.925197 2.28696L3.17832 4.26773ZM4.98907 2.9406C5.67836 2.63632 6.47741 2.47021 7.41064 2.47021V-0.529785C6.11406 -0.529785 4.89489 -0.297127 3.77754 0.196117L4.98907 2.9406ZM7.41064 2.47021C8.71584 2.47021 9.7096 2.70727 10.4578 3.10233L11.8586 0.449423C10.5723 -0.229728 9.06769 -0.529785 7.41064 -0.529785V2.47021ZM10.4622 3.10463C11.2555 3.52018 11.8376 4.07205 12.2494 4.76439L14.8277 3.23072C14.1165 2.03505 13.1117 1.1058 11.8542 0.447132L10.4622 3.10463ZM12.2543 4.77256C12.6966 5.50555 12.9758 6.3592 13.0706 7.36148L16.0573 7.07895C15.9242 5.67237 15.5199 4.37759 14.8229 3.22256L12.2543 4.77256ZM14.564 5.72021H10.9019V8.72021H14.564V5.72021ZM12.3994 7.13513C12.3506 6.27529 12.1755 5.46089 11.8206 4.73939L9.12858 6.06335C9.26203 6.33468 9.37175 6.73285 9.40427 7.3053L12.3994 7.13513ZM11.8248 4.74803C11.4389 3.95045 10.8341 3.33076 10.0433 2.92889L8.68419 5.60334C8.88624 5.70602 9.02202 5.84317 9.12437 6.05471L11.8248 4.74803ZM10.0697 2.94258C9.28584 2.52455 8.36327 2.37549 7.41064 2.37549V5.37549C8.08563 5.37549 8.46514 5.48684 8.65789 5.58964L10.0697 2.94258ZM7.41064 2.37549C6.61306 2.37549 5.84202 2.52499 5.1407 2.87564L6.48234 5.55893C6.69249 5.45385 6.98753 5.37549 7.41064 5.37549V2.37549ZM5.1407 2.87564C4.42989 3.23105 3.85602 3.76279 3.41599 4.42283L5.91214 6.08693C6.0906 5.81924 6.2817 5.65925 6.48234 5.55893L5.1407 2.87564ZM3.41599 4.42283C2.97703 5.08126 2.68595 5.85401 2.5028 6.69265L5.43372 7.33274C5.55981 6.75536 5.7326 6.35624 5.91214 6.08693L3.41599 4.42283ZM2.50008 6.7054C2.32696 7.53251 2.24854 8.46196 2.24854 9.47852H5.24854C5.24854 8.60705 5.3166 7.89262 5.43645 7.31999L2.50008 6.7054ZM2.24854 9.47852V10.7358H5.24854V9.47852H2.24854ZM2.24854 10.7358C2.24854 11.7267 2.32273 12.6374 2.48453 13.4559L5.42758 12.8742C5.31268 12.2929 5.24854 11.5842 5.24854 10.7358H2.24854ZM2.48518 13.4592C2.64839 14.2752 2.9101 15.0297 3.30074 15.6882L5.8809 14.1575C5.70188 13.8558 5.54041 13.4383 5.42693 12.8709L2.48518 13.4592ZM3.31636 15.7139C3.73746 16.3923 4.30051 16.9416 5.00554 17.3193L6.4222 14.6749C6.21577 14.5643 6.03012 14.3974 5.86528 14.1318L3.31636 15.7139ZM5.03368 17.334C5.7545 17.7007 6.55679 17.8511 7.38623 17.8511V14.8511C6.91359 14.8511 6.60097 14.7654 6.39405 14.6602L5.03368 17.334ZM7.38623 17.8511C8.29791 17.8511 9.17463 17.7074 9.9403 17.3309L8.61634 14.6388C8.38917 14.7506 8.0045 14.8511 7.38623 14.8511V17.8511ZM9.9403 17.3309C10.7118 16.9514 11.3215 16.3707 11.7321 15.6136L9.09503 14.1833C8.98483 14.3865 8.83765 14.53 8.61634 14.6388L9.9403 17.3309ZM11.7227 15.6307C12.1273 14.9073 12.3267 14.0788 12.3862 13.206L9.39312 13.002C9.35497 13.5615 9.23695 13.9293 9.10444 14.1662L11.7227 15.6307ZM21.9443 1.22656V-0.273438H20.4443V1.22656H21.9443ZM32.0762 1.83691L31.4992 3.22154L31.5033 3.22322L32.0762 1.83691ZM34.3467 3.64355L35.5967 2.81445L34.3467 3.64355ZM34.6519 9.03906L33.2975 8.39415L33.2943 8.40115L34.6519 9.03906ZM33.2969 10.7358L34.2155 11.9217L34.2178 11.9199L33.2969 10.7358ZM31.2583 11.8101L30.7707 10.3915L30.6617 10.429L30.5597 10.4827L31.2583 11.8101ZM30.0986 12.4204V13.9204H30.4693L30.7973 13.7478L30.0986 12.4204ZM24.3369 12.4204L22.837 12.4332L22.8497 13.9204H24.3369V12.4204ZM24.3125 9.56396V8.06396H22.7996L22.8126 9.57678L24.3125 9.56396ZM31.1484 8.27002L29.8286 7.5573L29.823 7.5676L29.8176 7.57799L31.1484 8.27002ZM25.6064 4.09521V2.59521H24.1064V4.09521H25.6064ZM25.6064 19V20.5H27.1064V19H25.6064ZM21.9443 19H20.4443V20.5H21.9443V19ZM31.8809 19L30.5454 19.6831L30.9633 20.5H31.8809V19ZM27.8281 11.0776L27.8187 9.57767L25.3838 9.59303L26.4927 11.7608L27.8281 11.0776ZM31.6978 11.0532L33.0245 10.3534L32.5994 9.5475L31.6883 9.55325L31.6978 11.0532ZM35.7993 18.8291H37.2993V18.4577L37.1261 18.1293L35.7993 18.8291ZM35.7993 19V20.5H37.2993V19H35.7993ZM21.9443 2.72656H28.5728V-0.273438H21.9443V2.72656ZM28.5728 2.72656C29.7877 2.72656 30.7495 2.90912 31.4992 3.22153L32.6531 0.452299C31.4498 -0.0490937 30.0759 -0.273438 28.5728 -0.273438V2.72656ZM31.5033 3.22322C32.2444 3.52943 32.7513 3.95197 33.0966 4.47266L35.5967 2.81445C34.8841 1.74008 33.8774 0.958199 32.649 0.45061L31.5033 3.22322ZM33.0966 4.47266C33.4303 4.97575 33.6401 5.65229 33.6401 6.58545H36.6401C36.6401 5.19114 36.321 3.90641 35.5967 2.81445L33.0966 4.47266ZM33.6401 6.58545C33.6401 7.37032 33.5057 7.957 33.2976 8.39416L36.0061 9.68396C36.449 8.75393 36.6401 7.70488 36.6401 6.58545H33.6401ZM33.2943 8.40115C33.0768 8.86391 32.7743 9.24199 32.376 9.55181L34.2178 11.9199C34.9913 11.3182 35.5921 10.5651 36.0095 9.67697L33.2943 8.40115ZM32.3783 9.55001C31.9461 9.88477 31.4165 10.1695 30.7707 10.3915L31.7459 13.2286C32.6626 12.9135 33.492 12.4821 34.2155 11.9217L32.3783 9.55001ZM30.5597 10.4827L29.4 11.093L30.7973 13.7478L31.9569 13.1374L30.5597 10.4827ZM30.0986 10.9204H24.3369V13.9204H30.0986V10.9204ZM25.8369 12.4076L25.8124 9.55115L22.8126 9.57678L22.837 12.4332L25.8369 12.4076ZM24.3125 11.064H28.5972V8.06396H24.3125V11.064ZM28.5972 11.064C29.4078 11.064 30.2044 10.9214 30.9074 10.5429L29.4851 7.90146C29.3418 7.97862 29.0723 8.06396 28.5972 8.06396V11.064ZM30.9074 10.5429C31.5821 10.1796 32.122 9.64915 32.4793 8.96205L29.8176 7.57799C29.7517 7.70469 29.6568 7.80902 29.4851 7.90146L30.9074 10.5429ZM32.4683 8.98274C32.8241 8.3239 32.978 7.59955 32.978 6.854H29.978C29.978 7.18267 29.9123 7.40234 29.8286 7.5573L32.4683 8.98274ZM32.978 6.854C32.978 6.09951 32.8375 5.3636 32.497 4.69567L29.8243 6.05823C29.9069 6.22038 29.978 6.46918 29.978 6.854H32.978ZM32.497 4.69567C32.1357 3.98694 31.5789 3.44573 30.8772 3.08825L29.5154 5.76136C29.6763 5.84333 29.7624 5.93688 29.8243 6.05823L32.497 4.69567ZM30.8772 3.08825C30.1751 2.73056 29.3826 2.59521 28.5728 2.59521V5.59521C29.065 5.59521 29.3549 5.6796 29.5154 5.76136L30.8772 3.08825ZM28.5728 2.59521H25.6064V5.59521H28.5728V2.59521ZM24.1064 4.09521V19H27.1064V4.09521H24.1064ZM25.6064 17.5H21.9443V20.5H25.6064V17.5ZM23.4443 19V1.22656H20.4443V19H23.4443ZM33.2163 18.3169L29.1635 10.3945L26.4927 11.7608L30.5454 19.6831L33.2163 18.3169ZM27.8376 12.5776L31.7072 12.5532L31.6883 9.55325L27.8187 9.57767L27.8376 12.5776ZM30.371 11.753L34.4726 19.5289L37.1261 18.1293L33.0245 10.3534L30.371 11.753ZM34.2993 18.8291V19H37.2993V18.8291H34.2993ZM35.7993 17.5H31.8809V20.5H35.7993V17.5ZM55.46 16.9248L56.5797 17.9229L56.5851 17.9168L55.46 16.9248ZM53.0674 18.646L52.475 17.2679L52.4706 17.2698L53.0674 18.646ZM46.9395 18.646L46.3427 20.0222L46.3471 20.0241L46.9395 18.646ZM44.5469 16.9248L43.4277 17.9236L43.4331 17.9296L44.5469 16.9248ZM42.9722 14.1782L41.5524 14.6622L41.5557 14.6718L42.9722 14.1782ZM42.9722 6.06055L44.3908 6.54786L44.3919 6.54456L42.9722 6.06055ZM44.5225 3.31396L43.4033 2.31516L43.3974 2.32193L44.5225 3.31396ZM46.915 1.58057L46.3227 0.202468L46.3183 0.204381L46.915 1.58057ZM53.043 1.58057L52.4462 2.95676L52.4506 2.95866L53.043 1.58057ZM55.4355 3.31396L54.3104 4.30602L54.3164 4.31275L55.4355 3.31396ZM56.998 6.06055L55.5782 6.54458L55.5828 6.55752L56.998 6.06055ZM53.6045 7.18359L52.1455 7.53177L53.6045 7.18359ZM51.627 4.27832L50.9293 5.60619L50.9381 5.61085L50.9471 5.6154L51.627 4.27832ZM48.3311 4.27832L49.0202 5.61067L49.0287 5.60619L48.3311 4.27832ZM47.1226 5.37695L45.8841 4.53067L45.8792 4.53776L45.8745 4.5449L47.1226 5.37695ZM46.3779 13.0308L44.918 13.3752L44.9189 13.3789L46.3779 13.0308ZM47.1348 14.8496L45.8898 15.6864L45.8963 15.6959L47.1348 14.8496ZM48.3555 15.9604L47.6578 17.2883L48.3555 15.9604ZM51.6514 15.9604L52.3491 17.2883L51.6514 15.9604ZM52.8599 14.8496L54.108 15.6817L54.1142 15.6721L52.8599 14.8496ZM53.6045 13.0308L55.0635 13.3789L55.0644 13.3752L53.6045 13.0308ZM56.0596 9.69824V10.5405H59.0596V9.69824H56.0596ZM56.0596 10.5405C56.0596 11.7573 55.8946 12.8023 55.5905 13.6942L58.43 14.6622C58.8584 13.4057 59.0596 12.0256 59.0596 10.5405H56.0596ZM55.5905 13.6942C55.2801 14.6046 54.8561 15.3416 54.3349 15.9328L56.5851 17.9168C57.3985 16.9943 58.008 15.9003 58.43 14.6622L55.5905 13.6942ZM54.3402 15.9267C53.8198 16.5106 53.2027 16.9551 52.475 17.2679L53.6597 20.0241C54.7875 19.5393 55.7655 18.8364 56.5797 17.9229L54.3402 15.9267ZM52.4706 17.2698C51.7608 17.5776 50.9459 17.7441 50.0034 17.7441V20.7441C51.307 20.7441 52.5347 20.5119 53.6641 20.0222L52.4706 17.2698ZM50.0034 17.7441C49.0709 17.7441 48.2538 17.5782 47.5318 17.2679L46.3471 20.0241C47.4806 20.5113 48.7061 20.7441 50.0034 20.7441V17.7441ZM47.5362 17.2698C46.8147 16.957 46.1932 16.5103 45.6606 15.92L43.4331 17.9296C44.2515 18.8367 45.225 19.5375 46.3427 20.0222L47.5362 17.2698ZM45.666 15.926C45.1369 15.3332 44.7059 14.5951 44.3886 13.6846L41.5557 14.6718C41.9871 15.9098 42.6059 17.0027 43.4278 17.9236L45.666 15.926ZM44.3919 13.6942C44.0879 12.8023 43.9229 11.7573 43.9229 10.5405H40.9229C40.9229 12.0256 41.1241 13.4057 41.5524 14.6622L44.3919 13.6942ZM43.9229 10.5405V9.69824H40.9229V10.5405H43.9229ZM43.9229 9.69824C43.9229 8.47198 44.0882 7.42866 44.3908 6.54786L41.5535 5.57323C41.1237 6.8246 40.9229 8.20641 40.9229 9.69824H43.9229ZM44.3919 6.54456C44.7023 5.63415 45.1263 4.89716 45.6476 4.306L43.3974 2.32193C42.584 3.24445 41.9745 4.33851 41.5524 5.57654L44.3919 6.54456ZM45.6416 4.31275C46.1741 3.71605 46.7941 3.26797 47.5118 2.95675L46.3183 0.204381C45.1968 0.690684 44.2217 1.3982 43.4033 2.31518L45.6416 4.31275ZM47.5074 2.95866C48.2294 2.64833 49.0465 2.48242 49.979 2.48242V-0.517578C48.6817 -0.517578 47.4562 -0.284723 46.3227 0.202475L47.5074 2.95866ZM49.979 2.48242C50.9215 2.48242 51.7364 2.64897 52.4462 2.95675L53.6397 0.204381C52.5103 -0.285359 51.2826 -0.517578 49.979 -0.517578V2.48242ZM52.4506 2.95866C53.1746 3.26982 53.7901 3.71583 54.3104 4.306L56.5607 2.32193C55.7464 1.39843 54.7668 0.688839 53.6353 0.202475L52.4506 2.95866ZM54.3164 4.31275C54.8432 4.90302 55.2691 5.63774 55.5783 6.54456L58.4178 5.57654C57.9945 4.33491 57.3788 3.23859 56.5547 2.31518L54.3164 4.31275ZM55.5828 6.55752C55.891 7.43525 56.0596 8.47514 56.0596 9.69824H59.0596C59.0596 8.20325 58.8538 6.81801 58.4133 5.56358L55.5828 6.55752ZM55.3608 10.5405V9.67383H52.3608V10.5405H55.3608ZM55.3608 9.67383C55.3608 8.64366 55.268 7.69235 55.0635 6.83542L52.1455 7.53177C52.2828 8.10713 52.3608 8.81597 52.3608 9.67383H55.3608ZM55.0635 6.83542C54.8601 5.98319 54.5449 5.20211 54.0861 4.53067L51.6092 6.22324C51.8177 6.52836 52.007 6.95171 52.1455 7.53177L55.0635 6.83542ZM54.0861 4.53067C53.6246 3.85533 53.0329 3.31042 52.3068 2.94124L50.9471 5.6154C51.1813 5.7345 51.4034 5.92202 51.6092 6.22324L54.0861 4.53067ZM52.3246 2.95045C51.6008 2.57013 50.8062 2.3999 49.979 2.3999V5.3999C50.3888 5.3999 50.6928 5.48196 50.9293 5.60619L52.3246 2.95045ZM49.979 2.3999C49.1518 2.3999 48.3572 2.57013 47.6334 2.95045L49.0287 5.60619C49.2652 5.48196 49.5692 5.3999 49.979 5.3999V2.3999ZM47.6419 2.94599C46.9254 3.31662 46.3417 3.86096 45.8841 4.53067L48.361 6.22324C48.5707 5.91638 48.7927 5.72831 49.0202 5.61065L47.6419 2.94599ZM45.8745 4.5449C45.4291 5.21293 45.1209 5.98891 44.9189 6.83542L47.837 7.53177C47.9767 6.94599 48.1649 6.51754 48.3706 6.209L45.8745 4.5449ZM44.9189 6.83542C44.7144 7.69235 44.6216 8.64366 44.6216 9.67383H47.6216C47.6216 8.81597 47.6997 8.10713 47.837 7.53177L44.9189 6.83542ZM44.6216 9.67383V10.5405H47.6216V9.67383H44.6216ZM44.6216 10.5405C44.6216 11.5641 44.7147 12.5135 44.918 13.3752L47.8378 12.6863C47.6994 12.0994 47.6216 11.3887 47.6216 10.5405H44.6216ZM44.9189 13.3789C45.1221 14.2305 45.4361 15.0113 45.8898 15.6864L48.3797 14.0129C48.1661 13.6951 47.9755 13.2633 47.837 12.6826L44.9189 13.3789ZM45.8963 15.6959C46.3554 16.3678 46.9416 16.912 47.6578 17.2883L49.0532 14.6326C48.8091 14.5043 48.5814 14.308 48.3732 14.0033L45.8963 15.6959ZM47.6578 17.2883C48.3816 17.6686 49.1763 17.8389 50.0034 17.8389V14.8389C49.5936 14.8389 49.2896 14.7568 49.0532 14.6326L47.6578 17.2883ZM50.0034 17.8389C50.8306 17.8389 51.6252 17.6686 52.3491 17.2883L50.9537 14.6326C50.7172 14.7568 50.4132 14.8389 50.0034 14.8389V17.8389ZM52.3491 17.2883C53.0692 16.9099 53.655 16.3611 54.1079 15.6817L51.6118 14.0176C51.4137 14.3147 51.1938 14.5064 50.9537 14.6326L52.3491 17.2883ZM54.1142 15.6721C54.5546 15.0005 54.8617 14.2248 55.0635 13.3789L52.1455 12.6826C52.0055 13.269 51.8161 13.7059 51.6055 14.0271L54.1142 15.6721ZM55.0644 13.3752C55.2677 12.5135 55.3608 11.5641 55.3608 10.5405H52.3608C52.3608 11.3887 52.2831 12.0994 52.1446 12.6863L55.0644 13.3752ZM67.5889 12.6646H66.0889V14.1646H67.5889V12.6646ZM67.5889 9.80811V8.30811H66.0889V9.80811H67.5889ZM73.8267 9.46631L74.5171 10.7979L74.5268 10.7929L74.5363 10.7878L73.8267 9.46631ZM68.8584 4.09521V2.59521H67.3584V4.09521H68.8584ZM68.8584 19V20.5H70.3584V19H68.8584ZM65.1963 19H63.6963V20.5H65.1963V19ZM65.1963 1.22656V-0.273438H63.6963V1.22656H65.1963ZM75.6943 1.9834L75.0148 3.32063L75.0213 3.32395L75.0279 3.32722L75.6943 1.9834ZM75.6943 11.981L75.0728 10.6158L75.0686 10.6177L75.6943 11.981ZM72.1177 11.1646H67.5889V14.1646H72.1177V11.1646ZM69.0889 12.6646V9.80811H66.0889V12.6646H69.0889ZM67.5889 11.3081H72.1177V8.30811H67.5889V11.3081ZM72.1177 11.3081C72.9645 11.3081 73.7945 11.1726 74.5171 10.7979L73.1362 8.13468C72.9799 8.21573 72.6706 8.30811 72.1177 8.30811V11.3081ZM74.5363 10.7878C75.229 10.4158 75.7853 9.86929 76.1379 9.14998L73.4441 7.82951C73.3898 7.94028 73.3032 8.0448 73.117 8.14482L74.5363 10.7878ZM76.1379 9.14998C76.4542 8.5047 76.5962 7.80642 76.5962 7.08594H73.5962C73.5962 7.40712 73.5347 7.64471 73.4441 7.82951L76.1379 9.14998ZM76.5962 7.08594C76.5962 6.3591 76.4552 5.65695 76.1607 4.99741L73.4213 6.22036C73.5338 6.47228 73.5962 6.75483 73.5962 7.08594H76.5962ZM76.1607 4.99741C75.8313 4.25942 75.3056 3.66888 74.6259 3.2409L73.0274 5.7796C73.2266 5.90501 73.3439 6.04689 73.4213 6.22036L76.1607 4.99741ZM74.6259 3.2409C73.8774 2.76966 73.0049 2.59521 72.1177 2.59521V5.59521C72.6302 5.59521 72.897 5.69746 73.0274 5.7796L74.6259 3.2409ZM72.1177 2.59521H68.8584V5.59521H72.1177V2.59521ZM67.3584 4.09521V19H70.3584V4.09521H67.3584ZM68.8584 17.5H65.1963V20.5H68.8584V17.5ZM66.6963 19V1.22656H63.6963V19H66.6963ZM65.1963 2.72656H72.1177V-0.273438H65.1963V2.72656ZM72.1177 2.72656C73.3307 2.72656 74.2785 2.94645 75.0148 3.32063L76.3739 0.646171C75.1245 0.0112371 73.6878 -0.273438 72.1177 -0.273438V2.72656ZM75.0279 3.32722C75.7962 3.70825 76.3358 4.20802 76.7041 4.81988L79.2744 3.27289C78.5847 2.12694 77.5944 1.25138 76.3608 0.63958L75.0279 3.32722ZM76.7041 4.81988C77.0783 5.44172 77.2827 6.17405 77.2827 7.06152H80.2827C80.2827 5.68663 79.9581 4.40886 79.2744 3.27289L76.7041 4.81988ZM77.2827 7.06152C77.2827 7.97123 77.0759 8.67676 76.7207 9.23951L79.2578 10.8406C79.9606 9.72689 80.2827 8.44674 80.2827 7.06152H77.2827ZM76.7207 9.23951C76.3646 9.80379 75.838 10.2674 75.0728 10.6158L76.3159 13.3461C77.5527 12.783 78.5559 11.9527 79.2578 10.8406L76.7207 9.23951ZM75.0686 10.6177C74.3181 10.9622 73.3504 11.1646 72.1177 11.1646V14.1646C73.6682 14.1646 75.0849 13.9112 76.3201 13.3442L75.0686 10.6177ZM88.7021 12.6646H87.2021V14.1646H88.7021V12.6646ZM88.7021 9.80811V8.30811H87.2021V9.80811H88.7021ZM94.9399 9.46631L95.6304 10.7979L95.6401 10.7929L95.6496 10.7878L94.9399 9.46631ZM89.9717 4.09521V2.59521H88.4717V4.09521H89.9717ZM89.9717 19V20.5H91.4717V19H89.9717ZM86.3096 19H84.8096V20.5H86.3096V19ZM86.3096 1.22656V-0.273438H84.8096V1.22656H86.3096ZM96.8076 1.9834L96.128 3.32063L96.1346 3.32395L96.1412 3.32722L96.8076 1.9834ZM96.8076 11.981L96.1861 10.6158L96.1819 10.6177L96.8076 11.981ZM93.231 11.1646H88.7021V14.1646H93.231V11.1646ZM90.2021 12.6646V9.80811H87.2021V12.6646H90.2021ZM88.7021 11.3081H93.231V8.30811H88.7021V11.3081ZM93.231 11.3081C94.0778 11.3081 94.9078 11.1726 95.6304 10.7979L94.2495 8.13468C94.0932 8.21573 93.7839 8.30811 93.231 8.30811V11.3081ZM95.6496 10.7878C96.3423 10.4158 96.8986 9.86929 97.2512 9.14998L94.5574 7.82951C94.5031 7.94028 94.4165 8.0448 94.2303 8.14482L95.6496 10.7878ZM97.2512 9.14998C97.5675 8.5047 97.7095 7.80642 97.7095 7.08594H94.7095C94.7095 7.40712 94.648 7.64471 94.5574 7.82951L97.2512 9.14998ZM97.7095 7.08594C97.7095 6.3591 97.5684 5.65695 97.274 4.99741L94.5346 6.22036C94.6471 6.47228 94.7095 6.75483 94.7095 7.08594H97.7095ZM97.274 4.99741C96.9445 4.25942 96.4189 3.66888 95.7392 3.2409L94.1407 5.7796C94.3399 5.90501 94.4571 6.04689 94.5346 6.22036L97.274 4.99741ZM95.7392 3.2409C94.9907 2.76966 94.1182 2.59521 93.231 2.59521V5.59521C93.7435 5.59521 94.0103 5.69746 94.1407 5.7796L95.7392 3.2409ZM93.231 2.59521H89.9717V5.59521H93.231V2.59521ZM88.4717 4.09521V19H91.4717V4.09521H88.4717ZM89.9717 17.5H86.3096V20.5H89.9717V17.5ZM87.8096 19V1.22656H84.8096V19H87.8096ZM86.3096 2.72656H93.231V-0.273438H86.3096V2.72656ZM93.231 2.72656C94.444 2.72656 95.3918 2.94645 96.128 3.32063L97.4872 0.646171C96.2378 0.0112371 94.8011 -0.273438 93.231 -0.273438V2.72656ZM96.1412 3.32722C96.9095 3.70825 97.4491 4.20802 97.8174 4.81988L100.388 3.27289C99.698 2.12694 98.7077 1.25138 97.4741 0.63958L96.1412 3.32722ZM97.8174 4.81988C98.1916 5.44172 98.396 6.17405 98.396 7.06152H101.396C101.396 5.68663 101.071 4.40886 100.388 3.27289L97.8174 4.81988ZM98.396 7.06152C98.396 7.97123 98.1891 8.67676 97.834 9.23951L100.371 10.8406C101.074 9.72689 101.396 8.44674 101.396 7.06152H98.396ZM97.834 9.23951C97.4779 9.80379 96.9512 10.2674 96.1861 10.6158L97.4292 13.3461C98.666 12.783 99.6692 11.9527 100.371 10.8406L97.834 9.23951ZM96.1819 10.6177C95.4313 10.9622 94.4637 11.1646 93.231 11.1646V14.1646C94.7814 14.1646 96.1982 13.9112 97.4334 13.3442L96.1819 10.6177ZM111.317 1.22656H112.817V-0.273438H111.317V1.22656ZM111.317 19V20.5H112.817V19H111.317ZM107.667 19H106.167V20.5H107.667V19ZM107.667 1.22656V-0.273438H106.167V1.22656H107.667ZM109.817 1.22656V19H112.817V1.22656H109.817ZM111.317 17.5H107.667V20.5H111.317V17.5ZM109.167 19V1.22656H106.167V19H109.167ZM107.667 2.72656H111.317V-0.273438H107.667V2.72656ZM131.673 16.1436H133.173V14.6436H131.673V16.1436ZM131.673 19V20.5H133.173V19H131.673ZM122.213 19H120.713V20.5H122.213V19ZM122.213 16.1436V14.6436H120.713V16.1436H122.213ZM123.409 1.22656H124.909V-0.273438H123.409V1.22656ZM123.409 19V20.5H124.909V19H123.409ZM119.747 19H118.247V20.5H119.747V19ZM119.747 1.22656V-0.273438H118.247V1.22656H119.747ZM130.44 8.46533H131.94V6.96533H130.44V8.46533ZM130.44 11.2485V12.7485H131.94V11.2485H130.44ZM122.213 11.2485H120.713V12.7485H122.213V11.2485ZM122.213 8.46533V6.96533H120.713V8.46533H122.213ZM131.661 1.22656H133.161V-0.273438H131.661V1.22656ZM131.661 4.09521V5.59521H133.161V4.09521H131.661ZM122.213 4.09521H120.713V5.59521H122.213V4.09521ZM122.213 1.22656V-0.273438H120.713V1.22656H122.213ZM130.173 16.1436V19H133.173V16.1436H130.173ZM131.673 17.5H122.213V20.5H131.673V17.5ZM123.713 19V16.1436H120.713V19H123.713ZM122.213 17.6436H131.673V14.6436H122.213V17.6436ZM121.909 1.22656V19H124.909V1.22656H121.909ZM123.409 17.5H119.747V20.5H123.409V17.5ZM121.247 19V1.22656H118.247V19H121.247ZM119.747 2.72656H123.409V-0.273438H119.747V2.72656ZM128.94 8.46533V11.2485H131.94V8.46533H128.94ZM130.44 9.74854H122.213V12.7485H130.44V9.74854ZM123.713 11.2485V8.46533H120.713V11.2485H123.713ZM122.213 9.96533H130.44V6.96533H122.213V9.96533ZM130.161 1.22656V4.09521H133.161V1.22656H130.161ZM131.661 2.59521H122.213V5.59521H131.661V2.59521ZM123.713 4.09521V1.22656H120.713V4.09521H123.713ZM122.213 2.72656H131.661V-0.273438H122.213V2.72656Z" fill="black"/>
</svg>
