<svg width="113" height="20" viewBox="0 0 113 20" fill="none" xmlns="http://www.w3.org/2000/svg">
<path d="M4.42632 9.55919C4.42632 11.0554 4.81077 12.3334 5.59005 13.3829C6.36414 14.4375 7.30447 14.9622 8.41625 14.9622C9.7722 14.9622 10.8268 14.4583 11.5749 13.4452L14.8583 16.1052C13.2894 18.1001 11.1437 19.0976 8.41625 19.0976C6.08879 19.0976 4.09902 18.1729 2.45214 16.313C0.815648 14.4583 0 12.2088 0 9.55919H4.42632ZM11.5749 5.65239C10.8268 4.6705 9.7722 4.17695 8.41625 4.17695C7.3772 4.17695 6.48363 4.64452 5.73552 5.56927C4.9978 6.48363 4.57179 7.62657 4.4471 8.99811H0C0.109099 6.47843 0.9767 4.35359 2.59761 2.61839C4.21851 0.872796 6.15633 0 8.41625 0C11.1697 0 13.3205 0.987091 14.8583 2.95088L11.5749 5.65239Z" fill="white"/>
<path d="M24.5079 7.66811C26.4041 7.66811 28.1342 8.26037 29.7031 9.43449C31.2825 10.5982 32.0721 11.8866 32.0721 13.2997V18.9937H27.7497V13.9232C27.7497 13.175 27.4847 12.5412 26.96 12.0113C26.4301 11.4866 25.7963 11.2216 25.0482 11.2216H23.4273V7.66811H24.5079ZM18.5646 18.9937V4.73801H22.887V18.9937H18.5646ZM29.9317 8.91496C28.903 8.19802 27.8017 7.68889 26.6275 7.39796C27.3757 6.99793 27.7497 6.40048 27.7497 5.61081C27.7497 5.22636 27.625 4.89387 27.3757 4.61333C27.1367 4.33798 26.8665 4.19771 26.5652 4.19771H18.4607V0.103882H26.6691C28.1497 0.103882 29.4174 0.638989 30.472 1.70401C31.537 2.77422 32.0721 4.04185 32.0721 5.5069C32.0721 6.95117 31.3552 8.08373 29.9317 8.91496Z" fill="white"/>
<path d="M43.0463 0.0415617V4.19773C42.1424 4.39515 41.3839 4.9978 40.7604 6.00567C40.137 7.01873 39.8253 8.20324 39.8253 9.55919H35.399C35.399 7.0551 36.1315 4.8835 37.6018 3.05479C39.0824 1.21568 40.8955 0.207809 43.0463 0.0415617ZM46.2674 13.3829C46.9999 12.3334 47.3688 11.0658 47.3688 9.57997C47.3688 8.08375 46.9999 6.81093 46.2674 5.7563C45.5452 4.70686 44.6517 4.17695 43.5866 4.17695V0C45.8725 0 47.8104 0.935138 49.4053 2.80542C50.995 4.67569 51.7951 6.93561 51.7951 9.57997C51.7951 12.2139 50.995 14.4583 49.4053 16.313C47.8104 18.1729 45.8725 19.0976 43.5866 19.0976C41.4098 19.0976 39.524 18.2248 37.9342 16.4792C36.3549 14.7232 35.5081 12.588 35.399 10.0787H39.8461C39.9396 11.4399 40.35 12.5932 41.0722 13.5491C41.7891 14.4946 42.6307 14.9622 43.5866 14.9622C44.6517 14.9622 45.5452 14.4375 46.2674 13.3829Z" fill="white"/>
<path d="M55.4379 18.9937V4.8627H59.7603V18.9937H55.4379ZM65.2465 8.64481C65.7452 8.13568 65.9946 7.53304 65.9946 6.83688C65.9946 6.14592 65.7452 5.55886 65.2465 5.07051C64.7581 4.57177 64.1918 4.3224 63.5424 4.3224H55.334V0.103882H63.5424C65.4127 0.103882 67.0024 0.763674 68.322 2.07806C69.6364 3.38206 70.2962 4.9666 70.2962 6.83688C70.2962 8.70716 69.6364 10.3021 68.322 11.6165C67.0024 12.9361 65.4127 13.5907 63.5424 13.5907H60.3006V9.39292H63.5424C64.1918 9.39292 64.7581 9.14355 65.2465 8.64481Z" fill="white"/>
<path d="M73.9105 18.9937V4.8627H78.2329V18.9937H73.9105ZM83.719 8.64481C84.2178 8.13568 84.4672 7.53304 84.4672 6.83688C84.4672 6.14592 84.2178 5.55886 83.719 5.07051C83.2307 4.57177 82.6644 4.3224 82.015 4.3224H73.8066V0.103882H82.015C83.8853 0.103882 85.475 0.763674 86.7946 2.07806C88.109 3.38206 88.7688 4.9666 88.7688 6.83688C88.7688 8.70716 88.109 10.3021 86.7946 11.6165C85.475 12.9361 83.8853 13.5907 82.015 13.5907H78.7732V9.39292H82.015C82.6644 9.39292 83.2307 9.14355 83.719 8.64481Z" fill="white"/>
<path d="M92.3831 18.9937V0.103882H96.7055V18.9937H92.3831Z" fill="white"/>
<path d="M100.787 14.2349V4.8627H105.109V14.2349H100.787ZM105.65 7.33562H111.593V11.5541H105.65V7.33562ZM100.683 14.7752H112.923V18.9937H100.683V14.7752ZM100.683 0.103882H112.923V4.3224H100.683V0.103882Z" fill="white"/>
</svg>
