<svg width="12" height="10" viewBox="0 0 12 10" fill="none" xmlns="http://www.w3.org/2000/svg">
<mask id="mask0_170_53" style="mask-type:luminance" maskUnits="userSpaceOnUse" x="0" y="0" width="12" height="10">
<path d="M0.523285 0.512085H11.4904V9.48422H0.523285V0.512085Z" fill="white"/>
</mask>
<g mask="url(#mask0_170_53)">
<path d="M10.9397 2.02389H8.6434L8.56548 1.45761L8.50833 1.07317C8.48235 0.917312 8.40442 0.787431 8.27974 0.678332C8.14986 0.569233 8.01478 0.512085 7.86932 0.512085H4.12876C3.9833 0.512085 3.84303 0.569233 3.71834 0.678332C3.59366 0.792627 3.52612 0.922507 3.50534 1.07317L3.443 1.45761L3.35987 2.02389H1.07398C0.76746 2.02389 0.523285 2.27846 0.523285 2.58498V8.91275C0.523285 9.22965 0.76746 9.48422 1.07398 9.48422H10.9397C11.2462 9.48422 11.4904 9.22965 11.4904 8.91275V2.58498C11.4904 2.27846 11.2462 2.02389 10.9397 2.02389ZM10.8306 8.79326H1.18308V2.70966H3.35987C3.68717 2.70966 3.97291 2.4551 4.01966 2.1278L4.0924 1.55632L4.15474 1.20305H7.85373L7.91088 1.55632L7.994 2.1278C8.04076 2.4551 8.3265 2.70966 8.6434 2.70966H10.8306V8.79326Z" fill="white"/>
</g>
<path d="M9.76559 4.33059C10.0513 4.33059 10.2903 4.07602 10.2903 3.7747C10.2903 3.47338 10.0565 3.21881 9.76559 3.21881C9.47466 3.21881 9.24088 3.47338 9.24088 3.7747C9.24088 4.07602 9.47985 4.33059 9.76559 4.33059Z" fill="white"/>
<path d="M5.99904 2.88635C5.32367 2.88635 4.7418 3.14092 4.25345 3.64485C3.7703 4.14879 3.52612 4.75663 3.52612 5.45798C3.52612 6.15934 3.7703 6.76718 4.25345 7.27111C4.7418 7.76985 5.32367 8.00883 5.99904 8.01922C7.33422 8.04001 8.48755 6.83472 8.47197 5.45798C8.46158 4.75143 8.22779 4.14879 7.73944 3.64485C7.25629 3.14092 6.67962 2.88635 5.99904 2.88635ZM7.27707 6.79315C6.92379 7.15682 6.49779 7.33865 5.99904 7.33865C5.5055 7.33865 5.07949 7.15682 4.72622 6.79315C4.37294 6.42429 4.2015 5.9775 4.2015 5.45798C4.2015 4.94366 4.37294 4.49687 4.72622 4.12801C5.07949 3.76434 5.5055 3.57732 5.99904 3.57732C6.49779 3.57732 6.92379 3.76434 7.27707 4.12801C7.63034 4.49687 7.80698 4.94366 7.80698 5.45798C7.80698 5.9775 7.63034 6.42429 7.27707 6.79315Z" fill="white"/>
</svg>
