<svg width="14" height="12" viewBox="0 0 14 12" fill="none" xmlns="http://www.w3.org/2000/svg">
<mask id="mask0_102_222" style="mask-type:luminance" maskUnits="userSpaceOnUse" x="0" y="0" width="14" height="12">
<path d="M0.214111 0.421021H13.1762V11.3881H0.214111V0.421021Z" fill="white"/>
</mask>
<g mask="url(#mask0_102_222)">
<path fill-rule="evenodd" clip-rule="evenodd" d="M5.10799 7.85537C5.23268 7.85537 5.3106 7.9333 5.3106 8.04759C5.3106 8.16708 5.23268 8.24501 5.10799 8.24501H1.61681C1.49212 8.24501 1.41419 8.16708 1.41419 8.04759C1.41419 7.9333 1.49212 7.85537 1.61681 7.85537H5.10799ZM3.93907 6.22407C4.05856 6.22407 4.14168 6.302 4.14168 6.4163C4.14168 6.53059 4.06895 6.60333 3.95985 6.61372H0.442688C0.323198 6.61372 0.24527 6.53579 0.24527 6.4163C0.24527 6.3072 0.312808 6.23446 0.427102 6.22407H3.93907ZM5.10799 4.59278C5.23268 4.59278 5.3106 4.67071 5.3106 4.7902C5.3106 4.89929 5.23787 4.97203 5.12877 4.98242H1.61681C1.49212 4.98242 1.41419 4.90449 1.41419 4.7902C1.41419 4.6759 1.48693 4.60317 1.59603 4.59278H5.10799ZM12.5995 4.29665C12.9476 4.95644 13.145 5.70455 13.145 6.49423C13.145 9.19574 10.8643 11.3881 8.05368 11.3881C6.70292 11.3881 5.43009 10.8842 4.46378 9.94904C4.38066 9.87111 4.38066 9.75682 4.46378 9.67889C4.54171 9.60096 4.6612 9.60096 4.74433 9.67889C5.63271 10.5361 6.80163 10.9985 8.05368 10.9985C10.6409 10.9985 12.7398 8.98273 12.7398 6.49423C12.7398 5.81885 12.5787 5.17464 12.2982 4.59278L12.5995 4.29665ZM11.9761 4.91488C12.1943 5.40842 12.3189 5.94873 12.3189 6.51501C12.3189 8.76973 10.4175 10.5932 8.07446 10.5932C7.20686 10.5932 6.38082 10.3387 5.67427 9.87111C5.57556 9.81397 5.55478 9.69967 5.61193 9.60096C5.67427 9.52304 5.79376 9.50745 5.91844 9.5594C6.54187 9.99061 7.28998 10.2036 8.07446 10.2036C10.1941 10.2036 11.9137 8.55153 11.9137 6.51501C11.9137 6.05783 11.8254 5.62143 11.6695 5.2214L11.9761 4.91488ZM11.9241 3.22124C12.1059 3.19527 12.2826 3.28358 12.3605 3.44463C12.4384 3.60049 12.4073 3.78752 12.2774 3.90701C10.7916 5.34089 9.71614 6.49942 8.21473 7.94889C8.05887 8.09955 7.8147 8.10994 7.64325 7.97486L5.82493 6.49423C5.73661 6.42149 5.68466 6.32278 5.67427 6.21888C5.66388 6.10978 5.70024 6.00588 5.77298 5.92275C5.84571 5.83963 5.94962 5.78768 6.05871 5.77729C6.17301 5.77209 6.28211 5.80326 6.36523 5.876L7.89262 7.11246C9.22779 5.80846 10.2772 4.69149 11.6799 3.34073C11.7475 3.27319 11.8306 3.23163 11.9241 3.22124ZM8.07446 2.43676C9.14467 2.43676 10.1214 2.81601 10.8695 3.44463L10.5889 3.72518C9.91876 3.16409 9.04077 2.8264 8.07446 2.8264C7.2692 2.8264 6.47953 3.06019 5.83532 3.52256C5.73142 3.58491 5.61193 3.56413 5.55478 3.4862C5.49244 3.40827 5.51322 3.27319 5.59115 3.21605C6.31847 2.71211 7.18608 2.43676 8.07446 2.43676ZM8.98362 0.421021C9.1083 0.421021 9.18623 0.498948 9.18623 0.613243C9.18623 0.722343 9.1135 0.800271 9.0044 0.805466L8.98362 0.810662H8.25629V1.62111C9.44599 1.66268 10.5162 2.08868 11.3578 2.78484L11.4098 2.8264L11.4462 2.86277L11.1656 3.14851C10.3292 2.44196 9.23818 2.01076 8.05368 2.01076C6.76526 2.01076 5.54958 2.51469 4.64562 3.42905C4.56249 3.50698 4.443 3.50698 4.35988 3.42905C4.28195 3.35112 4.28195 3.23683 4.35988 3.1589C5.27424 2.22376 6.47433 1.69904 7.78352 1.62631L7.85626 1.62111V0.810662H7.14971C7.02502 0.810662 6.9471 0.732734 6.9471 0.613243C6.9471 0.504143 7.01983 0.431412 7.12893 0.421021H8.98362Z" fill="white"/>
</g>
</svg>
