<svg width="21" height="20" viewBox="0 0 21 20" fill="none" xmlns="http://www.w3.org/2000/svg">
<mask id="mask0_170_52" style="mask-type:luminance" maskUnits="userSpaceOnUse" x="0" y="0" width="21" height="20">
<path d="M0.54895 0.024231H20.483V19.9635H0.54895V0.024231Z" fill="white"/>
</mask>
<g mask="url(#mask0_170_52)">
<path d="M4.18563 2.55949C4.11289 2.47117 4.12848 2.33609 4.2168 2.26336C4.30512 2.19063 4.44019 2.20621 4.51293 2.29453C4.58566 2.38285 4.57527 2.51793 4.48175 2.59066C4.44539 2.62183 4.39863 2.63742 4.35187 2.63742C4.28953 2.63742 4.22719 2.61144 4.18563 2.55949ZM4.49734 17.4178C4.40902 17.3451 4.27395 17.3607 4.20121 17.449C4.12848 17.5425 4.14407 17.6724 4.23238 17.7451C4.26875 17.7763 4.31551 17.7919 4.36226 17.7919C4.42461 17.7919 4.48695 17.7659 4.52851 17.7139C4.60125 17.6256 4.58566 17.4905 4.49734 17.4178ZM5.28701 1.96204C5.32857 1.96204 5.36494 1.95165 5.40131 1.93087C5.50002 1.86333 5.52599 1.73345 5.46365 1.63994C5.40131 1.54123 5.27143 1.51005 5.17272 1.5724C5.07921 1.63474 5.04803 1.76462 5.11038 1.86333C5.15194 1.92567 5.21947 1.96204 5.28701 1.96204ZM2.92319 15.8021C2.85046 15.7086 2.72058 15.6878 2.62706 15.7605C2.53355 15.8333 2.51796 15.9631 2.5855 16.0567C2.62706 16.1086 2.68941 16.1398 2.75694 16.1398C2.79851 16.1398 2.84526 16.1242 2.88163 16.093C2.97514 16.0255 2.99073 15.8904 2.92319 15.8021ZM5.41689 18.0776C5.31818 18.0152 5.1883 18.0464 5.12596 18.1451C5.06362 18.2438 5.09479 18.3737 5.1935 18.4361C5.22467 18.4568 5.26623 18.4672 5.3026 18.4672C5.37533 18.4672 5.44287 18.4309 5.47924 18.3685C5.54158 18.2698 5.5156 18.1399 5.41689 18.0776ZM3.36478 16.6541C3.28166 16.732 3.27646 16.8671 3.35959 16.9502C3.40115 16.9918 3.4583 17.0126 3.51025 17.0126C3.5622 17.0126 3.61415 16.9918 3.65572 16.9554C3.73884 16.8723 3.74403 16.7372 3.66091 16.6541C3.58298 16.571 3.44791 16.571 3.36478 16.6541ZM9.63021 0.486598C9.63541 0.486598 9.6406 0.486598 9.6458 0.486598C9.76009 0.476207 9.84841 0.372302 9.83802 0.258008C9.82763 0.143713 9.72373 0.0553957 9.60943 0.0657854C9.49514 0.0761765 9.40682 0.180079 9.41721 0.294375C9.4276 0.403474 9.52111 0.486598 9.63021 0.486598ZM6.30008 1.40096C6.33125 1.40096 6.36242 1.39576 6.3884 1.38017C6.4923 1.32822 6.53906 1.20354 6.48711 1.09963C6.44035 0.995729 6.31047 0.948971 6.20657 1.00092C6.10266 1.05288 6.0611 1.17756 6.10786 1.28147C6.14422 1.3542 6.22215 1.40096 6.30008 1.40096ZM8.54961 19.3504C8.43531 19.3244 8.32102 19.3972 8.30024 19.5115C8.27426 19.6258 8.34699 19.7349 8.46129 19.7608C8.47687 19.7608 8.49246 19.766 8.50285 19.766C8.60156 19.766 8.68988 19.6985 8.71066 19.5946C8.73664 19.4855 8.6639 19.3712 8.54961 19.3504ZM8.48207 0.65804C8.49765 0.65804 8.51324 0.65804 8.52883 0.652845C8.64312 0.632064 8.71585 0.517768 8.68988 0.403474C8.6639 0.289179 8.5548 0.216447 8.44051 0.242423C8.32621 0.268398 8.25348 0.377499 8.27946 0.491793C8.30024 0.590502 8.38856 0.65804 8.48207 0.65804ZM7.37029 0.964557C7.39107 0.964557 7.41186 0.959363 7.43783 0.954167C7.54693 0.917801 7.60408 0.798311 7.56771 0.684016C7.53135 0.574917 7.41186 0.517769 7.30276 0.554136C7.19366 0.590502 7.13131 0.709992 7.16768 0.819091C7.19885 0.90741 7.28198 0.964557 7.37029 0.964557ZM6.40918 18.6283C6.30008 18.5763 6.17539 18.6231 6.12864 18.727C6.07669 18.8309 6.12344 18.9556 6.22735 19.0075C6.25332 19.0179 6.28449 19.0283 6.31567 19.0283C6.39359 19.0283 6.47152 18.9816 6.50789 18.9036C6.55465 18.7997 6.51308 18.675 6.40918 18.6283ZM3.49986 3.4167C3.55181 3.4167 3.60896 3.39592 3.65052 3.35436C3.72845 3.27123 3.72845 3.13616 3.64533 3.05823C3.5622 2.97511 3.42713 2.9803 3.3492 3.06342C3.26607 3.14655 3.26607 3.27643 3.3492 3.35955C3.39076 3.40111 3.44271 3.4167 3.49986 3.4167ZM1.48412 6.26368C1.51529 6.27926 1.54126 6.28446 1.57243 6.28446C1.65036 6.28446 1.72829 6.2377 1.76466 6.15977C1.81141 6.05067 1.75946 5.92599 1.65556 5.87923C1.54646 5.83247 1.42177 5.88442 1.37502 5.98833C1.32826 6.09743 1.38021 6.21692 1.48412 6.26368ZM1.11006 7.35987C1.12565 7.36506 1.14643 7.37026 1.16721 7.37026C1.26072 7.37026 1.34385 7.30791 1.36982 7.21959C1.40099 7.1105 1.33865 6.99101 1.22955 6.95464C1.12045 6.92347 1.00096 6.98581 0.96979 7.09491C0.933423 7.2092 0.995766 7.3235 1.11006 7.35987ZM0.751591 9.64056C0.756786 9.64056 0.761982 9.64056 0.767177 9.64056C0.876277 9.64056 0.96979 9.55744 0.974985 9.44315C0.98018 9.32885 0.891861 9.23014 0.777567 9.21975C0.663272 9.21456 0.559368 9.30288 0.554173 9.41717C0.548978 9.53666 0.637296 9.63537 0.751591 9.64056ZM0.860691 8.48723C0.876277 8.49242 0.886667 8.49242 0.897057 8.49242C1.00096 8.49242 1.08928 8.41969 1.10487 8.32098C1.12565 8.20669 1.04772 8.09759 0.933424 8.07681C0.81913 8.05602 0.71003 8.13395 0.694444 8.24825C0.673663 8.36254 0.746395 8.47164 0.860691 8.48723ZM2.61667 4.25313C2.65304 4.2791 2.6998 4.29469 2.74136 4.29469C2.8089 4.29469 2.87124 4.26871 2.9128 4.21157C2.98034 4.11805 2.96475 3.98817 2.87124 3.91544C2.77772 3.8479 2.64784 3.86349 2.57511 3.957C2.50757 4.05051 2.52316 4.18039 2.61667 4.25313ZM19.9947 8.85089C20.0051 8.9548 20.0934 9.03272 20.2025 9.03272C20.2077 9.03272 20.2181 9.03272 20.2284 9.03272C20.3427 9.01714 20.4259 8.91323 20.4103 8.79894C20.3947 8.68464 20.2908 8.60152 20.1765 8.61711C20.0622 8.6275 19.9791 8.7366 19.9947 8.85089ZM19.7921 7.73392C19.8128 7.83263 19.9011 7.89497 19.9947 7.89497C20.0102 7.89497 20.031 7.89497 20.0466 7.88978C20.1557 7.8638 20.2284 7.74951 20.1973 7.63521C20.1713 7.52611 20.057 7.45338 19.9479 7.48455C19.8336 7.51053 19.7661 7.62482 19.7921 7.73392ZM1.99325 5.22463C2.02442 5.24541 2.06078 5.2558 2.09715 5.2558C2.16989 5.2558 2.23742 5.21944 2.27898 5.1519C2.33613 5.05319 2.30496 4.92331 2.20625 4.86097C2.10235 4.80382 1.97766 4.83499 1.91532 4.9389C1.85817 5.03761 1.88934 5.16749 1.99325 5.22463ZM1.99844 14.789C1.89973 14.8462 1.86856 14.976 1.92571 15.0748C1.96727 15.1423 2.03481 15.1787 2.10754 15.1787C2.14391 15.1787 2.18027 15.1683 2.21664 15.1527C2.31535 15.0903 2.34652 14.9605 2.28937 14.8618C2.22703 14.763 2.10235 14.7319 1.99844 14.789ZM0.777567 10.7991C0.897056 10.7887 0.98018 10.69 0.974985 10.5757C0.96979 10.4562 0.87108 10.3679 0.751591 10.3783C0.637296 10.3835 0.548978 10.4822 0.554173 10.6017C0.564563 10.7108 0.652883 10.7991 0.767177 10.7991C0.772372 10.7991 0.772371 10.7991 0.777567 10.7991ZM1.49451 13.75C1.38541 13.7967 1.33865 13.9214 1.38541 14.0253C1.42177 14.1084 1.4997 14.1552 1.57763 14.1552C1.6088 14.1552 1.63478 14.1448 1.66595 14.1344C1.76985 14.0877 1.81661 13.963 1.76985 13.8591C1.7231 13.75 1.59841 13.7032 1.49451 13.75ZM1.37502 12.7993C1.34384 12.685 1.22436 12.6226 1.11526 12.659C1.00096 12.6902 0.938619 12.8096 0.974985 12.9187C1.00096 13.0123 1.08409 13.0694 1.1724 13.0694C1.19318 13.0694 1.21397 13.0642 1.23475 13.059C1.34904 13.0278 1.41138 12.9084 1.37502 12.7993ZM1.11006 11.6979C1.08928 11.5836 0.98018 11.5056 0.865886 11.5264C0.751592 11.5472 0.673663 11.6563 0.694444 11.7706C0.715225 11.8745 0.803543 11.9472 0.902252 11.9472C0.912642 11.9472 0.928229 11.942 0.938619 11.942C1.05291 11.9213 1.13084 11.8122 1.11006 11.6979ZM7.45342 19.0491C7.34432 19.0127 7.22483 19.0751 7.18846 19.1842C7.1521 19.2933 7.20924 19.4128 7.32354 19.4491C7.34432 19.4543 7.3651 19.4595 7.39107 19.4595C7.4742 19.4595 7.55732 19.4076 7.58849 19.3192C7.62486 19.205 7.56771 19.0907 7.45342 19.0491ZM17.0853 2.99589C17.1425 2.99589 17.1996 2.96991 17.2412 2.92835C17.3191 2.84003 17.3139 2.71015 17.2256 2.63222C17.1425 2.55429 17.0074 2.55949 16.9295 2.64261C16.8516 2.73093 16.8568 2.86081 16.9451 2.93874C16.9866 2.9751 17.0334 2.99589 17.0853 2.99589ZM18.5972 4.74148C18.6387 4.74148 18.6803 4.73109 18.7166 4.70511C18.8102 4.63757 18.8361 4.50769 18.7686 4.41418C18.7063 4.31547 18.5764 4.28949 18.4777 4.35703C18.3841 4.41937 18.3582 4.55445 18.4205 4.64796C18.4621 4.71031 18.5296 4.74148 18.5972 4.74148ZM18.727 15.2774C18.6283 15.2098 18.4984 15.2358 18.4309 15.3345C18.3686 15.428 18.3945 15.5631 18.4881 15.6255C18.5244 15.6514 18.566 15.6618 18.6075 15.6618C18.6751 15.6618 18.7426 15.6306 18.779 15.5683C18.8465 15.4748 18.8205 15.3397 18.727 15.2774ZM16.9555 17.0437C16.8723 17.1217 16.8671 17.2567 16.9451 17.3399C16.9866 17.3866 17.0438 17.4126 17.1009 17.4126C17.1477 17.4126 17.1996 17.3918 17.2412 17.3555C17.3295 17.2775 17.3347 17.1425 17.2568 17.0593C17.1737 16.971 17.0438 16.9658 16.9555 17.0437ZM17.8906 3.82193C17.9426 3.82193 17.9893 3.80634 18.0309 3.77517C18.1192 3.69724 18.1296 3.56217 18.0517 3.47385C17.9737 3.38553 17.8438 3.38033 17.7555 3.45306C17.6672 3.53099 17.6568 3.66087 17.7347 3.74919C17.7763 3.80114 17.8335 3.82193 17.8906 3.82193ZM19.1894 5.73376C19.2206 5.73376 19.2517 5.72857 19.2829 5.71298C19.3868 5.65584 19.4284 5.53115 19.3764 5.42725C19.3193 5.32334 19.1946 5.28178 19.0907 5.33893C18.9868 5.39088 18.9452 5.51556 19.0024 5.61947C19.0387 5.6922 19.1115 5.73376 19.1894 5.73376ZM17.7451 16.2333C17.6724 16.3216 17.6776 16.4515 17.7659 16.5294C17.8075 16.5658 17.8542 16.5814 17.9062 16.5814C17.9633 16.5814 18.0205 16.5554 18.062 16.5086C18.14 16.4203 18.1296 16.2852 18.0413 16.2125C17.9529 16.1346 17.8231 16.145 17.7451 16.2333ZM20.2284 10.9446C20.1142 10.929 20.0102 11.0121 19.9947 11.1264C19.9791 11.2459 20.0622 11.3498 20.1765 11.3602C20.1869 11.3602 20.1973 11.3654 20.2025 11.3654C20.3064 11.3654 20.3999 11.2823 20.4103 11.1783C20.4259 11.0641 20.3427 10.9601 20.2284 10.9446ZM19.2933 14.2695C19.1894 14.2175 19.0595 14.2591 19.0076 14.3578C18.9556 14.4617 18.9972 14.5916 19.1011 14.6436C19.1323 14.6591 19.1634 14.6643 19.1946 14.6643C19.2725 14.6643 19.3453 14.6228 19.3816 14.55C19.4388 14.4513 19.3972 14.3215 19.2933 14.2695ZM20.0518 12.0875C19.9375 12.0615 19.8232 12.1291 19.7972 12.2434C19.7713 12.3525 19.8388 12.4668 19.9531 12.4979C19.9687 12.4979 19.9843 12.5031 19.9999 12.5031C20.0934 12.5031 20.1817 12.4356 20.2025 12.3421C20.2336 12.2278 20.1609 12.1135 20.0518 12.0875ZM20.483 9.97825C20.483 9.86396 20.3843 9.77044 20.27 9.77044C20.1557 9.77044 20.0622 9.86396 20.0622 9.97825V9.99903C20.0622 10.1133 20.1557 10.2068 20.27 10.2068C20.3895 10.2068 20.483 10.1133 20.483 9.99903C20.483 9.99384 20.483 9.99384 20.483 9.98864C20.483 9.98345 20.483 9.98345 20.483 9.97825ZM19.7349 13.1993C19.6258 13.1577 19.5063 13.2149 19.4648 13.324C19.4232 13.4331 19.4803 13.5526 19.5894 13.5941C19.6154 13.6045 19.6362 13.6097 19.6622 13.6097C19.7505 13.6097 19.8284 13.5578 19.8596 13.4694C19.9011 13.3603 19.844 13.2408 19.7349 13.1993ZM19.657 6.79359C19.683 6.79359 19.7037 6.78839 19.7297 6.778C19.8388 6.73644 19.896 6.61695 19.8544 6.50785C19.8128 6.39875 19.6933 6.3416 19.5842 6.38317C19.4751 6.42473 19.418 6.54422 19.4596 6.65332C19.4907 6.74163 19.5687 6.79359 19.657 6.79359ZM14.0877 1.14119C14.1085 1.15159 14.1397 1.15678 14.1656 1.15678C14.2488 1.15678 14.3267 1.10483 14.3579 1.0217C14.4046 0.917802 14.3475 0.793115 14.2436 0.751554C14.1345 0.704796 14.0098 0.756749 13.9682 0.865848C13.9267 0.974948 13.9786 1.09444 14.0877 1.14119ZM11.9265 19.4439C11.8122 19.4647 11.7291 19.5686 11.7499 19.6829C11.7654 19.7868 11.8538 19.8647 11.9577 19.8647C11.9681 19.8647 11.9784 19.8647 11.9888 19.8596C12.1031 19.844 12.1811 19.7401 12.1655 19.6206C12.1447 19.5063 12.0408 19.4283 11.9265 19.4439ZM13.0123 0.77753C13.0331 0.782725 13.0487 0.78792 13.0694 0.78792C13.1578 0.78792 13.2461 0.725577 13.2721 0.632064C13.298 0.517768 13.2357 0.403475 13.1214 0.372303C13.0123 0.341132 12.8928 0.40867 12.8668 0.522964C12.8357 0.632065 12.898 0.746358 13.0123 0.77753ZM11.9057 0.54894C11.9161 0.54894 11.9265 0.54894 11.9369 0.54894C12.0356 0.54894 12.1291 0.476207 12.1447 0.372303C12.1603 0.258009 12.0824 0.148908 11.9681 0.133323C11.8486 0.117737 11.7447 0.195666 11.7291 0.30996C11.7083 0.424256 11.7914 0.533354 11.9057 0.54894ZM13.0331 19.2153C12.9188 19.2413 12.8564 19.3608 12.8824 19.4699C12.9084 19.5634 12.9967 19.6258 13.085 19.6258C13.1058 19.6258 13.1266 19.6258 13.1422 19.6206C13.2565 19.5894 13.3188 19.4751 13.2928 19.3608C13.2617 19.2465 13.1422 19.1842 13.0331 19.2153ZM10.7991 19.5478C10.6796 19.5478 10.5913 19.6465 10.5965 19.7608C10.5965 19.8751 10.69 19.9635 10.8043 19.9635H10.8095C10.929 19.9635 11.0173 19.8647 11.0121 19.7505C11.0121 19.631 10.9134 19.5426 10.7991 19.5478ZM10.7784 0.450231H10.7835C10.8978 0.450231 10.9914 0.361913 10.9914 0.247618C10.9966 0.133324 10.903 0.0346138 10.7887 0.0294189C10.6745 0.0294189 10.5757 0.117737 10.5757 0.237227C10.5705 0.351522 10.6641 0.450231 10.7784 0.450231ZM14.1033 18.8517C13.9942 18.8932 13.9422 19.0179 13.989 19.127C14.0202 19.205 14.0981 19.2569 14.1812 19.2569C14.2072 19.2569 14.2384 19.2517 14.2643 19.2413C14.3682 19.1946 14.4202 19.0751 14.3786 18.966C14.3319 18.8569 14.2124 18.8049 14.1033 18.8517ZM15.1216 18.3633C15.0228 18.4205 14.9865 18.5452 15.0436 18.6491C15.08 18.7166 15.1527 18.7582 15.2255 18.7582C15.2618 18.7582 15.293 18.7478 15.3294 18.7322C15.4281 18.675 15.4644 18.5452 15.4073 18.4465C15.3553 18.3425 15.2255 18.3062 15.1216 18.3633ZM9.66658 19.5115C9.55228 19.5011 9.44838 19.5894 9.43799 19.7037C9.4276 19.818 9.51592 19.9219 9.63021 19.9323C9.63541 19.9323 9.6406 19.9323 9.65099 19.9323C9.7549 19.9323 9.84841 19.8492 9.8588 19.7401C9.86919 19.6258 9.78087 19.5219 9.66658 19.5115ZM16.0671 2.22699C16.1034 2.25297 16.145 2.26856 16.1866 2.26856C16.2541 2.26856 16.3165 2.23739 16.358 2.18024C16.4256 2.08672 16.4048 1.95684 16.3113 1.88931C16.2177 1.81657 16.0827 1.84255 16.0151 1.93606C15.9476 2.02958 15.9684 2.15946 16.0671 2.22699ZM15.106 1.62435C15.1371 1.64513 15.1735 1.65033 15.2099 1.65033C15.2826 1.65033 15.3553 1.61396 15.3917 1.54123C15.4489 1.44252 15.4125 1.31264 15.3086 1.25549C15.2099 1.20354 15.08 1.2399 15.0228 1.33861C14.9709 1.44252 15.0073 1.5672 15.106 1.62435ZM16.0775 17.7607C15.984 17.8282 15.9632 17.9581 16.0307 18.0516C16.0723 18.1088 16.1346 18.1399 16.2022 18.1399C16.2437 18.1399 16.2853 18.1243 16.3268 18.0984C16.4204 18.0308 16.4411 17.901 16.3736 17.8074C16.3061 17.7139 16.1762 17.6931 16.0775 17.7607Z" fill="#07664D"/>
</g>
<mask id="mask1_170_52" style="mask-type:luminance" maskUnits="userSpaceOnUse" x="1" y="1" width="18" height="18">
<path d="M1.74905 1.22949H18.8517V18.3321H1.74905V1.22949Z" fill="white"/>
</mask>
<g mask="url(#mask1_170_52)">
<mask id="mask2_170_52" style="mask-type:luminance" maskUnits="userSpaceOnUse" x="1" y="1" width="18" height="18">
<path d="M10.3004 1.22949C5.57793 1.22949 1.74905 5.05837 1.74905 9.78081C1.74905 14.5033 5.57793 18.3321 10.3004 18.3321C15.0228 18.3321 18.8517 14.5033 18.8517 9.78081C18.8517 5.05837 15.0228 1.22949 10.3004 1.22949Z" fill="white"/>
</mask>
<g mask="url(#mask2_170_52)">
<path d="M1.74905 1.22949H18.8517V18.3321H1.74905V1.22949Z" fill="#07664D"/>
</g>
</g>
<path d="M6.04551 9.15223C6.86635 9.85359 8.23789 9.23016 8.21711 8.14956C8.21711 7.79109 8.08723 7.48457 7.82747 7.2352C7.56771 6.98063 7.25599 6.85595 6.89233 6.85595C5.66106 6.84036 5.09998 8.40932 6.04551 9.15223Z" fill="white"/>
<mask id="mask3_170_52" style="mask-type:luminance" maskUnits="userSpaceOnUse" x="4" y="8" width="6" height="5">
<path d="M4.42978 8.61713H9.90553V12.6071H4.42978V8.61713Z" fill="white"/>
</mask>
<g mask="url(#mask3_170_52)">
<path d="M9.34965 10.9446C9.34965 10.2329 8.87688 9.61463 8.17553 9.26135C8.00928 9.43799 7.81706 9.57307 7.59366 9.66658C7.37027 9.76529 7.13649 9.81205 6.89231 9.81205C6.64814 9.81205 6.41435 9.76529 6.19615 9.66658C5.97276 9.57307 5.77534 9.43799 5.60909 9.26655C4.90254 9.60943 4.42978 10.2329 4.42978 10.9446C4.42978 11.2148 4.52849 11.4433 4.72591 11.6356C4.91813 11.8278 5.15711 11.9213 5.43246 11.9213H8.35217C8.62751 11.9213 8.8613 11.8278 9.05871 11.6356C9.25094 11.4433 9.34965 11.2148 9.34965 10.9446Z" fill="white"/>
</g>
<mask id="mask4_170_52" style="mask-type:luminance" maskUnits="userSpaceOnUse" x="12" y="5" width="5" height="5">
<path d="M12.5655 5.95715H16.3944V9.94708H12.5655V5.95715Z" fill="white"/>
</mask>
<g mask="url(#mask4_170_52)">
<path d="M12.6071 8.14952C12.6694 9.86914 15.2047 9.86394 15.2618 8.14952C15.1995 6.4351 12.6694 6.4351 12.6071 8.14952Z" fill="white"/>
</g>
<mask id="mask5_170_52" style="mask-type:luminance" maskUnits="userSpaceOnUse" x="11" y="8" width="6" height="5">
<path d="M11.2355 8.61713H16.3944V12.6071H11.2355V8.61713Z" fill="white"/>
</mask>
<g mask="url(#mask5_170_52)">
<path d="M15.215 9.26655C15.0488 9.43799 14.8566 9.57307 14.6332 9.66658C14.4098 9.76009 14.176 9.80685 13.9318 9.80685C13.6928 9.80685 13.4591 9.76009 13.2357 9.66658C13.0123 9.56787 12.82 9.43799 12.6538 9.26135C11.9473 9.60943 11.4745 10.2329 11.4745 10.9446C11.4745 11.2148 11.5732 11.4433 11.7654 11.6356C11.9628 11.8278 12.1966 11.9213 12.472 11.9213H15.3969C15.6722 11.9213 15.906 11.8278 16.1034 11.6356C16.2956 11.4433 16.3944 11.2148 16.3944 10.9446C16.3944 10.2329 15.9216 9.60943 15.215 9.26655Z" fill="white"/>
</g>
<path d="M14.3422 13.2617C12.4096 15.2255 8.99637 15.3865 6.88711 13.6201H7.54171C7.68198 13.6149 7.75471 13.5474 7.75471 13.4071C7.75471 13.2721 7.68198 13.2045 7.54171 13.1993H6.33642C6.19615 13.1993 6.12341 13.2721 6.12341 13.4071V14.5916C6.12341 14.7319 6.19615 14.7994 6.33642 14.7994C6.47669 14.7994 6.54423 14.7319 6.54942 14.5916V13.8851C8.81454 15.8437 12.5395 15.6982 14.6436 13.5578C14.7371 13.4591 14.7371 13.3604 14.6384 13.2617C14.5397 13.1681 14.4409 13.1681 14.3422 13.2617Z" fill="white"/>
<path d="M6.48708 5.5727C8.4145 3.60371 11.8278 3.44786 13.937 5.21423H13.2824C13.1421 5.21423 13.0746 5.28696 13.0746 5.42204C13.0746 5.55711 13.1421 5.62985 13.2824 5.62985H14.4877C14.628 5.62985 14.7007 5.56231 14.7059 5.42204V4.23753C14.7007 4.10245 14.6332 4.03491 14.4929 4.03491C14.3526 4.03491 14.2799 4.10245 14.2799 4.23753V4.94927C12.0096 2.99068 8.28462 3.13095 6.18576 5.27657C6.08705 5.37528 6.08705 5.46879 6.18576 5.5675C6.28447 5.66621 6.38317 5.66621 6.48708 5.5727Z" fill="white"/>
</svg>
