<svg width="13" height="13" viewBox="0 0 13 13" fill="none" xmlns="http://www.w3.org/2000/svg">
<path d="M2.04551 6.15223C2.86635 6.85359 4.23789 6.23016 4.21711 5.14956C4.21711 4.79109 4.08723 4.48457 3.82747 4.2352C3.56771 3.98063 3.25599 3.85595 2.89233 3.85595C1.66106 3.84036 1.09998 5.40932 2.04551 6.15223Z" fill="white"/>
<mask id="mask0_170_51" style="mask-type:luminance" maskUnits="userSpaceOnUse" x="0" y="5" width="6" height="5">
<path d="M0.429779 5.61713H5.90553V9.60705H0.429779V5.61713Z" fill="white"/>
</mask>
<g mask="url(#mask0_170_51)">
<path d="M5.34965 7.9446C5.34965 7.23286 4.87688 6.61463 4.17553 6.26135C4.00928 6.43799 3.81706 6.57307 3.59366 6.66658C3.37027 6.76529 3.13649 6.81205 2.89231 6.81205C2.64814 6.81205 2.41435 6.76529 2.19615 6.66658C1.97276 6.57307 1.77534 6.43799 1.60909 6.26655C0.902544 6.60943 0.429779 7.23286 0.429779 7.9446C0.429779 8.21475 0.528487 8.44334 0.725906 8.63557C0.918129 8.82779 1.15711 8.9213 1.43246 8.9213H4.35217C4.62751 8.9213 4.8613 8.82779 5.05871 8.63557C5.25094 8.44334 5.34965 8.21475 5.34965 7.9446Z" fill="white"/>
</g>
<mask id="mask1_170_51" style="mask-type:luminance" maskUnits="userSpaceOnUse" x="8" y="2" width="5" height="5">
<path d="M8.56549 2.95715H12.3944V6.94708H8.56549V2.95715Z" fill="white"/>
</mask>
<g mask="url(#mask1_170_51)">
<path d="M8.60706 5.14952C8.6694 6.86914 11.2047 6.86394 11.2618 5.14952C11.1995 3.4351 8.6694 3.4351 8.60706 5.14952Z" fill="white"/>
</g>
<mask id="mask2_170_51" style="mask-type:luminance" maskUnits="userSpaceOnUse" x="7" y="5" width="6" height="5">
<path d="M7.2355 5.61713H12.3944V9.60705H7.2355V5.61713Z" fill="white"/>
</mask>
<g mask="url(#mask2_170_51)">
<path d="M11.215 6.26655C11.0488 6.43799 10.8566 6.57307 10.6332 6.66658C10.4098 6.76009 10.176 6.80685 9.93182 6.80685C9.69284 6.80685 9.45906 6.76009 9.23566 6.66658C9.01227 6.56787 8.82005 6.43799 8.6538 6.26135C7.94725 6.60943 7.47449 7.23286 7.47449 7.9446C7.47449 8.21475 7.5732 8.44334 7.76542 8.63557C7.96284 8.82779 8.19662 8.9213 8.47197 8.9213H11.3969C11.6722 8.9213 11.906 8.82779 12.1034 8.63557C12.2956 8.44334 12.3944 8.21475 12.3944 7.9446C12.3944 7.23286 11.9216 6.60943 11.215 6.26655Z" fill="white"/>
</g>
<path d="M10.3422 10.2617C8.40962 12.2255 4.99637 12.3865 2.88711 10.6201H3.54171C3.68198 10.6149 3.75471 10.5474 3.75471 10.4071C3.75471 10.2721 3.68198 10.2045 3.54171 10.1993H2.33642C2.19615 10.1993 2.12341 10.2721 2.12341 10.4071V11.5916C2.12341 11.7319 2.19615 11.7994 2.33642 11.7994C2.47669 11.7994 2.54423 11.7319 2.54942 11.5916V10.8851C4.81454 12.8437 8.5395 12.6982 10.6436 10.5578C10.7371 10.4591 10.7371 10.3604 10.6384 10.2617C10.5397 10.1681 10.4409 10.1681 10.3422 10.2617Z" fill="white"/>
<path d="M2.48708 2.5727C4.4145 0.603712 7.82776 0.447856 9.93702 2.21423H9.28242C9.14215 2.21423 9.07461 2.28696 9.07461 2.42204C9.07461 2.55711 9.14215 2.62985 9.28242 2.62985H10.4877C10.628 2.62985 10.7007 2.56231 10.7059 2.42204V1.23753C10.7007 1.10245 10.6332 1.03491 10.4929 1.03491C10.3526 1.03491 10.2799 1.10245 10.2799 1.23753V1.94927C8.00959 -0.00932407 4.28462 0.130948 2.18576 2.27657C2.08705 2.37528 2.08705 2.46879 2.18576 2.5675C2.28447 2.66621 2.38317 2.66621 2.48708 2.5727Z" fill="white"/>
</svg>
