<svg width="14" height="11" viewBox="0 0 14 11" fill="none" xmlns="http://www.w3.org/2000/svg">
<mask id="mask0_170_61" style="mask-type:luminance" maskUnits="userSpaceOnUse" x="7" y="4" width="7" height="7">
<path d="M7.13727 4.75317H13.4806V10.7796H7.13727V4.75317Z" fill="white"/>
</mask>
<g mask="url(#mask0_170_61)">
<path fill-rule="evenodd" clip-rule="evenodd" d="M10.4882 10.6601C8.86728 10.6601 7.5477 9.35089 7.5477 7.74557C7.5477 6.14025 8.86728 4.83105 10.4882 4.83105C12.1039 4.83105 13.4235 6.14025 13.4235 7.74557C13.4235 9.35089 12.1039 10.6601 10.4882 10.6601ZM10.4882 5.12718C9.02834 5.12718 7.84902 6.3013 7.84902 7.74557C7.84902 9.18464 9.02834 10.3588 10.4882 10.3588C11.9429 10.3588 13.1222 9.18464 13.1222 7.74557C13.1222 6.3013 11.9429 5.12718 10.4882 5.12718Z" fill="white"/>
</g>
<mask id="mask1_170_61" style="mask-type:luminance" maskUnits="userSpaceOnUse" x="7" y="6" width="7" height="5">
<path d="M7.13727 6.08313H13.4806V10.0731H7.13727V6.08313Z" fill="white"/>
</mask>
<g mask="url(#mask1_170_61)">
<path fill-rule="evenodd" clip-rule="evenodd" d="M13.1066 8.83659H7.8646C7.79186 8.83659 7.73991 8.80023 7.71913 8.73788C7.48535 8.09368 7.48535 7.39232 7.71913 6.75331C7.73991 6.69097 7.79186 6.6546 7.8646 6.6546H13.1066C13.1689 6.6546 13.2313 6.69097 13.2468 6.75331C13.4806 7.39232 13.4806 8.09368 13.2468 8.73788C13.2313 8.80023 13.1689 8.83659 13.1066 8.83659ZM7.9685 8.53527H12.9975C13.1637 8.02094 13.1637 7.47025 12.9975 6.95073H7.9685C7.80225 7.47025 7.80225 8.02094 7.9685 8.53527Z" fill="white"/>
</g>
<mask id="mask2_170_61" style="mask-type:luminance" maskUnits="userSpaceOnUse" x="8" y="4" width="5" height="7">
<path d="M8.46725 4.75317H12.4572V10.7796H8.46725V4.75317Z" fill="white"/>
</mask>
<g mask="url(#mask2_170_61)">
<path fill-rule="evenodd" clip-rule="evenodd" d="M10.4882 10.6601C9.65696 10.6601 9.01794 9.38206 9.01794 7.74557C9.01794 6.10908 9.65696 4.83105 10.4882 4.83105C11.309 4.83105 11.9532 6.10908 11.9532 7.74557C11.9532 9.38206 11.309 10.6601 10.4882 10.6601ZM10.4882 5.12718C9.85437 5.12718 9.31927 6.32728 9.31927 7.74557C9.31927 9.16386 9.85437 10.3588 10.4882 10.3588C11.1168 10.3588 11.6519 9.16386 11.6519 7.74557C11.6519 6.32728 11.1168 5.12718 10.4882 5.12718Z" fill="white"/>
</g>
<mask id="mask3_170_61" style="mask-type:luminance" maskUnits="userSpaceOnUse" x="0" y="2" width="8" height="9">
<path d="M0.518585 2.0932H7.13729V10.7796H0.518585V2.0932Z" fill="white"/>
</mask>
<g mask="url(#mask3_170_61)">
<path fill-rule="evenodd" clip-rule="evenodd" d="M6.17096 10.7796L0.664031 9.01319C0.60169 9.0028 0.554932 8.94046 0.554932 8.87292V3.02311C0.554932 2.91921 0.65364 2.85167 0.75235 2.87765L6.22811 4.63363C6.28525 4.64921 6.32162 4.71156 6.32162 4.77909V10.6289C6.32162 10.712 6.25408 10.7796 6.17096 10.7796ZM0.856254 8.76902L6.0203 10.4263V4.883L0.856254 3.22573V8.76902Z" fill="white"/>
</g>
<mask id="mask4_170_61" style="mask-type:luminance" maskUnits="userSpaceOnUse" x="0" y="0" width="13" height="7">
<path d="M0.518585 0.809937H12.4572V6.08308H0.518585V0.809937Z" fill="white"/>
</mask>
<g mask="url(#mask4_170_61)">
<path fill-rule="evenodd" clip-rule="evenodd" d="M6.17097 4.9297L0.664046 3.16333C0.518581 3.11657 0.528971 2.91915 0.664046 2.87759L5.7034 1.40735C5.73457 1.40215 5.76575 1.39176 5.78653 1.40215L9.36083 2.29573C9.55825 2.34248 9.48552 2.63342 9.2933 2.58666L5.76055 1.69828L1.21993 3.02825L6.17097 4.62318L9.74008 3.48024C9.92711 3.41789 10.0258 3.70363 9.83879 3.76078L6.17097 4.9297ZM11.1792 3.31919C11.0233 3.31919 10.9662 3.11138 11.1116 3.03864C10.9506 2.95552 11.0441 2.71654 11.2155 2.7581C11.5013 2.83603 11.7922 2.85162 11.7974 3.01267C11.7974 3.08021 11.7506 3.14255 11.6935 3.16333L11.1792 3.31919Z" fill="white"/>
</g>
<path fill-rule="evenodd" clip-rule="evenodd" d="M4.1812 6.00519C4.14483 6.00519 4.10847 5.9896 4.0773 5.95843C3.3084 5.18954 3.51102 5.19473 2.82525 5.87011C2.72654 5.97402 2.57068 5.89089 2.56029 5.76621L2.54471 3.66215C2.54471 3.55824 2.64342 3.48551 2.74213 3.51668L4.23835 3.99464C4.2955 4.01542 4.33186 4.07776 4.33186 4.13491V5.85453C4.33186 5.93765 4.26432 6.00519 4.1812 6.00519ZM3.41231 5.07524C3.67727 5.07524 3.82273 5.28825 4.03054 5.49606V4.24921L2.85123 3.86476L2.86162 5.41293C3.03825 5.24149 3.15774 5.07524 3.41231 5.07524Z" fill="white"/>
<mask id="mask5_170_61" style="mask-type:luminance" maskUnits="userSpaceOnUse" x="5" y="2" width="8" height="9">
<path d="M5.80731 2.0932H12.4572V10.7796H5.80731V2.0932Z" fill="white"/>
</mask>
<g mask="url(#mask5_170_61)">
<path fill-rule="evenodd" clip-rule="evenodd" d="M6.17096 10.7796C6.08783 10.7796 6.02029 10.712 6.02029 10.6289V4.77909C6.02029 4.71156 6.06705 4.64921 6.12939 4.63363L9.74007 3.48029C9.93749 3.41795 10.0258 3.70369 9.83878 3.76083L6.32162 4.883V10.4263L8.60751 9.69377C8.80493 9.63662 8.89325 9.91716 8.70622 9.9795L6.17096 10.7796ZM11.6467 5.38174C11.5636 5.38174 11.496 5.3142 11.496 5.23627V3.22573C11.3142 3.28287 11.096 3.40236 11.0337 3.21533C10.9661 3.01272 11.2986 2.97635 11.6 2.87765C11.6935 2.85167 11.7974 2.91921 11.7974 3.02311V5.23627C11.7974 5.3142 11.7298 5.38174 11.6467 5.38174Z" fill="white"/>
</g>
<mask id="mask6_170_61" style="mask-type:luminance" maskUnits="userSpaceOnUse" x="1" y="0" width="9" height="5">
<path d="M1.81738 0.809937H9.79723V4.7531H1.81738V0.809937Z" fill="white"/>
</mask>
<g mask="url(#mask6_170_61)">
<path fill-rule="evenodd" clip-rule="evenodd" d="M4.18119 4.28551L2.6538 3.79716C2.51873 3.76079 2.50833 3.56857 2.64341 3.52181L7.42301 1.84376C7.45418 1.82817 7.48535 1.82817 7.51652 1.83337L9.17379 2.25418C9.31926 2.29055 9.32965 2.48277 9.18938 2.53472L4.18119 4.28551ZM3.16293 3.65169L4.18119 3.97899L8.6231 2.41523L7.48535 2.13469L3.16293 3.65169Z" fill="white"/>
</g>
<mask id="mask7_170_61" style="mask-type:luminance" maskUnits="userSpaceOnUse" x="8" y="0" width="5" height="7">
<path d="M8.46725 0.809937H12.4572V6.08308H8.46725V0.809937Z" fill="white"/>
</mask>
<g mask="url(#mask7_170_61)">
<path fill-rule="evenodd" clip-rule="evenodd" d="M11.1792 5.22066C11.0077 5.22066 10.5817 5.02324 9.82321 5.21027C9.72969 5.23625 9.64137 5.16871 9.64137 5.07V2.74774C9.392 2.74774 9.15302 2.7893 9.08549 2.66462C9.05951 2.61266 9.05951 2.55032 9.09588 2.50876L10.0882 1.11125C10.296 0.809923 10.6752 0.809923 10.883 1.11125L11.8597 2.49317C11.9532 2.61266 11.8649 2.74774 11.7454 2.74774H11.3298V5.07C11.3298 5.15312 11.2623 5.22066 11.1792 5.22066ZM10.4882 4.83102C10.6648 4.83102 10.8467 4.8466 11.0285 4.88297V2.59708C11.0285 2.39966 11.2675 2.44642 11.4597 2.44642L10.6389 1.28269C10.5453 1.1632 10.4155 1.1632 10.3323 1.28269L9.51149 2.44642C9.69333 2.44642 9.9427 2.39966 9.9427 2.59708V4.88297C10.1141 4.8466 10.296 4.83102 10.4882 4.83102Z" fill="white"/>
</g>
</svg>
