<svg width="16" height="16" viewBox="0 0 16 16" fill="none" xmlns="http://www.w3.org/2000/svg">
<mask id="mask0_170_58" style="mask-type:luminance" maskUnits="userSpaceOnUse" x="10" y="8" width="6" height="4">
<path d="M10.4673 8.94458H15.5586V11.6045H10.4673V8.94458Z" fill="white"/>
</mask>
<g mask="url(#mask0_170_58)">
<path d="M14.639 10.5707C14.6338 10.5707 13.3558 10.1135 12.6337 9.89014C12.5038 9.86416 12.3739 9.87455 12.244 9.91612C11.6985 10.1603 11.1738 10.446 10.6699 10.7681C10.5244 10.8564 10.4984 10.9759 10.5867 11.1162C10.6751 11.2617 10.7946 11.2877 10.9348 11.1993C11.4128 10.8876 11.9115 10.6175 12.431 10.3889C12.4622 10.3785 12.4934 10.3785 12.5246 10.3889C13.2467 10.6175 14.4624 11.0539 14.4728 11.0539C14.6286 11.1058 14.7377 11.0591 14.7897 10.898C14.8468 10.7422 14.7949 10.6383 14.639 10.5811V10.5707Z" fill="white"/>
</g>
<mask id="mask1_170_58" style="mask-type:luminance" maskUnits="userSpaceOnUse" x="10" y="6" width="6" height="3">
<path d="M10.4673 6.28467H15.5586V8.94462H10.4673V6.28467Z" fill="white"/>
</mask>
<g mask="url(#mask1_170_58)">
<path d="M15.3819 8.11857L13.3402 7.5471C13.07 7.40683 12.8259 7.225 12.6233 6.99641C12.4622 6.84055 12.2804 6.70548 12.0881 6.59118C11.9479 6.51325 11.8388 6.54442 11.7556 6.6795C11.6725 6.81977 11.6933 6.92887 11.8284 7.01719C11.9842 7.1107 12.1297 7.21461 12.2648 7.33929C12.5193 7.61464 12.8155 7.83803 13.1532 8.00428L13.1895 8.01987L15.252 8.59653C15.2728 8.59653 15.2936 8.59653 15.3196 8.59653C15.4443 8.58095 15.517 8.50822 15.5326 8.37834C15.5534 8.25365 15.5014 8.16533 15.3819 8.11857Z" fill="white"/>
</g>
<path d="M12.3323 2.89738C12.4362 2.76231 12.4206 2.64282 12.2856 2.53891C12.1557 2.4402 12.0362 2.45579 11.9323 2.58567C11.9323 2.59606 11.1218 3.6403 10.6803 4.26372C10.6023 4.38841 10.566 4.51829 10.5712 4.66375C10.6283 5.20406 10.7218 5.73916 10.8569 6.26908C10.9764 6.76782 11.1582 7.41202 11.3556 7.67178C11.5479 7.93154 11.5479 7.98869 11.5479 8.00428C11.4128 8.22248 11.1842 8.06143 11.0335 7.84842C10.9348 7.71335 10.8205 7.69776 10.6854 7.79127C10.5504 7.88998 10.5296 8.00947 10.6283 8.13935C10.9868 8.6329 11.4491 8.74719 11.8128 8.45107C12.2648 8.06143 11.9687 7.66659 11.7557 7.38085C11.5219 7.06914 11.1218 5.38589 11.0699 4.63258C11.0751 4.60141 11.0803 4.57024 11.0959 4.54426C11.5375 3.92603 12.3219 2.90777 12.3323 2.89738Z" fill="white"/>
<mask id="mask2_170_58" style="mask-type:luminance" maskUnits="userSpaceOnUse" x="6" y="0" width="5" height="5">
<path d="M6.47733 0.923157H10.4672V4.95464H6.47733V0.923157Z" fill="white"/>
</mask>
<g mask="url(#mask2_170_58)">
<path d="M10.3218 1.34403C10.4101 1.20376 10.3893 1.08946 10.249 0.995946C10.114 0.907626 9.99448 0.928408 9.90616 1.06868L8.74243 2.82986C8.52423 3.04805 8.27486 3.2195 7.99432 3.33899C7.693 3.51043 7.42285 3.72343 7.18387 3.96761C7.06957 4.0819 7.06957 4.20139 7.18387 4.31569C7.29297 4.42998 7.41246 4.43518 7.52675 4.32608C7.72936 4.11827 7.95795 3.94163 8.20732 3.79097C8.54501 3.63511 8.84634 3.4273 9.1061 3.15715C9.11649 3.14676 9.12688 3.13637 9.13207 3.12598L10.3218 1.34403Z" fill="white"/>
</g>
<path d="M3.37059 2.77266C3.37059 2.78306 4.13948 3.90003 4.59666 4.50267C4.68498 4.60138 4.79927 4.67411 4.92915 4.71048C5.62531 4.87673 7.49559 5.07934 8.03069 4.89751C8.32163 4.7988 8.38916 4.80919 8.40475 4.80919C8.63334 5.10532 8.10862 5.28195 7.79172 5.32351C7.41766 5.39105 6.57604 5.53132 6.87736 5.97811C6.98646 6.1028 7.10075 6.11319 7.22544 5.99889C7.32415 5.91577 7.63066 5.85862 7.88003 5.81706C8.42553 5.74433 8.784 5.47937 8.87752 5.26117C8.98142 5.07934 8.98662 4.89231 8.90869 4.69489C8.6749 4.1494 8.20733 4.30525 7.86964 4.42474C7.50078 4.54943 5.77597 4.40916 5.03825 4.22732C5.01228 4.21174 4.9863 4.19615 4.96032 4.17537C4.50834 3.56753 3.78101 2.5129 3.77581 2.49212C3.6823 2.34146 3.56801 2.31029 3.41734 2.4142C3.27188 2.5129 3.2511 2.63239 3.36539 2.77266H3.37059Z" fill="white"/>
<path d="M3.17838 5.46384L1.84841 3.78578C1.7445 3.6559 1.62501 3.64032 1.49513 3.74422C1.36525 3.84813 1.34967 3.96242 1.45357 4.0923L2.76796 5.75997C2.90823 6.03012 2.99655 6.32105 3.02772 6.62237C3.08487 6.9185 3.17838 7.20423 3.31346 7.46919C3.36022 7.5679 3.43295 7.61466 3.53685 7.61466C3.63037 7.61466 3.6979 7.57829 3.74986 7.50036C3.79661 7.42243 3.80181 7.34451 3.76544 7.26138C3.65115 7.03799 3.57322 6.8042 3.52127 6.56003C3.4849 6.17039 3.37061 5.80153 3.17838 5.46384Z" fill="white"/>
<mask id="mask3_170_58" style="mask-type:luminance" maskUnits="userSpaceOnUse" x="0" y="4" width="7" height="8">
<path d="M0.60675 4.95465H6.47734V11.6045H0.60675V4.95465Z" fill="white"/>
</mask>
<g mask="url(#mask3_170_58)">
<path d="M2.99654 10.2382C3.12123 10.1811 3.21993 10.0979 3.29786 9.98363C3.67711 9.37579 4.44081 7.65618 4.43042 7.0899C4.41483 6.96002 4.42522 6.83533 4.46679 6.71065C4.78369 6.59116 4.82526 7.01197 4.78369 7.33927C4.72135 7.80684 4.61745 8.34195 4.92396 8.58612C5.16814 8.78873 5.50583 8.67444 5.62012 8.63807L5.88508 8.54456C6.04613 8.49261 6.09808 8.38351 6.04094 8.22765C5.98379 8.0666 5.87988 8.01984 5.71883 8.0718L5.45388 8.16531C5.38634 8.19648 5.31361 8.20687 5.23568 8.20168C5.16295 8.09258 5.24607 7.62501 5.27204 7.40681C5.37075 6.66389 5.05904 6.15996 4.50835 6.19113C3.91609 6.23788 3.92129 6.73143 3.93168 7.0899C3.93168 7.47954 3.26669 9.07447 2.86666 9.71348C2.84588 9.73946 2.8251 9.75504 2.79393 9.77063C2.07699 10.0148 0.840527 10.3785 0.830136 10.3785C0.669084 10.4252 0.611938 10.5291 0.658694 10.6902C0.705451 10.8512 0.809355 10.9084 0.970407 10.8616C0.970407 10.8616 2.2848 10.4772 2.99654 10.2382Z" fill="white"/>
</g>
<path d="M5.0123 11.8851C4.9032 11.8903 4.79929 11.8851 4.69539 11.8695C4.32653 11.7916 3.95767 11.7864 3.58361 11.8539C3.57322 11.8539 3.55764 11.8591 3.54205 11.8643L1.54709 12.6072C1.41201 12.6748 1.37045 12.7735 1.4224 12.9137C1.46916 13.0592 1.56787 13.1112 1.71334 13.0748L3.69791 12.3371C3.99923 12.2903 4.30575 12.2955 4.60187 12.3631C4.74214 12.3838 4.87722 12.3942 5.01749 12.3838C5.18374 12.3838 5.26686 12.3007 5.26686 12.1345C5.26167 11.9682 5.17854 11.8851 5.0123 11.8851Z" fill="white"/>
<mask id="mask4_170_58" style="mask-type:luminance" maskUnits="userSpaceOnUse" x="3" y="4" width="9" height="12">
<path d="M3.81738 4.95465H11.7972V15.875H3.81738V4.95465Z" fill="white"/>
</mask>
<g mask="url(#mask4_170_58)">
<path d="M10.2802 6.91324C10.1763 6.80934 10.0516 6.75739 9.91138 6.76258C9.76591 6.76258 9.64642 6.81973 9.54771 6.92883C9.52173 6.55997 9.3399 6.18591 8.92948 6.19111C8.6905 6.19111 8.51906 6.30021 8.42035 6.5236C8.3684 6.19111 8.15539 5.92615 7.80732 5.93135C7.3865 5.93135 7.24104 6.33138 7.24104 6.7418C7.12674 6.47165 6.91893 6.35216 6.6332 6.38333C6.47734 6.39372 6.35265 6.45607 6.25914 6.57556C6.03575 6.84571 6.09289 7.29769 6.13446 7.69772C6.15524 7.92112 6.17602 8.08217 6.21758 8.36271C6.25914 8.64845 6.3059 9.00172 6.33707 9.33941C6.37863 9.77061 6.37863 10.1551 6.38383 10.5187C6.38902 10.5967 6.37863 10.6694 6.34746 10.7421C6.22277 10.7733 5.80716 10.5551 5.60454 10.4616C4.92917 10.1395 4.35769 10.2797 4.21223 10.8097C4.07715 11.3863 4.54472 11.5318 4.8928 11.6409C5.26166 11.7552 6.57605 12.8825 7.05401 13.4592C7.06959 13.4852 7.07999 13.5164 7.08518 13.5475C7.08518 14.306 7.0592 15.5893 7.0592 15.6048C7.05401 15.7711 7.13194 15.8542 7.29818 15.8594C7.46443 15.8646 7.55275 15.7867 7.55794 15.6204C7.55794 15.6048 7.59431 14.2541 7.58392 13.5008C7.56834 13.3657 7.52158 13.2462 7.44365 13.1371C6.98128 12.5916 5.57857 11.3292 5.04346 11.1629C4.74733 11.0746 4.70058 11.0227 4.69019 11.0123C4.69019 10.9811 4.69019 10.9499 4.70058 10.9188C4.76812 10.7058 5.12658 10.7837 5.39154 10.9188C5.81755 11.1214 6.3007 11.3811 6.62281 11.1681C6.94491 10.9551 6.87737 10.6122 6.88257 10.42C6.88257 9.70827 6.83061 9.00172 6.71632 8.30037C6.67995 8.03022 6.65917 7.87436 6.63839 7.66136C6.61241 7.44316 6.56046 6.97559 6.64878 6.91324C6.81503 6.79375 6.90335 7.21457 6.97089 7.75487C7.15272 9.25109 7.24104 9.39656 7.37611 9.49007C7.44365 9.53683 7.51638 9.55241 7.59951 9.53683C7.8281 9.48488 7.8229 9.2459 7.81771 9.05367C7.81771 8.90301 7.80731 8.72118 7.79692 8.48739C7.76056 7.96787 7.73458 7.03274 7.74497 6.76778C7.74497 6.53399 7.78653 6.46646 7.80732 6.45087C7.83329 6.44048 7.94239 6.45087 7.95798 6.81454C7.95798 6.90285 8.05669 8.477 8.07747 8.93418C8.07747 9.0225 8.08266 9.11082 8.09305 9.19394C8.10344 9.31343 8.16579 9.39656 8.27488 9.44331C8.38918 9.49007 8.48789 9.46929 8.57621 9.39136C8.6957 9.29265 8.72687 9.15238 8.77362 8.31595C8.79441 7.90034 8.7996 7.59382 8.7996 7.37042C8.7996 7.27172 8.7996 7.18859 8.7996 7.12105C8.7996 6.88727 8.87753 6.70544 8.93468 6.70544C8.99182 6.70544 9.04378 6.70544 9.06975 7.15222C9.09053 7.65097 9.13209 8.51857 9.13209 8.75755C9.13209 9.27187 9.15807 9.40695 9.27756 9.51085C9.3399 9.568 9.41783 9.58878 9.50095 9.57839C9.72954 9.54202 9.75552 9.31863 9.76591 9.21992C9.7763 9.12641 9.79708 8.61728 9.80747 8.24322C9.81267 7.96268 9.80747 7.45874 9.92696 7.27691C9.98411 7.41718 10.0101 7.56784 10.0049 7.7185C10.0205 8.03541 10.0049 8.4822 9.9945 9.05367C9.97891 9.65632 10.0309 10.3317 9.9945 10.9136C9.97891 11.4279 9.87501 11.9266 9.67759 12.4098C9.49056 12.7319 9.37107 13.0852 9.31912 13.454C9.31912 13.4696 9.31912 13.4852 9.31912 13.5008L9.40744 15.636C9.41264 15.8023 9.50095 15.8802 9.6672 15.875C9.83345 15.8698 9.91138 15.7815 9.90618 15.6152L9.81786 13.5008C9.85942 13.1943 9.95294 12.9033 10.1036 12.6332C10.2543 12.3682 10.4361 11.7344 10.4829 10.9343C10.5244 10.3265 10.4725 9.66671 10.4829 9.05367C10.5244 7.77565 10.54 7.19379 10.2802 6.91324Z" fill="white"/>
</g>
</svg>
