<svg width="21" height="21" viewBox="0 0 21 21" fill="none" xmlns="http://www.w3.org/2000/svg">
<mask id="mask0_170_66" style="mask-type:luminance" maskUnits="userSpaceOnUse" x="0" y="0" width="21" height="21">
<path d="M0.640259 0.943115H20.5743V20.8823H0.640259V0.943115Z" fill="white"/>
</mask>
<g mask="url(#mask0_170_66)">
<path d="M4.27694 3.4732C4.2042 3.38488 4.21979 3.255 4.30811 3.18227C4.30811 3.18227 4.30811 3.18227 4.30811 3.17707C4.39643 3.10434 4.5315 3.11993 4.60423 3.20824C4.67697 3.30176 4.66658 3.43164 4.57306 3.50437C4.5367 3.53554 4.48994 3.55113 4.44318 3.55113C4.38084 3.55113 4.3185 3.52515 4.27694 3.4732ZM4.58865 18.3367C4.50033 18.264 4.36526 18.2744 4.29252 18.3679C4.21979 18.4562 4.23537 18.5913 4.32369 18.664C4.36006 18.6952 4.40682 18.7108 4.45357 18.7108C4.51592 18.7108 4.57826 18.6848 4.61982 18.6328C4.69255 18.5393 4.67697 18.4094 4.58865 18.3367ZM5.37832 2.87575C5.41988 2.87575 5.45625 2.86536 5.49262 2.84458C5.59133 2.78224 5.6173 2.65236 5.55496 2.55365C5.49262 2.45494 5.36274 2.42896 5.26403 2.49131C5.17051 2.55365 5.13934 2.68353 5.20168 2.78224C5.24325 2.84458 5.31078 2.87575 5.37832 2.87575ZM3.0145 16.7158C2.94177 16.6223 2.81189 16.6067 2.71837 16.6794C2.62486 16.747 2.60927 16.8769 2.68201 16.9704C2.72357 17.0275 2.78071 17.0535 2.84825 17.0535C2.88981 17.0535 2.93657 17.0379 2.97294 17.0119C3.06645 16.9392 3.08204 16.8093 3.0145 16.7158ZM5.5082 18.9965C5.40949 18.9342 5.27961 18.9653 5.21727 19.0588C5.15493 19.1576 5.1861 19.2874 5.28481 19.3498C5.31598 19.3706 5.35754 19.3861 5.39391 19.3861C5.46664 19.3861 5.53418 19.3498 5.57054 19.2874C5.63289 19.1887 5.60691 19.0588 5.5082 18.9965ZM3.45609 17.5678C3.37297 17.6509 3.37297 17.7808 3.4509 17.8639C3.49246 17.9055 3.54961 17.9315 3.60156 17.9315C3.65351 17.9315 3.70546 17.9107 3.74702 17.8691C3.83015 17.786 3.83534 17.6561 3.75222 17.573C3.67429 17.4899 3.53922 17.4847 3.45609 17.5678ZM9.72152 1.40551C9.72672 1.40551 9.73191 1.40551 9.73711 1.40031C9.8514 1.38992 9.93972 1.29121 9.92933 1.17692C9.91894 1.05743 9.81503 0.974302 9.70074 0.984693C9.58644 0.995083 9.49813 1.09899 9.50852 1.21328C9.51891 1.32238 9.61242 1.40551 9.72152 1.40551ZM6.39139 2.31467C6.42256 2.31467 6.45373 2.30947 6.47971 2.29389C6.58361 2.24713 6.63037 2.12244 6.57842 2.01335C6.53166 1.90944 6.40178 1.86788 6.29787 1.91983C6.29787 1.91464 6.29787 1.91464 6.29787 1.91464C6.19397 1.96659 6.15241 2.09127 6.19917 2.19518C6.23553 2.27311 6.31346 2.31467 6.39139 2.31467ZM8.64092 20.2641C8.52662 20.2434 8.41233 20.3161 8.39155 20.4252C8.36557 20.5395 8.4383 20.6538 8.5526 20.6746C8.56818 20.6798 8.58377 20.6797 8.59935 20.6797C8.69287 20.6797 8.78119 20.6122 8.80197 20.5135C8.82794 20.3992 8.75521 20.2901 8.64092 20.2641ZM8.57338 1.57695C8.58896 1.57695 8.60455 1.57175 8.62014 1.57175C8.73443 1.54578 8.80716 1.43668 8.78119 1.32238C8.75521 1.20809 8.64611 1.13535 8.53182 1.15614C8.41752 1.18211 8.34479 1.29641 8.37076 1.40551C8.39155 1.50421 8.47987 1.57695 8.57338 1.57695ZM7.4616 1.87827C7.48238 1.87827 7.50836 1.87827 7.52914 1.86788C7.63824 1.83151 7.69539 1.71202 7.65902 1.60292C7.62266 1.49382 7.50316 1.43148 7.39406 1.47304C7.28496 1.50941 7.22262 1.6289 7.26418 1.738C7.29016 1.82632 7.37328 1.87827 7.4616 1.87827ZM6.50049 19.542C6.39139 19.49 6.2667 19.5368 6.21995 19.6407C6.16799 19.7446 6.21475 19.8745 6.31866 19.9212C6.34463 19.9368 6.3758 19.942 6.40697 19.942C6.4849 19.942 6.56283 19.9005 6.5992 19.8225C6.64595 19.7186 6.60439 19.5939 6.50049 19.542ZM3.59117 4.33561C3.64312 4.33561 3.70027 4.31483 3.74183 4.27326C3.81976 4.18495 3.81976 4.05506 3.73663 3.97194C3.65351 3.89401 3.51843 3.89401 3.44051 3.97714C3.35738 4.06026 3.35738 4.19533 3.4457 4.27326C3.48207 4.31483 3.53922 4.33561 3.59117 4.33561ZM1.57542 7.18258C1.6066 7.19297 1.63257 7.19817 1.66374 7.19817C1.74167 7.19817 1.8196 7.15141 1.85597 7.07348C1.90272 6.96958 1.85077 6.84489 1.74687 6.79814C1.63777 6.75138 1.51828 6.79814 1.47152 6.90724C1.42476 7.01114 1.47152 7.13583 1.57542 7.18258ZM1.20137 8.27358C1.21695 8.28397 1.23774 8.28397 1.25852 8.28397C1.35203 8.28397 1.43515 8.22682 1.46113 8.13331C1.4923 8.02421 1.42996 7.90472 1.32086 7.87355C1.21176 7.83718 1.09227 7.90472 1.0611 8.01382C1.02473 8.12292 1.08707 8.24241 1.20137 8.27358ZM0.8429 10.5595C0.848096 10.5595 0.85329 10.5595 0.858485 10.5595C0.967584 10.5595 1.0611 10.4712 1.06629 10.3621C1.07149 10.2426 0.98317 10.1439 0.868876 10.1387C0.75458 10.1335 0.650676 10.2218 0.645482 10.3361C0.640287 10.4504 0.728606 10.5491 0.8429 10.5595ZM0.951999 9.40614C0.967584 9.40614 0.977975 9.41133 0.988366 9.41133C1.09227 9.41133 1.18059 9.3386 1.19617 9.23469C1.21695 9.1204 1.14422 9.0113 1.02473 8.99052C0.910438 8.96974 0.806533 9.04767 0.785752 9.16196C0.764972 9.27626 0.837704 9.38535 0.951999 9.40614ZM2.70798 5.16684C2.74435 5.19801 2.7911 5.2136 2.83267 5.2136C2.90021 5.2136 2.96255 5.18243 3.00411 5.13047C3.07165 5.03696 3.05606 4.90188 2.96255 4.83435C2.86903 4.76161 2.73915 4.78239 2.66642 4.87591C2.59888 4.96423 2.61447 5.0993 2.70798 5.16684ZM20.086 9.7646C20.0964 9.87371 20.1899 9.95163 20.2938 9.95163C20.299 9.95163 20.3094 9.95163 20.3198 9.95163C20.4341 9.93605 20.5172 9.83214 20.5016 9.71785C20.486 9.59836 20.3821 9.52043 20.2678 9.53082C20.1535 9.54641 20.0704 9.65031 20.086 9.7646ZM19.8834 8.65283C19.9041 8.74634 19.9925 8.81388 20.086 8.81388C20.1016 8.81388 20.1223 8.81388 20.1379 8.80869C20.2522 8.77751 20.3198 8.66842 20.2938 8.55412C20.2626 8.43982 20.1483 8.37229 20.0392 8.39826C19.9249 8.42424 19.8574 8.53853 19.8834 8.65283ZM2.08456 6.14354C2.11573 6.15913 2.15209 6.16952 2.18846 6.16952C2.26119 6.16952 2.32873 6.13315 2.37029 6.06561C2.42744 5.9669 2.39627 5.83702 2.29756 5.77988C2.19885 5.72273 2.06897 5.7539 2.00663 5.85261C1.94948 5.95132 1.98065 6.0812 2.08456 6.14354ZM2.08975 15.7079C1.99104 15.7651 1.95987 15.895 2.01702 15.9937C2.05858 16.0612 2.12612 16.0976 2.19885 16.0976C2.23522 16.0976 2.27158 16.0872 2.30795 16.0664C2.40666 16.0093 2.43783 15.8794 2.38068 15.7807C2.31834 15.6768 2.19366 15.6456 2.08975 15.7079ZM0.868876 11.7128C0.988366 11.7076 1.07669 11.6089 1.06629 11.4894C1.0611 11.3751 0.96239 11.2868 0.8429 11.292C0.728606 11.3024 0.640287 11.4011 0.645482 11.5154C0.655873 11.6297 0.749386 11.7128 0.858485 11.7128C0.863682 11.7128 0.863681 11.7128 0.868876 11.7128ZM1.58582 14.6689C1.47672 14.7156 1.42996 14.8403 1.47672 14.9442C1.51308 15.0222 1.59101 15.0689 1.66894 15.0689C1.70011 15.0689 1.72609 15.0637 1.75726 15.0533C1.86116 15.0066 1.90792 14.8819 1.86116 14.7728C1.8144 14.6689 1.68972 14.6221 1.58582 14.6689ZM1.46633 13.713C1.43515 13.6039 1.31566 13.5415 1.20656 13.5727C1.09227 13.6091 1.02993 13.7234 1.06629 13.8377C1.09227 13.926 1.17539 13.9883 1.26371 13.9883C1.28449 13.9883 1.30527 13.9831 1.32605 13.9779C1.44035 13.9416 1.50269 13.8273 1.46633 13.713ZM1.20137 12.6168C1.18059 12.5025 1.07149 12.4246 0.957194 12.4453C0.842899 12.4661 0.764972 12.5752 0.785752 12.6895C0.806533 12.7882 0.894852 12.861 0.993561 12.861C1.00395 12.861 1.01954 12.861 1.02993 12.861C1.14422 12.8402 1.22215 12.7311 1.20137 12.6168ZM7.54473 19.968C7.43563 19.9316 7.31614 19.9888 7.27977 20.0979C7.2434 20.2122 7.30055 20.3265 7.41485 20.368C7.43563 20.3732 7.45641 20.3784 7.48238 20.3784C7.5707 20.3784 7.64863 20.3213 7.6798 20.233C7.71617 20.1239 7.65902 20.0044 7.54473 19.968ZM17.1767 3.9096C17.2338 3.9096 17.2909 3.88882 17.3325 3.84206C17.4104 3.75894 17.4052 3.62386 17.3169 3.54593C17.2338 3.468 17.0987 3.4732 17.0208 3.56152C16.9429 3.64464 16.9481 3.77972 17.0364 3.85765C17.0779 3.89401 17.1247 3.9096 17.1767 3.9096ZM18.6885 5.65519C18.73 5.65519 18.7716 5.6448 18.8079 5.61882C18.9015 5.55648 18.9274 5.4266 18.8599 5.32789C18.7976 5.23438 18.6677 5.2084 18.569 5.27074C18.4755 5.33828 18.4495 5.46816 18.5118 5.56687C18.5534 5.62402 18.6209 5.65519 18.6885 5.65519ZM18.8183 16.1911C18.7196 16.1287 18.5898 16.1547 18.5222 16.2482C18.4599 16.3469 18.4858 16.4768 18.5794 16.5444C18.6157 16.5651 18.6573 16.5755 18.6989 16.5755C18.7664 16.5755 18.8339 16.5444 18.8755 16.4872C18.9378 16.3885 18.9119 16.2586 18.8183 16.1911ZM17.0468 17.9627C16.9636 18.0406 16.9585 18.1705 17.0364 18.2588C17.0779 18.3055 17.1351 18.3263 17.1922 18.3263C17.2442 18.3263 17.2909 18.3107 17.3325 18.2692C17.4208 18.1912 17.426 18.0614 17.3481 17.973C17.2702 17.8899 17.1351 17.8847 17.0468 17.9627ZM17.9819 4.74083C18.0339 4.74083 18.0806 4.72525 18.1222 4.68888C18.2105 4.61095 18.2209 4.48107 18.143 4.39275C18.0702 4.30444 17.9352 4.29404 17.8468 4.37197C17.7585 4.4447 17.7481 4.57978 17.8261 4.6681C17.8676 4.71486 17.9248 4.74083 17.9819 4.74083ZM19.2807 6.65267C19.3119 6.65267 19.3431 6.64228 19.3742 6.6267C19.4781 6.57474 19.5197 6.44486 19.4677 6.34615C19.4106 6.24225 19.2859 6.20069 19.182 6.25264C19.0781 6.30459 19.0365 6.43447 19.0937 6.53838C19.1301 6.61111 19.2028 6.65267 19.2807 6.65267ZM17.8364 17.147C17.7637 17.2353 17.7689 17.3704 17.8572 17.4483C17.8988 17.4795 17.9455 17.4951 17.9975 17.4951C18.0546 17.4951 18.1118 17.4743 18.1534 17.4223C18.2313 17.334 18.2209 17.2042 18.1326 17.1262C18.0443 17.0535 17.9144 17.0639 17.8364 17.147ZM20.3198 11.8583C20.2055 11.8479 20.1016 11.931 20.086 12.0453C20.0704 12.1596 20.1535 12.2635 20.273 12.2791C20.2782 12.2791 20.2886 12.2791 20.2938 12.2791C20.4029 12.2791 20.4912 12.2012 20.5016 12.0921C20.5172 11.9778 20.4341 11.8739 20.3198 11.8583ZM19.3846 15.1832C19.2807 15.1313 19.156 15.1728 19.0989 15.2767C19.0469 15.3806 19.0885 15.5053 19.1924 15.5573C19.2236 15.5729 19.2547 15.5832 19.2859 15.5832C19.3638 15.5832 19.4366 15.5417 19.4729 15.469C19.5301 15.365 19.4885 15.2404 19.3846 15.1832ZM20.1431 13.0012C20.0288 12.9752 19.9145 13.048 19.8886 13.1571C19.8626 13.2714 19.9301 13.3857 20.0444 13.4116C20.06 13.4168 20.0756 13.4168 20.0912 13.4168C20.1847 13.4168 20.273 13.3545 20.299 13.2558C20.325 13.1415 20.2522 13.0324 20.1431 13.0012ZM20.5743 10.892C20.5743 10.7777 20.4756 10.6842 20.3613 10.6842C20.247 10.6842 20.1535 10.7777 20.1535 10.8972V10.9179C20.1535 11.0322 20.247 11.1258 20.3613 11.1258C20.4808 11.1258 20.5743 11.0322 20.5743 10.9179C20.5743 10.9127 20.5743 10.9076 20.5743 10.9076C20.5743 10.9024 20.5743 10.8972 20.5743 10.892ZM19.8262 14.1182C19.7171 14.0766 19.5976 14.1338 19.5561 14.2429C19.5197 14.352 19.5716 14.4715 19.6807 14.513C19.7067 14.5182 19.7327 14.5234 19.7535 14.5234C19.8418 14.5234 19.9197 14.4715 19.9509 14.3883C19.9925 14.2792 19.9353 14.1598 19.8262 14.1182ZM19.7483 7.7073C19.7743 7.7073 19.795 7.7021 19.821 7.69691C19.9301 7.65535 19.9873 7.53066 19.9457 7.42156C19.9041 7.31766 19.7846 7.26051 19.6756 7.30207C19.5665 7.34364 19.5093 7.46313 19.5509 7.57222C19.582 7.65535 19.66 7.7073 19.7483 7.7073ZM14.179 2.05491C14.205 2.0653 14.231 2.07049 14.2569 2.07049C14.3401 2.07049 14.418 2.02374 14.4492 1.94061C14.4959 1.83151 14.444 1.70683 14.3349 1.66527C14.2258 1.6237 14.1063 1.67566 14.0595 1.78476C14.018 1.88866 14.0699 2.01335 14.179 2.05491ZM12.0178 20.3628C11.9035 20.3784 11.8204 20.4875 11.8412 20.6018C11.8568 20.7057 11.9451 20.7785 12.049 20.7785C12.0594 20.7785 12.0698 20.7785 12.0801 20.7785C12.1944 20.7629 12.2724 20.6538 12.2568 20.5395C12.2412 20.4252 12.1321 20.3473 12.0178 20.3628ZM13.1036 1.69644C13.1244 1.70163 13.14 1.70163 13.1608 1.70163C13.2491 1.70163 13.3374 1.63929 13.3634 1.54578C13.3945 1.43668 13.327 1.32238 13.2127 1.29121C13.1036 1.26004 12.9841 1.32758 12.9581 1.43668C12.927 1.55097 12.9945 1.66527 13.1036 1.69644ZM11.997 1.46265C12.0074 1.46785 12.0178 1.46785 12.0282 1.46785C12.1321 1.46785 12.2204 1.38992 12.236 1.28602C12.2516 1.17172 12.1737 1.06782 12.0594 1.04704C11.9451 1.03145 11.836 1.10938 11.8204 1.22887C11.7996 1.34316 11.8827 1.44707 11.997 1.46265ZM13.1244 20.1291C13.0101 20.1602 12.9477 20.2745 12.9737 20.3888C12.9997 20.4823 13.088 20.5447 13.1815 20.5447C13.1971 20.5447 13.2179 20.5395 13.2335 20.5343C13.3478 20.5031 13.4101 20.3888 13.3841 20.2745C13.353 20.1654 13.2335 20.0979 13.1244 20.1291ZM10.8904 20.4615C10.7761 20.4667 10.6826 20.5603 10.6878 20.6797C10.6878 20.794 10.7813 20.8824 10.8956 20.8824H10.9008C11.0203 20.8772 11.1086 20.7837 11.1086 20.6642C11.1034 20.5499 11.0047 20.4564 10.8904 20.4615ZM10.8697 1.36914H10.8749C10.9892 1.36914 11.0827 1.27563 11.0879 1.16133C11.0879 1.04704 10.9995 0.948327 10.8801 0.948327C10.7658 0.943132 10.667 1.03664 10.667 1.15094C10.6619 1.27043 10.7554 1.36394 10.8697 1.36914ZM14.1946 19.7654C14.0855 19.8121 14.0335 19.9316 14.0803 20.0407C14.1115 20.1239 14.1894 20.1706 14.2725 20.1706C14.2985 20.1706 14.3297 20.1654 14.3557 20.155C14.4596 20.1135 14.5115 19.9888 14.4699 19.8849C14.4232 19.7758 14.3037 19.7238 14.1946 19.7654ZM15.2129 19.277C15.1142 19.3342 15.0778 19.4641 15.1349 19.568C15.1713 19.6355 15.244 19.6719 15.3168 19.6719C15.3531 19.6719 15.3843 19.6667 15.4207 19.6459C15.5194 19.5939 15.5557 19.4641 15.4986 19.3602C15.4466 19.2615 15.3168 19.2251 15.2129 19.277ZM9.75789 20.4304C9.64359 20.42 9.53969 20.5031 9.5293 20.6226C9.51891 20.7369 9.60723 20.8356 9.72152 20.846C9.72672 20.8512 9.73191 20.8512 9.7423 20.8512C9.84621 20.8512 9.93972 20.7681 9.95011 20.659C9.9605 20.5395 9.87218 20.4408 9.75789 20.4304ZM16.1584 3.1459C16.1948 3.17188 16.2363 3.18227 16.2779 3.18227C16.3454 3.18227 16.4078 3.15629 16.4493 3.09395C16.5169 3.00044 16.4961 2.87056 16.4026 2.80302C16.3091 2.73548 16.174 2.75626 16.1064 2.84977C16.0389 2.94848 16.0597 3.07836 16.1584 3.1459ZM15.1973 2.54326C15.2336 2.55884 15.2648 2.56923 15.3012 2.56923C15.3739 2.56923 15.4466 2.52767 15.483 2.46013C15.5402 2.35623 15.5038 2.22635 15.3999 2.1744C15.3012 2.11725 15.1713 2.15362 15.1142 2.25752C15.0622 2.35623 15.0986 2.48611 15.1973 2.54326ZM16.1688 18.6744C16.0753 18.7419 16.0545 18.8718 16.122 18.9705C16.1636 19.0277 16.2259 19.0536 16.2935 19.0536C16.335 19.0536 16.3818 19.0433 16.4182 19.0173C16.5117 18.9497 16.5324 18.8147 16.4649 18.7212C16.3974 18.6276 16.2675 18.6069 16.1688 18.6744Z" fill="#07664D"/>
</g>
<mask id="mask1_170_66" style="mask-type:luminance" maskUnits="userSpaceOnUse" x="1" y="2" width="18" height="18">
<path d="M1.84036 2.14844H18.943V19.2511H1.84036V2.14844Z" fill="white"/>
</mask>
<g mask="url(#mask1_170_66)">
<mask id="mask2_170_66" style="mask-type:luminance" maskUnits="userSpaceOnUse" x="1" y="2" width="18" height="18">
<path d="M10.3917 2.14844C5.66924 2.14844 1.84036 5.97731 1.84036 10.6998C1.84036 15.4222 5.66924 19.2511 10.3917 19.2511C15.1141 19.2511 18.943 15.4222 18.943 10.6998C18.943 5.97731 15.1141 2.14844 10.3917 2.14844Z" fill="white"/>
</mask>
<g mask="url(#mask2_170_66)">
<path d="M1.84036 2.14844H18.943V19.2511H1.84036V2.14844Z" fill="#07664D"/>
</g>
</g>
<path d="M9.01497 13.4792C8.72403 13.1727 8.57337 12.6376 8.56298 12.0713H7.90839C7.90839 12.809 8.13698 13.474 8.50584 13.8532C8.85911 14.2169 9.42019 14.4351 10.1735 14.513V15.6975H10.693V14.539C10.9943 14.539 11.2905 14.4975 11.5762 14.4195C11.8671 14.3364 12.1217 14.2117 12.3503 14.0455C12.5737 13.8844 12.7503 13.6766 12.8906 13.4324C13.0257 13.1883 13.0932 12.9077 13.0932 12.5908C13.0932 12.2531 13.0205 11.9674 12.8854 11.7388C12.7451 11.5154 12.5633 11.3232 12.3399 11.1725C12.1113 11.0271 11.8567 10.9076 11.5658 10.8244C11.2801 10.7413 10.9891 10.6686 10.693 10.6114V7.80082C11.1502 7.80082 11.5191 7.94629 11.7996 8.23203C12.0853 8.52296 12.2412 8.99053 12.2464 9.47888H12.8958C12.901 9.16197 12.849 8.79311 12.7347 8.53335C12.6152 8.27359 12.4594 8.05019 12.2568 7.86317C12.049 7.67614 11.81 7.53587 11.5398 7.43196C11.2697 7.33325 10.9891 7.2865 10.693 7.2865V6.36694H10.1735V7.29169C9.90854 7.30208 9.65917 7.33845 9.42539 7.41638C9.16563 7.5047 8.93184 7.62938 8.73443 7.79563C8.53701 7.96187 8.38115 8.15929 8.26686 8.39308C8.15256 8.62686 8.09541 8.89182 8.09541 9.18275C8.09541 9.53083 8.15256 9.81137 8.27205 10.0348C8.39154 10.253 8.5474 10.4348 8.74482 10.5803C8.94223 10.7205 9.17602 10.8348 9.44097 10.918C9.67476 10.9959 9.92413 11.053 10.1735 11.105V14.0039C9.67995 13.9364 9.29031 13.7597 9.01497 13.4792ZM10.693 11.2141C10.8904 11.2608 11.0931 11.318 11.3009 11.3803C11.5087 11.4427 11.6957 11.5258 11.8619 11.6297C12.0282 11.7284 12.1685 11.8583 12.2724 12.0141C12.3815 12.17 12.4386 12.3674 12.4386 12.6012C12.4386 12.8506 12.3867 13.0688 12.288 13.2454C12.184 13.4272 12.0542 13.5727 11.8879 13.6922C11.7269 13.8065 11.5398 13.8948 11.332 13.9468C11.1242 13.9987 10.9112 14.0247 10.693 14.0247V11.2141ZM9.71632 10.3776C9.52929 10.3205 9.36824 10.253 9.22278 10.1594C9.0825 10.0711 8.96821 9.95164 8.87989 9.81137C8.79677 9.66591 8.75001 9.47888 8.75001 9.25548C8.75001 9.00092 8.79157 8.78272 8.8695 8.59569C8.95262 8.40866 9.06172 8.258 9.20719 8.13851C9.34746 8.02422 9.50851 7.9359 9.69554 7.88395C9.8462 7.83719 10.0073 7.81641 10.1735 7.80602V10.4919C10.0176 10.4556 9.86179 10.4192 9.71632 10.3776Z" fill="white"/>
<mask id="mask3_170_66" style="mask-type:luminance" maskUnits="userSpaceOnUse" x="3" y="4" width="14" height="14">
<path d="M3.9548 4.55383H16.9117V17.5159H3.9548V4.55383Z" fill="white"/>
</mask>
<g mask="url(#mask3_170_66)">
<path d="M10.4332 17.5159C14.0127 17.5159 16.9117 14.6118 16.9117 11.0323C16.9117 7.45796 14.0127 4.55383 10.4332 4.55383C6.85373 4.55383 3.9548 7.45796 3.9548 11.0323C3.9548 14.6118 6.85373 17.5159 10.4332 17.5159ZM10.4332 5.07335C13.7218 5.07335 16.3921 7.74889 16.3921 11.0323C16.3921 14.3208 13.7218 16.9964 10.4332 16.9964C7.14467 16.9964 4.46913 14.3208 4.46913 11.0323C4.46913 7.74889 7.14467 5.07335 10.4332 5.07335Z" fill="white"/>
</g>
</svg>
