<svg width="9" height="13" viewBox="0 0 9 13" fill="none" xmlns="http://www.w3.org/2000/svg">
<mask id="mask0_170_55" style="mask-type:luminance" maskUnits="userSpaceOnUse" x="0" y="0" width="9" height="13">
<path d="M0.523468 0.716309H8.49812V12.6809H0.523468V0.716309Z" fill="white"/>
</mask>
<g mask="url(#mask0_170_55)">
<path d="M4.51338 0.716309C4.00425 0.716309 3.5211 0.809823 3.05353 1.00205C2.59115 1.18907 2.17554 1.45403 1.82226 1.80211C1.46379 2.14499 1.18845 2.54502 0.996224 2.99701C0.804001 3.44899 0.705292 3.92176 0.705292 4.41011C0.705292 5.64137 1.98851 7.70387 3.01716 9.15853H2.05085L1.14688 12.6809H7.87469L6.97072 9.15853H6.00441C7.03306 7.70387 8.31628 5.64137 8.31628 4.41011C8.31628 3.92176 8.22277 3.44899 8.02535 2.99701C7.83313 2.54502 7.55778 2.14499 7.19931 1.80211C6.84604 1.45403 6.43561 1.18907 5.96804 1.00205C5.50047 0.809823 5.01732 0.716309 4.51338 0.716309ZM6.40444 9.86508L6.94994 11.9743H2.07683L2.61713 9.86508H3.5159C3.86398 10.3378 4.13413 10.6755 4.24323 10.7846L4.53416 11.1431L4.8251 10.7846C4.90822 10.6755 5.17837 10.3378 5.54723 9.86508H6.40444ZM4.51338 9.98457C3.44317 8.59225 1.42743 5.69852 1.42743 4.41011C1.42743 4.01527 1.50535 3.63082 1.66641 3.26716C1.82226 2.8983 2.04046 2.57619 2.33139 2.29565C2.62233 2.01511 2.95482 1.80211 3.33407 1.64625C3.70813 1.49559 4.10296 1.41766 4.51338 1.41766C4.91861 1.41766 5.31345 1.49559 5.6927 1.64625C6.06675 1.80211 6.39925 2.01511 6.69018 2.29565C6.98111 2.57619 7.2045 2.8983 7.36036 3.26716C7.51622 3.63082 7.59415 4.01527 7.59415 4.41011C7.59415 5.69852 5.5784 8.59225 4.51338 9.98457Z" fill="white"/>
</g>
<path d="M4.51338 3.17883C4.32115 3.17883 4.13413 3.2152 3.95749 3.28793C3.78085 3.35547 3.6198 3.45937 3.48472 3.58925C3.34965 3.72433 3.24574 3.87499 3.17301 4.04643C3.10028 4.22307 3.05872 4.39971 3.05872 4.58674C3.05872 4.77376 3.10028 4.9504 3.17301 5.12704C3.24574 5.29848 3.34965 5.44914 3.48472 5.58422C3.6198 5.7141 3.78085 5.818 3.95749 5.88554C4.13413 5.95827 4.32115 5.99464 4.51338 5.99464C4.7056 5.99464 4.88743 5.95827 5.06407 5.88554C5.2459 5.818 5.40176 5.7141 5.53683 5.58422C5.67191 5.44914 5.77581 5.29848 5.85374 5.12704C5.92647 4.9504 5.96284 4.77376 5.96284 4.58674C5.96284 4.39971 5.92647 4.22307 5.85374 4.04643C5.77581 3.87499 5.67191 3.72433 5.53683 3.58925C5.40176 3.45937 5.2459 3.35547 5.06407 3.28793C4.88743 3.2152 4.7056 3.17883 4.51338 3.17883ZM4.51338 5.28809C4.31076 5.28809 4.13932 5.22055 3.99905 5.08548C3.85878 4.94521 3.78605 4.77896 3.78605 4.58674C3.78605 4.39451 3.85878 4.22827 3.99905 4.088C4.13932 3.95292 4.31076 3.88538 4.51338 3.88538C4.71079 3.88538 4.88224 3.95292 5.02251 4.088C5.16797 4.22827 5.23551 4.39451 5.23551 4.58674C5.23551 4.77896 5.16797 4.94521 5.02251 5.08548C4.88224 5.22055 4.71079 5.28809 4.51338 5.28809Z" fill="white"/>
</svg>
