<svg width="21" height="21" viewBox="0 0 21 21" fill="none" xmlns="http://www.w3.org/2000/svg">
<mask id="mask0_170_56" style="mask-type:luminance" maskUnits="userSpaceOnUse" x="0" y="0" width="21" height="21">
<path d="M0.54895 0.380981H20.483V20.3202H0.54895V0.380981Z" fill="white"/>
</mask>
<g mask="url(#mask0_170_56)">
<path d="M4.18563 2.91624C4.11289 2.82792 4.12848 2.69284 4.2168 2.62011C4.30512 2.54738 4.44019 2.56296 4.51293 2.65128C4.58566 2.7396 4.57527 2.87468 4.48175 2.94741C4.44539 2.97858 4.39863 2.99417 4.35187 2.99417C4.28953 2.99417 4.22719 2.96819 4.18563 2.91624ZM4.49734 17.7746C4.40902 17.7018 4.27395 17.7174 4.20121 17.8057C4.12848 17.8992 4.14407 18.0291 4.23238 18.1018C4.26875 18.133 4.31551 18.1486 4.36226 18.1486C4.42461 18.1486 4.48695 18.1226 4.52851 18.0707C4.60125 17.9824 4.58566 17.8525 4.49734 17.7746ZM5.28701 2.31879C5.32857 2.31879 5.36494 2.3084 5.40131 2.28762C5.50002 2.22528 5.52599 2.0954 5.46365 1.99669C5.40131 1.89798 5.27143 1.8668 5.17272 1.92915C5.07921 1.99149 5.04803 2.12137 5.11038 2.22008C5.15194 2.28242 5.21947 2.31879 5.28701 2.31879ZM2.92319 16.1588C2.85046 16.0653 2.72058 16.0497 2.62706 16.1173C2.53355 16.19 2.51796 16.3199 2.5855 16.4134C2.62706 16.4654 2.68941 16.4965 2.75694 16.4965C2.79851 16.4965 2.84526 16.4809 2.88163 16.4498C2.97514 16.3822 2.99073 16.2472 2.92319 16.1588ZM5.41689 18.4343C5.31818 18.372 5.1883 18.4032 5.12596 18.5019C5.06362 18.6006 5.09479 18.7305 5.1935 18.7928C5.22467 18.8136 5.26623 18.824 5.3026 18.824C5.37533 18.824 5.44287 18.7876 5.47924 18.7253C5.54158 18.6266 5.5156 18.4967 5.41689 18.4343ZM3.36478 17.0109C3.28166 17.0888 3.27646 17.2239 3.35959 17.307C3.40115 17.3485 3.4583 17.3693 3.51025 17.3693C3.5622 17.3693 3.61415 17.3485 3.65572 17.3122C3.73884 17.2291 3.74403 17.094 3.66091 17.0109C3.58298 16.9277 3.44791 16.9277 3.36478 17.0109ZM9.63021 0.843348C9.63541 0.843348 9.6406 0.843348 9.6458 0.843348C9.76009 0.832958 9.84841 0.729054 9.83802 0.614759C9.82763 0.500465 9.72373 0.412145 9.60943 0.422536C9.49514 0.432927 9.40682 0.53683 9.41721 0.651125C9.4276 0.760224 9.52111 0.843348 9.63021 0.843348ZM6.30008 1.75771C6.33125 1.75771 6.36242 1.75251 6.3884 1.73693C6.4923 1.68497 6.53906 1.56029 6.48711 1.45638C6.44035 1.35248 6.31047 1.30572 6.20657 1.35767C6.10266 1.40963 6.0611 1.53431 6.10786 1.63822C6.14422 1.71095 6.22215 1.75771 6.30008 1.75771ZM8.54961 19.7072C8.43531 19.6812 8.32102 19.7539 8.30024 19.8682C8.27426 19.9825 8.34699 20.0916 8.46129 20.1176C8.47687 20.1176 8.49246 20.1228 8.50285 20.1228C8.60156 20.1228 8.68988 20.0553 8.71066 19.9565C8.73664 19.8422 8.6639 19.728 8.54961 19.7072ZM8.48207 1.01479C8.49765 1.01479 8.51324 1.01479 8.52883 1.0096C8.64312 0.988814 8.71585 0.87452 8.68988 0.760225C8.6639 0.645931 8.5548 0.573196 8.44051 0.599173C8.32621 0.625149 8.25348 0.734248 8.27946 0.848543C8.30024 0.947252 8.38856 1.01479 8.48207 1.01479ZM7.37029 1.32131C7.39107 1.32131 7.41186 1.31611 7.43783 1.31092C7.54693 1.27455 7.60408 1.15506 7.56771 1.04077C7.53135 0.931667 7.41186 0.874521 7.30276 0.910886C7.19366 0.947253 7.13131 1.06674 7.16768 1.18104C7.19885 1.26416 7.28198 1.32131 7.37029 1.32131ZM6.40918 18.985C6.30008 18.9331 6.17539 18.9798 6.12864 19.0837C6.07669 19.1876 6.12344 19.3123 6.22735 19.3643C6.25332 19.3747 6.28449 19.3851 6.31567 19.3851C6.39359 19.3851 6.47152 19.3383 6.50789 19.2656C6.55465 19.1565 6.51308 19.0318 6.40918 18.985ZM3.49986 3.77345C3.55181 3.77345 3.60896 3.75267 3.65052 3.71111C3.72845 3.62798 3.72845 3.49291 3.64533 3.41498C3.5622 3.33186 3.42713 3.33705 3.3492 3.42017C3.26607 3.5033 3.26607 3.63318 3.3492 3.7163C3.39076 3.75786 3.44271 3.77345 3.49986 3.77345ZM1.48412 6.62043C1.51529 6.63601 1.54126 6.64121 1.57243 6.64121C1.65036 6.64121 1.72829 6.59445 1.76466 6.51652C1.81141 6.40742 1.75946 6.28274 1.65556 6.23598C1.54646 6.18922 1.42177 6.24118 1.37502 6.34508C1.32826 6.45418 1.38021 6.57367 1.48412 6.62043ZM1.11006 7.71662C1.12565 7.72181 1.14643 7.72701 1.16721 7.72701C1.26072 7.72701 1.34385 7.66467 1.36982 7.57635C1.40099 7.46725 1.33865 7.34776 1.22955 7.31659C1.12045 7.28022 1.00096 7.34256 0.96979 7.45166C0.933423 7.56596 0.995766 7.68025 1.11006 7.71662ZM0.751591 9.99732C0.756786 9.99732 0.761982 9.99732 0.767177 9.99732C0.876277 9.99732 0.96979 9.91419 0.974985 9.7999C0.98018 9.6856 0.891861 9.58689 0.777567 9.5765C0.663272 9.57131 0.559368 9.65963 0.554173 9.77392C0.548978 9.89341 0.637296 9.99212 0.751591 9.99732ZM0.860691 8.84917C0.876277 8.84917 0.886667 8.84917 0.897057 8.84917C1.00096 8.84917 1.08928 8.77644 1.10487 8.67773C1.12565 8.56344 1.04772 8.45434 0.933424 8.43356C0.81913 8.41278 0.71003 8.4907 0.694444 8.605C0.673663 8.71929 0.746395 8.82839 0.860691 8.84917ZM2.61667 4.60988C2.65304 4.63586 2.6998 4.65144 2.74136 4.65144C2.8089 4.65144 2.87124 4.62546 2.9128 4.56832C2.98034 4.4748 2.96475 4.34492 2.87124 4.27219C2.77772 4.20465 2.64784 4.22024 2.57511 4.31375C2.50757 4.40727 2.52316 4.53715 2.61667 4.60988ZM19.9947 9.20764C20.0051 9.31155 20.0934 9.38947 20.2025 9.38947C20.2077 9.38947 20.2181 9.38947 20.2284 9.38947C20.3427 9.37389 20.4259 9.26999 20.4103 9.15569C20.3947 9.0414 20.2908 8.95827 20.1765 8.97386C20.0622 8.98425 19.9791 9.09335 19.9947 9.20764ZM19.7921 8.09067C19.8128 8.18938 19.9011 8.25172 19.9947 8.25172C20.0102 8.25172 20.031 8.25172 20.0466 8.24653C20.1557 8.22055 20.2284 8.10626 20.1973 7.99196C20.1713 7.88286 20.057 7.81013 19.9479 7.8413C19.8336 7.86728 19.7661 7.98157 19.7921 8.09067ZM1.99325 5.58138C2.02442 5.60216 2.06078 5.61255 2.09715 5.61255C2.16989 5.61255 2.23742 5.57619 2.27898 5.50865C2.33613 5.40994 2.30496 5.28006 2.20625 5.22291C2.10235 5.16057 1.97766 5.19174 1.91532 5.29565C1.85817 5.39435 1.88934 5.52424 1.99325 5.58138ZM1.99844 15.1458C1.89973 15.2029 1.86856 15.3328 1.92571 15.4315C1.96727 15.499 2.03481 15.5354 2.10754 15.5354C2.14391 15.5354 2.18027 15.5302 2.21664 15.5094C2.31535 15.4471 2.34652 15.3172 2.28937 15.2185C2.22703 15.1198 2.10235 15.0886 1.99844 15.1458ZM0.777567 11.1558C0.897056 11.1455 0.98018 11.0467 0.974985 10.9325C0.96979 10.8182 0.87108 10.7298 0.751591 10.735C0.637296 10.7402 0.548978 10.8389 0.554173 10.9584C0.564563 11.0675 0.652883 11.1558 0.767177 11.1558C0.772372 11.1558 0.772371 11.1558 0.777567 11.1558ZM1.49451 14.1067C1.38541 14.1535 1.33865 14.2782 1.38541 14.3873C1.42177 14.4652 1.4997 14.512 1.57763 14.512C1.6088 14.512 1.63478 14.5068 1.66595 14.4912C1.76985 14.4444 1.81661 14.3197 1.76985 14.2158C1.7231 14.1067 1.59841 14.06 1.49451 14.1067ZM1.37502 13.156C1.34384 13.0417 1.22436 12.9794 1.11526 13.0157C1.00096 13.0469 0.938619 13.1664 0.974985 13.2755C1.00096 13.369 1.08409 13.4262 1.1724 13.4262C1.19318 13.4262 1.21397 13.421 1.23475 13.4158C1.34904 13.3846 1.41138 13.2651 1.37502 13.156ZM1.11006 12.0546C1.08928 11.9403 0.98018 11.8624 0.865886 11.8832C0.751592 11.904 0.673663 12.0131 0.694444 12.1274C0.715225 12.2313 0.803543 12.304 0.902252 12.304C0.912642 12.304 0.928229 12.2988 0.938619 12.2988C1.05291 12.278 1.13084 12.1689 1.11006 12.0546ZM7.45342 19.4058C7.34432 19.3695 7.22483 19.4318 7.18846 19.5409C7.1521 19.65 7.20924 19.7695 7.32354 19.8059C7.34432 19.8163 7.3651 19.8163 7.39107 19.8163C7.4742 19.8163 7.55732 19.7643 7.58849 19.676C7.62486 19.5669 7.56771 19.4474 7.45342 19.4058ZM17.0853 3.35264C17.1425 3.35264 17.1996 3.33186 17.2412 3.2851C17.3191 3.19678 17.3139 3.0669 17.2256 2.98897C17.1425 2.91104 17.0074 2.91624 16.9295 2.99936C16.8516 3.08768 16.8568 3.21756 16.9451 3.29549C16.9866 3.33705 17.0334 3.35264 17.0853 3.35264ZM18.5972 5.09823C18.6387 5.09823 18.6803 5.08784 18.7166 5.06186C18.8102 4.99432 18.8361 4.86444 18.7686 4.77093C18.7063 4.67222 18.5764 4.64624 18.4777 4.71378C18.3841 4.78132 18.3582 4.9112 18.4205 5.00471C18.4621 5.06706 18.5296 5.09823 18.5972 5.09823ZM18.727 15.6341C18.6283 15.5718 18.4984 15.5926 18.4309 15.6913C18.3686 15.7848 18.3945 15.9199 18.4881 15.9822C18.5244 16.0082 18.566 16.0186 18.6075 16.0186C18.6751 16.0186 18.7426 15.9874 18.779 15.9251C18.8465 15.8315 18.8205 15.7017 18.727 15.6341ZM16.9555 17.4005C16.8723 17.4784 16.8671 17.6135 16.9451 17.6966C16.9866 17.7434 17.0438 17.7694 17.1009 17.7694C17.1477 17.7694 17.1996 17.7486 17.2412 17.7122C17.3295 17.6343 17.3347 17.4992 17.2568 17.4161C17.1737 17.3278 17.0438 17.3226 16.9555 17.4005ZM17.8906 4.17868C17.9426 4.17868 17.9893 4.16309 18.0309 4.13192C18.1192 4.05399 18.1296 3.91891 18.0517 3.8306C17.9737 3.74747 17.8438 3.73708 17.7555 3.80982C17.6672 3.88774 17.6568 4.02282 17.7347 4.10594C17.7763 4.1579 17.8335 4.17868 17.8906 4.17868ZM19.1894 6.09051C19.2206 6.09051 19.2517 6.08532 19.2829 6.06973C19.3868 6.01259 19.4284 5.8879 19.3764 5.784C19.3193 5.68009 19.1946 5.64373 19.0907 5.69568C18.9868 5.74763 18.9452 5.87232 19.0024 5.97622C19.0387 6.04895 19.1115 6.09051 19.1894 6.09051ZM17.7451 16.59C17.6724 16.6784 17.6776 16.8082 17.7659 16.8862C17.8075 16.9225 17.8542 16.9381 17.9062 16.9381C17.9633 16.9381 18.0205 16.9121 18.062 16.8654C18.14 16.7771 18.1296 16.642 18.0413 16.5693C17.9529 16.4913 17.8231 16.5017 17.7451 16.59ZM20.2284 11.3013C20.1142 11.2857 20.0102 11.3689 19.9947 11.4831C19.9791 11.6026 20.0622 11.7065 20.1765 11.7169C20.1869 11.7221 20.1973 11.7221 20.2025 11.7221C20.3064 11.7221 20.3999 11.6442 20.4103 11.5351C20.4259 11.4208 20.3427 11.3169 20.2284 11.3013ZM19.2933 14.6263C19.1894 14.5743 19.0595 14.6159 19.0076 14.7146V14.7198C18.9556 14.8185 18.9972 14.9484 19.1011 15.0003C19.1323 15.0159 19.1634 15.0211 19.1946 15.0211C19.2725 15.0211 19.3453 14.9795 19.3816 14.9068C19.4388 14.8081 19.3972 14.6782 19.2933 14.6263ZM20.0518 12.4443C19.9375 12.4183 19.8232 12.4858 19.7972 12.6001C19.7713 12.7144 19.8388 12.8235 19.9531 12.8547C19.9687 12.8547 19.9843 12.8599 19.9999 12.8599C20.0934 12.8599 20.1817 12.7923 20.2025 12.6988C20.2336 12.5845 20.1609 12.4702 20.0518 12.4443ZM20.483 10.335C20.483 10.2207 20.3843 10.1272 20.27 10.1272C20.1557 10.1272 20.0622 10.2207 20.0622 10.335V10.3558C20.0622 10.4701 20.1557 10.5636 20.27 10.5636C20.3895 10.5636 20.483 10.4701 20.483 10.3558C20.483 10.3506 20.483 10.3506 20.483 10.3454C20.483 10.3402 20.483 10.3402 20.483 10.335ZM19.7349 13.556C19.6258 13.5197 19.5063 13.5716 19.4648 13.6807C19.4232 13.7898 19.4803 13.9093 19.5894 13.9509C19.6154 13.9613 19.6362 13.9665 19.6622 13.9665C19.7505 13.9665 19.8284 13.9145 19.8596 13.8262C19.9011 13.7171 19.844 13.5976 19.7349 13.556ZM19.657 7.15034C19.683 7.15034 19.7037 7.14514 19.7297 7.13475C19.8388 7.09319 19.896 6.9737 19.8544 6.8646C19.8128 6.7555 19.6933 6.69835 19.5842 6.73992C19.4751 6.78148 19.418 6.90097 19.4596 7.01007C19.4907 7.09839 19.5687 7.15034 19.657 7.15034ZM14.0877 1.49795C14.1085 1.50833 14.1397 1.51353 14.1656 1.51353C14.2488 1.51353 14.3267 1.46158 14.3579 1.37846C14.4046 1.27455 14.3475 1.14987 14.2436 1.1083C14.1345 1.06155 14.0098 1.1135 13.9682 1.2226C13.9267 1.3317 13.9786 1.45119 14.0877 1.49795ZM11.9265 19.8007C11.8122 19.8215 11.7291 19.9254 11.7499 20.0397C11.7654 20.1436 11.8538 20.2215 11.9577 20.2215C11.9681 20.2215 11.9784 20.2215 11.9888 20.2163C12.1031 20.2007 12.1811 20.0968 12.1655 19.9773C12.1447 19.863 12.0408 19.7851 11.9265 19.8007ZM13.0123 1.13428C13.0331 1.13948 13.0487 1.14467 13.0694 1.14467C13.1578 1.14467 13.2461 1.08233 13.2721 0.988814C13.298 0.87452 13.2357 0.760224 13.1214 0.729054C13.0123 0.697882 12.8928 0.765421 12.8668 0.879715C12.8357 0.988814 12.898 1.1083 13.0123 1.13428ZM11.9057 0.905691C11.9161 0.905691 11.9265 0.905691 11.9369 0.905691C12.0356 0.905691 12.1291 0.832958 12.1447 0.729054C12.1603 0.614758 12.0824 0.50566 11.9681 0.490074C11.8486 0.474489 11.7447 0.552416 11.7291 0.666711C11.7083 0.781005 11.7914 0.890106 11.9057 0.905691ZM13.0331 19.5721C12.9188 19.6033 12.8564 19.7176 12.8824 19.8267C12.9084 19.9202 12.9967 19.9825 13.085 19.9825C13.1058 19.9825 13.1266 19.9825 13.1422 19.9773C13.2565 19.9461 13.3188 19.8319 13.2928 19.7176C13.2617 19.6033 13.1422 19.5409 13.0331 19.5721ZM10.7991 19.9046C10.6796 19.9046 10.5913 20.0033 10.5965 20.1176C10.5965 20.2319 10.69 20.3254 10.8043 20.3254C10.8043 20.3254 10.8095 20.3254 10.8095 20.3202C10.929 20.3202 11.0173 20.2215 11.0121 20.1072C11.0121 19.9929 10.9134 19.8994 10.7991 19.9046ZM10.7784 0.806982H10.7835C10.8978 0.806982 10.9914 0.718662 10.9914 0.604368C10.9966 0.490073 10.903 0.391366 10.7887 0.386169C10.6745 0.386169 10.5757 0.474489 10.5757 0.593978C10.5705 0.708273 10.6641 0.806982 10.7784 0.806982ZM14.1033 19.2084C13.9942 19.25 13.9422 19.3747 13.989 19.4838C14.0202 19.5617 14.0981 19.6137 14.1812 19.6137C14.2072 19.6137 14.2384 19.6085 14.2643 19.5981C14.3682 19.5513 14.4202 19.4318 14.3786 19.3227C14.3319 19.2136 14.2124 19.1617 14.1033 19.2084ZM15.1216 18.7201C15.0228 18.7772 14.9865 18.9019 15.0436 19.0058C15.08 19.0734 15.1527 19.1149 15.2255 19.1149C15.2618 19.1149 15.293 19.1045 15.3294 19.0889C15.4281 19.0318 15.4644 18.9019 15.4073 18.8032C15.3553 18.6993 15.2255 18.6629 15.1216 18.7201ZM9.66658 19.8682C9.55228 19.8578 9.44838 19.9461 9.43799 20.0604C9.4276 20.1747 9.51592 20.2786 9.63021 20.289C9.63541 20.289 9.6406 20.289 9.65099 20.289C9.7549 20.289 9.84841 20.2059 9.8588 20.0968C9.86919 19.9825 9.78087 19.8786 9.66658 19.8682ZM16.0671 2.58375C16.1034 2.60972 16.145 2.62531 16.1866 2.62531C16.2541 2.62531 16.3165 2.59414 16.358 2.53699C16.4256 2.44347 16.4048 2.31359 16.3113 2.24606C16.2177 2.17852 16.0827 2.1993 16.0151 2.29281C15.9476 2.38633 15.9684 2.51621 16.0671 2.58375ZM15.106 1.9811C15.1371 2.00188 15.1735 2.00708 15.2099 2.00708C15.2826 2.00708 15.3553 1.97071 15.3917 1.89798C15.4489 1.79927 15.4125 1.66939 15.3086 1.61224C15.2099 1.56029 15.08 1.59666 15.0228 1.69536C14.9709 1.79927 15.0073 1.92395 15.106 1.9811ZM16.0775 18.1174C15.984 18.185 15.9632 18.3149 16.0307 18.4084C16.0723 18.4655 16.1346 18.4967 16.2022 18.4967C16.2437 18.4967 16.2853 18.4811 16.3268 18.4551C16.4204 18.3876 16.4411 18.2577 16.3736 18.1642C16.3061 18.0707 16.1762 18.0499 16.0775 18.1174Z" fill="#07664D"/>
</g>
<mask id="mask1_170_56" style="mask-type:luminance" maskUnits="userSpaceOnUse" x="1" y="1" width="18" height="18">
<path d="M1.74905 1.5863H18.8517V18.6889H1.74905V1.5863Z" fill="white"/>
</mask>
<g mask="url(#mask1_170_56)">
<mask id="mask2_170_56" style="mask-type:luminance" maskUnits="userSpaceOnUse" x="1" y="1" width="18" height="18">
<path d="M10.3004 1.5863C5.57793 1.5863 1.74905 5.41518 1.74905 10.1376C1.74905 14.8601 5.57793 18.6889 10.3004 18.6889C15.0228 18.6889 18.8517 14.8601 18.8517 10.1376C18.8517 5.41518 15.0228 1.5863 10.3004 1.5863Z" fill="white"/>
</mask>
<g mask="url(#mask2_170_56)">
<path d="M1.74905 1.5863H18.8517V18.6889H1.74905V1.5863Z" fill="#07664D"/>
</g>
</g>
<mask id="mask3_170_56" style="mask-type:luminance" maskUnits="userSpaceOnUse" x="6" y="3" width="9" height="13">
<path d="M6.52347 3.71631H14.4981V15.6809H6.52347V3.71631Z" fill="white"/>
</mask>
<g mask="url(#mask3_170_56)">
<path d="M10.5134 3.71631C10.0043 3.71631 9.5211 3.80982 9.05353 4.00205C8.59115 4.18907 8.17554 4.45403 7.82226 4.80211C7.46379 5.14499 7.18845 5.54502 6.99622 5.99701C6.804 6.44899 6.70529 6.92176 6.70529 7.41011C6.70529 8.64137 7.98851 10.7039 9.01716 12.1585H8.05085L7.14688 15.6809H13.8747L12.9707 12.1585H12.0044C13.0331 10.7039 14.3163 8.64137 14.3163 7.41011C14.3163 6.92176 14.2228 6.44899 14.0253 5.99701C13.8331 5.54502 13.5578 5.14499 13.1993 4.80211C12.846 4.45403 12.4356 4.18907 11.968 4.00205C11.5005 3.80982 11.0173 3.71631 10.5134 3.71631ZM12.4044 12.8651L12.9499 14.9743H8.07683L8.61713 12.8651H9.5159C9.86398 13.3378 10.1341 13.6755 10.2432 13.7846L10.5342 14.1431L10.8251 13.7846C10.9082 13.6755 11.1784 13.3378 11.5472 12.8651H12.4044ZM10.5134 12.9846C9.44317 11.5923 7.42743 8.69852 7.42743 7.41011C7.42743 7.01527 7.50535 6.63082 7.66641 6.26716C7.82226 5.8983 8.04046 5.57619 8.33139 5.29565C8.62233 5.01511 8.95482 4.80211 9.33407 4.64625C9.70813 4.49559 10.103 4.41766 10.5134 4.41766C10.9186 4.41766 11.3134 4.49559 11.6927 4.64625C12.0668 4.80211 12.3992 5.01511 12.6902 5.29565C12.9811 5.57619 13.2045 5.8983 13.3604 6.26716C13.5162 6.63082 13.5941 7.01527 13.5941 7.41011C13.5941 8.69852 11.5784 11.5923 10.5134 12.9846Z" fill="white"/>
</g>
<path d="M10.5134 6.17883C10.3212 6.17883 10.1341 6.2152 9.95749 6.28793C9.78085 6.35547 9.6198 6.45937 9.48472 6.58925C9.34965 6.72433 9.24574 6.87499 9.17301 7.04643C9.10028 7.22307 9.05872 7.39971 9.05872 7.58674C9.05872 7.77376 9.10028 7.9504 9.17301 8.12704C9.24574 8.29848 9.34965 8.44914 9.48472 8.58422C9.6198 8.7141 9.78085 8.818 9.95749 8.88554C10.1341 8.95827 10.3212 8.99464 10.5134 8.99464C10.7056 8.99464 10.8874 8.95827 11.0641 8.88554C11.2459 8.818 11.4018 8.7141 11.5368 8.58422C11.6719 8.44914 11.7758 8.29848 11.8537 8.12704C11.9265 7.9504 11.9628 7.77376 11.9628 7.58674C11.9628 7.39971 11.9265 7.22307 11.8537 7.04643C11.7758 6.87499 11.6719 6.72433 11.5368 6.58925C11.4018 6.45937 11.2459 6.35547 11.0641 6.28793C10.8874 6.2152 10.7056 6.17883 10.5134 6.17883ZM10.5134 8.28809C10.3108 8.28809 10.1393 8.22055 9.99905 8.08548C9.85878 7.94521 9.78605 7.77896 9.78605 7.58674C9.78605 7.39451 9.85878 7.22827 9.99905 7.088C10.1393 6.95292 10.3108 6.88538 10.5134 6.88538C10.7108 6.88538 10.8822 6.95292 11.0225 7.088C11.168 7.22827 11.2355 7.39451 11.2355 7.58674C11.2355 7.77896 11.168 7.94521 11.0225 8.08548C10.8822 8.22055 10.7108 8.28809 10.5134 8.28809Z" fill="white"/>
</svg>
