<svg width="13" height="11" viewBox="0 0 13 11" fill="none" xmlns="http://www.w3.org/2000/svg">
<path fill-rule="evenodd" clip-rule="evenodd" d="M3.05902 3.7113V4.86464C3.05902 5.76341 3.6201 6.73492 4.66954 6.73492C5.65143 6.73492 6.25927 5.81017 6.25927 4.93218V3.7113H3.05902Z" fill="white"/>
<path fill-rule="evenodd" clip-rule="evenodd" d="M4.64356 7.07779C3.38632 7.07779 2.70575 5.92445 2.70575 4.86463V3.52946C2.70575 3.43595 2.77848 3.36841 2.89278 3.36841H6.42033C6.53982 3.36841 6.60736 3.43595 6.60736 3.52946V4.93217C6.60736 5.97121 5.85924 7.07779 4.64356 7.07779Z" fill="white"/>
<mask id="mask0_170_57" style="mask-type:luminance" maskUnits="userSpaceOnUse" x="0" y="1" width="9" height="4">
<path d="M0.788727 1.68512H8.46725V4.34507H0.788727V1.68512Z" fill="white"/>
</mask>
<g mask="url(#mask0_170_57)">
<path fill-rule="evenodd" clip-rule="evenodd" d="M7.86979 3.71126H1.44331C1.32902 3.71126 1.25629 3.61774 1.25629 3.52942V2.906C1.25629 2.46441 1.63034 2.12152 2.05115 2.12152H7.24117C7.68277 2.12152 8.03604 2.46441 8.03604 2.906V3.52942C8.05682 3.61774 7.98928 3.71126 7.86979 3.71126Z" fill="white"/>
</g>
<mask id="mask1_170_57" style="mask-type:luminance" maskUnits="userSpaceOnUse" x="3" y="0" width="5" height="4">
<path d="M3.14737 0.921448H7.13729V3.01512H3.14737V0.921448Z" fill="white"/>
</mask>
<g mask="url(#mask1_170_57)">
<path fill-rule="evenodd" clip-rule="evenodd" d="M3.43311 1.79944L3.71365 1.01496C3.7604 0.942228 3.80716 0.921448 3.8747 0.921448H5.43846C5.51119 0.921448 5.57873 0.942228 5.6047 1.01496L5.90603 1.79944H3.43311Z" fill="white"/>
</g>
<mask id="mask2_170_57" style="mask-type:luminance" maskUnits="userSpaceOnUse" x="0" y="7" width="10" height="4">
<path d="M0.788727 7.005H9.79723V10.8858H0.788727V7.005Z" fill="white"/>
</mask>
<g mask="url(#mask2_170_57)">
<path fill-rule="evenodd" clip-rule="evenodd" d="M8.59713 10.8858H7.16845L7.21521 7.95569C7.8698 8.21025 8.38413 8.71938 8.50362 9.31683L8.75818 10.704C8.75818 10.7455 8.75818 10.7923 8.71143 10.839C8.69065 10.8858 8.64389 10.8858 8.59713 10.8858ZM6.82037 10.8858H2.54471L2.59147 8.53236C2.75252 8.74017 2.9863 8.90122 3.22009 9.01551C3.66687 9.20254 4.1812 9.29605 4.64358 9.29605C5.13712 9.29605 5.65145 9.20254 6.09304 9.01551C6.44631 8.85446 6.74764 8.5999 6.88791 8.23103L6.82037 10.8858ZM2.19143 10.8858H0.954974C0.908217 10.8858 0.861459 10.8858 0.835484 10.839C0.814703 10.7923 0.788727 10.7455 0.788727 10.704L1.04849 9.31683C1.16278 8.74017 1.63035 8.23103 2.26417 7.95569L2.19143 10.8858Z" fill="white"/>
</g>
<path fill-rule="evenodd" clip-rule="evenodd" d="M4.64359 8.97404C3.5474 8.97404 2.73175 8.53245 2.73175 7.95578C2.73175 7.84148 2.79929 7.77395 2.8928 7.77395H3.19932L3.47986 7.05701C3.80716 7.26482 4.202 7.40509 4.64359 7.40509C5.09038 7.40509 5.48521 7.26482 5.83849 7.05701L6.11903 7.77395H6.42035C6.51387 7.77395 6.60738 7.84148 6.60738 7.95578C6.60738 8.53245 5.76576 8.97404 4.64359 8.97404Z" fill="white"/>
<path fill-rule="evenodd" clip-rule="evenodd" d="M9.9479 4.79706C9.59982 4.79706 9.24654 4.65679 8.99198 4.4282C8.69066 4.1061 8.55039 3.64373 8.6439 3.20213C8.6439 3.1346 8.71144 3.08784 8.75819 3.06706C9.19979 2.97354 9.66736 3.11382 10.0206 3.43592C10.322 3.73724 10.4622 4.19442 10.3687 4.63601C10.3687 4.70355 10.3012 4.75031 10.2544 4.77109C10.1349 4.79707 10.0414 4.79706 9.9479 4.79706Z" fill="white"/>
<path fill-rule="evenodd" clip-rule="evenodd" d="M10.2077 9.15587C10.1141 9.15587 10.0206 9.08833 10.0206 8.99482V4.58927C10.0206 4.49576 10.1141 4.42822 10.2077 4.42822C10.3012 4.42822 10.3687 4.49576 10.3687 4.58927V8.99482C10.3687 9.10911 10.3012 9.15587 10.2077 9.15587Z" fill="white"/>
<mask id="mask3_170_57" style="mask-type:luminance" maskUnits="userSpaceOnUse" x="9" y="3" width="4" height="3">
<path d="M9.79724 3.01514H12.7533V5.67509H9.79724V3.01514Z" fill="white"/>
</mask>
<g mask="url(#mask3_170_57)">
<path fill-rule="evenodd" clip-rule="evenodd" d="M11.4233 5.55563C11.1896 5.55563 10.9766 5.4881 10.7687 5.39458C10.722 5.34783 10.6752 5.28029 10.6752 5.23353C10.722 4.77116 10.9766 4.35554 11.3766 4.15293C11.7714 3.94512 12.265 3.94512 12.6598 4.15293C12.7325 4.19449 12.7533 4.24125 12.7533 4.31398C12.7325 4.75038 12.452 5.16599 12.052 5.39458C11.8649 5.4881 11.6571 5.55563 11.4233 5.55563Z" fill="white"/>
</g>
<path fill-rule="evenodd" clip-rule="evenodd" d="M10.2076 5.76337C10.1609 5.76337 10.1349 5.74259 10.1141 5.74259C10.0206 5.67506 10.0206 5.55556 10.0674 5.50881C10.4154 5.05163 10.8363 5.07241 10.8622 5.07241C10.9557 5.09839 11.0233 5.16592 11.0233 5.25944C11.0025 5.34776 10.9298 5.42049 10.8363 5.42049C10.8155 5.42049 10.5557 5.39451 10.3219 5.69584C10.3011 5.74259 10.2544 5.76337 10.2076 5.76337Z" fill="white"/>
<path fill-rule="evenodd" clip-rule="evenodd" d="M9.19979 6.68815C8.966 6.68815 8.75819 6.62061 8.55039 6.5271C8.15035 6.29331 7.89579 5.90367 7.86981 5.4413C7.86981 5.37376 7.89579 5.327 7.94255 5.28025C8.33738 5.07244 8.83093 5.07244 9.24654 5.28025C9.64657 5.50884 9.90114 5.90367 9.9479 6.36605C9.9479 6.4128 9.90114 6.48034 9.85438 6.5271C9.64658 6.62061 9.43357 6.68815 9.19979 6.68815Z" fill="white"/>
<path fill-rule="evenodd" clip-rule="evenodd" d="M10.2077 6.66211C10.1817 6.66211 10.1349 6.66211 10.1141 6.64133C9.92711 6.52704 9.78684 6.52703 9.78684 6.52703C9.69333 6.52703 9.6206 6.4595 9.6206 6.36598C9.59982 6.27247 9.66735 6.17896 9.76087 6.17896C9.78685 6.17896 10.0414 6.17896 10.3012 6.36598C10.3687 6.41274 10.3947 6.50106 10.3479 6.59457C10.322 6.64133 10.2544 6.66211 10.2077 6.66211Z" fill="white"/>
<mask id="mask4_170_57" style="mask-type:luminance" maskUnits="userSpaceOnUse" x="9" y="5" width="4" height="4">
<path d="M9.79724 5.67505H12.7533V8.335H9.79724V5.67505Z" fill="white"/>
</mask>
<g mask="url(#mask4_170_57)">
<path fill-rule="evenodd" clip-rule="evenodd" d="M11.1428 7.79469C10.909 7.79469 10.696 7.72716 10.4882 7.63364C10.4414 7.61286 10.4155 7.54013 10.4155 7.47259C10.4414 7.03619 10.696 6.62057 11.096 6.41277C11.5169 6.17898 11.9844 6.17898 12.4052 6.41277C12.452 6.43355 12.4987 6.50108 12.4728 6.54784C12.452 7.01022 12.1922 7.42583 11.7974 7.63364C11.5844 7.72716 11.3506 7.79469 11.1428 7.79469Z" fill="white"/>
</g>
<path fill-rule="evenodd" clip-rule="evenodd" d="M10.2077 7.74794C10.1349 7.74794 10.0882 7.72716 10.0674 7.6804C10.0206 7.61287 10.0414 7.49338 10.1141 7.44662C10.3479 7.31155 10.5557 7.31154 10.6025 7.33233C10.696 7.33233 10.7687 7.40506 10.7428 7.49338C10.7428 7.61287 10.6492 7.6804 10.5557 7.65443C10.5557 7.65443 10.4414 7.65443 10.3012 7.72716C10.2544 7.74794 10.2284 7.74794 10.2077 7.74794Z" fill="white"/>
</svg>
