<svg width="21" height="21" viewBox="0 0 21 21" fill="none" xmlns="http://www.w3.org/2000/svg">
<mask id="mask0_170_65" style="mask-type:luminance" maskUnits="userSpaceOnUse" x="0" y="0" width="21" height="21">
<path d="M0.149414 0.581543H20.0886V20.5208H0.149414V0.581543Z" fill="white"/>
</mask>
<g mask="url(#mask0_170_65)">
<path d="M3.79125 3.11682C3.71852 3.02331 3.72891 2.89343 3.82242 2.8207C3.91074 2.74796 4.04581 2.75835 4.11855 2.85187C4.19128 2.94019 4.17569 3.07007 4.08738 3.1428C4.04581 3.17917 3.99906 3.19475 3.9523 3.19475C3.89515 3.19475 3.83281 3.16358 3.79125 3.11682ZM4.10296 17.9751C4.00945 17.9024 3.87957 17.918 3.80683 18.0063C3.7341 18.0946 3.74449 18.2297 3.83801 18.3024C3.87437 18.3336 3.92113 18.3492 3.96789 18.3492C4.03023 18.3492 4.09257 18.3232 4.13413 18.2713C4.20687 18.1829 4.19128 18.0479 4.10296 17.9751ZM4.89263 2.51937C4.929 2.51937 4.97056 2.50379 5.00693 2.48301C5.10044 2.42066 5.13161 2.29078 5.06927 2.19208C5.00693 2.09337 4.87705 2.06739 4.77834 2.12973C4.67963 2.19208 4.65365 2.32196 4.716 2.42066C4.75236 2.48301 4.8251 2.51937 4.89263 2.51937ZM2.52881 16.3542C2.45608 16.2659 2.321 16.2451 2.23268 16.3179C2.13917 16.3854 2.12358 16.5205 2.19112 16.614C2.23268 16.6659 2.29503 16.6919 2.35737 16.6919C2.40413 16.6919 2.45088 16.6815 2.48725 16.6504C2.58076 16.5776 2.59635 16.4477 2.52881 16.3542ZM5.02251 18.6349C4.92381 18.5726 4.79393 18.6038 4.73158 18.7025C4.66924 18.8012 4.69522 18.9311 4.79393 18.9934C4.79393 18.9882 4.79393 18.9882 4.79393 18.9882C4.83029 19.0142 4.87185 19.0246 4.90822 19.0246C4.97576 19.0246 5.0433 18.9882 5.08486 18.9259C5.1472 18.8272 5.11603 18.6973 5.02251 18.6349ZM2.97041 17.2062C2.88728 17.2894 2.88209 17.4244 2.96521 17.5076C3.00677 17.5491 3.05872 17.5699 3.11587 17.5699C3.16782 17.5699 3.21978 17.5491 3.26134 17.5076C3.34446 17.4296 3.34446 17.2946 3.26653 17.2114C3.18341 17.1283 3.05353 17.1283 2.97041 17.2062ZM9.23064 1.04393C9.23583 1.04393 9.24622 1.04393 9.25142 1.04393C9.36571 1.03354 9.45403 0.929638 9.44364 0.815344C9.43325 0.695853 9.32935 0.61273 9.21505 0.623121C9.09556 0.633511 9.01244 0.737416 9.02283 0.85171C9.03322 0.960811 9.12673 1.04393 9.23064 1.04393ZM5.9057 1.95829C5.93168 1.95829 5.96285 1.9479 5.99402 1.93751C6.09793 1.88556 6.14468 1.76087 6.09273 1.65697C6.04078 1.55306 5.91609 1.50631 5.81219 1.55826C5.70828 1.60502 5.66153 1.7349 5.71348 1.8388C5.74985 1.91153 5.82258 1.95829 5.9057 1.95829ZM8.15003 19.9026C8.04093 19.8818 7.92664 19.9545 7.90586 20.0688C7.87988 20.1779 7.95262 20.2922 8.06691 20.313C8.0825 20.3182 8.09289 20.3182 8.10847 20.3182C8.20718 20.3182 8.2955 20.2506 8.31628 20.1519C8.33706 20.0376 8.26433 19.9285 8.15003 19.9026ZM8.08769 1.21538C8.10328 1.21538 8.11886 1.21018 8.13445 1.21018C8.24355 1.1842 8.31628 1.0751 8.2955 0.96081C8.26952 0.846514 8.16043 0.773782 8.04613 0.799758C7.93184 0.820539 7.8591 0.934833 7.88508 1.04913C7.90586 1.14784 7.98898 1.21538 8.08769 1.21538ZM6.97592 1.52189C6.9967 1.52189 7.01748 1.5167 7.04345 1.50631C7.15255 1.46994 7.2097 1.35045 7.17333 1.24135C7.13697 1.13225 7.01748 1.0751 6.90838 1.11147C6.79408 1.14784 6.73694 1.26733 6.7733 1.37643C6.80447 1.46475 6.8876 1.52189 6.97592 1.52189ZM6.00961 19.1804C5.9057 19.1337 5.78102 19.1752 5.72906 19.2791C5.68231 19.3882 5.72387 19.5129 5.82777 19.5597C5.85894 19.5753 5.89012 19.5805 5.92129 19.5805C5.99922 19.5805 6.07714 19.5389 6.10831 19.461C6.16027 19.3571 6.11351 19.2324 6.00961 19.1804ZM3.10029 3.97403C3.15743 3.97403 3.21458 3.95325 3.25095 3.91169C3.33407 3.82857 3.33407 3.69349 3.25095 3.61556C3.16782 3.53244 3.03275 3.53244 2.94962 3.61556C2.8717 3.69869 2.8717 3.83376 2.95482 3.91689C2.99638 3.95325 3.04833 3.97403 3.10029 3.97403ZM1.08974 6.82101C1.11571 6.8314 1.14689 6.84179 1.17286 6.84179C1.25598 6.84179 1.33391 6.79504 1.36508 6.71191C1.41184 6.60801 1.36508 6.48332 1.26118 6.43657C1.15208 6.38981 1.0274 6.43657 0.980638 6.54566C0.933882 6.64957 0.985835 6.77425 1.08974 6.82101ZM0.710487 7.9172C0.731268 7.9224 0.752049 7.9224 0.77283 7.9224C0.861149 7.9224 0.944272 7.86525 0.975443 7.77693C1.00661 7.66264 0.944273 7.54834 0.835172 7.51197C0.720878 7.4808 0.606582 7.54315 0.570216 7.65225C0.539044 7.76654 0.601388 7.88084 0.710487 7.9172ZM0.357212 10.1979C0.362409 10.1979 0.367603 10.1979 0.367603 10.1979C0.481897 10.1979 0.570217 10.1096 0.580607 10.0005C0.585802 9.88099 0.497484 9.78228 0.383189 9.77709C0.2637 9.77189 0.164989 9.86021 0.159794 9.97451C0.154599 10.0888 0.242918 10.1927 0.357212 10.1979ZM0.466312 9.04456C0.476703 9.04976 0.492289 9.04976 0.502678 9.04976C0.601388 9.04976 0.689706 8.97703 0.710487 8.87312C0.731268 8.75883 0.65334 8.64973 0.539045 8.63414C0.42475 8.61336 0.315651 8.68609 0.29487 8.80039C0.274089 8.91468 0.352018 9.02378 0.466312 9.04456ZM2.22229 4.80527C2.25866 4.83644 2.30542 4.85203 2.34698 4.85203C2.40932 4.85203 2.47166 4.82085 2.51323 4.7689C2.58596 4.67539 2.57037 4.54551 2.47686 4.47277C2.38335 4.40524 2.25346 4.42082 2.18073 4.51434C2.108 4.60785 2.12878 4.73773 2.22229 4.80527ZM19.5951 9.40303C19.6107 9.51213 19.699 9.59006 19.8029 9.59006C19.8133 9.59006 19.8237 9.59006 19.8289 9.59006C19.9432 9.57447 20.0263 9.47057 20.0159 9.35628C20.0003 9.24198 19.8964 9.15886 19.7821 9.16925C19.6678 9.18483 19.5847 9.28874 19.5951 9.40303ZM19.3977 8.29126C19.4185 8.38997 19.5068 8.45231 19.6003 8.45231C19.6159 8.45231 19.6315 8.45231 19.647 8.44711C19.7613 8.42114 19.8341 8.30684 19.8029 8.19255C19.7769 8.07825 19.6626 8.01072 19.5483 8.03669C19.4392 8.06786 19.3665 8.17696 19.3977 8.29126ZM1.59367 5.78197C1.63004 5.80275 1.66641 5.80794 1.70277 5.80794C1.77551 5.80794 1.84304 5.77158 1.88461 5.70924C1.94175 5.60533 1.91058 5.48065 1.80668 5.4183C1.70797 5.36116 1.57809 5.39233 1.52094 5.49104C1.46379 5.59494 1.49496 5.71963 1.59367 5.78197ZM1.60406 15.3464C1.50535 15.4035 1.47418 15.5334 1.53133 15.6321C1.57289 15.6996 1.64043 15.736 1.71316 15.736C1.74953 15.736 1.7859 15.7256 1.81707 15.7048C1.92097 15.6477 1.95214 15.5178 1.895 15.4191C1.83265 15.3204 1.70277 15.284 1.60406 15.3464ZM0.383189 11.3512C0.497484 11.346 0.585802 11.2473 0.580607 11.133C0.575412 11.0135 0.471508 10.9252 0.357212 10.9356C0.242918 10.9408 0.154599 11.0395 0.159794 11.1538C0.164989 11.2681 0.258503 11.3512 0.372798 11.3512C0.372798 11.3512 0.377994 11.3512 0.383189 11.3512ZM1.10013 14.3073C0.991029 14.3541 0.944272 14.4788 0.991029 14.5827C1.0274 14.6606 1.10013 14.7073 1.18325 14.7073C1.20923 14.7073 1.2404 14.7022 1.26637 14.6918C1.37547 14.645 1.42223 14.5203 1.37547 14.4112C1.32872 14.3073 1.20403 14.2606 1.10013 14.3073ZM0.980638 13.3514C0.944273 13.2423 0.829978 13.18 0.715682 13.2163C0.606583 13.2475 0.544239 13.367 0.575411 13.4761C0.606582 13.5696 0.689705 13.6267 0.778025 13.6267C0.798804 13.6267 0.819588 13.6215 0.840367 13.6164C0.949468 13.58 1.01181 13.4657 0.980638 13.3514ZM0.715682 12.2552C0.694903 12.1409 0.585801 12.063 0.471507 12.0838C0.357212 12.1045 0.279286 12.2136 0.300065 12.3279C0.320847 12.4318 0.409166 12.4994 0.507874 12.4994C0.518265 12.4994 0.53385 12.4994 0.54424 12.4994C0.658536 12.4786 0.736464 12.3695 0.715682 12.2552ZM7.05904 19.6064C6.94994 19.5701 6.83045 19.6272 6.79408 19.7415C6.75772 19.8506 6.81486 19.9701 6.92396 20.0065C6.94994 20.0117 6.97072 20.0169 6.9915 20.0169C7.07982 20.0169 7.16294 19.9597 7.19411 19.8714C7.23048 19.7623 7.16814 19.6428 7.05904 19.6064ZM16.691 3.55322C16.7481 3.55322 16.8053 3.52725 16.8468 3.48049C16.9247 3.39737 16.9196 3.26229 16.8312 3.18436C16.7481 3.10643 16.613 3.11163 16.5351 3.19995C16.4572 3.28307 16.4624 3.41815 16.5507 3.49607C16.5871 3.53244 16.639 3.55322 16.691 3.55322ZM18.2028 5.29881C18.2443 5.29881 18.2807 5.28323 18.3171 5.26245C18.4158 5.19491 18.4418 5.06503 18.3742 4.96632C18.3119 4.87281 18.1768 4.84683 18.0833 4.91437C17.9846 4.97671 17.9638 5.10659 18.0261 5.2053C18.0677 5.26245 18.1352 5.29881 18.2028 5.29881ZM18.3275 15.8347C18.2339 15.7672 18.1041 15.7931 18.0365 15.8919C17.9742 15.9854 17.995 16.1152 18.0937 16.1828C18.13 16.2036 18.1716 16.2192 18.2132 16.2192C18.2807 16.2192 18.343 16.188 18.3846 16.1256C18.4521 16.0269 18.4262 15.897 18.3275 15.8347ZM16.5611 17.6011C16.478 17.679 16.4728 17.8141 16.5507 17.8972C16.5923 17.944 16.6494 17.9647 16.7066 17.9647C16.7533 17.9647 16.8053 17.9492 16.8468 17.9128C16.9299 17.8349 16.9351 17.6998 16.8572 17.6115C16.7793 17.5283 16.6494 17.5232 16.5611 17.6011ZM17.4962 4.37926C17.5482 4.37926 17.5949 4.36368 17.6365 4.32731C17.7248 4.25457 17.73 4.1195 17.6573 4.03118C17.5793 3.94286 17.4495 3.93247 17.3611 4.0104C17.2728 4.08833 17.2624 4.21821 17.3404 4.30653C17.3819 4.35328 17.4391 4.37926 17.4962 4.37926ZM18.7898 6.2911C18.8262 6.2911 18.8574 6.28071 18.8885 6.26512C18.9924 6.21317 19.034 6.08848 18.9769 5.98458C18.9249 5.88068 18.8002 5.83912 18.6963 5.89107C18.5924 5.94822 18.5509 6.0729 18.6028 6.17681C18.6444 6.24954 18.7171 6.2911 18.7898 6.2911ZM17.3508 16.7906C17.2728 16.8789 17.2832 17.0088 17.3715 17.0868C17.4131 17.1179 17.4599 17.1387 17.5118 17.1387C17.569 17.1387 17.6261 17.1127 17.6677 17.066C17.7456 16.9777 17.7352 16.8426 17.6469 16.7647C17.5586 16.6919 17.4235 16.7023 17.3508 16.7906ZM19.8341 11.5019C19.7146 11.4863 19.6107 11.5694 19.6003 11.6837C19.5847 11.798 19.6678 11.9019 19.7821 11.9175C19.7925 11.9175 19.7977 11.9175 19.8081 11.9175C19.912 11.9175 20.0055 11.8396 20.0159 11.7357C20.0315 11.6162 19.9484 11.5123 19.8341 11.5019ZM18.8989 14.8268C18.795 14.7697 18.6651 14.8113 18.6132 14.9152C18.5612 15.0191 18.6028 15.1437 18.7067 15.2009C18.7327 15.2165 18.7691 15.2217 18.8002 15.2217C18.8781 15.2217 18.9509 15.1801 18.9872 15.1074C19.0392 15.0035 18.9976 14.8788 18.8989 14.8268ZM19.6522 12.6448C19.5431 12.6137 19.4288 12.6864 19.4029 12.7955C19.3717 12.9098 19.4444 13.0241 19.5535 13.0501C19.5743 13.0553 19.5899 13.0553 19.6055 13.0553C19.699 13.0553 19.7873 12.9929 19.8081 12.8942C19.8341 12.7851 19.7665 12.6708 19.6522 12.6448ZM20.0834 10.5356C20.0834 10.4161 19.9899 10.3226 19.8756 10.3226C19.7561 10.3226 19.6626 10.4161 19.6678 10.5356V10.5564C19.6678 10.6707 19.7613 10.7642 19.8756 10.7642C19.9899 10.7642 20.0834 10.6707 20.0834 10.5564C20.0834 10.5512 20.0834 10.546 20.0834 10.546C20.0834 10.5408 20.0834 10.5356 20.0834 10.5356ZM19.3405 13.7566C19.2314 13.7151 19.1119 13.7722 19.0704 13.8813C19.0288 13.9904 19.086 14.1099 19.1951 14.1515C19.2158 14.1618 19.2418 14.1618 19.2678 14.1618C19.3509 14.1618 19.434 14.1099 19.4652 14.0268C19.5068 13.9177 19.4496 13.7982 19.3405 13.7566ZM19.2626 7.34573C19.2834 7.34573 19.3094 7.34053 19.3353 7.33534C19.4444 7.29378 19.4964 7.17429 19.4548 7.06519C19.4185 6.95609 19.2938 6.89894 19.1847 6.9405C19.0756 6.98206 19.0236 7.10155 19.0652 7.21065C19.0963 7.29378 19.1743 7.34573 19.2626 7.34573ZM13.6881 1.69333C13.7141 1.70373 13.7401 1.70892 13.7661 1.70892C13.8492 1.70892 13.9323 1.66216 13.9635 1.57904C14.005 1.46994 13.9531 1.35045 13.8492 1.30369C13.7401 1.26213 13.6154 1.31408 13.5738 1.42318C13.5323 1.52709 13.5842 1.65177 13.6881 1.69333ZM11.5269 20.0013C11.4126 20.0169 11.3347 20.126 11.3503 20.2402C11.3659 20.3442 11.4594 20.4221 11.5581 20.4221C11.5685 20.4221 11.5789 20.4169 11.5893 20.4169C11.7036 20.4013 11.7867 20.2922 11.7659 20.1779C11.7503 20.0636 11.6464 19.9857 11.5269 20.0013ZM12.6179 1.33487C12.6335 1.34006 12.6543 1.34006 12.6699 1.34006C12.7634 1.34006 12.8517 1.28291 12.8725 1.1894C12.9037 1.0751 12.8413 0.96081 12.727 0.929638C12.6127 0.898468 12.4984 0.966005 12.4673 1.0751C12.4361 1.1894 12.5036 1.30369 12.6179 1.33487ZM11.5113 1.10628C11.5217 1.10628 11.5321 1.10628 11.5373 1.10628C11.6412 1.10628 11.7347 1.03354 11.7451 0.929638C11.7659 0.810148 11.6828 0.706245 11.5685 0.690659C11.4542 0.669878 11.3503 0.753002 11.3295 0.867296C11.3139 0.981591 11.397 1.09069 11.5113 1.10628ZM12.6387 19.7675C12.5244 19.7987 12.4569 19.913 12.488 20.0272C12.514 20.1208 12.5971 20.1831 12.6907 20.1831C12.7114 20.1831 12.727 20.1779 12.7478 20.1727C12.8569 20.1415 12.9244 20.0272 12.8933 19.9181C12.8621 19.8039 12.7478 19.7363 12.6387 19.7675ZM10.4048 20.1C10.2853 20.1052 10.1969 20.2039 10.1969 20.3182C10.2021 20.4325 10.2957 20.5208 10.41 20.5208H10.4151C10.5294 20.5156 10.623 20.4221 10.6178 20.3026C10.6178 20.1883 10.5191 20.1 10.4048 20.1ZM10.384 1.00757H10.3892C10.5035 1.00757 10.597 0.919249 10.597 0.804953C10.6022 0.685463 10.5087 0.591949 10.3944 0.586754C10.2801 0.581559 10.1814 0.675072 10.1762 0.789368C10.1762 0.908857 10.2645 1.00237 10.384 1.00757ZM13.7089 19.4038C13.5998 19.4506 13.5479 19.5701 13.5946 19.6792C13.6258 19.7623 13.7037 19.809 13.7868 19.809C13.8128 19.809 13.8388 19.809 13.8648 19.7935C13.9739 19.7519 14.0258 19.6272 13.9843 19.5233C13.9375 19.4142 13.818 19.3623 13.7089 19.4038ZM14.7272 18.9207C14.6285 18.9778 14.5921 19.1025 14.6441 19.2064C14.6856 19.2739 14.7583 19.3155 14.8311 19.3155C14.8622 19.3155 14.8986 19.3051 14.9298 19.2895C15.0337 19.2324 15.0701 19.1025 15.0129 19.0038C14.9558 18.8999 14.8311 18.8635 14.7272 18.9207ZM9.2722 20.0688C9.15791 20.0584 9.054 20.1467 9.04361 20.261C9.03322 20.3753 9.12154 20.4792 9.23583 20.4896C9.24103 20.4896 9.24622 20.4896 9.25142 20.4896C9.36052 20.4896 9.45403 20.4065 9.46442 20.2974C9.47481 20.1831 9.3865 20.0792 9.2722 20.0688ZM15.6675 2.78433C15.7039 2.81031 15.7506 2.82589 15.7922 2.82589C15.8545 2.82589 15.9221 2.79472 15.9636 2.73757C16.0312 2.64406 16.0104 2.50898 15.9117 2.44145C15.8182 2.37391 15.6883 2.39469 15.6208 2.4934C15.5532 2.58691 15.574 2.71679 15.6675 2.78433ZM14.7116 2.18168C14.7428 2.19727 14.7791 2.20766 14.8155 2.20766C14.8882 2.20766 14.961 2.1661 14.9973 2.09856C15.0545 1.99466 15.0181 1.86997 14.9142 1.81282C14.8103 1.75568 14.6856 1.79204 14.6285 1.89595C14.5713 1.99985 14.6077 2.12454 14.7116 2.18168ZM15.6831 18.3128C15.5896 18.3804 15.5688 18.5154 15.6363 18.609C15.6779 18.6661 15.7402 18.6973 15.8078 18.6973C15.8493 18.6973 15.8909 18.6817 15.9273 18.6557C16.026 18.5882 16.0468 18.4583 15.9792 18.3648C15.9117 18.2661 15.7766 18.2453 15.6831 18.3128Z" fill="#07664D"/>
</g>
<mask id="mask1_170_65" style="mask-type:luminance" maskUnits="userSpaceOnUse" x="1" y="1" width="18" height="18">
<path d="M1.35471 1.78687H18.4573V18.8895H1.35471V1.78687Z" fill="white"/>
</mask>
<g mask="url(#mask1_170_65)">
<mask id="mask2_170_65" style="mask-type:luminance" maskUnits="userSpaceOnUse" x="1" y="1" width="18" height="18">
<path d="M9.90603 1.78687C5.18358 1.78687 1.35471 5.61574 1.35471 10.3382C1.35471 15.0606 5.18358 18.8895 9.90603 18.8895C14.6285 18.8895 18.4573 15.0606 18.4573 10.3382C18.4573 5.61574 14.6285 1.78687 9.90603 1.78687Z" fill="white"/>
</mask>
<g mask="url(#mask2_170_65)">
<path d="M1.35471 1.78687H18.4573V18.8895H1.35471V1.78687Z" fill="#07664D"/>
</g>
</g>
<mask id="mask3_170_65" style="mask-type:luminance" maskUnits="userSpaceOnUse" x="4" y="3" width="13" height="14">
<path d="M4.04581 3.87531H16.0104V16.8322H4.04581V3.87531Z" fill="white"/>
</mask>
<g mask="url(#mask3_170_65)">
<path d="M15.0025 10.7434C14.244 13.7254 12.5712 15.6269 10.0307 16.3958C7.49024 15.6269 5.81738 13.7306 5.05888 10.7538C4.58092 8.88868 4.63287 7.15868 4.66404 6.59759C7.03826 6.51966 9.02283 5.10657 10.0307 4.36885C11.0334 5.10137 13.0179 6.51966 15.3922 6.59759C15.4285 7.15868 15.4753 8.88349 15.0025 10.7434ZM15.8026 6.36381C15.7922 6.24951 15.6987 6.16639 15.5896 6.16639C13.2206 6.16639 11.2724 4.7429 10.2229 3.97921L10.1554 3.93245C10.0775 3.8753 9.97875 3.8753 9.90601 3.93245L9.84887 3.96881C8.87736 4.68575 6.84603 6.16639 4.46662 6.16639C4.35753 6.16639 4.26401 6.24951 4.25362 6.36381C4.24323 6.44693 4.04581 8.51463 4.63807 10.8525C5.43294 13.9696 7.27723 16.0373 9.96836 16.827C9.98914 16.8322 10.0099 16.8322 10.0307 16.8322C10.0515 16.8322 10.0671 16.8322 10.0878 16.827C12.7842 16.0373 14.6233 13.9696 15.4181 10.8525C16.0104 8.51463 15.813 6.44693 15.8026 6.36381Z" fill="white"/>
</g>
<path d="M12.3841 8.67566L9.64627 12.2707C9.57873 12.3643 9.46963 12.4266 9.35533 12.4422C9.33975 12.4422 9.31897 12.4422 9.30338 12.4422C9.20467 12.4422 9.10596 12.4058 9.02804 12.3435L7.6513 11.2057C7.46428 11.0499 7.4383 10.7745 7.58896 10.5875C7.73962 10.4057 8.01497 10.3745 8.1968 10.5303L9.23065 11.3824L11.6984 8.14575C11.8438 7.95352 12.1192 7.91715 12.3062 8.06262C12.4984 8.21328 12.5348 8.48343 12.3841 8.67566ZM10.0307 5.21045C9.10077 5.88583 7.41752 7.03397 5.39139 7.15865C5.33943 8.58734 5.43814 14.1462 10.0307 15.5749C14.6233 14.1462 14.7168 8.58734 14.6648 7.15865C12.6387 7.02877 10.9503 5.88063 10.0307 5.21045Z" fill="white"/>
</svg>
